<?xml version="1.0" encoding="utf-8"?>
<!-- Generator: Adobe Illustrator 19.0.0, SVG Export Plug-In . SVG Version: 6.00 Build 0)  -->
<svg version="1.1" id="Layer_1" xmlns="http://www.w3.org/2000/svg" xmlns:xlink="http://www.w3.org/1999/xlink" x="0px" y="0px"
	 viewBox="0 0 1000 1000" style="enable-background:new 0 0 1000 1000;" xml:space="preserve">
<style type="text/css">
	.st0{clip-path:url(#XMLID_2_);}
	.st1{fill:#414042;}
	.st2{font-family:'Gilroy-SemiBold';}
	.st3{font-size:20px;}
	.st4{clip-path:url(#XMLID_3_);fill:url(#XMLID_4_);}
	.st5{fill:#A7D59C;}
	.st6{font-family:'Gilroy-Bold';}
	.st7{font-size:24px;}
	.st8{font-family:'Gilroy-Black';}
	.st9{font-size:48px;}
	.st10{letter-spacing:9;}
	.st11{letter-spacing:8;}
</style>
<g>
	<defs>
		<rect id="XMLID_7_" x="-0.1" width="1000.1" height="1000"/>
	</defs>
	<clipPath id="XMLID_2_">
		<use xlink:href="#XMLID_7_"  style="overflow:visible;"/>
	</clipPath>
	<g id="XMLID_68_" class="st0">
		<text id="XMLID_56_" transform="matrix(1 0 0 1 150.2878 817.1709)" class="st1 st2 st3">going directly to the pros.</text>
	</g>
	<g class="st0">
		<defs>
			<polygon id="XMLID_66_" points="-0.1,0 -0.1,686.8 441.7,351.3 175,0 			"/>
		</defs>
		<clipPath id="XMLID_3_">
			<use xlink:href="#XMLID_66_"  style="overflow:visible;"/>
		</clipPath>
		
			<linearGradient id="XMLID_4_" gradientUnits="userSpaceOnUse" x1="-499.3415" y1="999.8253" x2="-498.3415" y2="999.8253" gradientTransform="matrix(-468.7538 -680.5947 -680.5947 468.7538 446710.0625 -808059.1875)">
			<stop  offset="0" style="stop-color:#FFFFFF"/>
			<stop  offset="1" style="stop-color:#BCBEC0"/>
		</linearGradient>
		<polygon id="XMLID_67_" class="st4" points="142.1,893.2 -320.9,221 299.6,-206.4 762.6,465.8 		"/>
	</g>
	<g id="XMLID_65_" class="st0">
		<text id="XMLID_54_" transform="matrix(1 0 0 1 150.2878 245.8154)" class="st1 st2 st3">John Smith was born on August 23, 1978, in Philadelphia, Pennsylvania. His father </text>
	</g>
	<g id="XMLID_64_" class="st0">
		<text id="XMLID_52_" transform="matrix(1 0 0 1 150.2878 269.8154)" class="st1 st2 st3">was Joe John Smith, a former Philadelphia 76ers player. He was pushed by his </text>
	</g>
	<g id="XMLID_63_" class="st0">
		<text id="XMLID_50_" transform="matrix(1 0 0 1 150.2878 293.8154)" class="st1 st2 st3">father from an early age to take up basketball. He started playing basketball at the </text>
	</g>
	<g id="XMLID_62_" class="st0">
		<text id="XMLID_48_" transform="matrix(1 0 0 1 150.2878 317.8154)" class="st1 st2 st3">age of 3, and his favorite team was the Lakers.</text>
	</g>
	<g id="XMLID_61_" class="st0">
		<text id="XMLID_46_" transform="matrix(1 0 0 1 150.2878 365.8154)" class="st1 st2 st3">When John Smith was six, his father left the NBA and moved his family to Rieti in </text>
	</g>
	<g id="XMLID_60_" class="st0">
		<text id="XMLID_44_" transform="matrix(1 0 0 1 150.2878 389.8154)" class="st1 st2 st3">Italy to continue playing professional basketball. John Smith became accustomed </text>
	</g>
	<g id="XMLID_59_" class="st0">
		<text id="XMLID_42_" transform="matrix(1 0 0 1 150.2878 413.8154)" class="st1 st2 st3">to his new lifestyle and learned to speak ﬂuent Italian. During summers, he would </text>
	</g>
	<g id="XMLID_58_" class="st0">
		<text id="XMLID_40_" transform="matrix(1 0 0 1 150.2878 437.8154)" class="st1 st2 st3">come back to the United States to play in a basketball summer league.</text>
	</g>
	<g id="XMLID_57_" class="st0">
		<text transform="matrix(1 0 0 1 150.2878 206.8467)"><tspan x="0" y="0" class="st5 st6 st7">CHIL</tspan><tspan x="51.4" y="0" class="st5 st6 st7">DH</tspan><tspan x="84.1" y="0" class="st5 st6 st7">O</tspan><tspan x="103.1" y="0" class="st5 st6 st7">O</tspan><tspan x="121.9" y="0" class="st5 st6 st7">D:</tspan></text>
	</g>
	<g id="XMLID_55_" class="st0">
		<text id="XMLID_69_" transform="matrix(1 0 0 1 150.2878 601.1709)" class="st1 st2 st3">John Smith earned national recognition during a spectacular high school career </text>
	</g>
	<g id="XMLID_53_" class="st0">
		<text id="XMLID_71_" transform="matrix(1 0 0 1 150.2878 625.1709)" class="st1 st2 st3">at Lower Merion High School located in Ardmore, Philadelphia. He became the </text>
	</g>
	<g id="XMLID_16_" class="st0">
		<text id="XMLID_73_" transform="matrix(1 0 0 1 150.2878 649.1709)" class="st1 st2 st3">ﬁrst freshman in decades to start for Lower Merion&apos;s varsity team, but the team </text>
	</g>
	<g id="XMLID_15_" class="st0">
		<text id="XMLID_75_" transform="matrix(1 0 0 1 150.2878 673.1709)" class="st1 st2 st3">ﬁnished with a 4-20 record. The following three years, the Aces compiled a 77-13 </text>
	</g>
	<g id="XMLID_14_" class="st0">
		<text id="XMLID_76_" transform="matrix(1 0 0 1 150.2878 697.1709)" class="st1 st2 st3">record, with John Smith playing all ﬁve positions. During his junior year, he aver</text>
	</g>
	<g id="XMLID_13_" class="st0">
		<text id="XMLID_77_" transform="matrix(1 0 0 1 150.2878 721.1709)" class="st1 st2 st3">aged 31.1 points, 10.4 rebounds and 5.2 assists and was named Pennsylvania Player </text>
	</g>
	<g id="XMLID_12_" class="st0">
		<text id="XMLID_78_" transform="matrix(1 0 0 1 150.2878 745.1709)" class="st1 st2 st3">of the Year, attracting attention from college recruiters in the process. Duke, </text>
	</g>
	<g id="XMLID_11_" class="st0">
		<text id="XMLID_79_" transform="matrix(1 0 0 1 150.2878 769.1709)" class="st1 st2 st3">Michigan, North Carolina and Villanova were at the top of his list; however, when </text>
	</g>
	<g id="XMLID_10_" class="st0">
		<text id="XMLID_80_" transform="matrix(1 0 0 1 150.2878 793.1709)" class="st1 st2 st3">Kevin Garnett went in the ﬁrst round of the 1995 NBA draft, he began considering </text>
	</g>
	<g id="XMLID_9_" class="st0">
		<text id="XMLID_81_" transform="matrix(1 0 0 1 150.2878 562.2021)" class="st5 st6 st7">EARLY LIFE:</text>
	</g>
	<g id="XMLID_8_" class="st0">
		<text transform="matrix(1 0 0 1 150.2878 114.9453)"><tspan x="0" y="0" class="st8 st9 st10">H</tspan><tspan x="41.5" y="0" class="st8 st9 st10">IS </tspan><tspan x="123.1" y="0" class="st8 st9 st10">C</tspan><tspan x="167.2" y="0" class="st8 st9 st10">IR</tspan><tspan x="230" y="0" class="st8 st9 st10">C</tspan><tspan x="274.1" y="0" class="st8 st9 st10">L</tspan><tspan x="307" y="0" class="st8 st9 st10">E</tspan><tspan x="342.2" y="0" class="st8 st9 st10"> </tspan><tspan x="362.7" y="0" class="st8 st9 st10">O</tspan><tspan x="409.8" y="0" class="st8 st9 st11">F</tspan><tspan x="443.1" y="0" class="st8 st9 st10"> LIF</tspan><tspan x="554.4" y="0" class="st8 st9">E</tspan></text>
	</g>
</g>
</svg>
