<?xml version="1.0" encoding="utf-8"?>
<!-- Generator: Adobe Illustrator 19.0.0, SVG Export Plug-In . SVG Version: 6.00 Build 0)  -->
<svg version="1.1" id="Layer_1" xmlns="http://www.w3.org/2000/svg" xmlns:xlink="http://www.w3.org/1999/xlink" x="0px" y="0px"
	 viewBox="0 0 1000 1000" style="enable-background:new 0 0 1000 1000;" xml:space="preserve">
<style type="text/css">
	.st0{clip-path:url(#XMLID_12_);}
	.st1{fill:#414042;}
	.st2{font-family:'Gilroy-SemiBold';}
	.st3{font-size:20px;}
	.st4{fill:#A7D59C;}
	.st5{font-family:'Gilroy-Bold';}
	.st6{font-size:24px;}
</style>
<g>
	<defs>
		<rect id="XMLID_1_" x="-0.1" width="1000.1" height="1000"/>
	</defs>
	<clipPath id="XMLID_12_">
		<use xlink:href="#XMLID_1_"  style="overflow:visible;"/>
	</clipPath>
	<g id="XMLID_64_" class="st0">
		<text id="XMLID_54_" transform="matrix(1 0 0 1 121.3457 245.8154)" class="st1 st2 st3">John Smith earned countrywide reputation all through a magniﬁcent excessive </text>
	</g>
	<g id="XMLID_63_" class="st0">
		<text id="XMLID_52_" transform="matrix(1 0 0 1 121.3457 269.8154)" class="st1 st2 st3">faculty profession at Lower Merion High School positioned in Ardmore, Philadel</text>
	</g>
	<g id="XMLID_62_" class="st0">
		<text id="XMLID_50_" transform="matrix(1 0 0 1 121.3457 293.8154)" class="st1 st2 st3">phia. He have become the primary freshman in a long time to begin for Lower </text>
	</g>
	<g id="XMLID_61_" class="st0">
		<text id="XMLID_48_" transform="matrix(1 0 0 1 121.3457 317.8154)" class="st1 st2 st3">Merion&apos;s varsity group, however the group completed with a four-20 record. The </text>
	</g>
	<g id="XMLID_60_" class="st0">
		<text id="XMLID_46_" transform="matrix(1 0 0 1 121.3457 341.8154)" class="st1 st2 st3">following 3 years, the Aces compiled a 77-thirteen record, with John Smith gam</text>
	</g>
	<g id="XMLID_59_" class="st0">
		<text id="XMLID_44_" transform="matrix(1 0 0 1 121.3457 365.8154)" class="st1 st2 st3">bling all 5 positions. During his junior year, he averaged 31.1 points, 10.four re</text>
	</g>
	<g id="XMLID_58_" class="st0">
		<text id="XMLID_42_" transform="matrix(1 0 0 1 121.3457 389.8154)" class="st1 st2 st3">bounds and 5.2 assists and changed into named Pennsylvania Player of the Year, </text>
	</g>
	<g id="XMLID_57_" class="st0">
		<text id="XMLID_40_" transform="matrix(1 0 0 1 121.3457 413.8154)" class="st1 st2 st3">attracting interest from university recruiter’s with inside the process. Duke, </text>
	</g>
	<g id="XMLID_56_" class="st0">
		<text id="XMLID_38_" transform="matrix(1 0 0 1 121.3457 437.8154)" class="st1 st2 st3">Michigan, North Carolina and Villanova have been on the pinnacle of his list; </text>
	</g>
	<g id="XMLID_55_" class="st0">
		<text id="XMLID_36_" transform="matrix(1 0 0 1 121.3457 461.8154)" class="st1 st2 st3">however, whilst Kevin Garnett went with inside the ﬁrst spherical of the 1995 NBA </text>
	</g>
	<g id="XMLID_53_" class="st0">
		<text id="XMLID_34_" transform="matrix(1 0 0 1 121.3457 485.8154)" class="st1 st2 st3">draft, he started out thinking about going immediately to the pros.</text>
	</g>
	<g id="XMLID_51_" class="st0">
		<text id="XMLID_65_" transform="matrix(1 0 0 1 121.3466 206.8467)" class="st4 st5 st6">EDUCATION:</text>
	</g>
	<g id="XMLID_10_" class="st0">
		<text id="XMLID_67_" transform="matrix(1 0 0 1 121.3457 601.1709)" class="st1 st2 st3">John Smithtook over the reins of Microsoft in 2014 during a time of turmoil for </text>
	</g>
	<g id="XMLID_9_" class="st0">
		<text id="XMLID_69_" transform="matrix(1 0 0 1 121.3457 625.1709)" class="st1 st2 st3">the company. Since then, John Smith has implemented a variety of changes to the </text>
	</g>
	<g id="XMLID_8_" class="st0">
		<text id="XMLID_71_" transform="matrix(1 0 0 1 121.3457 649.1709)" class="st1 st2 st3">company, which has seen a massive improvement in stock position since the </text>
	</g>
	<g id="XMLID_7_" class="st0">
		<text id="XMLID_72_" transform="matrix(1 0 0 1 121.3457 673.1709)" class="st1 st2 st3">change of power. Through open-source software projects, partnering with com</text>
	</g>
	<g id="XMLID_6_" class="st0">
		<text id="XMLID_73_" transform="matrix(1 0 0 1 121.3457 697.1709)" class="st1 st2 st3">petitors, scaling back on ﬁrst-party mobile ambitions, and centering the compa</text>
	</g>
	<g id="XMLID_5_" class="st0">
		<text id="XMLID_74_" transform="matrix(1 0 0 1 121.3457 721.1709)" class="st1 st2 st3">ny around one main mission, Microsoft has held its spot as major tech competi</text>
	</g>
	<g id="XMLID_4_" class="st0">
		<text id="XMLID_75_" transform="matrix(1 0 0 1 121.3457 745.1709)" class="st1 st2 st3">tor. Microsoft CEO John, the engineer and businessman behind the company’s </text>
	</g>
	<g id="XMLID_3_" class="st0">
		<text id="XMLID_76_" transform="matrix(1 0 0 1 121.3457 769.1709)" class="st1 st2 st3">resurgence.</text>
	</g>
	<g id="XMLID_2_" class="st0">
		<text id="XMLID_77_" transform="matrix(1 0 0 1 121.3457 562.2021)" class="st4 st5 st6">PROFESSIONAL: </text>
	</g>
</g>
</svg>
