<?xml version="1.0" encoding="utf-8"?>
<!-- Generator: Adobe Illustrator 19.0.0, SVG Export Plug-In . SVG Version: 6.00 Build 0)  -->
<svg version="1.1" id="Layer_1" xmlns="http://www.w3.org/2000/svg" xmlns:xlink="http://www.w3.org/1999/xlink" x="0px" y="0px"
	 viewBox="0 0 1000 1000" style="enable-background:new 0 0 1000 1000;" xml:space="preserve">
<style type="text/css">
	.st0{fill:#FFFFFF;}
	.st1{fill:#6B9953;}
	.st2{fill:#EBEBE9;}
	.st3{fill:#282C2E;}
	.st4{font-family:'Gilroy-SemiBold';}
	.st5{font-size:20px;}
	.st6{font-family:'Gilroy-Black';}
	.st7{font-size:22px;}
	.st8{fill:#94C384;}
	.st9{font-family:'Gilroy-Regular';}
	.st10{font-size:15px;}
	.st11{fill:#A7D59C;stroke:#A7D59C;stroke-width:4;stroke-miterlimit:10;}
	.st12{fill:#A7D59C;}
	.st13{fill:none;stroke:#FFFFFF;stroke-width:2;stroke-miterlimit:10;}
	.st14{fill:#282C2F;}
</style>
<rect id="XMLID_71_" x="-0.5" class="st0" width="1001" height="1000"/>
<g id="XMLID_11_">
	<rect id="XMLID_70_" x="917" class="st1" width="83.5" height="59.5"/>
	<g>
		<g>
			<path id="XMLID_69_" class="st2" d="M895.3,926.5H118.6c-20.6,0-37.3-16.7-37.3-37.3v-65.7c0-20.6,16.7-37.3,37.3-37.3h776.8
				c20.6,0,37.3,16.7,37.3,37.3v65.7C932.6,909.8,915.9,926.5,895.3,926.5z"/>
			<g id="XMLID_68_">
				<text id="XMLID_42_" transform="matrix(1 0 0 1 154.8004 822.5342)"><tspan x="0" y="0" class="st3 st4 st5">I love you all, and you’re always in my thoughts. Please know how sorry </tspan><tspan x="0" y="24" class="st3 st4 st5">I am for your loss. </tspan></text>
			</g>
			<g id="XMLID_67_">
				<text id="XMLID_40_" transform="matrix(1 0 0 1 154.8004 887.4639)" class="st1 st6 st7">Lisa R. Taylor</text>
			</g>
			<g id="XMLID_66_">
				<text id="XMLID_38_" transform="matrix(1 0 0 1 154.8004 908.7559)" class="st8 st9 st10">4567 Union Street, Seattle, WA 98106</text>
			</g>
			<path id="XMLID_65_" class="st11" d="M905.6,871.8c0,15.6-15.3,28.2-34.1,28.2H622.6v2.2h248.9c20.4,0,36.9-13.7,36.9-30.4V812
				h-2.8V871.8z"/>
			<g>
				<circle id="XMLID_64_" class="st12" cx="99.5" cy="797.4" r="27.9"/>
				<circle id="XMLID_63_" class="st13" cx="99.5" cy="797.4" r="23.6"/>
				<g>
					<path class="st0" d="M97,789.9c0.9,1.4,1.4,3.2,1.4,5.3c0,2.7-0.7,5.1-2.1,7.2c-1.4,2.1-3.4,3.9-6.2,5.2l-0.7-1.4
						c1.7-0.7,3.1-1.8,4.3-3.3c1.2-1.5,1.8-3,1.8-4.6c0-0.6-0.1-1.2-0.2-1.7c-0.9,0.7-1.9,1-3,1c-1.4,0-2.7-0.5-3.7-1.4
						c-1-0.9-1.5-2.2-1.5-3.7c0-1.4,0.5-2.7,1.5-3.7c1-1,2.2-1.5,3.7-1.5C94.3,787.3,95.9,788.2,97,789.9z M110.6,789.9
						c0.9,1.4,1.4,3.2,1.4,5.3c0,2.7-0.7,5.1-2.1,7.2c-1.4,2.1-3.4,3.9-6.2,5.2l-0.7-1.4c1.7-0.7,3.1-1.8,4.3-3.3
						c1.2-1.5,1.8-3,1.8-4.6c0-0.6-0.1-1.2-0.2-1.7c-0.9,0.7-1.9,1-3,1c-1.4,0-2.7-0.5-3.7-1.4c-1-0.9-1.5-2.2-1.5-3.7
						c0-1.4,0.5-2.7,1.5-3.7c1-1,2.2-1.5,3.7-1.5C108,787.3,109.6,788.2,110.6,789.9z"/>
				</g>
			</g>
		</g>
		<g>
			<path id="XMLID_60_" class="st2" d="M896.4,308.2H120.8c-20.5,0-37.2-16.7-37.2-37.2V160.4c0-20.5,16.7-37.2,37.2-37.2h775.6
				c20.5,0,37.2,16.7,37.2,37.2V271C933.6,291.6,916.9,308.2,896.4,308.2z"/>
			<g id="XMLID_59_">
				<text id="XMLID_36_" transform="matrix(1 0 0 1 154.8012 158.7988)"><tspan x="0" y="0" class="st14 st4 st5">I know he will be dearly missed, and I’m sorry I didn’t have the chance </tspan><tspan x="0" y="24" class="st14 st4 st5">to know him better.</tspan></text>
			</g>
			<g id="XMLID_58_">
				<text id="XMLID_34_" transform="matrix(1 0 0 1 154.8013 210.2193)"><tspan x="0" y="0" class="st14 st4 st5">If you wish you’d had the chance to know the person, you can briefly mention </tspan><tspan x="0" y="24" class="st14 st4 st5">that in your note.</tspan></text>
			</g>
			<g>
				<circle id="XMLID_57_" class="st12" cx="99.5" cy="135.7" r="27.9"/>
				<circle id="XMLID_56_" class="st13" cx="99.5" cy="135.7" r="23.5"/>
				<g>
					<path class="st0" d="M96.9,128.1c0.9,1.4,1.4,3.2,1.4,5.3c0,2.7-0.7,5.1-2,7.2c-1.4,2.1-3.4,3.9-6.2,5.1l-0.7-1.4
						c1.7-0.7,3.1-1.8,4.3-3.3c1.2-1.5,1.8-3,1.8-4.6c0-0.6-0.1-1.2-0.2-1.7c-0.9,0.7-1.8,1-3,1c-1.4,0-2.7-0.5-3.7-1.4
						c-1-0.9-1.5-2.2-1.5-3.7c0-1.4,0.5-2.7,1.5-3.7c1-1,2.2-1.5,3.7-1.5C94.3,125.5,95.8,126.4,96.9,128.1z M110.6,128.1
						c0.9,1.4,1.4,3.2,1.4,5.3c0,2.7-0.7,5.1-2,7.2c-1.4,2.1-3.4,3.9-6.2,5.1l-0.7-1.4c1.7-0.7,3.1-1.8,4.3-3.3
						c1.2-1.5,1.8-3,1.8-4.6c0-0.6-0.1-1.2-0.2-1.7c-0.9,0.7-1.8,1-3,1c-1.4,0-2.7-0.5-3.7-1.4c-1-0.9-1.5-2.2-1.5-3.7
						c0-1.4,0.5-2.7,1.5-3.7c1-1,2.2-1.5,3.7-1.5C107.9,125.5,109.5,126.4,110.6,128.1z"/>
				</g>
			</g>
			<g id="XMLID_53_">
				<text id="XMLID_72_" transform="matrix(1 0 0 1 154.8013 271.0172)" class="st1 st6 st7">Richard T. Evans</text>
			</g>
			<g id="XMLID_52_">
				<text id="XMLID_74_" transform="matrix(1 0 0 1 154.8013 288.817)" class="st8 st9 st10">1386 Goosetown Drive, Charlotte, NC 28209</text>
			</g>
			<path id="XMLID_51_" class="st11" d="M905.6,250.7c0,15.5-15.3,28.2-34.1,28.2H623v2.2h248.5c20.3,0,36.9-13.6,36.9-30.4V161
				h-2.8V250.7z"/>
		</g>
		<g>
			<path id="XMLID_50_" class="st2" d="M896.4,503.9H120.8c-20.5,0-37.2-16.7-37.2-37.2v-95.9c0-20.5,16.7-37.2,37.2-37.2h775.6
				c20.5,0,37.2,16.7,37.2,37.2v95.9C933.6,487.2,916.9,503.9,896.4,503.9z"/>
			<path id="XMLID_49_" class="st11" d="M905.6,448.1c0,15.5-15.3,28.2-34.1,28.2H623v2.2h248.5c20.3,0,36.9-13.6,36.9-30.4v-89.7
				h-2.8V448.1z"/>
			<g>
				<circle id="XMLID_48_" class="st12" cx="99.5" cy="346.1" r="27.9"/>
				<circle id="XMLID_47_" class="st13" cx="99.5" cy="346.1" r="23.5"/>
				<g>
					<path class="st0" d="M96.9,338.6c0.9,1.4,1.4,3.2,1.4,5.3c0,2.7-0.7,5.1-2,7.2c-1.4,2.1-3.4,3.9-6.2,5.1l-0.7-1.4
						c1.7-0.7,3.1-1.8,4.3-3.3c1.2-1.5,1.8-3,1.8-4.6c0-0.6-0.1-1.2-0.2-1.7c-0.9,0.7-1.8,1-3,1c-1.4,0-2.7-0.5-3.7-1.4
						c-1-0.9-1.5-2.2-1.5-3.7c0-1.4,0.5-2.7,1.5-3.7c1-1,2.2-1.5,3.7-1.5C94.3,336,95.8,336.9,96.9,338.6z M110.6,338.6
						c0.9,1.4,1.4,3.2,1.4,5.3c0,2.7-0.7,5.1-2,7.2c-1.4,2.1-3.4,3.9-6.2,5.1l-0.7-1.4c1.7-0.7,3.1-1.8,4.3-3.3
						c1.2-1.5,1.8-3,1.8-4.6c0-0.6-0.1-1.2-0.2-1.7c-0.9,0.7-1.8,1-3,1c-1.4,0-2.7-0.5-3.7-1.4c-1-0.9-1.5-2.2-1.5-3.7
						c0-1.4,0.5-2.7,1.5-3.7c1-1,2.2-1.5,3.7-1.5C107.9,336,109.5,336.9,110.6,338.6z"/>
				</g>
			</g>
			<g id="XMLID_44_">
				<text id="XMLID_76_" transform="matrix(1 0 0 1 154.8007 369.1242)" class="st3 st4 st5">Thank you for including me in mourning Greg’s loss. I know he was a special person.</text>
			</g>
			<g id="XMLID_43_">
				<text id="XMLID_78_" transform="matrix(1 0 0 1 154.8007 403.6281)"><tspan x="0" y="0" class="st3 st4 st5">It means a lot that the family invited you to the memorial, even though </tspan><tspan x="0" y="24" class="st3 st4 st5">you didn’t know the deceased very well.</tspan></text>
			</g>
			<g id="XMLID_41_">
				<text id="XMLID_80_" transform="matrix(1 0 0 1 154.8007 465.1711)" class="st1 st6 st7">Bailey Pocock</text>
			</g>
			<g id="XMLID_39_">
				<text id="XMLID_82_" transform="matrix(1 0 0 1 154.8007 483.7463)" class="st8 st9 st10">2180 Brooklyn Street, Portland, OR 97205</text>
			</g>
		</g>
		<g>
			<path id="XMLID_10_" class="st2" d="M896.4,759.5H120.7c-20.5,0-37.2-16.7-37.2-37.2V565.7c0-20.5,16.7-37.2,37.2-37.2h775.7
				c20.5,0,37.2,16.7,37.2,37.2v156.5C933.6,742.8,916.9,759.5,896.4,759.5z"/>
			<g id="XMLID_9_">
				<text id="XMLID_83_" transform="matrix(1 0 0 1 154.8012 571.7408)"><tspan x="0" y="0" class="st3 st4 st5">It’s in moments like these that words fall short. But I hope you know how much love </tspan><tspan x="0" y="24" class="st3 st4 st5">I have in my heart for James, and that you’re in my thoughts. </tspan></text>
			</g>
			<g id="XMLID_8_">
				<text id="XMLID_84_" transform="matrix(1 0 0 1 154.8012 627.4146)"><tspan x="0" y="0" class="st3 st4 st5">When you’re at a loss for words, sometimes expressing that is the most honest </tspan><tspan x="0" y="24" class="st3 st4 st5">message you can give. But it’s still important to include </tspan><tspan x="0" y="48" class="st3 st4 st5">some brief words of support, too. </tspan></text>
			</g>
			<path id="XMLID_7_" class="st11" d="M905.6,701.6c0,15.4-15.2,28-33.9,28h-247v2.2h247c20.2,0,36.7-13.6,36.7-30.2V582.4h-2.8
				V701.6z"/>
			<g>
				<circle id="XMLID_6_" class="st12" cx="99.3" cy="541.6" r="27.7"/>
				<circle id="XMLID_5_" class="st13" cx="99.3" cy="541.6" r="23.4"/>
				<g>
					<path class="st0" d="M96.8,534.1c0.9,1.4,1.4,3.2,1.4,5.3c0,2.7-0.7,5.1-2,7.2c-1.4,2.1-3.4,3.8-6.2,5.1l-0.7-1.4
						c1.6-0.7,3.1-1.8,4.3-3.3c1.2-1.5,1.8-3,1.8-4.6c0-0.6-0.1-1.2-0.2-1.7c-0.9,0.7-1.8,1-3,1c-1.4,0-2.6-0.5-3.6-1.4
						c-1-0.9-1.5-2.2-1.5-3.7c0-1.4,0.5-2.6,1.5-3.6c1-1,2.2-1.5,3.6-1.5C94.1,531.5,95.7,532.4,96.8,534.1z M110.3,534.1
						c0.9,1.4,1.4,3.2,1.4,5.3c0,2.7-0.7,5.1-2,7.2c-1.4,2.1-3.4,3.8-6.2,5.1l-0.7-1.4c1.6-0.7,3.1-1.8,4.3-3.3
						c1.2-1.5,1.8-3,1.8-4.6c0-0.6-0.1-1.2-0.2-1.7c-0.9,0.7-1.8,1-3,1c-1.4,0-2.6-0.5-3.6-1.4c-1-0.9-1.5-2.2-1.5-3.7
						c0-1.4,0.5-2.6,1.5-3.6c1-1,2.2-1.5,3.6-1.5C107.7,531.5,109.3,532.4,110.3,534.1z"/>
				</g>
			</g>
			<g id="XMLID_2_">
				<text id="XMLID_85_" transform="matrix(1 0 0 1 154.8012 714.5123)" class="st1 st6 st7">Lisa R. Taylor</text>
			</g>
			<g id="XMLID_1_">
				<text id="XMLID_86_" transform="matrix(1 0 0 1 154.8012 732.2007)" class="st8 st9 st10">4567 Union Street, Seattle, WA 98106</text>
			</g>
		</g>
	</g>
</g>
</svg>
