<?xml version="1.0" encoding="utf-8"?>
<!-- Generator: Adobe Illustrator 19.0.0, SVG Export Plug-In . SVG Version: 6.00 Build 0)  -->
<svg version="1.1" id="Layer_1" xmlns="http://www.w3.org/2000/svg" xmlns:xlink="http://www.w3.org/1999/xlink" x="0px" y="0px"
	 viewBox="0 0 1000 1000" style="enable-background:new 0 0 1000 1000;" xml:space="preserve">
<style type="text/css">
	.st0{fill:#FFFFFF;}
	.st1{fill:#6B9953;}
	.st2{font-family:'Gilroy-Black';}
	.st3{font-size:34.9094px;}
	.st4{fill:#EBEBE9;}
	.st5{fill:#2A2D31;}
	.st6{font-family:'Gilroy-SemiBold';}
	.st7{font-size:20px;}
	.st8{font-size:22px;}
	.st9{fill:#94C384;}
	.st10{font-family:'Gilroy-Regular';}
	.st11{font-size:15px;}
	.st12{fill:#A7D59C;}
	.st13{fill:none;stroke:#FFFFFF;stroke-width:2;stroke-miterlimit:10;}
	.st14{fill:#A7D59C;stroke:#A7D59C;stroke-width:4;stroke-miterlimit:10;}
</style>
<g>
	<rect id="XMLID_45_" x="-0.5" class="st0" width="1001" height="1000"/>
	<g>
		<rect id="XMLID_44_" x="-0.5" class="st1" width="295.3" height="59.5"/>
		<text id="XMLID_43_" transform="matrix(1 0 0 1 14.1825 39.7519)" class="st0 st2 st3">O B I T U A R I E S</text>
	</g>
	<g>
		<g>
			<path id="XMLID_42_" class="st4" d="M905.2,529.1H122.7c-20.7,0-37.5-16.8-37.5-37.5V365.8c0-20.7,16.8-37.5,37.5-37.5h782.5
				c20.7,0,37.5,16.8,37.5,37.5v125.8C942.7,512.3,925.9,529.1,905.2,529.1z"/>
			<g id="XMLID_41_">
				<text id="XMLID_91_" transform="matrix(1 0 0 1 159.0275 366.8677)"><tspan x="0" y="0" class="st5 st6 st7">From my short time spent with him, I could tell Dave was an amazing man. </tspan><tspan x="0" y="24" class="st5 st6 st7">Please accept my sincere condolences.</tspan></text>
			</g>
			<g id="XMLID_40_">
				<text id="XMLID_89_" transform="matrix(1 0 0 1 159.0275 419.7755)"><tspan x="0" y="0" class="st5 st6 st7">You might have spent a short time with the person, and you can express </tspan><tspan x="0" y="24" class="st5 st6 st7">how much those few moments meant to you.</tspan></text>
			</g>
			<g id="XMLID_39_">
				<text id="XMLID_87_" transform="matrix(1 0 0 1 159.0275 482.7252)" class="st1 st2 st8">Finn Slater</text>
			</g>
			<g id="XMLID_38_">
				<text id="XMLID_85_" transform="matrix(1 0 0 1 159.0275 502.7842)" class="st9 st10 st11">3991 Beechwood Drive, Clarksville, MD 21029</text>
			</g>
			<g>
				<circle id="XMLID_37_" class="st12" cx="103.5" cy="335.5" r="28.2"/>
				<circle id="XMLID_36_" class="st13" cx="103.5" cy="335.5" r="23.8"/>
				<g>
					<path class="st0" d="M100.9,327.9c0.9,1.5,1.4,3.2,1.4,5.4c0,2.7-0.7,5.1-2.1,7.3c-1.4,2.2-3.5,3.9-6.3,5.2l-0.7-1.5
						c1.7-0.7,3.1-1.8,4.3-3.3c1.2-1.5,1.8-3.1,1.8-4.6c0-0.6-0.1-1.2-0.2-1.7c-0.9,0.7-1.9,1.1-3,1.1c-1.5,0-2.7-0.5-3.7-1.4
						c-1-0.9-1.5-2.2-1.5-3.8c0-1.5,0.5-2.7,1.5-3.7c1-1,2.2-1.5,3.7-1.5C98.2,325.3,99.8,326.2,100.9,327.9z M114.7,327.9
						c0.9,1.5,1.4,3.2,1.4,5.4c0,2.7-0.7,5.1-2.1,7.3c-1.4,2.2-3.5,3.9-6.3,5.2l-0.7-1.5c1.7-0.7,3.1-1.8,4.3-3.3
						c1.2-1.5,1.8-3.1,1.8-4.6c0-0.6-0.1-1.2-0.2-1.7c-0.9,0.7-1.9,1.1-3,1.1c-1.5,0-2.7-0.5-3.7-1.4c-1-0.9-1.5-2.2-1.5-3.8
						c0-1.5,0.5-2.7,1.5-3.7c1-1,2.2-1.5,3.7-1.5C112,325.3,113.6,326.2,114.7,327.9z"/>
				</g>
			</g>
			<path id="XMLID_33_" class="st14" d="M906.4,474c0,15.7-15.4,28.4-34.4,28.4H621.3v2.2H872c20.5,0,37.2-13.8,37.2-30.7v-90.5
				h-2.8V474z"/>
		</g>
		<g>
			<path id="XMLID_31_" class="st4" d="M905.2,694.6H122.6c-20.7,0-37.5-16.8-37.5-37.5v-64.2c0-20.7,16.8-37.5,37.5-37.5h782.6
				c20.7,0,37.5,16.8,37.5,37.5v64.2C942.7,677.8,925.9,694.6,905.2,694.6z"/>
			<g id="XMLID_30_">
				<text id="XMLID_83_" transform="matrix(1 0 0 1 158.5575 595.1285)"><tspan x="0" y="0" class="st5 st6 st7">I know he will be dearly missed, and I’m sorry I didn’t have the chance to </tspan><tspan x="0" y="24" class="st5 st6 st7">know him better. </tspan></text>
			</g>
			<g id="XMLID_29_">
				<text id="XMLID_81_" transform="matrix(1 0 0 1 158.5575 654.0582)" class="st1 st2 st8">Lisa R. Taylor</text>
			</g>
			<g id="XMLID_28_">
				<text id="XMLID_79_" transform="matrix(1 0 0 1 158.5575 675.3502)" class="st9 st10 st11">4567 Union Street, Seattle, WA 98106</text>
			</g>
			<path id="XMLID_27_" class="st14" d="M906.4,641.4c0,15.6-15.3,28.2-34.1,28.2H623.4v2.2h248.9c20.4,0,36.9-13.7,36.9-30.4v-59.8
				h-2.8V641.4z"/>
			<g>
				<circle id="XMLID_26_" class="st12" cx="103.3" cy="567" r="27.9"/>
				<circle id="XMLID_25_" class="st13" cx="103.3" cy="567" r="23.6"/>
				<g>
					<path class="st0" d="M100.7,559.5c0.9,1.4,1.4,3.2,1.4,5.3c0,2.7-0.7,5.1-2.1,7.2c-1.4,2.1-3.4,3.9-6.2,5.2l-0.7-1.4
						c1.7-0.7,3.1-1.8,4.3-3.3c1.2-1.5,1.8-3,1.8-4.6c0-0.6-0.1-1.2-0.2-1.7c-0.9,0.7-1.9,1-3,1c-1.4,0-2.7-0.5-3.7-1.4
						c-1-0.9-1.5-2.2-1.5-3.7c0-1.4,0.5-2.7,1.5-3.7c1-1,2.2-1.5,3.7-1.5C98.1,556.9,99.6,557.7,100.7,559.5z M114.4,559.5
						c0.9,1.4,1.4,3.2,1.4,5.3c0,2.7-0.7,5.1-2.1,7.2c-1.4,2.1-3.4,3.9-6.2,5.2l-0.7-1.4c1.7-0.7,3.1-1.8,4.3-3.3
						c1.2-1.5,1.8-3,1.8-4.6c0-0.6-0.1-1.2-0.2-1.7c-0.9,0.7-1.9,1-3,1c-1.4,0-2.7-0.5-3.7-1.4c-1-0.9-1.5-2.2-1.5-3.7
						c0-1.4,0.5-2.7,1.5-3.7c1-1,2.2-1.5,3.7-1.5C111.7,556.9,113.3,557.7,114.4,559.5z"/>
				</g>
			</g>
		</g>
		<g>
			<path id="XMLID_22_" class="st4" d="M905.2,297.3H122.6c-20.7,0-37.5-16.8-37.5-37.5V151.3c0-20.7,16.8-37.5,37.5-37.5h782.6
				c20.7,0,37.5,16.8,37.5,37.5v108.6C942.7,280.5,925.9,297.3,905.2,297.3z"/>
			<g id="XMLID_21_">
				<text id="XMLID_77_" transform="matrix(1 0 0 1 158.5078 147.2996)"><tspan x="0" y="0" class="st5 st6 st7">Your family has been in my thoughts every day, and I want you to know </tspan><tspan x="0" y="24" class="st5 st6 st7">you have my sincere condolences.</tspan></text>
			</g>
			<g id="XMLID_20_">
				<text id="XMLID_75_" transform="matrix(1 0 0 1 158.5078 201.4178)"><tspan x="0" y="0" class="st5 st6 st7">You can briefly let the immediate family know that they’re always </tspan><tspan x="0" y="24" class="st5 st6 st7">in your thoughts.</tspan></text>
			</g>
			<g id="XMLID_19_">
				<text id="XMLID_73_" transform="matrix(1 0 0 1 158.5088 258.3162)" class="st1 st2 st8">Jasmine Schutt</text>
			</g>
			<g id="XMLID_18_">
				<text id="XMLID_71_" transform="matrix(1 0 0 1 158.5078 277.1649)" class="st9 st10 st11">4653 Hazelwood Avenue, West Des Moines, IA 50266</text>
			</g>
			<g>
				<circle id="XMLID_17_" class="st12" cx="103.3" cy="121.5" r="28"/>
				<circle id="XMLID_16_" class="st13" cx="103.3" cy="121.5" r="23.6"/>
				<g>
					<path class="st0" d="M100.7,114c0.9,1.5,1.4,3.2,1.4,5.3c0,2.7-0.7,5.1-2.1,7.3c-1.4,2.1-3.5,3.9-6.2,5.2l-0.7-1.5
						c1.7-0.7,3.1-1.8,4.3-3.3c1.2-1.5,1.8-3,1.8-4.6c0-0.6-0.1-1.2-0.2-1.7c-0.9,0.7-1.9,1-3,1c-1.5,0-2.7-0.5-3.7-1.4
						c-1-0.9-1.5-2.2-1.5-3.7c0-1.5,0.5-2.7,1.5-3.7c1-1,2.2-1.5,3.7-1.5C98.1,111.4,99.7,112.2,100.7,114z M114.4,114
						c0.9,1.5,1.4,3.2,1.4,5.3c0,2.7-0.7,5.1-2.1,7.3c-1.4,2.1-3.5,3.9-6.2,5.2l-0.7-1.5c1.7-0.7,3.1-1.8,4.3-3.3
						c1.2-1.5,1.8-3,1.8-4.6c0-0.6-0.1-1.2-0.2-1.7c-0.9,0.7-1.9,1-3,1c-1.5,0-2.7-0.5-3.7-1.4c-1-0.9-1.5-2.2-1.5-3.7
						c0-1.5,0.5-2.7,1.5-3.7c1-1,2.2-1.5,3.7-1.5C111.8,111.4,113.4,112.2,114.4,114z"/>
				</g>
			</g>
			<path id="XMLID_13_" class="st14" d="M906.4,237.1c0,15.6-15.3,28.2-34.2,28.2H623.1v2.2h249.2c20.4,0,37-13.7,37-30.5v-89.9
				h-2.8V237.1z"/>
		</g>
		<g>
			<path id="XMLID_12_" class="st4" d="M905.2,906.4H122.6c-20.7,0-37.5-16.8-37.5-37.5V762.3c0-20.7,16.8-37.5,37.5-37.5h782.6
				c20.7,0,37.5,16.8,37.5,37.5v106.6C942.7,889.6,925.9,906.4,905.2,906.4z"/>
			<g id="XMLID_11_">
				<text id="XMLID_69_" transform="matrix(1 0 0 1 158.5079 761.3748)" class="st5 st6 st7">I was so sorry to hear that lucy died…</text>
			</g>
			<g id="XMLID_10_">
				<text id="XMLID_67_" transform="matrix(1 0 0 1 158.5079 781.0799)" class="st5 st6 st7">I can’t ﬁnd the words to say how sorry I am, and how much Lucy will be missed…</text>
			</g>
			<g id="XMLID_9_">
				<text id="XMLID_65_" transform="matrix(1 0 0 1 158.5084 800.785)" class="st5 st6 st7">Liz, Tom, lucy – my heart goes out to you. I am so sorry…</text>
			</g>
			<g id="XMLID_8_">
				<text id="XMLID_90_" transform="matrix(1 0 0 1 158.5079 820.4901)" class="st5 st6 st7">lucy was such a kind and generous man…</text>
			</g>
			<g id="XMLID_7_">
				<text id="XMLID_92_" transform="matrix(1 0 0 1 158.508 864.4046)" class="st1 st2 st8">Pearl C. Ross</text>
			</g>
			<g id="XMLID_6_">
				<text id="XMLID_93_" transform="matrix(1 0 0 1 158.5079 883.2537)" class="st9 st10 st11">253 Hidden Meadow Drive, Minot Air Force Base, ND 58701</text>
			</g>
			<g>
				<circle id="XMLID_5_" class="st12" cx="103.3" cy="732.6" r="28"/>
				<circle id="XMLID_4_" class="st13" cx="103.3" cy="732.6" r="23.6"/>
				<g>
					<path class="st0" d="M100.7,725c0.9,1.5,1.4,3.2,1.4,5.3c0,2.7-0.7,5.1-2.1,7.3c-1.4,2.1-3.5,3.9-6.2,5.2l-0.7-1.5
						c1.7-0.7,3.1-1.8,4.3-3.3c1.2-1.5,1.8-3,1.8-4.6c0-0.6-0.1-1.2-0.2-1.7c-0.9,0.7-1.9,1-3,1c-1.5,0-2.7-0.5-3.7-1.4
						c-1-0.9-1.5-2.2-1.5-3.7c0-1.5,0.5-2.7,1.5-3.7c1-1,2.2-1.5,3.7-1.5C98.1,722.4,99.7,723.3,100.7,725z M114.4,725
						c0.9,1.5,1.4,3.2,1.4,5.3c0,2.7-0.7,5.1-2.1,7.3c-1.4,2.1-3.5,3.9-6.2,5.2l-0.7-1.5c1.7-0.7,3.1-1.8,4.3-3.3
						c1.2-1.5,1.8-3,1.8-4.6c0-0.6-0.1-1.2-0.2-1.7c-0.9,0.7-1.9,1-3,1c-1.5,0-2.7-0.5-3.7-1.4c-1-0.9-1.5-2.2-1.5-3.7
						c0-1.5,0.5-2.7,1.5-3.7c1-1,2.2-1.5,3.7-1.5C111.8,722.4,113.4,723.3,114.4,725z"/>
				</g>
			</g>
			<path id="XMLID_1_" class="st14" d="M906.4,850.1c0,15.6-15.3,28.2-34.2,28.2H623.1v2.2h249.2c20.4,0,37-13.7,37-30.5v-89.9h-2.8
				V850.1z"/>
		</g>
	</g>
</g>
</svg>
