<?xml version="1.0" encoding="utf-8"?>
<!-- Generator: Adobe Illustrator 19.0.0, SVG Export Plug-In . SVG Version: 6.00 Build 0)  -->
<svg version="1.1" id="Layer_1" xmlns="http://www.w3.org/2000/svg" xmlns:xlink="http://www.w3.org/1999/xlink" x="0px" y="0px"
	 viewBox="0 0 1000 1000" style="enable-background:new 0 0 1000 1000;" xml:space="preserve">
<style type="text/css">
	.st0{fill:#FFFFFF;}
	.st1{fill:#6B9953;}
	.st2{fill:#EBEBE9;}
	.st3{fill:#282C2F;}
	.st4{font-family:'Gilroy-SemiBold';}
	.st5{font-size:20px;}
	.st6{font-family:'Gilroy-Black';}
	.st7{font-size:22px;}
	.st8{fill:#94C384;}
	.st9{font-family:'Gilroy-Regular';}
	.st10{font-size:15px;}
	.st11{fill:#A7D59C;stroke:#A7D59C;stroke-width:4;stroke-miterlimit:10;}
	.st12{fill:#A7D59C;}
	.st13{fill:none;stroke:#FFFFFF;stroke-width:2;stroke-miterlimit:10;}
</style>
<g id="XMLID_45_">
	<rect id="XMLID_148_" x="-0.5" y="0" class="st0" width="1001" height="1000"/>
	<rect id="XMLID_117_" x="917" y="0" class="st1" width="83.5" height="59.5"/>
	<g id="XMLID_47_">
		<g id="XMLID_231_">
			<path id="XMLID_115_" class="st2" d="M900.7,886.1H125.1c-20.5,0-37.2-16.7-37.2-37.2V733.3c0-20.5,16.7-37.2,37.2-37.2h775.6
				c20.5,0,37.2,16.7,37.2,37.2v115.6C937.9,869.5,921.3,886.1,900.7,886.1z"/>
			<g id="XMLID_113_">
				<text id="XMLID_56_" transform="matrix(1 0 0 1 159.1306 731.7395)"><tspan x="0" y="0" class="st3 st4 st5">I’m honored to attend your beautiful memorial for Joseph. I can tell that </tspan><tspan x="0" y="24" class="st3 st4 st5">he was truly loved. </tspan></text>
			</g>
			<g id="XMLID_112_">
				<text id="XMLID_53_" transform="matrix(1 0 0 1 159.1305 788.0227)"><tspan x="0" y="0" class="st3 st4 st5">You may be able to tell, just from the guests at the funeral, how loved </tspan><tspan x="0" y="24" class="st3 st4 st5">and appreciated the departed really was.</tspan></text>
			</g>
			<g id="XMLID_111_">
				<text id="XMLID_51_" transform="matrix(1 0 0 1 159.1306 846.7429)" class="st1 st6 st7">Cathy D. Chao</text>
			</g>
			<g id="XMLID_110_">
				<text id="XMLID_49_" transform="matrix(1 0 0 1 159.1306 864.5427)" class="st8 st9 st10">4487 Private Lane, Tifton, GA 31794 </text>
			</g>
			<path id="XMLID_108_" class="st11" d="M910.9,828.5c0,15.5-15.3,28.2-34.1,28.2H628.3v2.2h248.5c20.3,0,36.9-13.6,36.9-30.4
				v-89.7h-2.8V828.5z"/>
			<g id="XMLID_232_">
				<circle id="XMLID_107_" class="st12" cx="103.8" cy="705.6" r="27.9"/>
				<circle id="XMLID_106_" class="st13" cx="103.8" cy="705.6" r="23.5"/>
				<g id="XMLID_233_">
					<path id="XMLID_234_" class="st0" d="M101.2,698c0.9,1.4,1.4,3.2,1.4,5.3c0,2.7-0.7,5.1-2,7.2c-1.4,2.1-3.4,3.9-6.2,5.1
						l-0.7-1.4c1.7-0.7,3.1-1.8,4.3-3.3c1.2-1.5,1.8-3,1.8-4.6c0-0.6-0.1-1.2-0.2-1.7c-0.9,0.7-1.8,1-3,1c-1.4,0-2.7-0.5-3.7-1.4
						c-1-0.9-1.5-2.2-1.5-3.7c0-1.4,0.5-2.7,1.5-3.7c1-1,2.2-1.5,3.7-1.5C98.6,695.5,100.2,696.3,101.2,698z M114.9,698
						c0.9,1.4,1.4,3.2,1.4,5.3c0,2.7-0.7,5.1-2,7.2c-1.4,2.1-3.4,3.9-6.2,5.1l-0.7-1.4c1.7-0.7,3.1-1.8,4.3-3.3
						c1.2-1.5,1.8-3,1.8-4.6c0-0.6-0.1-1.2-0.2-1.7c-0.9,0.7-1.8,1-3,1c-1.4,0-2.7-0.5-3.7-1.4c-1-0.9-1.5-2.2-1.5-3.7
						c0-1.4,0.5-2.7,1.5-3.7c1-1,2.2-1.5,3.7-1.5C112.3,695.5,113.8,696.3,114.9,698z"/>
				</g>
			</g>
		</g>
		<g id="XMLID_208_">
			<path id="XMLID_103_" class="st2" d="M899.7,444.2H122.9c-20.6,0-37.3-16.7-37.3-37.3v-63.7c0-20.6,16.7-37.3,37.3-37.3h776.8
				c20.6,0,37.3,16.7,37.3,37.3V407C936.9,427.5,920.3,444.2,899.7,444.2z"/>
			<g id="XMLID_102_">
				<text id="XMLID_46_" transform="matrix(1 0 0 1 159.1307 345.2606)"><tspan x="0" y="0" class="st3 st4 st5">I know he will be dearly missed, and I’m sorry I didn’t have the chance to </tspan><tspan x="0" y="24" class="st3 st4 st5">know him better. </tspan></text>
			</g>
			<g id="XMLID_101_">
				<text id="XMLID_43_" transform="matrix(1 0 0 1 159.1307 404.1903)" class="st1 st6 st7">Lisa R. Taylor</text>
			</g>
			<g id="XMLID_100_">
				<text id="XMLID_41_" transform="matrix(1 0 0 1 159.1307 425.4823)" class="st8 st9 st10">4567 Union Street, Seattle, WA 98106</text>
			</g>
			<path id="XMLID_99_" class="st11" d="M910.9,391.6c0,15.6-15.3,28.2-34.1,28.2H627.9v2.2h248.9c20.4,0,36.9-13.7,36.9-30.4v-59.8
				h-2.8V391.6z"/>
			<g id="XMLID_209_">
				<circle id="XMLID_98_" class="st12" cx="103.9" cy="317.2" r="27.9"/>
				<circle id="XMLID_97_" class="st13" cx="103.9" cy="317.2" r="23.6"/>
				<g id="XMLID_210_">
					<path id="XMLID_211_" class="st0" d="M101.3,309.6c0.9,1.4,1.4,3.2,1.4,5.3c0,2.7-0.7,5.1-2.1,7.2c-1.4,2.1-3.4,3.9-6.2,5.2
						l-0.7-1.4c1.7-0.7,3.1-1.8,4.3-3.3c1.2-1.5,1.8-3,1.8-4.6c0-0.6-0.1-1.2-0.2-1.7c-0.9,0.7-1.9,1-3,1c-1.4,0-2.7-0.5-3.7-1.4
						c-1-0.9-1.5-2.2-1.5-3.7c0-1.4,0.5-2.7,1.5-3.7c1-1,2.2-1.5,3.7-1.5C98.6,307,100.2,307.9,101.3,309.6z M115,309.6
						c0.9,1.4,1.4,3.2,1.4,5.3c0,2.7-0.7,5.1-2.1,7.2c-1.4,2.1-3.4,3.9-6.2,5.2l-0.7-1.4c1.7-0.7,3.1-1.8,4.3-3.3
						c1.2-1.5,1.8-3,1.8-4.6c0-0.6-0.1-1.2-0.2-1.7c-0.9,0.7-1.9,1-3,1c-1.4,0-2.7-0.5-3.7-1.4c-1-0.9-1.5-2.2-1.5-3.7
						c0-1.4,0.5-2.7,1.5-3.7c1-1,2.2-1.5,3.7-1.5C112.3,307,113.9,307.9,115,309.6z"/>
				</g>
			</g>
		</g>
		<g id="XMLID_179_">
			<path id="XMLID_94_" class="st2" d="M899.7,667.7H122.9c-20.6,0-37.3-16.7-37.3-37.3V510.7c0-20.6,16.7-37.3,37.3-37.3h776.8
				c20.6,0,37.3,16.7,37.3,37.3v119.8C936.9,651,920.3,667.7,899.7,667.7z"/>
			<g id="XMLID_93_">
				<text id="XMLID_39_" transform="matrix(1 0 0 1 158.9852 512.1364)"><tspan x="0" y="0" class="st3 st4 st5">I love you all, and you’re always in my thoughts. Please know </tspan><tspan x="0" y="24" class="st3 st4 st5">how sorry I am for your loss. </tspan></text>
			</g>
			<g id="XMLID_89_">
				<text id="XMLID_37_" transform="matrix(1 0 0 1 158.9852 568.3688)"><tspan x="0" y="0" class="st3 st4 st5">If you truly love the family of the deceased, let them know how much they </tspan><tspan x="0" y="24" class="st3 st4 st5">mean to you in your condolence book message.</tspan></text>
			</g>
			<g id="XMLID_88_">
				<text id="XMLID_35_" transform="matrix(1 0 0 1 158.9852 626.4684)" class="st1 st6 st7">Joe S. Bennett</text>
			</g>
			<g id="XMLID_87_">
				<text id="XMLID_33_" transform="matrix(1 0 0 1 158.9852 644.6305)" class="st8 st9 st10"> 3767 Cardinal Lane, Mattoon, IL 61938</text>
			</g>
			<path id="XMLID_86_" class="st11" d="M910.9,614c0,15.6-15.3,28.2-34.1,28.2H627.9v2.2h248.9c20.4,0,36.9-13.7,36.9-30.4v-89.8
				h-2.8V614z"/>
			<g id="XMLID_180_">
				<circle id="XMLID_85_" class="st12" cx="103.9" cy="482.2" r="27.9"/>
				<circle id="XMLID_84_" class="st13" cx="103.9" cy="482.2" r="23.6"/>
				<g id="XMLID_181_">
					<path id="XMLID_182_" class="st0" d="M101.3,474.6c0.9,1.4,1.4,3.2,1.4,5.3c0,2.7-0.7,5.1-2.1,7.2c-1.4,2.1-3.4,3.9-6.2,5.2
						l-0.7-1.4c1.7-0.7,3.1-1.8,4.3-3.3c1.2-1.5,1.8-3,1.8-4.6c0-0.6-0.1-1.2-0.2-1.7c-0.9,0.7-1.9,1-3,1c-1.4,0-2.7-0.5-3.7-1.4
						c-1-0.9-1.5-2.2-1.5-3.7c0-1.4,0.5-2.7,1.5-3.7c1-1,2.2-1.5,3.7-1.5C98.6,472,100.2,472.9,101.3,474.6z M115,474.6
						c0.9,1.4,1.4,3.2,1.4,5.3c0,2.7-0.7,5.1-2.1,7.2c-1.4,2.1-3.4,3.9-6.2,5.2l-0.7-1.4c1.7-0.7,3.1-1.8,4.3-3.3
						c1.2-1.5,1.8-3,1.8-4.6c0-0.6-0.1-1.2-0.2-1.7c-0.9,0.7-1.9,1-3,1c-1.4,0-2.7-0.5-3.7-1.4c-1-0.9-1.5-2.2-1.5-3.7
						c0-1.4,0.5-2.7,1.5-3.7c1-1,2.2-1.5,3.7-1.5C112.3,472,113.9,472.9,115,474.6z"/>
				</g>
			</g>
		</g>
		<g id="XMLID_55_">
			<path id="XMLID_19_" class="st2" d="M899.7,279.2H122.9c-20.6,0-37.3-16.7-37.3-37.3v-95.7c0-20.6,16.7-37.3,37.3-37.3h776.8
				c20.6,0,37.3,16.7,37.3,37.3V242C936.9,262.5,920.3,279.2,899.7,279.2z"/>
			<g id="XMLID_10_">
				<text id="XMLID_31_" transform="matrix(1 0 0 1 158.9851 141.2482)"><tspan x="0" y="0" class="st3 st4 st5">I know he will be dearly missed, and I’m sorry I didn’t have the chance </tspan><tspan x="0" y="24" class="st3 st4 st5">to know him better. </tspan></text>
			</g>
			<g id="XMLID_8_">
				<text id="XMLID_29_" transform="matrix(1 0 0 1 158.9851 190.9279)"><tspan x="0" y="0" class="st3 st4 st5">If you wish you’d had the chance to know the person, you can brieﬂy </tspan><tspan x="0" y="24" class="st3 st4 st5">mention that in your note.</tspan></text>
			</g>
			<g id="XMLID_7_">
				<text id="XMLID_27_" transform="matrix(1 0 0 1 158.9851 245.1779)" class="st1 st6 st7">Lisa R. Taylor</text>
			</g>
			<g id="XMLID_6_">
				<text id="XMLID_25_" transform="matrix(1 0 0 1 158.9851 266.4699)" class="st8 st9 st10">4567 Union Street, Seattle, WA 98106</text>
			</g>
			<g id="XMLID_57_">
				<circle id="XMLID_5_" class="st12" cx="103.9" cy="120.1" r="27.9"/>
				<circle id="XMLID_4_" class="st13" cx="103.9" cy="120.1" r="23.6"/>
				<g id="XMLID_58_">
					<path id="XMLID_59_" class="st0" d="M101.3,112.6c0.9,1.4,1.4,3.2,1.4,5.3c0,2.7-0.7,5.1-2.1,7.2c-1.4,2.1-3.4,3.9-6.2,5.2
						l-0.7-1.4c1.7-0.7,3.1-1.8,4.3-3.3c1.2-1.5,1.8-3,1.8-4.6c0-0.6-0.1-1.2-0.2-1.7c-0.9,0.7-1.9,1-3,1c-1.4,0-2.7-0.5-3.7-1.4
						c-1-0.9-1.5-2.2-1.5-3.7c0-1.4,0.5-2.7,1.5-3.7c1-1,2.2-1.5,3.7-1.5C98.6,110,100.2,110.9,101.3,112.6z M115,112.6
						c0.9,1.4,1.4,3.2,1.4,5.3c0,2.7-0.7,5.1-2.1,7.2c-1.4,2.1-3.4,3.9-6.2,5.2l-0.7-1.4c1.7-0.7,3.1-1.8,4.3-3.3
						c1.2-1.5,1.8-3,1.8-4.6c0-0.6-0.1-1.2-0.2-1.7c-0.9,0.7-1.9,1-3,1c-1.4,0-2.7-0.5-3.7-1.4c-1-0.9-1.5-2.2-1.5-3.7
						c0-1.4,0.5-2.7,1.5-3.7c1-1,2.2-1.5,3.7-1.5C112.3,110,113.9,110.9,115,112.6z"/>
				</g>
			</g>
			<path id="XMLID_1_" class="st11" d="M910.9,225.6c0,15.6-15.3,28.2-34.1,28.2H627.9v2.2h248.9c20.4,0,36.9-13.7,36.9-30.4v-89.8
				h-2.8V225.6z"/>
		</g>
	</g>
</g>
</svg>
