<?xml version="1.0" encoding="utf-8"?>
<!-- Generator: Adobe Illustrator 19.0.0, SVG Export Plug-In . SVG Version: 6.00 Build 0)  -->
<svg version="1.1" id="Layer_1" xmlns="http://www.w3.org/2000/svg" xmlns:xlink="http://www.w3.org/1999/xlink" x="0px" y="0px"
	 viewBox="0 0 1000 1000" style="enable-background:new 0 0 1000 1000;" xml:space="preserve">
<style type="text/css">
	.st0{fill:#FFFFFF;}
	.st1{fill:#6B9953;}
	.st2{font-family:'Gilroy-Black';}
	.st3{font-size:34.9094px;}
	.st4{fill:#EBEBE9;}
	.st5{fill:#282C2E;}
	.st6{font-family:'Gilroy-SemiBold';}
	.st7{font-size:20px;}
	.st8{font-size:22px;}
	.st9{fill:#94C384;}
	.st10{font-family:'Gilroy-Regular';}
	.st11{font-size:15px;}
	.st12{fill:#A7D59C;}
	.st13{fill:none;stroke:#FFFFFF;stroke-width:2;stroke-miterlimit:10;}
	.st14{fill:#A7D59C;stroke:#A7D59C;stroke-width:4;stroke-miterlimit:10;}
	.st15{font-family:'PlayfairDisplay-Regular';}
	.st16{font-size:15.8026px;}
</style>
<rect id="XMLID_148_" x="-0.5" class="st0" width="1001" height="1000"/>
<g id="XMLID_1_">
	<g id="XMLID_243_">
		<rect id="XMLID_147_" x="-0.5" class="st1" width="295.3" height="59.5"/>
		<text id="XMLID_146_" transform="matrix(1 0 0 1 14.1825 39.7519)" class="st0 st2 st3">O B I T U A R I E S</text>
	</g>
	<g id="XMLID_86_">
		<g id="XMLID_221_">
			<path id="XMLID_145_" class="st4" d="M895.4,921.6H117.8c-20.6,0-37.3-28.7-37.3-49.3V763.5c0-20.6,16.7-37.3,37.3-37.3h777.6
				c20.6,0,37.3,16.7,37.3,37.3v120.8C932.7,904.9,916,921.6,895.4,921.6z"/>
			<g id="XMLID_144_">
				<text id="XMLID_57_" transform="matrix(1 0 0 1 154.5573 766.8047)" class="st5 st6 st7">It was a joy working with Merideth, and everyone will miss her dearly.</text>
			</g>
			<g id="XMLID_143_">
				<text id="XMLID_55_" transform="matrix(1 0 0 1 154.5573 804.8613)"><tspan x="0" y="0" class="st5 st6 st7">You might phrase your condolence book message this way if the person </tspan><tspan x="0" y="24" class="st5 st6 st7">was your co-worker.</tspan></text>
			</g>
			<g id="XMLID_142_">
				<text id="XMLID_50_" transform="matrix(1 0 0 1 154.5573 869.6836)" class="st1 st2 st8">Olivia Hardy</text>
			</g>
			<g id="XMLID_141_">
				<text id="XMLID_42_" transform="matrix(1 0 0 1 154.5573 888.5332)" class="st9 st10 st11">1620 Wexford Way, Lexington, SC 29072</text>
			</g>
			<g id="XMLID_223_">
				<circle id="XMLID_140_" class="st12" cx="98.7" cy="733.5" r="28"/>
				<circle id="XMLID_139_" class="st13" cx="98.7" cy="733.5" r="23.6"/>
				<g id="XMLID_224_">
					<path id="XMLID_225_" class="st0" d="M96.1,725.9c0.9,1.5,1.4,3.2,1.4,5.3c0,2.7-0.7,5.1-2.1,7.3c-1.4,2.1-3.5,3.9-6.2,5.2
						l-0.7-1.5c1.7-0.7,3.1-1.8,4.3-3.3c1.2-1.5,1.8-3,1.8-4.6c0-0.6-0.1-1.2-0.2-1.7c-0.9,0.7-1.9,1-3,1c-1.5,0-2.7-0.5-3.7-1.4
						c-1-0.9-1.5-2.2-1.5-3.7c0-1.5,0.5-2.7,1.5-3.7c1-1,2.2-1.5,3.7-1.5C93.4,723.3,95,724.2,96.1,725.9z M109.8,725.9
						c0.9,1.5,1.4,3.2,1.4,5.3c0,2.7-0.7,5.1-2.1,7.3c-1.4,2.1-3.5,3.9-6.2,5.2l-0.7-1.5c1.7-0.7,3.1-1.8,4.3-3.3
						c1.2-1.5,1.8-3,1.8-4.6c0-0.6-0.1-1.2-0.2-1.7c-0.9,0.7-1.9,1-3,1c-1.5,0-2.7-0.5-3.7-1.4c-1-0.9-1.5-2.2-1.5-3.7
						c0-1.5,0.5-2.7,1.5-3.7c1-1,2.2-1.5,3.7-1.5C107.1,723.3,108.7,724.2,109.8,725.9z"/>
				</g>
			</g>
			<path id="XMLID_136_" class="st14" d="M902.4,863.9c0,15.6-15.3,28.2-34.2,28.2H619v2.2h249.2c20.4,0,37-13.7,37-30.5V774h-2.8
				V863.9z"/>
		</g>
		<g id="XMLID_199_">
			<path id="XMLID_135_" class="st4" d="M895.5,695.5H119.9c-20.5,0-37.2-16.7-37.2-37.2V556.7c0-20.5,16.7-37.2,37.2-37.2h775.6
				c20.5,0,37.2,16.7,37.2,37.2v101.6C932.7,678.8,916,695.5,895.5,695.5z"/>
			<path id="XMLID_134_" class="st14" d="M902.4,638.9c0,15.5-15.3,28.2-34.1,28.2H619.8v2.2h248.5c20.3,0,36.9-13.6,36.9-30.4
				v-89.7h-2.8V638.9z"/>
			<g id="XMLID_212_">
				<circle id="XMLID_133_" class="st12" cx="98.6" cy="531.9" r="27.9"/>
				<circle id="XMLID_132_" class="st13" cx="98.6" cy="531.9" r="23.5"/>
				<g id="XMLID_213_">
					<path id="XMLID_214_" class="st0" d="M96,524.4c0.9,1.4,1.4,3.2,1.4,5.3c0,2.7-0.7,5.1-2,7.2c-1.4,2.1-3.4,3.9-6.2,5.1
						l-0.7-1.4c1.7-0.7,3.1-1.8,4.3-3.3c1.2-1.5,1.8-3,1.8-4.6c0-0.6-0.1-1.2-0.2-1.7c-0.9,0.7-1.8,1-3,1c-1.4,0-2.7-0.5-3.7-1.4
						c-1-0.9-1.5-2.2-1.5-3.7c0-1.4,0.5-2.7,1.5-3.7c1-1,2.2-1.5,3.7-1.5C93.4,521.8,95,522.7,96,524.4z M109.7,524.4
						c0.9,1.4,1.4,3.2,1.4,5.3c0,2.7-0.7,5.1-2,7.2c-1.4,2.1-3.4,3.9-6.2,5.1l-0.7-1.4c1.7-0.7,3.1-1.8,4.3-3.3
						c1.2-1.5,1.8-3,1.8-4.6c0-0.6-0.1-1.2-0.2-1.7c-0.9,0.7-1.8,1-3,1c-1.4,0-2.7-0.5-3.7-1.4c-1-0.9-1.5-2.2-1.5-3.7
						c0-1.4,0.5-2.7,1.5-3.7c1-1,2.2-1.5,3.7-1.5C107,521.8,108.6,522.7,109.7,524.4z"/>
				</g>
			</g>
			<g id="XMLID_129_">
				<text id="XMLID_38_" transform="matrix(1 0 0 1 154.5573 558.5373)" class="st5 st6 st7">Ella, wherever you are now, I hope you can still feel how much I love and miss you.  </text>
			</g>
			<g id="XMLID_128_">
				<text id="XMLID_36_" transform="matrix(1 0 0 1 154.5573 592.3528)"><tspan x="0" y="0" class="st5 st6 st7">You can address your condolence book message directly to the deceased </tspan><tspan x="0" y="24" class="st5 st6 st7">as a way to communicate your love for them.</tspan></text>
			</g>
			<g id="XMLID_127_">
				<text id="XMLID_34_" transform="matrix(1 0 0 1 154.5573 650.252)" class="st1 st2 st8">David S. Haynes</text>
			</g>
			<g id="XMLID_126_">
				<text id="XMLID_32_" transform="matrix(1 0 0 1 154.5573 668.0518)" class="st9 st10 st11">4266 Hood Avenue, San Diego, CA 92121</text>
			</g>
		</g>
		<g id="XMLID_177_">
			<path id="XMLID_125_" class="st4" d="M893.3,494H119.7c-20.5,0-37.1-16.6-37.1-37.1V331.6c0-20.5,16.6-37.1,37.1-37.1h773.6
				c20.5,0,37.1,16.6,37.1,37.1v125.3C930.4,477.4,913.8,494,893.3,494z"/>
			<g id="XMLID_124_">
				<text id="XMLID_30_" transform="matrix(1 0 0 1 154.5572 336.2694)"><tspan x="0" y="0" class="st5 st6 st7">I deeply admired Aunt Leanne’s character and heart, and I’ll always remember her </tspan><tspan x="0" y="24" class="st5 st6 st7">with love. </tspan></text>
			</g>
			<g id="XMLID_123_">
				<text id="XMLID_28_" transform="matrix(1 0 0 1 154.5572 386.8505)"><tspan x="0" y="0" class="st5 st6 st7">Let the immediate family know what you loved most about the deceased and that </tspan><tspan x="0" y="24" class="st5 st6 st7">you’ll never forget them. </tspan></text>
			</g>
			<path id="XMLID_122_" class="st14" d="M902.4,436.5c0,15.5-15.2,28-33.9,28H621.1v2.2h247.3c20.2,0,36.7-13.6,36.7-30.3v-89.3
				h-2.8V436.5z"/>
			<g id="XMLID_184_">
				<circle id="XMLID_121_" class="st12" cx="98.5" cy="307.1" r="27.8"/>
				<circle id="XMLID_120_" class="st13" cx="98.5" cy="307.1" r="23.4"/>
				<g id="XMLID_185_">
					<path id="XMLID_186_" class="st0" d="M95.9,299.6c0.9,1.4,1.4,3.2,1.4,5.3c0,2.7-0.7,5.1-2,7.2c-1.4,2.1-3.4,3.8-6.2,5.1
						l-0.7-1.4c1.7-0.7,3.1-1.8,4.3-3.3c1.2-1.5,1.8-3,1.8-4.6c0-0.6-0.1-1.2-0.2-1.7c-0.9,0.7-1.8,1-3,1c-1.4,0-2.7-0.5-3.6-1.4
						c-1-0.9-1.5-2.2-1.5-3.7c0-1.4,0.5-2.7,1.5-3.6c1-1,2.2-1.5,3.6-1.5C93.3,297,94.8,297.9,95.9,299.6z M109.5,299.6
						c0.9,1.4,1.4,3.2,1.4,5.3c0,2.7-0.7,5.1-2,7.2c-1.4,2.1-3.4,3.8-6.2,5.1l-0.7-1.4c1.7-0.7,3.1-1.8,4.3-3.3
						c1.2-1.5,1.8-3,1.8-4.6c0-0.6-0.1-1.2-0.2-1.7c-0.9,0.7-1.8,1-3,1c-1.4,0-2.7-0.5-3.6-1.4c-1-0.9-1.5-2.2-1.5-3.7
						c0-1.4,0.5-2.7,1.5-3.6c1-1,2.2-1.5,3.6-1.5C106.9,297,108.4,297.9,109.5,299.6z"/>
				</g>
			</g>
			<g id="XMLID_116_">
				<text id="XMLID_26_" transform="matrix(1 0 0 1 154.5576 444.4804)" class="st1 st2 st8">Cathy D. Chao</text>
			</g>
			<g id="XMLID_114_">
				<text id="XMLID_24_" transform="matrix(1 0 0 1 154.5572 462.1982)" class="st9 st10 st11">4487 Private Lane, Tifton, GA 31794 </text>
			</g>
		</g>
		<g id="XMLID_87_">
			<text id="XMLID_54_" transform="matrix(1 0 0 1 125.2533 162.2043)" class="st15 st16">  </text>
			<path id="XMLID_53_" class="st4" d="M893.3,269.3H119.8c-20.5,0-37.1-16.6-37.1-37.1V130.9c0-20.5,16.6-37.1,37.1-37.1h773.6
				c20.5,0,37.1,16.6,37.1,37.1v101.3C930.4,252.7,913.8,269.3,893.3,269.3z"/>
			<path id="XMLID_51_" class="st14" d="M902.4,212.9c0,15.5-15.3,28.1-34,28.1H620.6v2.2h247.8c20.3,0,36.8-13.6,36.8-30.3v-89.5
				h-2.8V212.9z"/>
			<g id="XMLID_167_">
				<circle id="XMLID_49_" class="st12" cx="98.5" cy="106.2" r="27.8"/>
				<circle id="XMLID_48_" class="st13" cx="98.5" cy="106.2" r="23.5"/>
				<g id="XMLID_168_">
					<path id="XMLID_169_" class="st0" d="M96,98.7c0.9,1.4,1.4,3.2,1.4,5.3c0,2.7-0.7,5.1-2,7.2c-1.4,2.1-3.4,3.8-6.2,5.1l-0.7-1.4
						c1.7-0.7,3.1-1.8,4.3-3.3c1.2-1.5,1.8-3,1.8-4.6c0-0.6-0.1-1.2-0.2-1.7c-0.9,0.7-1.8,1-3,1c-1.4,0-2.7-0.5-3.6-1.4
						c-1-0.9-1.5-2.2-1.5-3.7c0-1.4,0.5-2.7,1.5-3.6c1-1,2.2-1.5,3.6-1.5C93.3,96.1,94.9,97,96,98.7z M109.6,98.7
						c0.9,1.4,1.4,3.2,1.4,5.3c0,2.7-0.7,5.1-2,7.2c-1.4,2.1-3.4,3.8-6.2,5.1l-0.7-1.4c1.7-0.7,3.1-1.8,4.3-3.3
						c1.2-1.5,1.8-3,1.8-4.6c0-0.6-0.1-1.2-0.2-1.7c-0.9,0.7-1.8,1-3,1c-1.4,0-2.7-0.5-3.6-1.4c-1-0.9-1.5-2.2-1.5-3.7
						c0-1.4,0.5-2.7,1.5-3.6c1-1,2.2-1.5,3.6-1.5C106.9,96.1,108.5,97,109.6,98.7z"/>
				</g>
			</g>
			<g id="XMLID_45_">
				<text id="XMLID_22_" transform="matrix(1 0 0 1 154.5572 132.7597)" class="st5 st6 st7">Ella, wherever you are now, I hope you can still feel how much I love and miss you.  </text>
			</g>
			<g id="XMLID_44_">
				<text id="XMLID_20_" transform="matrix(1 0 0 1 154.5572 163.4941)"><tspan x="0" y="0" class="st5 st6 st7">You can address your condolence book message directly to the deceased </tspan><tspan x="0" y="24" class="st5 st6 st7">as a way to communicate your love for them.</tspan></text>
			</g>
			<g id="XMLID_40_">
				<text id="XMLID_18_" transform="matrix(1 0 0 1 154.5572 224.2334)" class="st1 st2 st8">David S. Haynes</text>
			</g>
			<g id="XMLID_39_">
				<text id="XMLID_16_" transform="matrix(1 0 0 1 154.5572 241.9863)" class="st9 st10 st11">4266 Hood Avenue, San Diego, CA 92121</text>
			</g>
		</g>
	</g>
</g>
</svg>
