<?xml version="1.0" encoding="utf-8"?>
<!-- Generator: Adobe Illustrator 19.0.0, SVG Export Plug-In . SVG Version: 6.00 Build 0)  -->
<svg version="1.1" id="Layer_1" xmlns="http://www.w3.org/2000/svg" xmlns:xlink="http://www.w3.org/1999/xlink" x="0px" y="0px"
	 viewBox="0 0 1000 1000" style="enable-background:new 0 0 1000 1000;" xml:space="preserve">
<style type="text/css">
	.st0{fill:#FFFFFF;}
	.st1{fill:#6B9953;}
	.st2{font-family:'Gilroy-Black';}
	.st3{font-size:34.9094px;}
	.st4{fill:#EBEBE9;}
	.st5{fill:#282C30;}
	.st6{font-family:'Gilroy-SemiBold';}
	.st7{font-size:20px;}
	.st8{font-size:22px;}
	.st9{fill:#94C384;}
	.st10{font-family:'Gilroy-Regular';}
	.st11{font-size:15px;}
	.st12{fill:#A7D59C;}
	.st13{fill:none;stroke:#FFFFFF;stroke-width:2;stroke-miterlimit:10;}
	.st14{fill:#A7D59C;stroke:#A7D59C;stroke-width:4;stroke-miterlimit:10;}
</style>
<rect id="XMLID_72_" x="-0.5" class="st0" width="1001" height="1000"/>
<g id="XMLID_11_">
	<g>
		<rect id="XMLID_71_" x="-0.5" class="st1" width="295.3" height="59.5"/>
		<text id="XMLID_70_" transform="matrix(1 0 0 1 14.1825 39.7519)" class="st0 st2 st3">O B I T U A R I E S</text>
	</g>
	<g>
		<g>
			<path id="XMLID_69_" class="st4" d="M895.3,318.1H119.7c-20.5,0-37.2-16.7-37.2-37.2V135.3c0-20.5,16.7-37.2,37.2-37.2h775.6
				c20.5,0,37.2,16.7,37.2,37.2v145.6C932.5,301.4,915.8,318.1,895.3,318.1z"/>
			<g id="XMLID_68_">
				<text id="XMLID_42_" transform="matrix(1 0 0 1 157.4236 140.5852)"><tspan x="0" y="0" class="st5 st6 st7">I know Sebastian was a wonderful son and brother. And I want you to know how </tspan><tspan x="0" y="24" class="st5 st6 st7">wonderful he was as a friend, too. Thank you for raising such an amazing man. </tspan></text>
			</g>
			<g id="XMLID_67_">
				<text id="XMLID_40_" transform="matrix(1 0 0 1 157.4236 200.5452)"><tspan x="0" y="0" class="st5 st6 st7">You have a unique viewpoint of the deceased as their friend. The family would </tspan><tspan x="0" y="24" class="st5 st6 st7">likely enjoy knowing how great a friend their brother, son, or husband was. </tspan></text>
			</g>
			<g id="XMLID_66_">
				<text id="XMLID_38_" transform="matrix(1 0 0 1 157.4237 263.344)" class="st1 st2 st8">George G. Fitzpatrick</text>
			</g>
			<g id="XMLID_65_">
				<text id="XMLID_36_" transform="matrix(1 0 0 1 157.4237 282.1438)" class="st9 st10 st11">2451 Ashwood Drive, Sioux City, IA 51101</text>
			</g>
			<g>
				<circle id="XMLID_64_" class="st12" cx="100.7" cy="105.3" r="27.9"/>
				<circle id="XMLID_63_" class="st13" cx="100.7" cy="105.3" r="23.5"/>
				<g>
					<path class="st0" d="M98.1,97.7c0.9,1.4,1.4,3.2,1.4,5.3c0,2.7-0.7,5.1-2,7.2c-1.4,2.1-3.4,3.9-6.2,5.1l-0.7-1.4
						c1.7-0.7,3.1-1.8,4.3-3.3c1.2-1.5,1.8-3,1.8-4.6c0-0.6-0.1-1.2-0.2-1.7c-0.9,0.7-1.8,1-3,1c-1.4,0-2.7-0.5-3.7-1.4
						c-1-0.9-1.5-2.2-1.5-3.7c0-1.4,0.5-2.7,1.5-3.7c1-1,2.2-1.5,3.7-1.5C95.5,95.2,97,96,98.1,97.7z M111.8,97.7
						c0.9,1.4,1.4,3.2,1.4,5.3c0,2.7-0.7,5.1-2,7.2c-1.4,2.1-3.4,3.9-6.2,5.1l-0.7-1.4c1.7-0.7,3.1-1.8,4.3-3.3
						c1.2-1.5,1.8-3,1.8-4.6c0-0.6-0.1-1.2-0.2-1.7c-0.9,0.7-1.8,1-3,1c-1.4,0-2.7-0.5-3.7-1.4c-1-0.9-1.5-2.2-1.5-3.7
						c0-1.4,0.5-2.7,1.5-3.7c1-1,2.2-1.5,3.7-1.5C109.1,95.2,110.7,96,111.8,97.7z"/>
				</g>
			</g>
			<path id="XMLID_60_" class="st14" d="M906.5,262.5c0,15.5-15.3,28.2-34.1,28.2H623.9v2.2h248.5c20.3,0,36.9-13.6,36.9-30.4v-89.7
				h-2.8V262.5z"/>
		</g>
		<g>
			<path id="XMLID_59_" class="st4" d="M895.4,742.9H121.9c-20.5,0-37.1-16.6-37.1-37.1V560.6c0-20.5,16.6-37.1,37.1-37.1h773.5
				c20.5,0,37.1,16.6,37.1,37.1v145.2C932.5,726.3,915.9,742.9,895.4,742.9z"/>
			<path id="XMLID_58_" class="st14" d="M903.9,684.7c0,15.5-15.3,28.2-34.1,28.2H621.3v2.2h248.5c20.3,0,36.9-13.6,36.9-30.4V595
				h-2.8V684.7z"/>
			<g>
				<circle id="XMLID_57_" class="st12" cx="100.7" cy="535.7" r="27.9"/>
				<circle id="XMLID_56_" class="st13" cx="100.7" cy="535.7" r="23.5"/>
				<g>
					<path class="st0" d="M98.1,528.1c0.9,1.4,1.4,3.2,1.4,5.3c0,2.7-0.7,5.1-2,7.2c-1.4,2.1-3.4,3.9-6.2,5.1l-0.7-1.4
						c1.7-0.7,3.1-1.8,4.3-3.3c1.2-1.5,1.8-3,1.8-4.6c0-0.6-0.1-1.2-0.2-1.7c-0.9,0.7-1.8,1-3,1c-1.4,0-2.7-0.5-3.7-1.4
						c-1-0.9-1.5-2.2-1.5-3.7c0-1.4,0.5-2.7,1.5-3.7c1-1,2.2-1.5,3.7-1.5C95.5,525.5,97,526.4,98.1,528.1z M111.8,528.1
						c0.9,1.4,1.4,3.2,1.4,5.3c0,2.7-0.7,5.1-2,7.2c-1.4,2.1-3.4,3.9-6.2,5.1l-0.7-1.4c1.7-0.7,3.1-1.8,4.3-3.3
						c1.2-1.5,1.8-3,1.8-4.6c0-0.6-0.1-1.2-0.2-1.7c-0.9,0.7-1.8,1-3,1c-1.4,0-2.7-0.5-3.7-1.4c-1-0.9-1.5-2.2-1.5-3.7
						c0-1.4,0.5-2.7,1.5-3.7c1-1,2.2-1.5,3.7-1.5C109.1,525.5,110.7,526.4,111.8,528.1z"/>
				</g>
			</g>
			<g id="XMLID_53_">
				<text id="XMLID_34_" transform="matrix(1 0 0 1 157.4235 565.6548)"><tspan x="0" y="0" class="st5 st6 st7">I’m so sorry you’re going through this, and you have my full support, </tspan><tspan x="0" y="24" class="st5 st6 st7">whatever you need. Your husband was an incredible man.</tspan></text>
			</g>
			<g id="XMLID_52_">
				<text id="XMLID_73_" transform="matrix(1 0 0 1 157.4235 625.1587)"><tspan x="0" y="0" class="st5 st6 st7">You can add a few words in your condolence book message to let the family </tspan><tspan x="0" y="24" class="st5 st6 st7">know they can rely on you for support. </tspan></text>
			</g>
			<g id="XMLID_51_">
				<text id="XMLID_75_" transform="matrix(1 0 0 1 157.4235 694.7017)" class="st1 st2 st8">Theodore O. Nelson</text>
			</g>
			<g id="XMLID_50_">
				<text id="XMLID_77_" transform="matrix(1 0 0 1 157.4235 713.2769)" class="st9 st10 st11">2836 Terra Cotta Street, Bemidji, MN 56601</text>
			</g>
		</g>
		<g>
			<path id="XMLID_49_" class="st4" d="M895.3,497.8H119.7c-20.5,0-37.2-28.7-37.2-49.2V386c0-20.5,16.7-37.2,37.2-37.2h775.6
				c20.5,0,37.2,16.7,37.2,37.2v74.6C932.5,481.1,915.8,497.8,895.3,497.8z"/>
			<g id="XMLID_48_">
				<text id="XMLID_79_" transform="matrix(1 0 0 1 157.4237 386.7395)"><tspan x="0" y="0" class="st5 st6 st7">Jenny had a beautiful soul, and she’ll be with me every day of my life. </tspan><tspan x="0" y="24" class="st5 st6 st7">Please accept my sincerest condolences for your loss. </tspan></text>
			</g>
			<g id="XMLID_47_">
				<text id="XMLID_81_" transform="matrix(1 0 0 1 157.4237 452.417)" class="st1 st2 st8">Janet C. Young</text>
			</g>
			<g id="XMLID_46_">
				<text id="XMLID_83_" transform="matrix(1 0 0 1 157.4236 471.2168)" class="st9 st10 st11">1425 Red Bud Lane, Tampa, FL 33610</text>
			</g>
			<g>
				<circle id="XMLID_45_" class="st12" cx="100.7" cy="356" r="27.9"/>
				<circle id="XMLID_44_" class="st13" cx="100.7" cy="356" r="23.5"/>
				<g>
					<path class="st0" d="M98.1,348.4c0.9,1.4,1.4,3.2,1.4,5.3c0,2.7-0.7,5.1-2,7.2c-1.4,2.1-3.4,3.9-6.2,5.1l-0.7-1.4
						c1.7-0.7,3.1-1.8,4.3-3.3c1.2-1.5,1.8-3,1.8-4.6c0-0.6-0.1-1.2-0.2-1.7c-0.9,0.7-1.8,1-3,1c-1.4,0-2.7-0.5-3.7-1.4
						c-1-0.9-1.5-2.2-1.5-3.7c0-1.4,0.5-2.7,1.5-3.7c1-1,2.2-1.5,3.7-1.5C95.5,345.9,97,346.7,98.1,348.4z M111.8,348.4
						c0.9,1.4,1.4,3.2,1.4,5.3c0,2.7-0.7,5.1-2,7.2c-1.4,2.1-3.4,3.9-6.2,5.1l-0.7-1.4c1.7-0.7,3.1-1.8,4.3-3.3
						c1.2-1.5,1.8-3,1.8-4.6c0-0.6-0.1-1.2-0.2-1.7c-0.9,0.7-1.8,1-3,1c-1.4,0-2.7-0.5-3.7-1.4c-1-0.9-1.5-2.2-1.5-3.7
						c0-1.4,0.5-2.7,1.5-3.7c1-1,2.2-1.5,3.7-1.5C109.1,345.9,110.7,346.7,111.8,348.4z"/>
				</g>
			</g>
			<path id="XMLID_39_" class="st14" d="M906.5,446.2c0,15.5-15.3,28.2-34.1,28.2H623.9v2.2h248.5c20.3,0,36.9-13.6,36.9-30.4v-59.7
				h-2.8V446.2z"/>
		</g>
		<g>
			<path id="XMLID_10_" class="st4" d="M895.4,922.6H122c-20.5,0-37.1-16.6-37.1-37.1v-77.4c0-20.5,16.6-37.1,37.1-37.1h773.4
				c20.5,0,37.1,16.6,37.1,37.1v77.4C932.5,906,915.9,922.6,895.4,922.6z"/>
			<g id="XMLID_9_">
				<text id="XMLID_84_" transform="matrix(1 0 0 1 157.4235 805.8428)" class="st5 st6 st7">It was a joy working with Merideth, and everyone will miss her dearly. </text>
			</g>
			<g id="XMLID_8_">
				<text id="XMLID_85_" transform="matrix(1 0 0 1 157.4235 833.7891)"><tspan x="0" y="0" class="st5 st6 st7">You might phrase your condolence book message this way if the person </tspan><tspan x="0" y="24" class="st5 st6 st7">was your co-worker.</tspan></text>
			</g>
			<g id="XMLID_7_">
				<text id="XMLID_86_" transform="matrix(1 0 0 1 157.4235 888.2529)"><tspan x="0" y="0" class="st1 st2 st8">O</tspan><tspan x="17.2" y="0" class="st1 st2 st8">l</tspan><tspan x="22.9" y="0" class="st1 st2 st8">i</tspan><tspan x="28.6" y="0" class="st1 st2 st8">via </tspan><tspan x="65.1" y="0" class="st1 st2 st8">H</tspan><tspan x="79.6" y="0" class="st1 st2 st8">a</tspan><tspan x="93.1" y="0" class="st1 st2 st8">r</tspan><tspan x="101.2" y="0" class="st1 st2 st8">dy</tspan></text>
			</g>
			<g id="XMLID_6_">
				<text id="XMLID_87_" transform="matrix(1 0 0 1 157.4235 906.2754)" class="st9 st10 st11">1620 Wexford Way, Lexington, SC 29072 </text>
			</g>
			<path id="XMLID_5_" class="st14" d="M906.5,867.6c0,15.7-15.5,28.5-34.5,28.5H620.4v2.3H872c20.6,0,37.4-13.8,37.4-30.8v-57.6
				h-2.8V867.6z"/>
			<g>
				<circle id="XMLID_4_" class="st12" cx="101" cy="781.2" r="28.3"/>
				<circle id="XMLID_3_" class="st13" cx="101" cy="781.2" r="23.8"/>
				<g>
					<path class="st0" d="M98.4,773.5c0.9,1.5,1.4,3.3,1.4,5.4c0,2.7-0.7,5.2-2.1,7.3c-1.4,2.2-3.5,3.9-6.3,5.2l-0.7-1.5
						c1.7-0.7,3.1-1.8,4.4-3.3c1.2-1.5,1.8-3.1,1.8-4.6c0-0.7-0.1-1.2-0.2-1.7c-0.9,0.7-1.9,1.1-3,1.1c-1.5,0-2.7-0.5-3.7-1.4
						c-1-0.9-1.5-2.2-1.5-3.8c0-1.5,0.5-2.7,1.5-3.7c1-1,2.2-1.5,3.7-1.5C95.7,770.9,97.3,771.8,98.4,773.5z M112.3,773.5
						c0.9,1.5,1.4,3.3,1.4,5.4c0,2.7-0.7,5.2-2.1,7.3c-1.4,2.2-3.5,3.9-6.3,5.2l-0.7-1.5c1.7-0.7,3.1-1.8,4.4-3.3
						c1.2-1.5,1.8-3.1,1.8-4.6c0-0.7-0.1-1.2-0.2-1.7c-0.9,0.7-1.9,1.1-3,1.1c-1.5,0-2.7-0.5-3.7-1.4c-1-0.9-1.5-2.2-1.5-3.8
						c0-1.5,0.5-2.7,1.5-3.7c1-1,2.2-1.5,3.7-1.5C109.6,770.9,111.2,771.8,112.3,773.5z"/>
				</g>
			</g>
		</g>
	</g>
</g>
</svg>
