<?xml version="1.0" encoding="utf-8"?>
<!-- Generator: Adobe Illustrator 19.0.0, SVG Export Plug-In . SVG Version: 6.00 Build 0)  -->
<svg version="1.1" id="Layer_1" xmlns="http://www.w3.org/2000/svg" xmlns:xlink="http://www.w3.org/1999/xlink" x="0px" y="0px"
	 viewBox="0 0 1000 1000" style="enable-background:new 0 0 1000 1000;" xml:space="preserve">
<style type="text/css">
	.st0{fill:#FFFFFF;}
	.st1{fill:#6B9953;}
	.st2{fill:#EBEBE9;}
	.st3{fill:#A7D59C;stroke:#A7D59C;stroke-width:4;stroke-miterlimit:10;}
	.st4{fill:#A7D59C;}
	.st5{fill:none;stroke:#FFFFFF;stroke-width:2;stroke-miterlimit:10;}
	.st6{fill:#282C2E;}
	.st7{font-family:'Gilroy-SemiBold';}
	.st8{font-size:20px;}
	.st9{font-family:'Gilroy-Black';}
	.st10{font-size:22px;}
	.st11{fill:#94C384;}
	.st12{font-family:'Gilroy-Medium';}
	.st13{font-size:15px;}
	.st14{font-family:'Gilroy-Regular';}
</style>
<rect id="XMLID_152_" x="-0.5" class="st0" width="1001" height="1000"/>
<g id="XMLID_9_">
	<rect id="XMLID_151_" x="917" class="st1" width="83.5" height="59.5"/>
	<g id="XMLID_45_">
		<g id="XMLID_233_">
			<path id="XMLID_150_" class="st2" d="M902.1,923.9H126.5c-20.5,0-37.2-16.7-37.2-37.2V785.1c0-20.5,16.7-37.2,37.2-37.2h775.6
				c20.5,0,37.2,16.7,37.2,37.2v101.6C939.3,907.2,922.6,923.9,902.1,923.9z"/>
			<path id="XMLID_148_" class="st3" d="M909.3,867.3c0,15.5-15.3,28.2-34.1,28.2H626.7v2.2h248.5c20.3,0,36.9-13.6,36.9-30.4v-89.7
				h-2.8V867.3z"/>
			<g id="XMLID_249_">
				<circle id="XMLID_118_" class="st4" cx="105.2" cy="760.3" r="27.9"/>
				<circle id="XMLID_117_" class="st5" cx="105.2" cy="760.3" r="23.5"/>
				<g id="XMLID_251_">
					<path id="XMLID_252_" class="st0" d="M102.6,752.8c0.9,1.4,1.4,3.2,1.4,5.3c0,2.7-0.7,5.1-2,7.2c-1.4,2.1-3.4,3.9-6.2,5.1
						L95,769c1.7-0.7,3.1-1.8,4.3-3.3c1.2-1.5,1.8-3,1.8-4.6c0-0.6-0.1-1.2-0.2-1.7c-0.9,0.7-1.8,1-3,1c-1.4,0-2.7-0.5-3.7-1.4
						c-1-0.9-1.5-2.2-1.5-3.7c0-1.4,0.5-2.7,1.5-3.7c1-1,2.2-1.5,3.7-1.5C100,750.2,101.6,751.1,102.6,752.8z M116.3,752.8
						c0.9,1.4,1.4,3.2,1.4,5.3c0,2.7-0.7,5.1-2,7.2c-1.4,2.1-3.4,3.9-6.2,5.1l-0.7-1.4c1.7-0.7,3.1-1.8,4.3-3.3
						c1.2-1.5,1.8-3,1.8-4.6c0-0.6-0.1-1.2-0.2-1.7c-0.9,0.7-1.8,1-3,1c-1.4,0-2.7-0.5-3.7-1.4c-1-0.9-1.5-2.2-1.5-3.7
						c0-1.4,0.5-2.7,1.5-3.7c1-1,2.2-1.5,3.7-1.5C113.6,750.2,115.2,751.1,116.3,752.8z"/>
				</g>
			</g>
			<g id="XMLID_113_">
				<text id="XMLID_58_" transform="matrix(1 0 0 1 160.2518 786.9504)" class="st6 st7 st8">Ella, wherever you are now, I hope you can still feel how much I love and miss you.  </text>
			</g>
			<g id="XMLID_112_">
				<text id="XMLID_56_" transform="matrix(1 0 0 1 160.2518 820.7659)"><tspan x="0" y="0" class="st6 st7 st8">You can address your condolence book message directly to the deceased </tspan><tspan x="0" y="24" class="st6 st7 st8">as a way to communicate your love for them.</tspan></text>
			</g>
			<g id="XMLID_111_">
				<text id="XMLID_53_" transform="matrix(1 0 0 1 160.2513 878.6652)" class="st1 st9 st10">David S. Haynes</text>
			</g>
			<g id="XMLID_110_">
				<text id="XMLID_51_" transform="matrix(1 0 0 1 160.2513 896.465)" class="st11 st12 st13">4266 Hood Avenue, San Diego, CA 92121</text>
			</g>
		</g>
		<g id="XMLID_210_">
			<path id="XMLID_108_" class="st2" d="M899.9,722.4H126.4c-20.5,0-37.1-16.6-37.1-37.1V560.1c0-20.5,16.6-37.1,37.1-37.1h773.6
				c20.5,0,37.1,16.6,37.1,37.1v125.3C937,705.8,920.4,722.4,899.9,722.4z"/>
			<g id="XMLID_107_">
				<text id="XMLID_49_" transform="matrix(1 0 0 1 159.8664 564.6825)"><tspan x="0" y="0" class="st6 st7 st8">I deeply admired Aunt Leanne’s character and heart, and I’ll always remember her </tspan><tspan x="0" y="24" class="st6 st7 st8">with love. </tspan></text>
			</g>
			<g id="XMLID_106_">
				<text id="XMLID_47_" transform="matrix(1 0 0 1 159.8664 615.2635)"><tspan x="0" y="0" class="st6 st7 st8">Let the immediate family know what you loved most about the deceased and that </tspan><tspan x="0" y="24" class="st6 st7 st8">you’ll never forget them. </tspan></text>
			</g>
			<path id="XMLID_105_" class="st3" d="M909.1,664.9c0,15.5-15.2,28-33.9,28H627.8v2.2h247.3c20.2,0,36.7-13.6,36.7-30.3v-89.3
				h-2.8V664.9z"/>
			<g id="XMLID_217_">
				<circle id="XMLID_104_" class="st4" cx="105.1" cy="535.5" r="27.8"/>
				<circle id="XMLID_103_" class="st5" cx="105.1" cy="535.5" r="23.4"/>
				<g id="XMLID_218_">
					<path id="XMLID_219_" class="st0" d="M102.5,528c0.9,1.4,1.4,3.2,1.4,5.3c0,2.7-0.7,5.1-2,7.2c-1.4,2.1-3.4,3.8-6.2,5.1
						l-0.7-1.4c1.7-0.7,3.1-1.8,4.3-3.3c1.2-1.5,1.8-3,1.8-4.6c0-0.6-0.1-1.2-0.2-1.7c-0.9,0.7-1.8,1-3,1c-1.4,0-2.7-0.5-3.6-1.4
						c-1-0.9-1.5-2.2-1.5-3.7c0-1.4,0.5-2.7,1.5-3.6c1-1,2.2-1.5,3.6-1.5C99.9,525.5,101.5,526.3,102.5,528z M116.1,528
						c0.9,1.4,1.4,3.2,1.4,5.3c0,2.7-0.7,5.1-2,7.2c-1.4,2.1-3.4,3.8-6.2,5.1l-0.7-1.4c1.7-0.7,3.1-1.8,4.3-3.3
						c1.2-1.5,1.8-3,1.8-4.6c0-0.6-0.1-1.2-0.2-1.7c-0.9,0.7-1.8,1-3,1c-1.4,0-2.7-0.5-3.6-1.4c-1-0.9-1.5-2.2-1.5-3.7
						c0-1.4,0.5-2.7,1.5-3.6c1-1,2.2-1.5,3.6-1.5C113.5,525.5,115.1,526.3,116.1,528z"/>
				</g>
			</g>
			<g id="XMLID_100_">
				<text id="XMLID_44_" transform="matrix(1 0 0 1 159.8663 672.8935)" class="st1 st9 st10">Cathy D. Chao</text>
			</g>
			<g id="XMLID_99_">
				<text id="XMLID_41_" transform="matrix(1 0 0 1 159.8663 690.6113)" class="st11 st14 st13">4487 Private Lane, Tifton, GA 31794 </text>
			</g>
		</g>
		<g id="XMLID_181_">
			<path id="XMLID_98_" class="st2" d="M899.8,296.8H124.2c-20.5,0-37.2-16.7-37.2-37.2V134c0-20.5,16.7-37.2,37.2-37.2h775.6
				c20.5,0,37.2,16.7,37.2,37.2v125.6C937,280.1,920.4,296.8,899.8,296.8z"/>
			<g id="XMLID_97_">
				<text id="XMLID_39_" transform="matrix(1 0 0 1 160.2512 139.219)"><tspan x="0" y="0" class="st6 st7 st8">I wish I could have spent more time with Gary in his final years, but I’m honored to </tspan><tspan x="0" y="24" class="st6 st7 st8">have known him.</tspan></text>
			</g>
			<g id="XMLID_96_">
				<text id="XMLID_37_" transform="matrix(1 0 0 1 160.2513 193.179)"><tspan x="0" y="0" class="st6 st7 st8">You can phrase your message this way if you (sincerely) loved the time you spent </tspan><tspan x="0" y="24" class="st6 st7 st8">with the person who passed away.</tspan></text>
			</g>
			<g id="XMLID_95_">
				<text id="XMLID_35_" transform="matrix(1 0 0 1 160.3607 252.9778)" class="st1 st9 st10">Ava J. James</text>
			</g>
			<g id="XMLID_94_">
				<text id="XMLID_33_" transform="matrix(1 0 0 1 160.2513 271.7776)" class="st11 st14 st13">4587 Spirit Drive, Hastings, FL 32145</text>
			</g>
			<g id="XMLID_183_">
				<circle id="XMLID_93_" class="st4" cx="105.2" cy="104" r="27.9"/>
				<circle id="XMLID_92_" class="st5" cx="105.2" cy="104" r="23.5"/>
				<g id="XMLID_184_">
					<path id="XMLID_185_" class="st0" d="M102.6,96.5c0.9,1.4,1.4,3.2,1.4,5.3c0,2.7-0.7,5.1-2,7.2c-1.4,2.1-3.4,3.9-6.2,5.1
						l-0.7-1.4c1.7-0.7,3.1-1.8,4.3-3.3c1.2-1.5,1.8-3,1.8-4.6c0-0.6-0.1-1.2-0.2-1.7c-0.9,0.7-1.8,1-3,1c-1.4,0-2.7-0.5-3.7-1.4
						c-1-0.9-1.5-2.2-1.5-3.7c0-1.4,0.5-2.7,1.5-3.7c1-1,2.2-1.5,3.7-1.5C100,93.9,101.6,94.7,102.6,96.5z M116.3,96.5
						c0.9,1.4,1.4,3.2,1.4,5.3c0,2.7-0.7,5.1-2,7.2c-1.4,2.1-3.4,3.9-6.2,5.1l-0.7-1.4c1.7-0.7,3.1-1.8,4.3-3.3
						c1.2-1.5,1.8-3,1.8-4.6c0-0.6-0.1-1.2-0.2-1.7c-0.9,0.7-1.8,1-3,1c-1.4,0-2.7-0.5-3.7-1.4c-1-0.9-1.5-2.2-1.5-3.7
						c0-1.4,0.5-2.7,1.5-3.7c1-1,2.2-1.5,3.7-1.5C113.6,93.9,115.2,94.7,116.3,96.5z"/>
				</g>
			</g>
			<path id="XMLID_87_" class="st3" d="M910.1,238.2c0,15.5-15.3,28.2-34.1,28.2H627.5v2.2H876c20.3,0,36.9-13.6,36.9-30.4v-89.7
				h-2.8V238.2z"/>
		</g>
		<g id="XMLID_54_">
			<path id="XMLID_21_" class="st2" d="M899.9,497.8H126.4c-20.5,0-37.1-16.6-37.1-37.1V359.3c0-20.5,16.6-37.1,37.1-37.1h773.6
				c20.5,0,37.1,16.6,37.1,37.1v101.3C937,481.1,920.4,497.8,899.9,497.8z"/>
			<path id="XMLID_18_" class="st3" d="M909,441.3c0,15.5-15.3,28.1-34,28.1H627.2v2.2H875c20.3,0,36.8-13.6,36.8-30.3v-89.5H909
				V441.3z"/>
			<g id="XMLID_171_">
				<circle id="XMLID_8_" class="st4" cx="105.1" cy="334.6" r="27.8"/>
				<circle id="XMLID_7_" class="st5" cx="105.1" cy="334.6" r="23.5"/>
				<g id="XMLID_172_">
					<path id="XMLID_173_" class="st0" d="M102.6,327.1c0.9,1.4,1.4,3.2,1.4,5.3c0,2.7-0.7,5.1-2,7.2c-1.4,2.1-3.4,3.8-6.2,5.1
						l-0.7-1.4c1.7-0.7,3.1-1.8,4.3-3.3c1.2-1.5,1.8-3,1.8-4.6c0-0.6-0.1-1.2-0.2-1.7c-0.9,0.7-1.8,1-3,1c-1.4,0-2.7-0.5-3.6-1.4
						c-1-0.9-1.5-2.2-1.5-3.7c0-1.4,0.5-2.7,1.5-3.6c1-1,2.2-1.5,3.6-1.5C99.9,324.5,101.5,325.4,102.6,327.1z M116.2,327.1
						c0.9,1.4,1.4,3.2,1.4,5.3c0,2.7-0.7,5.1-2,7.2c-1.4,2.1-3.4,3.8-6.2,5.1l-0.7-1.4c1.7-0.7,3.1-1.8,4.3-3.3
						c1.2-1.5,1.8-3,1.8-4.6c0-0.6-0.1-1.2-0.2-1.7c-0.9,0.7-1.8,1-3,1c-1.4,0-2.7-0.5-3.6-1.4c-1-0.9-1.5-2.2-1.5-3.7
						c0-1.4,0.5-2.7,1.5-3.6c1-1,2.2-1.5,3.6-1.5C113.6,324.5,115.1,325.4,116.2,327.1z"/>
				</g>
			</g>
			<g id="XMLID_4_">
				<text id="XMLID_31_" transform="matrix(1 0 0 1 161.1642 361.1729)" class="st6 st7 st8">Ella, wherever you are now, I hope you can still feel how much I love and miss you.  </text>
			</g>
			<g id="XMLID_3_">
				<text id="XMLID_57_" transform="matrix(1 0 0 1 161.1642 391.9072)"><tspan x="0" y="0" class="st6 st7 st8">You can address your condolence book message directly to the deceased </tspan><tspan x="0" y="24" class="st6 st7 st8">as a way to communicate your love for them.</tspan></text>
			</g>
			<g id="XMLID_2_">
				<text id="XMLID_59_" transform="matrix(1 0 0 1 161.1642 452.6465)" class="st1 st9 st10">David S. Haynes</text>
			</g>
			<g id="XMLID_1_">
				<text id="XMLID_60_" transform="matrix(1 0 0 1 161.1651 470.3994)" class="st11 st14 st13">4266 Hood Avenue, San Diego, CA 92121</text>
			</g>
		</g>
	</g>
</g>
</svg>
