<?xml version="1.0" encoding="utf-8"?>
<!-- Generator: Adobe Illustrator 19.0.0, SVG Export Plug-In . SVG Version: 6.00 Build 0)  -->
<svg version="1.1" id="Layer_1" xmlns="http://www.w3.org/2000/svg" xmlns:xlink="http://www.w3.org/1999/xlink" x="0px" y="0px"
	 viewBox="0 0 1000 1000" style="enable-background:new 0 0 1000 1000;" xml:space="preserve">
<style type="text/css">
	.st0{fill:#FFFFFF;}
	.st1{fill:#6B9953;}
	.st2{font-family:'Gilroy-Black';}
	.st3{font-size:34.9094px;}
	.st4{fill:#EBEBE9;}
	.st5{fill:#282C2F;}
	.st6{font-family:'Gilroy-SemiBold';}
	.st7{font-size:20px;}
	.st8{font-size:22px;}
	.st9{fill:#94C384;}
	.st10{font-family:'Gilroy-Regular';}
	.st11{font-size:15px;}
	.st12{fill:#A7D59C;stroke:#A7D59C;stroke-width:4;stroke-miterlimit:10;}
	.st13{fill:#A7D59C;}
	.st14{fill:none;stroke:#FFFFFF;stroke-width:2;stroke-miterlimit:10;}
</style>
<rect id="XMLID_72_" x="-0.5" class="st0" width="1001" height="1000"/>
<g id="XMLID_47_">
	<rect id="XMLID_152_" x="-0.5" class="st0" width="1001" height="1000"/>
	<g id="XMLID_256_">
		<rect id="XMLID_151_" x="-0.5" class="st1" width="295.3" height="59.5"/>
		<text id="XMLID_150_" transform="matrix(1 0 0 1 14.1825 39.7519)" class="st0 st2 st3">O B I T U A R I E S</text>
	</g>
	<g id="XMLID_49_">
		<g id="XMLID_234_">
			<path id="XMLID_149_" class="st4" d="M886.4,699.7H110.8c-20.5,0-37.2-16.7-37.2-37.2V546.9c0-20.5,16.7-37.2,37.2-37.2h775.6
				c20.5,0,37.2,16.7,37.2,37.2v115.6C923.6,683.1,906.9,699.7,886.4,699.7z"/>
			<g id="XMLID_148_">
				<text id="XMLID_55_" transform="matrix(1 0 0 1 144.803 545.345)"><tspan x="0" y="0" class="st5 st6 st7">I’m honored to attend your beautiful memorial for Joseph. I can tell that </tspan><tspan x="0" y="24" class="st5 st6 st7">he was truly loved. </tspan></text>
			</g>
			<g id="XMLID_117_">
				<text id="XMLID_53_" transform="matrix(1 0 0 1 144.803 601.6282)"><tspan x="0" y="0" class="st5 st6 st7">You may be able to tell, just from the guests at the funeral, how loved </tspan><tspan x="0" y="24" class="st5 st6 st7">and appreciated the departed really was.</tspan></text>
			</g>
			<g id="XMLID_115_">
				<text id="XMLID_51_" transform="matrix(1 0 0 1 144.803 660.3484)" class="st1 st2 st8">Cathy D. Chao</text>
			</g>
			<g id="XMLID_113_">
				<text id="XMLID_48_" transform="matrix(1 0 0 1 144.803 678.1482)" class="st9 st10 st11">4487 Private Lane, Tifton, GA 31794 </text>
			</g>
			<path id="XMLID_112_" class="st12" d="M899.6,642.1c0,15.5-15.3,28.2-34.1,28.2H617v2.2h248.5c20.3,0,36.9-13.6,36.9-30.4v-89.7
				h-2.8V642.1z"/>
			<g id="XMLID_235_">
				<circle id="XMLID_111_" class="st13" cx="89.5" cy="519.2" r="27.9"/>
				<circle id="XMLID_110_" class="st14" cx="89.5" cy="519.2" r="23.5"/>
				<g id="XMLID_236_">
					<path id="XMLID_237_" class="st0" d="M86.9,511.6c0.9,1.4,1.4,3.2,1.4,5.3c0,2.7-0.7,5.1-2,7.2c-1.4,2.1-3.4,3.9-6.2,5.1
						l-0.7-1.4c1.7-0.7,3.1-1.8,4.3-3.3c1.2-1.5,1.8-3,1.8-4.6c0-0.6-0.1-1.2-0.2-1.7c-0.9,0.7-1.8,1-3,1c-1.4,0-2.7-0.5-3.7-1.4
						c-1-0.9-1.5-2.2-1.5-3.7c0-1.4,0.5-2.7,1.5-3.7c1-1,2.2-1.5,3.7-1.5C84.3,509.1,85.8,509.9,86.9,511.6z M100.6,511.6
						c0.9,1.4,1.4,3.2,1.4,5.3c0,2.7-0.7,5.1-2,7.2c-1.4,2.1-3.4,3.9-6.2,5.1l-0.7-1.4c1.7-0.7,3.1-1.8,4.3-3.3
						c1.2-1.5,1.8-3,1.8-4.6c0-0.6-0.1-1.2-0.2-1.7c-0.9,0.7-1.8,1-3,1c-1.4,0-2.7-0.5-3.7-1.4c-1-0.9-1.5-2.2-1.5-3.7
						c0-1.4,0.5-2.7,1.5-3.7c1-1,2.2-1.5,3.7-1.5C97.9,509.1,99.5,509.9,100.6,511.6z"/>
				</g>
			</g>
		</g>
		<g id="XMLID_211_">
			<path id="XMLID_105_" class="st4" d="M885.3,481.3H108.6c-20.6,0-37.3-16.7-37.3-37.3v-63.7c0-20.6,16.7-37.3,37.3-37.3h776.8
				c20.6,0,37.3,16.7,37.3,37.3V444C922.6,464.6,905.9,481.3,885.3,481.3z"/>
			<g id="XMLID_104_">
				<text id="XMLID_45_" transform="matrix(1 0 0 1 144.8031 382.3323)"><tspan x="0" y="0" class="st5 st6 st7">I know he will be dearly missed, and I’m sorry I didn’t have the chance to </tspan><tspan x="0" y="24" class="st5 st6 st7">know him better. </tspan></text>
			</g>
			<g id="XMLID_103_">
				<text id="XMLID_43_" transform="matrix(1 0 0 1 144.8031 441.262)" class="st1 st2 st8">Lisa R. Taylor</text>
			</g>
			<g id="XMLID_102_">
				<text id="XMLID_41_" transform="matrix(1 0 0 1 144.8031 462.554)" class="st9 st10 st11">4567 Union Street, Seattle, WA 98106</text>
			</g>
			<path id="XMLID_101_" class="st12" d="M899.6,428.6c0,15.6-15.3,28.2-34.1,28.2H616.6v2.2h248.9c20.4,0,36.9-13.7,36.9-30.4
				v-59.8h-2.8V428.6z"/>
			<g id="XMLID_212_">
				<circle id="XMLID_100_" class="st13" cx="89.5" cy="354.2" r="27.9"/>
				<circle id="XMLID_99_" class="st14" cx="89.5" cy="354.2" r="23.6"/>
				<g id="XMLID_213_">
					<path id="XMLID_214_" class="st0" d="M87,346.7c0.9,1.4,1.4,3.2,1.4,5.3c0,2.7-0.7,5.1-2.1,7.2c-1.4,2.1-3.4,3.9-6.2,5.2
						l-0.7-1.4c1.7-0.7,3.1-1.8,4.3-3.3c1.2-1.5,1.8-3,1.8-4.6c0-0.6-0.1-1.2-0.2-1.7c-0.9,0.7-1.9,1-3,1c-1.4,0-2.7-0.5-3.7-1.4
						c-1-0.9-1.5-2.2-1.5-3.7c0-1.4,0.5-2.7,1.5-3.7c1-1,2.2-1.5,3.7-1.5C84.3,344.1,85.9,345,87,346.7z M100.6,346.7
						c0.9,1.4,1.4,3.2,1.4,5.3c0,2.7-0.7,5.1-2.1,7.2c-1.4,2.1-3.4,3.9-6.2,5.2l-0.7-1.4c1.7-0.7,3.1-1.8,4.3-3.3
						c1.2-1.5,1.8-3,1.8-4.6c0-0.6-0.1-1.2-0.2-1.7c-0.9,0.7-1.9,1-3,1c-1.4,0-2.7-0.5-3.7-1.4c-1-0.9-1.5-2.2-1.5-3.7
						c0-1.4,0.5-2.7,1.5-3.7c1-1,2.2-1.5,3.7-1.5C98,344.1,99.6,345,100.6,346.7z"/>
				</g>
			</g>
		</g>
		<g id="XMLID_182_">
			<path id="XMLID_96_" class="st4" d="M885.3,923.2H108.6c-20.6,0-37.3-16.7-37.3-37.3V766.2c0-20.6,16.7-37.3,37.3-37.3h776.8
				c20.6,0,37.3,16.7,37.3,37.3v119.8C922.6,906.5,905.9,923.2,885.3,923.2z"/>
			<g id="XMLID_95_">
				<text id="XMLID_42_" transform="matrix(1 0 0 1 144.8031 767.6273)"><tspan x="0" y="0" class="st5 st6 st7">I love you all, and you’re always in my thoughts. Please know </tspan><tspan x="0" y="24" class="st5 st6 st7">how sorry I am for your loss. </tspan></text>
			</g>
			<g id="XMLID_94_">
				<text id="XMLID_44_" transform="matrix(1 0 0 1 144.8031 823.8597)"><tspan x="0" y="0" class="st5 st6 st7">If you truly love the family of the deceased, let them know how much they </tspan><tspan x="0" y="24" class="st5 st6 st7">mean to you in your condolence book message.</tspan></text>
			</g>
			<g id="XMLID_93_">
				<text id="XMLID_46_" transform="matrix(1 0 0 1 144.8031 881.9594)" class="st1 st2 st8">Joe S. Bennett</text>
			</g>
			<g id="XMLID_92_">
				<text id="XMLID_50_" transform="matrix(1 0 0 1 144.8031 900.1215)" class="st9 st10 st11"> 3767 Cardinal Lane, Mattoon, IL 61938</text>
			</g>
			<path id="XMLID_91_" class="st12" d="M899.6,869.5c0,15.6-15.3,28.2-34.1,28.2H616.6v2.2h248.9c20.4,0,36.9-13.7,36.9-30.4v-89.8
				h-2.8V869.5z"/>
			<g id="XMLID_183_">
				<circle id="XMLID_90_" class="st13" cx="89.5" cy="737.7" r="27.9"/>
				<circle id="XMLID_87_" class="st14" cx="89.5" cy="737.7" r="23.6"/>
				<g id="XMLID_184_">
					<path id="XMLID_185_" class="st0" d="M87,730.1c0.9,1.4,1.4,3.2,1.4,5.3c0,2.7-0.7,5.1-2.1,7.2c-1.4,2.1-3.4,3.9-6.2,5.2
						l-0.7-1.4c1.7-0.7,3.1-1.8,4.3-3.3c1.2-1.5,1.8-3,1.8-4.6c0-0.6-0.1-1.2-0.2-1.7c-0.9,0.7-1.9,1-3,1c-1.4,0-2.7-0.5-3.7-1.4
						c-1-0.9-1.5-2.2-1.5-3.7c0-1.4,0.5-2.7,1.5-3.7c1-1,2.2-1.5,3.7-1.5C84.3,727.5,85.9,728.4,87,730.1z M100.6,730.1
						c0.9,1.4,1.4,3.2,1.4,5.3c0,2.7-0.7,5.1-2.1,7.2c-1.4,2.1-3.4,3.9-6.2,5.2l-0.7-1.4c1.7-0.7,3.1-1.8,4.3-3.3
						c1.2-1.5,1.8-3,1.8-4.6c0-0.6-0.1-1.2-0.2-1.7c-0.9,0.7-1.9,1-3,1c-1.4,0-2.7-0.5-3.7-1.4c-1-0.9-1.5-2.2-1.5-3.7
						c0-1.4,0.5-2.7,1.5-3.7c1-1,2.2-1.5,3.7-1.5C98,727.5,99.6,728.4,100.6,730.1z"/>
				</g>
			</g>
		</g>
		<g id="XMLID_57_">
			<path id="XMLID_19_" class="st4" d="M886.4,316.3H110.8c-20.5,0-37.2-16.7-37.2-37.2V129.5c0-20.5,16.7-37.2,37.2-37.2h775.6
				c20.5,0,37.2,16.7,37.2,37.2v149.6C923.6,299.6,906.9,316.3,886.4,316.3z"/>
			<g id="XMLID_10_">
				<text id="XMLID_52_" transform="matrix(1 0 0 1 144.8029 139.8502)"><tspan x="0" y="0" class="st5 st6 st7">I’m so saddened to know the hardship your family is going through, and </tspan><tspan x="0" y="24" class="st5 st6 st7">I want to offer my condolences and support.</tspan></text>
			</g>
			<g id="XMLID_8_">
				<text id="XMLID_54_" transform="matrix(1 0 0 1 144.803 195.2707)"><tspan x="0" y="0" class="st5 st6 st7">You might not have known the deceased very well, but you might still be </tspan><tspan x="0" y="24" class="st5 st6 st7">close to the family. If so, it’s a good idea to sincerely express </tspan><tspan x="0" y="48" class="st5 st6 st7">your sympathy and support to them.</tspan></text>
			</g>
			<g id="XMLID_76_">
				<circle id="XMLID_7_" class="st13" cx="89.5" cy="104.7" r="27.9"/>
				<circle id="XMLID_6_" class="st14" cx="89.5" cy="104.7" r="23.5"/>
				<g id="XMLID_77_">
					<path id="XMLID_169_" class="st0" d="M86.9,97.2c0.9,1.4,1.4,3.2,1.4,5.3c0,2.7-0.7,5.1-2,7.2c-1.4,2.1-3.4,3.9-6.2,5.1
						l-0.7-1.4c1.7-0.7,3.1-1.8,4.3-3.3c1.2-1.5,1.8-3,1.8-4.6c0-0.6-0.1-1.2-0.2-1.7c-0.9,0.7-1.8,1-3,1c-1.4,0-2.7-0.5-3.7-1.4
						c-1-0.9-1.5-2.2-1.5-3.7c0-1.4,0.5-2.7,1.5-3.7c1-1,2.2-1.5,3.7-1.5C84.3,94.6,85.8,95.5,86.9,97.2z M100.6,97.2
						c0.9,1.4,1.4,3.2,1.4,5.3c0,2.7-0.7,5.1-2,7.2c-1.4,2.1-3.4,3.9-6.2,5.1l-0.7-1.4c1.7-0.7,3.1-1.8,4.3-3.3
						c1.2-1.5,1.8-3,1.8-4.6c0-0.6-0.1-1.2-0.2-1.7c-0.9,0.7-1.8,1-3,1c-1.4,0-2.7-0.5-3.7-1.4c-1-0.9-1.5-2.2-1.5-3.7
						c0-1.4,0.5-2.7,1.5-3.7c1-1,2.2-1.5,3.7-1.5C97.9,94.6,99.5,95.5,100.6,97.2z"/>
				</g>
			</g>
			<g id="XMLID_3_">
				<text id="XMLID_56_" transform="matrix(1 0 0 1 144.803 280.0685)" class="st1 st2 st8">Richard T. Evans</text>
			</g>
			<g id="XMLID_2_">
				<text id="XMLID_58_" transform="matrix(1 0 0 1 144.803 297.8683)" class="st9 st10 st11">1386 Goosetown Drive, Charlotte, NC 28209</text>
			</g>
			<path id="XMLID_1_" class="st12" d="M899.6,262.7c0,15.5-15.3,28.2-34.1,28.2H617v2.2h248.5c20.3,0,36.9-13.6,36.9-30.4V133h-2.8
				V262.7z"/>
		</g>
	</g>
</g>
</svg>
