<?xml version="1.0" encoding="utf-8"?>
<!-- Generator: Adobe Illustrator 19.0.0, SVG Export Plug-In . SVG Version: 6.00 Build 0)  -->
<svg version="1.1" id="Layer_1" xmlns="http://www.w3.org/2000/svg" xmlns:xlink="http://www.w3.org/1999/xlink" x="0px" y="0px"
	 viewBox="0 0 1000 1000" style="enable-background:new 0 0 1000 1000;" xml:space="preserve">
<style type="text/css">
	.st0{fill:#FFFFFF;}
	.st1{fill:#6B9953;}
	.st2{font-family:'Gilroy-Black';}
	.st3{font-size:34.9094px;}
	.st4{fill:#EBEBE9;}
	.st5{fill:#A7D59C;stroke:#A7D59C;stroke-width:4;stroke-miterlimit:10;}
	.st6{fill:#A7D59C;}
	.st7{fill:none;stroke:#FFFFFF;stroke-width:2;stroke-miterlimit:10;}
	.st8{fill:#282C2E;}
	.st9{font-family:'Gilroy-SemiBold';}
	.st10{font-size:20px;}
	.st11{font-size:22px;}
	.st12{fill:#94C384;}
	.st13{font-family:'Gilroy-Regular';}
	.st14{font-size:15px;}
	.st15{fill:#282C30;}
</style>
<rect id="XMLID_71_" x="-0.5" class="st0" width="1001" height="1000"/>
<g id="XMLID_12_">
	<rect id="XMLID_197_" x="-0.5" class="st0" width="1001" height="1000"/>
	<g id="XMLID_192_">
		<rect id="XMLID_194_" x="-0.5" class="st1" width="295.3" height="59.5"/>
		<text id="XMLID_193_" transform="matrix(1 0 0 1 14.1825 39.7519)" class="st0 st2 st3">O B I T U A R I E S</text>
	</g>
	<g id="XMLID_13_">
		<g id="XMLID_170_">
			<path id="XMLID_191_" class="st4" d="M891.8,684.2H111.4c-20.7,0-37.4-16.8-37.4-37.4V520.4c0-20.7,16.8-37.4,37.4-37.4h780.4
				c20.7,0,37.4,16.8,37.4,37.4v126.4C929.3,667.4,912.5,684.2,891.8,684.2z"/>
			<path id="XMLID_190_" class="st5" d="M899.1,624.2c0,15.6-15.4,28.3-34.3,28.3h-250v2.2h250c20.5,0,37.1-13.7,37.1-30.6V534h-2.8
				V624.2z"/>
			<g id="XMLID_183_">
				<circle id="XMLID_189_" class="st6" cx="90" cy="495.4" r="28.1"/>
				<circle id="XMLID_188_" class="st7" cx="90" cy="495.4" r="23.7"/>
				<g id="XMLID_184_">
					<path id="XMLID_185_" class="st0" d="M87.4,487.8c0.9,1.5,1.4,3.2,1.4,5.3c0,2.7-0.7,5.1-2.1,7.3c-1.4,2.2-3.5,3.9-6.3,5.2
						l-0.7-1.5c1.7-0.7,3.1-1.8,4.3-3.3c1.2-1.5,1.8-3,1.8-4.6c0-0.6-0.1-1.2-0.2-1.7c-0.9,0.7-1.9,1.1-3,1.1
						c-1.5,0-2.7-0.5-3.7-1.4c-1-0.9-1.5-2.2-1.5-3.8c0-1.5,0.5-2.7,1.5-3.7c1-1,2.2-1.5,3.7-1.5C84.7,485.2,86.3,486.1,87.4,487.8z
						 M101.1,487.8c0.9,1.5,1.4,3.2,1.4,5.3c0,2.7-0.7,5.1-2.1,7.3c-1.4,2.2-3.5,3.9-6.3,5.2l-0.7-1.5c1.7-0.7,3.1-1.8,4.3-3.3
						c1.2-1.5,1.8-3,1.8-4.6c0-0.6-0.1-1.2-0.2-1.7c-0.9,0.7-1.9,1.1-3,1.1c-1.5,0-2.7-0.5-3.7-1.4c-1-0.9-1.5-2.2-1.5-3.8
						c0-1.5,0.5-2.7,1.5-3.7c1-1,2.2-1.5,3.7-1.5C98.5,485.2,100,486.1,101.1,487.8z"/>
				</g>
			</g>
			<g id="XMLID_180_">
				<text id="XMLID_52_" transform="matrix(1 0 0 1 145.5714 520.295)"><tspan x="0" y="0" class="st8 st9 st10">Becca and I met a college, and she made a lasting impression on me, </tspan><tspan x="0" y="24" class="st8 st9 st10">as I’m sure she did on many people.</tspan></text>
			</g>
			<g id="XMLID_177_">
				<text id="XMLID_50_" transform="matrix(1 0 0 1 145.5714 577.6886)"><tspan x="0" y="0" class="st8 st9 st10">If you don’t know the family well, you might want to begin your condolence book </tspan><tspan x="0" y="24" class="st8 st9 st10">message by briefly explaining how you know the deceased.</tspan></text>
			</g>
			<g id="XMLID_174_">
				<text id="XMLID_48_" transform="matrix(1 0 0 1 145.6837 637.8615)" class="st1 st2 st11">Alice Lowerson</text>
			</g>
			<g id="XMLID_171_">
				<text id="XMLID_46_" transform="matrix(1 0 0 1 145.5714 655.8995)" class="st12 st13 st14">1379 Sumner Street, Santa Monica, CA 90405</text>
			</g>
		</g>
		<g id="XMLID_148_">
			<path id="XMLID_169_" class="st4" d="M891.7,291.8H109.2c-20.7,0-37.5-16.8-37.5-37.5V128.5c0-20.7,16.8-37.5,37.5-37.5h782.5
				c20.7,0,37.5,16.8,37.5,37.5v125.8C929.3,275,912.5,291.8,891.7,291.8z"/>
			<g id="XMLID_166_">
				<text id="XMLID_44_" transform="matrix(1 0 0 1 145.5714 129.6161)"><tspan x="0" y="0" class="st8 st9 st10">From my short time spent with him, I could tell Dave was an amazing man. </tspan><tspan x="0" y="24" class="st8 st9 st10">Please accept my sincere condolences.</tspan></text>
			</g>
			<g id="XMLID_163_">
				<text id="XMLID_42_" transform="matrix(1 0 0 1 145.5714 182.5238)"><tspan x="0" y="0" class="st8 st9 st10">You might have spent a short time with the person, and you can express </tspan><tspan x="0" y="24" class="st8 st9 st10">how much those few moments meant to you.</tspan></text>
			</g>
			<g id="XMLID_160_">
				<text id="XMLID_40_" transform="matrix(1 0 0 1 145.5714 245.4735)" class="st1 st2 st11">Finn Slater</text>
			</g>
			<g id="XMLID_157_">
				<text id="XMLID_38_" transform="matrix(1 0 0 1 145.5714 265.5326)" class="st12 st13 st14">3991 Beechwood Drive, Clarksville, MD 21029</text>
			</g>
			<g id="XMLID_150_">
				<circle id="XMLID_156_" class="st6" cx="90" cy="98.3" r="28.2"/>
				<circle id="XMLID_155_" class="st7" cx="90" cy="98.3" r="23.8"/>
				<g id="XMLID_151_">
					<path id="XMLID_152_" class="st0" d="M87.4,90.6c0.9,1.5,1.4,3.2,1.4,5.4c0,2.7-0.7,5.1-2.1,7.3c-1.4,2.2-3.5,3.9-6.3,5.2
						l-0.7-1.5c1.7-0.7,3.1-1.8,4.3-3.3c1.2-1.5,1.8-3.1,1.8-4.6c0-0.6-0.1-1.2-0.2-1.7c-0.9,0.7-1.9,1.1-3,1.1
						c-1.5,0-2.7-0.5-3.7-1.4c-1-0.9-1.5-2.2-1.5-3.8c0-1.5,0.5-2.7,1.5-3.7c1-1,2.2-1.5,3.7-1.5C84.8,88,86.4,88.9,87.4,90.6z
						 M101.2,90.6c0.9,1.5,1.4,3.2,1.4,5.4c0,2.7-0.7,5.1-2.1,7.3c-1.4,2.2-3.5,3.9-6.3,5.2l-0.7-1.5c1.7-0.7,3.1-1.8,4.3-3.3
						c1.2-1.5,1.8-3.1,1.8-4.6c0-0.6-0.1-1.2-0.2-1.7c-0.9,0.7-1.9,1.1-3,1.1c-1.5,0-2.7-0.5-3.7-1.4c-1-0.9-1.5-2.2-1.5-3.8
						c0-1.5,0.5-2.7,1.5-3.7c1-1,2.2-1.5,3.7-1.5C98.6,88,100.1,88.9,101.2,90.6z"/>
				</g>
			</g>
			<path id="XMLID_149_" class="st5" d="M899.1,236.8c0,15.7-15.4,28.4-34.4,28.4H614v2.2h250.7c20.5,0,37.2-13.8,37.2-30.7v-90.5
				h-2.8V236.8z"/>
		</g>
		<g id="XMLID_129_">
			<path id="XMLID_147_" class="st4" d="M891.7,457.4H109.2c-20.7,0-37.5-16.8-37.5-37.5v-64.2c0-20.7,16.8-37.5,37.5-37.5h782.6
				c20.7,0,37.5,16.8,37.5,37.5v64.2C929.3,440.6,912.5,457.4,891.7,457.4z"/>
			<g id="XMLID_144_">
				<text id="XMLID_36_" transform="matrix(1 0 0 1 145.5712 357.8769)"><tspan x="0" y="0" class="st8 st9 st10">I know he will be dearly missed, and I’m sorry I didn’t have the chance to </tspan><tspan x="0" y="24" class="st8 st9 st10">know him better. </tspan></text>
			</g>
			<g id="XMLID_141_">
				<text id="XMLID_34_" transform="matrix(1 0 0 1 145.1014 416.8066)" class="st1 st2 st11">Lisa R. Taylor</text>
			</g>
			<g id="XMLID_138_">
				<text id="XMLID_32_" transform="matrix(1 0 0 1 145.1014 438.0986)" class="st12 st13 st14">4567 Union Street, Seattle, WA 98106</text>
			</g>
			<path id="XMLID_137_" class="st5" d="M899.1,404.2c0,15.6-15.3,28.2-34.1,28.2H616.1v2.2H865c20.4,0,36.9-13.7,36.9-30.4v-59.8
				h-2.8V404.2z"/>
			<g id="XMLID_130_">
				<circle id="XMLID_136_" class="st6" cx="89.8" cy="329.8" r="27.9"/>
				<circle id="XMLID_135_" class="st7" cx="89.8" cy="329.8" r="23.6"/>
				<g id="XMLID_131_">
					<path id="XMLID_132_" class="st0" d="M87.3,322.2c0.9,1.4,1.4,3.2,1.4,5.3c0,2.7-0.7,5.1-2.1,7.2c-1.4,2.1-3.4,3.9-6.2,5.2
						l-0.7-1.4c1.7-0.7,3.1-1.8,4.3-3.3c1.2-1.5,1.8-3,1.8-4.6c0-0.6-0.1-1.2-0.2-1.7c-0.9,0.7-1.9,1-3,1c-1.4,0-2.7-0.5-3.7-1.4
						c-1-0.9-1.5-2.2-1.5-3.7c0-1.4,0.5-2.7,1.5-3.7c1-1,2.2-1.5,3.7-1.5C84.6,319.6,86.2,320.5,87.3,322.2z M100.9,322.2
						c0.9,1.4,1.4,3.2,1.4,5.3c0,2.7-0.7,5.1-2.1,7.2c-1.4,2.1-3.4,3.9-6.2,5.2l-0.7-1.4c1.7-0.7,3.1-1.8,4.3-3.3
						c1.2-1.5,1.8-3,1.8-4.6c0-0.6-0.1-1.2-0.2-1.7c-0.9,0.7-1.9,1-3,1c-1.4,0-2.7-0.5-3.7-1.4c-1-0.9-1.5-2.2-1.5-3.7
						c0-1.4,0.5-2.7,1.5-3.7c1-1,2.2-1.5,3.7-1.5C98.3,319.6,99.9,320.5,100.9,322.2z"/>
				</g>
			</g>
		</g>
		<g id="XMLID_14_">
			<path id="XMLID_128_" class="st4" d="M891.7,929.9H109.2c-20.7,0-37.5-16.8-37.5-37.5V752.6c0-20.7,16.8-37.5,37.5-37.5h782.5
				c20.7,0,37.5,16.8,37.5,37.5v139.8C929.3,913.1,912.5,929.9,891.7,929.9z"/>
			<g id="XMLID_125_">
				<text id="XMLID_30_" transform="matrix(1 0 0 1 145.0514 751.214)"><tspan x="0" y="0" class="st15 st9 st10">I’ll never forget the time we spent together every summer, gardening, and </tspan><tspan x="0" y="24" class="st15 st9 st10">shopping yard sales. I know how much she loved you </tspan><tspan x="0" y="48" class="st15 st9 st10">and how much she’ll be missed.</tspan></text>
			</g>
			<g id="XMLID_122_">
				<text id="XMLID_51_" transform="matrix(1 0 0 1 145.0514 829.1217)"><tspan x="0" y="0" class="st15 st9 st10">You can personalize the condolence book message by including a </tspan><tspan x="0" y="24" class="st15 st9 st10">treasured memory you shared with the deceased.</tspan></text>
			</g>
			<g id="XMLID_119_">
				<text id="XMLID_53_" transform="matrix(1 0 0 1 145.0515 887.0714)" class="st1 st2 st11">Joe S. Bennett</text>
			</g>
			<g id="XMLID_116_">
				<text id="XMLID_54_" transform="matrix(1 0 0 1 145.0515 907.1305)" class="st12 st13 st14">3767 Cardinal Lane, Mattoon, IL 61938</text>
			</g>
			<g id="XMLID_16_">
				<circle id="XMLID_114_" class="st6" cx="90" cy="722.3" r="28.2"/>
				<circle id="XMLID_112_" class="st7" cx="90" cy="722.3" r="23.8"/>
				<g id="XMLID_17_">
					<path id="XMLID_18_" class="st0" d="M87.4,714.7c0.9,1.5,1.4,3.2,1.4,5.4c0,2.7-0.7,5.1-2.1,7.3c-1.4,2.2-3.5,3.9-6.3,5.2
						l-0.7-1.5c1.7-0.7,3.1-1.8,4.3-3.3c1.2-1.5,1.8-3.1,1.8-4.6c0-0.6-0.1-1.2-0.2-1.7c-0.9,0.7-1.9,1.1-3,1.1
						c-1.5,0-2.7-0.5-3.7-1.4c-1-0.9-1.5-2.2-1.5-3.8c0-1.5,0.5-2.7,1.5-3.7c1-1,2.2-1.5,3.7-1.5C84.8,712.1,86.4,713,87.4,714.7z
						 M101.2,714.7c0.9,1.5,1.4,3.2,1.4,5.4c0,2.7-0.7,5.1-2.1,7.3c-1.4,2.2-3.5,3.9-6.3,5.2l-0.7-1.5c1.7-0.7,3.1-1.8,4.3-3.3
						c1.2-1.5,1.8-3.1,1.8-4.6c0-0.6-0.1-1.2-0.2-1.7c-0.9,0.7-1.9,1.1-3,1.1c-1.5,0-2.7-0.5-3.7-1.4c-1-0.9-1.5-2.2-1.5-3.8
						c0-1.5,0.5-2.7,1.5-3.7c1-1,2.2-1.5,3.7-1.5C98.6,712.1,100.1,713,101.2,714.7z"/>
				</g>
			</g>
			<path id="XMLID_15_" class="st5" d="M893.8,868.8c0,15.7-15.4,28.4-34.4,28.4H608.7v2.2h250.7c20.5,0,37.2-13.8,37.2-30.7v-90.5
				h-2.8V868.8z"/>
		</g>
	</g>
</g>
</svg>
