<?xml version="1.0" encoding="utf-8"?>
<!-- Generator: Adobe Illustrator 19.0.0, SVG Export Plug-In . SVG Version: 6.00 Build 0)  -->
<svg version="1.1" id="Layer_1" xmlns="http://www.w3.org/2000/svg" xmlns:xlink="http://www.w3.org/1999/xlink" x="0px" y="0px"
	 viewBox="0 0 1000 1000" style="enable-background:new 0 0 1000 1000;" xml:space="preserve">
<style type="text/css">
	.st0{fill:#FFFFFF;}
	.st1{fill:#6B9953;}
	.st2{fill:#EBEBE9;}
	.st3{fill:#2A2D31;}
	.st4{font-family:'Gilroy-SemiBold';}
	.st5{font-size:20px;}
	.st6{font-family:'Gilroy-Black';}
	.st7{font-size:22px;}
	.st8{fill:#94C384;}
	.st9{font-family:'Gilroy-Regular';}
	.st10{font-size:15px;}
	.st11{fill:#A7D59C;}
	.st12{fill:none;stroke:#FFFFFF;stroke-width:2;stroke-miterlimit:10;}
	.st13{fill:#A7D59C;stroke:#A7D59C;stroke-width:4;stroke-miterlimit:10;}
	.st14{font-family:'PlayfairDisplay-Regular';}
	.st15{font-size:16px;}
	.st16{font-size:15.8026px;}
</style>
<rect id="XMLID_71_" x="-0.5" class="st0" width="1001" height="1000"/>
<g>
	<rect id="XMLID_48_" x="-0.5" class="st0" width="1001" height="1000"/>
	<rect id="XMLID_46_" x="917" class="st1" width="83.5" height="59.5"/>
	<g>
		<g>
			<path id="XMLID_44_" class="st2" d="M900.8,534.8H123.2c-20.6,0-37.3-16.7-37.3-37.3V389.6c0-20.6,16.7-37.3,37.3-37.3h777.6
				c20.6,0,37.3,16.7,37.3,37.3v107.9C938.1,518.1,921.4,534.8,900.8,534.8z"/>
			<g id="XMLID_43_">
				<text id="XMLID_88_" transform="matrix(1 0 0 1 159.063 385.343)"><tspan x="0" y="0" class="st3 st4 st5">Your family has been in my thoughts every day, and I want you to know </tspan><tspan x="0" y="24" class="st3 st4 st5">you have my sincere condolences.</tspan></text>
			</g>
			<g id="XMLID_42_">
				<text id="XMLID_86_" transform="matrix(1 0 0 1 159.063 439.4612)"><tspan x="0" y="0" class="st3 st4 st5">You can briefly let the immediate family know that they’re always </tspan><tspan x="0" y="24" class="st3 st4 st5">in your thoughts.</tspan></text>
			</g>
			<g id="XMLID_41_">
				<text id="XMLID_84_" transform="matrix(1 0 0 1 159.063 496.3596)" class="st1 st6 st7">Jasmine Schutt</text>
			</g>
			<g id="XMLID_40_">
				<text id="XMLID_82_" transform="matrix(1 0 0 1 159.063 515.2083)" class="st8 st9 st10">4653 Hazelwood Avenue, West Des Moines, IA 50266</text>
			</g>
			<g>
				<circle id="XMLID_39_" class="st11" cx="104.1" cy="359.6" r="28"/>
				<circle id="XMLID_38_" class="st12" cx="104.1" cy="359.6" r="23.6"/>
				<g>
					<path class="st0" d="M101.5,352c0.9,1.5,1.4,3.2,1.4,5.3c0,2.7-0.7,5.1-2.1,7.3c-1.4,2.1-3.5,3.9-6.2,5.2l-0.7-1.5
						c1.7-0.7,3.1-1.8,4.3-3.3c1.2-1.5,1.8-3,1.8-4.6c0-0.6-0.1-1.2-0.2-1.7c-0.9,0.7-1.9,1-3,1c-1.5,0-2.7-0.5-3.7-1.4
						c-1-0.9-1.5-2.2-1.5-3.7c0-1.5,0.5-2.7,1.5-3.7c1-1,2.2-1.5,3.7-1.5C98.9,349.4,100.4,350.3,101.5,352z M115.2,352
						c0.9,1.5,1.4,3.2,1.4,5.3c0,2.7-0.7,5.1-2.1,7.3c-1.4,2.1-3.5,3.9-6.2,5.2l-0.7-1.5c1.7-0.7,3.1-1.8,4.3-3.3
						c1.2-1.5,1.8-3,1.8-4.6c0-0.6-0.1-1.2-0.2-1.7c-0.9,0.7-1.9,1-3,1c-1.5,0-2.7-0.5-3.7-1.4c-1-0.9-1.5-2.2-1.5-3.7
						c0-1.5,0.5-2.7,1.5-3.7c1-1,2.2-1.5,3.7-1.5C112.6,349.4,114.1,350.3,115.2,352z"/>
				</g>
			</g>
			<path id="XMLID_35_" class="st13" d="M907.3,475.1c0,15.6-15.3,28.2-34.2,28.2H624v2.2h249.2c20.4,0,37-13.7,37-30.5v-89.9h-2.8
				V475.1z"/>
		</g>
		<g>
			<path id="XMLID_34_" class="st2" d="M898.6,321.6H123c-20.5,0-37.2-16.7-37.2-37.2V138.8c0-20.5,16.7-37.2,37.2-37.2h775.6
				c20.5,0,37.2,16.7,37.2,37.2v145.6C935.8,304.9,919.2,321.6,898.6,321.6z"/>
			<g id="XMLID_33_">
				<text id="XMLID_80_" transform="matrix(1 0 0 1 159.0633 144.1039)"><tspan x="0" y="0" class="st3 st4 st5">I know Sebastian was a wonderful son and brother. And I want you to know how </tspan><tspan x="0" y="24" class="st3 st4 st5">wonderful he was as a friend, too. Thank you for raising such an amazing man. </tspan></text>
			</g>
			<g id="XMLID_32_">
				<text id="XMLID_78_" transform="matrix(1 0 0 1 159.0633 204.0638)"><tspan x="0" y="0" class="st3 st4 st5">You have a unique viewpoint of the deceased as their friend. The family would </tspan><tspan x="0" y="24" class="st3 st4 st5">likely enjoy knowing how great a friend their brother, son, or husband was. </tspan></text>
			</g>
			<g id="XMLID_31_">
				<text id="XMLID_76_" transform="matrix(1 0 0 1 159.0634 271.8626)" class="st1 st6 st7">George G. Fitzpatrick</text>
			</g>
			<g id="XMLID_30_">
				<text id="XMLID_74_" transform="matrix(1 0 0 1 159.0632 290.6624)" class="st8 st9 st10">2451 Ashwood Drive, Sioux City, IA 51101</text>
			</g>
			<g>
				<circle id="XMLID_29_" class="st11" cx="104" cy="108.8" r="27.9"/>
				<circle id="XMLID_28_" class="st12" cx="104" cy="108.8" r="23.5"/>
				<g>
					<path class="st0" d="M101.5,101.3c0.9,1.4,1.4,3.2,1.4,5.3c0,2.7-0.7,5.1-2,7.2c-1.4,2.1-3.4,3.9-6.2,5.1l-0.7-1.4
						c1.7-0.7,3.1-1.8,4.3-3.3c1.2-1.5,1.8-3,1.8-4.6c0-0.6-0.1-1.2-0.2-1.7c-0.9,0.7-1.8,1-3,1c-1.4,0-2.7-0.5-3.7-1.4
						c-1-0.9-1.5-2.2-1.5-3.7c0-1.4,0.5-2.7,1.5-3.7c1-1,2.2-1.5,3.7-1.5C98.8,98.7,100.4,99.5,101.5,101.3z M115.1,101.3
						c0.9,1.4,1.4,3.2,1.4,5.3c0,2.7-0.7,5.1-2,7.2c-1.4,2.1-3.4,3.9-6.2,5.1l-0.7-1.4c1.7-0.7,3.1-1.8,4.3-3.3
						c1.2-1.5,1.8-3,1.8-4.6c0-0.6-0.1-1.2-0.2-1.7c-0.9,0.7-1.8,1-3,1c-1.4,0-2.7-0.5-3.7-1.4c-1-0.9-1.5-2.2-1.5-3.7
						c0-1.4,0.5-2.7,1.5-3.7c1-1,2.2-1.5,3.7-1.5C112.5,98.7,114,99.5,115.1,101.3z"/>
				</g>
			</g>
			<path id="XMLID_25_" class="st13" d="M907.3,262c0,15.5-15.3,28.2-34.1,28.2H624.7v2.2h248.5c20.3,0,36.9-13.6,36.9-30.4V152.3
				h-2.8V262z"/>
		</g>
		<g>
			<path id="XMLID_24_" class="st2" d="M900.8,919.1H123.2c-20.6,0-37.3-16.7-37.3-37.3V775.9c0-20.6,16.7-37.3,37.3-37.3h777.6
				c20.6,0,37.3,16.7,37.3,37.3v105.9C938.1,902.4,921.4,919.1,900.8,919.1z"/>
			<g id="XMLID_23_">
				<text id="XMLID_72_" transform="matrix(1 0 0 1 159.063 774.5877)" class="st3 st4 st5">I was so sorry to hear that lucy died…</text>
			</g>
			<g id="XMLID_22_">
				<text id="XMLID_69_" transform="matrix(1 0 0 1 159.063 794.2928)" class="st3 st4 st5">I can’t ﬁnd the words to say how sorry I am, and how much Lucy will be missed…</text>
			</g>
			<g id="XMLID_20_">
				<text id="XMLID_85_" transform="matrix(1 0 0 1 159.0635 813.9979)" class="st3 st4 st5">Liz, Tom, lucy – my heart goes out to you. I am so sorry…</text>
			</g>
			<g id="XMLID_19_">
				<text id="XMLID_89_" transform="matrix(1 0 0 1 159.063 833.7029)" class="st3 st4 st5">lucy was such a kind and generous man…</text>
			</g>
			<g id="XMLID_18_">
				<text id="XMLID_91_" transform="matrix(1 0 0 1 159.0632 877.6175)" class="st1 st6 st7">Pearl C. Ross</text>
			</g>
			<g id="XMLID_17_">
				<text id="XMLID_92_" transform="matrix(1 0 0 1 159.063 896.4666)" class="st8 st9 st10">253 Hidden Meadow Drive, Minot Air Force Base, ND 58701</text>
			</g>
			<g>
				<circle id="XMLID_16_" class="st11" cx="104.1" cy="745.8" r="28"/>
				<circle id="XMLID_15_" class="st12" cx="104.1" cy="745.8" r="23.6"/>
				<g>
					<path class="st0" d="M101.5,738.2c0.9,1.5,1.4,3.2,1.4,5.3c0,2.7-0.7,5.1-2.1,7.3c-1.4,2.1-3.5,3.9-6.2,5.2l-0.7-1.5
						c1.7-0.7,3.1-1.8,4.3-3.3c1.2-1.5,1.8-3,1.8-4.6c0-0.6-0.1-1.2-0.2-1.7c-0.9,0.7-1.9,1-3,1c-1.5,0-2.7-0.5-3.7-1.4
						c-1-0.9-1.5-2.2-1.5-3.7c0-1.5,0.5-2.7,1.5-3.7c1-1,2.2-1.5,3.7-1.5C98.9,735.6,100.4,736.5,101.5,738.2z M115.2,738.2
						c0.9,1.5,1.4,3.2,1.4,5.3c0,2.7-0.7,5.1-2.1,7.3c-1.4,2.1-3.5,3.9-6.2,5.2l-0.7-1.5c1.7-0.7,3.1-1.8,4.3-3.3
						c1.2-1.5,1.8-3,1.8-4.6c0-0.6-0.1-1.2-0.2-1.7c-0.9,0.7-1.9,1-3,1c-1.5,0-2.7-0.5-3.7-1.4c-1-0.9-1.5-2.2-1.5-3.7
						c0-1.5,0.5-2.7,1.5-3.7c1-1,2.2-1.5,3.7-1.5C112.6,735.6,114.1,736.5,115.2,738.2z"/>
				</g>
			</g>
			<path id="XMLID_12_" class="st13" d="M907.3,863.4c0,15.6-15.3,28.2-34.2,28.2H624v2.2h249.2c20.4,0,37-13.7,37-30.5v-89.9h-2.8
				V863.4z"/>
		</g>
		<g>
			<text id="XMLID_11_" transform="matrix(1 0 0 1 129.3595 649.0498)" class="st14 st15"> </text>
			<g>
				<text id="XMLID_10_" transform="matrix(1 0 0 1 131.24 628.0272)" class="st14 st16">  </text>
				<g>
					<path id="XMLID_9_" class="st2" d="M86.7,611.3V675c0,18.1,14.7,32.8,32.8,32.8h785.7c18.1,0,32.8-14.7,32.8-32.8v-81.2
						c0-18.1-14.7-32.8-32.8-32.8H143.6C108.9,560.9,86.8,563.7,86.7,611.3z"/>
					<circle id="XMLID_8_" class="st11" cx="103.7" cy="572.4" r="27.6"/>
					<circle id="XMLID_7_" class="st12" cx="103.7" cy="572.4" r="23.3"/>
					<g>
						<path class="st0" d="M101.1,564.9c0.9,1.4,1.3,3.2,1.3,5.2c0,2.6-0.7,5-2,7.1c-1.3,2.1-3.4,3.8-6.2,5.1l-0.7-1.4
							c1.6-0.7,3.1-1.8,4.2-3.3c1.2-1.5,1.8-3,1.8-4.5c0-0.6-0.1-1.2-0.2-1.7c-0.8,0.7-1.8,1-2.9,1c-1.4,0-2.6-0.5-3.6-1.4
							c-1-0.9-1.5-2.2-1.5-3.7c0-1.4,0.5-2.6,1.5-3.6c1-1,2.2-1.5,3.6-1.5C98.5,562.4,100.1,563.2,101.1,564.9z M114.6,564.9
							c0.9,1.4,1.3,3.2,1.3,5.2c0,2.6-0.7,5-2,7.1c-1.3,2.1-3.4,3.8-6.2,5.1l-0.7-1.4c1.6-0.7,3.1-1.8,4.2-3.3
							c1.2-1.5,1.8-3,1.8-4.5c0-0.6-0.1-1.2-0.2-1.7c-0.8,0.7-1.8,1-2.9,1c-1.4,0-2.6-0.5-3.6-1.4c-1-0.9-1.5-2.2-1.5-3.7
							c0-1.4,0.5-2.6,1.5-3.6c1-1,2.2-1.5,3.6-1.5C112,562.4,113.6,563.2,114.6,564.9z"/>
					</g>
				</g>
			</g>
			<g id="XMLID_4_">
				<text id="XMLID_93_" transform="matrix(1 0 0 1 159.0636 599.5176)"><tspan x="0" y="0" class="st3 st4 st5">Your family has been in my thoughts every day, and I want you to know </tspan><tspan x="0" y="24" class="st3 st4 st5">you have my sincere condolences.</tspan></text>
			</g>
			<g id="XMLID_3_">
				<text id="XMLID_94_" transform="matrix(1 0 0 1 159.0636 667.8916)" class="st1 st6 st7">Jasmine Schutt</text>
			</g>
			<g id="XMLID_2_">
				<text id="XMLID_95_" transform="matrix(1 0 0 1 159.0636 685.5967)" class="st8 st9 st10">4653 Hazelwood Avenue, West Des Moines, IA 50266</text>
			</g>
			<path id="XMLID_1_" class="st13" d="M907.3,650.4c0,15.5-15.3,28.2-34.1,28.2H624.7v2.2h248.5c20.3,0,36.9-13.6,36.9-30.4v-59.7
				h-2.8V650.4z"/>
		</g>
	</g>
</g>
</svg>
