<?xml version="1.0" encoding="utf-8"?>
<!-- Generator: Adobe Illustrator 19.0.0, SVG Export Plug-In . SVG Version: 6.00 Build 0)  -->
<svg version="1.1" id="Layer_1" xmlns="http://www.w3.org/2000/svg" xmlns:xlink="http://www.w3.org/1999/xlink" x="0px" y="0px"
	 viewBox="0 0 1000 1000" style="enable-background:new 0 0 1000 1000;" xml:space="preserve">
<style type="text/css">
	.st0{fill:#FFFFFF;}
	.st1{fill:#6B9953;}
	.st2{fill:#EBEBE9;}
	.st3{fill:#282C2F;}
	.st4{font-family:'Gilroy-SemiBold';}
	.st5{font-size:20px;}
	.st6{font-family:'Gilroy-Black';}
	.st7{font-size:22px;}
	.st8{fill:#94C384;}
	.st9{font-family:'Gilroy-Regular';}
	.st10{font-size:15px;}
	.st11{fill:#A7D59C;}
	.st12{fill:none;stroke:#FFFFFF;stroke-width:2;stroke-miterlimit:10;}
	.st13{fill:#A7D59C;stroke:#A7D59C;stroke-width:4;stroke-miterlimit:10;}
</style>
<rect id="XMLID_148_" x="-0.5" class="st0" width="1001" height="1000"/>
<rect id="XMLID_48_" x="-0.5" class="st0" width="1001" height="1000"/>
<g id="XMLID_84_">
	<rect id="XMLID_155_" x="-0.5" class="st0" width="1001" height="1000"/>
	<rect id="XMLID_154_" x="917" class="st1" width="83.5" height="59.5"/>
	<g id="XMLID_96_">
		<g id="XMLID_224_">
			<path id="XMLID_153_" class="st2" d="M897.6,508.9H115.1c-20.7,0-37.5-16.8-37.5-37.5V345.5c0-20.7,16.8-37.5,37.5-37.5h782.5
				c20.7,0,37.5,16.8,37.5,37.5v125.8C935.2,492.1,918.4,508.9,897.6,508.9z"/>
			<g id="XMLID_152_">
				<text id="XMLID_43_" transform="matrix(1 0 0 1 150.9602 346.6606)"><tspan x="0" y="0" class="st3 st4 st5">From my short time spent with him, I could tell Dave was an amazing man. </tspan><tspan x="0" y="24" class="st3 st4 st5">Please accept my sincere condolences.</tspan></text>
			</g>
			<g id="XMLID_151_">
				<text id="XMLID_41_" transform="matrix(1 0 0 1 150.9602 399.5684)"><tspan x="0" y="0" class="st3 st4 st5">You might have spent a short time with the person, and you can express </tspan><tspan x="0" y="24" class="st3 st4 st5">how much those few moments meant to you.</tspan></text>
			</g>
			<g id="XMLID_150_">
				<text id="XMLID_39_" transform="matrix(1 0 0 1 150.9602 462.5181)" class="st1 st6 st7">Finn Slater</text>
			</g>
			<g id="XMLID_149_">
				<text id="XMLID_37_" transform="matrix(1 0 0 1 150.9602 482.5771)" class="st8 st9 st10">3991 Beechwood Drive, Clarksville, MD 21029</text>
			</g>
			<g id="XMLID_226_">
				<circle id="XMLID_147_" class="st11" cx="95.9" cy="315.3" r="28.2"/>
				<circle id="XMLID_146_" class="st12" cx="95.9" cy="315.3" r="23.8"/>
				<g id="XMLID_227_">
					<path id="XMLID_228_" class="st0" d="M93.4,307.7c0.9,1.5,1.4,3.2,1.4,5.4c0,2.7-0.7,5.1-2.1,7.3c-1.4,2.2-3.5,3.9-6.3,5.2
						l-0.7-1.5c1.7-0.7,3.1-1.8,4.3-3.3c1.2-1.5,1.8-3.1,1.8-4.6c0-0.6-0.1-1.2-0.2-1.7c-0.9,0.7-1.9,1.1-3,1.1
						c-1.5,0-2.7-0.5-3.7-1.4c-1-0.9-1.5-2.2-1.5-3.8c0-1.5,0.5-2.7,1.5-3.7c1-1,2.2-1.5,3.7-1.5C90.7,305.1,92.3,305.9,93.4,307.7z
						 M107.1,307.7c0.9,1.5,1.4,3.2,1.4,5.4c0,2.7-0.7,5.1-2.1,7.3c-1.4,2.2-3.5,3.9-6.3,5.2l-0.7-1.5c1.7-0.7,3.1-1.8,4.3-3.3
						c1.2-1.5,1.8-3.1,1.8-4.6c0-0.6-0.1-1.2-0.2-1.7c-0.9,0.7-1.9,1.1-3,1.1c-1.5,0-2.7-0.5-3.7-1.4c-1-0.9-1.5-2.2-1.5-3.8
						c0-1.5,0.5-2.7,1.5-3.7c1-1,2.2-1.5,3.7-1.5C104.5,305.1,106.1,305.9,107.1,307.7z"/>
				</g>
			</g>
			<path id="XMLID_143_" class="st13" d="M898.9,453.8c0,15.7-15.4,28.4-34.4,28.4H613.8v2.2h250.7c20.5,0,37.2-13.8,37.2-30.7
				v-90.5h-2.8V453.8z"/>
		</g>
		<g id="XMLID_205_">
			<path id="XMLID_142_" class="st2" d="M897.6,674.4H115.1c-20.7,0-37.5-16.8-37.5-37.5v-64.2c0-20.7,16.8-37.5,37.5-37.5h782.6
				c20.7,0,37.5,16.8,37.5,37.5v64.2C935.2,657.6,918.4,674.4,897.6,674.4z"/>
			<g id="XMLID_141_">
				<text id="XMLID_35_" transform="matrix(1 0 0 1 150.9609 574.9214)"><tspan x="0" y="0" class="st3 st4 st5">I know he will be dearly missed, and I’m sorry I didn’t have the chance to </tspan><tspan x="0" y="24" class="st3 st4 st5">know him better. </tspan></text>
			</g>
			<g id="XMLID_140_">
				<text id="XMLID_33_" transform="matrix(1 0 0 1 150.9609 633.8511)" class="st1 st6 st7">Lisa R. Taylor</text>
			</g>
			<g id="XMLID_139_">
				<text id="XMLID_31_" transform="matrix(1 0 0 1 150.9609 655.1431)" class="st8 st9 st10">4567 Union Street, Seattle, WA 98106</text>
			</g>
			<path id="XMLID_138_" class="st13" d="M898.9,621.2c0,15.6-15.3,28.2-34.1,28.2H615.9v2.2h248.9c20.4,0,36.9-13.7,36.9-30.4
				v-59.8h-2.8V621.2z"/>
			<g id="XMLID_206_">
				<circle id="XMLID_137_" class="st11" cx="95.7" cy="546.8" r="27.9"/>
				<circle id="XMLID_136_" class="st12" cx="95.7" cy="546.8" r="23.6"/>
				<g id="XMLID_207_">
					<path id="XMLID_208_" class="st0" d="M93.2,539.3c0.9,1.4,1.4,3.2,1.4,5.3c0,2.7-0.7,5.1-2.1,7.2c-1.4,2.1-3.4,3.9-6.2,5.2
						l-0.7-1.4c1.7-0.7,3.1-1.8,4.3-3.3c1.2-1.5,1.8-3,1.8-4.6c0-0.6-0.1-1.2-0.2-1.7c-0.9,0.7-1.9,1-3,1c-1.4,0-2.7-0.5-3.7-1.4
						c-1-0.9-1.5-2.2-1.5-3.7c0-1.4,0.5-2.7,1.5-3.7c1-1,2.2-1.5,3.7-1.5C90.5,536.7,92.1,537.5,93.2,539.3z M106.8,539.3
						c0.9,1.4,1.4,3.2,1.4,5.3c0,2.7-0.7,5.1-2.1,7.2c-1.4,2.1-3.4,3.9-6.2,5.2l-0.7-1.4c1.7-0.7,3.1-1.8,4.3-3.3
						c1.2-1.5,1.8-3,1.8-4.6c0-0.6-0.1-1.2-0.2-1.7c-0.9,0.7-1.9,1-3,1c-1.4,0-2.7-0.5-3.7-1.4c-1-0.9-1.5-2.2-1.5-3.7
						c0-1.4,0.5-2.7,1.5-3.7c1-1,2.2-1.5,3.7-1.5C104.2,536.7,105.8,537.5,106.8,539.3z"/>
				</g>
			</g>
		</g>
		<g id="XMLID_183_">
			<path id="XMLID_133_" class="st2" d="M892.5,277.1H114.9c-20.6,0-37.3-16.7-37.3-37.3V132c0-20.6,16.7-37.3,37.3-37.3h777.6
				c20.6,0,37.3,16.7,37.3,37.3v107.9C929.8,260.4,913.1,277.1,892.5,277.1z"/>
			<g id="XMLID_132_">
				<text id="XMLID_29_" transform="matrix(1 0 0 1 150.9601 127.669)"><tspan x="0" y="0" class="st3 st4 st5">Your family has been in my thoughts every day, and I want you to know </tspan><tspan x="0" y="24" class="st3 st4 st5">you have my sincere condolences.</tspan></text>
			</g>
			<g id="XMLID_131_">
				<text id="XMLID_27_" transform="matrix(1 0 0 1 150.9601 181.7872)"><tspan x="0" y="0" class="st3 st4 st5">You can briefly let the immediate family know that they’re always </tspan><tspan x="0" y="24" class="st3 st4 st5">in your thoughts.</tspan></text>
			</g>
			<g id="XMLID_130_">
				<text id="XMLID_25_" transform="matrix(1 0 0 1 150.9601 238.6856)" class="st1 st6 st7">Jasmine Schutt</text>
			</g>
			<g id="XMLID_129_">
				<text id="XMLID_23_" transform="matrix(1 0 0 1 150.9601 257.5342)" class="st8 st9 st10">4653 Hazelwood Avenue, West Des Moines, IA 50266</text>
			</g>
			<g id="XMLID_185_">
				<circle id="XMLID_128_" class="st11" cx="95.8" cy="101.9" r="28"/>
				<circle id="XMLID_127_" class="st12" cx="95.8" cy="101.9" r="23.6"/>
				<g id="XMLID_186_">
					<path id="XMLID_187_" class="st0" d="M93.2,94.3c0.9,1.5,1.4,3.2,1.4,5.3c0,2.7-0.7,5.1-2.1,7.3c-1.4,2.1-3.5,3.9-6.2,5.2
						l-0.7-1.5c1.7-0.7,3.1-1.8,4.3-3.3c1.2-1.5,1.8-3,1.8-4.6c0-0.6-0.1-1.2-0.2-1.7c-0.9,0.7-1.9,1-3,1c-1.5,0-2.7-0.5-3.7-1.4
						c-1-0.9-1.5-2.2-1.5-3.7c0-1.5,0.5-2.7,1.5-3.7c1-1,2.2-1.5,3.7-1.5C90.5,91.7,92.1,92.6,93.2,94.3z M106.9,94.3
						c0.9,1.5,1.4,3.2,1.4,5.3c0,2.7-0.7,5.1-2.1,7.3c-1.4,2.1-3.5,3.9-6.2,5.2l-0.7-1.5c1.7-0.7,3.1-1.8,4.3-3.3
						c1.2-1.5,1.8-3,1.8-4.6c0-0.6-0.1-1.2-0.2-1.7c-0.9,0.7-1.9,1-3,1c-1.5,0-2.7-0.5-3.7-1.4c-1-0.9-1.5-2.2-1.5-3.7
						c0-1.5,0.5-2.7,1.5-3.7c1-1,2.2-1.5,3.7-1.5C104.2,91.7,105.8,92.6,106.9,94.3z"/>
				</g>
			</g>
			<path id="XMLID_122_" class="st13" d="M898.9,217.4c0,15.6-15.3,28.2-34.2,28.2H615.6v2.2h249.2c20.4,0,37-13.7,37-30.5v-89.9
				h-2.8V217.4z"/>
		</g>
		<g id="XMLID_97_">
			<path id="XMLID_59_" class="st2" d="M897.6,926.1H115.1c-20.7,0-37.5-16.8-37.5-37.5V741.6c0-20.7,16.8-37.5,37.5-37.5h782.6
				c20.7,0,37.5,16.8,37.5,37.5v146.9C935.2,909.3,918.4,926.1,897.6,926.1z"/>
			<g id="XMLID_58_">
				<text id="XMLID_21_" transform="matrix(1 0 0 1 150.9603 747.5978)"><tspan x="0" y="0" class="st3 st4 st5">I know Sebastian was a wonderful son and brother. And I want you to know how </tspan><tspan x="0" y="24" class="st3 st4 st5">wonderful he was as a friend, too. Thank you for raising such an amazing man. </tspan></text>
			</g>
			<g id="XMLID_56_">
				<text id="XMLID_42_" transform="matrix(1 0 0 1 150.9603 807.5577)"><tspan x="0" y="0" class="st3 st4 st5">You have a unique viewpoint of the deceased as their friend. The family would </tspan><tspan x="0" y="24" class="st3 st4 st5">likely enjoy knowing how great a friend their brother, son, or husband was. </tspan></text>
			</g>
			<g id="XMLID_54_">
				<text id="XMLID_44_" transform="matrix(1 0 0 1 150.9604 875.3566)" class="st1 st6 st7">George G. Fitzpatrick</text>
			</g>
			<g id="XMLID_53_">
				<text id="XMLID_46_" transform="matrix(1 0 0 1 150.9603 894.1564)" class="st8 st9 st10">2451 Ashwood Drive, Sioux City, IA 51101</text>
			</g>
			<g id="XMLID_99_">
				<circle id="XMLID_52_" class="st11" cx="95.7" cy="712.3" r="27.9"/>
				<circle id="XMLID_51_" class="st12" cx="95.7" cy="712.3" r="23.5"/>
				<g id="XMLID_100_">
					<path id="XMLID_101_" class="st0" d="M93.1,704.8c0.9,1.4,1.4,3.2,1.4,5.3c0,2.7-0.7,5.1-2,7.2c-1.4,2.1-3.4,3.9-6.2,5.1
						l-0.7-1.4c1.7-0.7,3.1-1.8,4.3-3.3c1.2-1.5,1.8-3,1.8-4.6c0-0.6-0.1-1.2-0.2-1.7c-0.9,0.7-1.8,1-3,1c-1.4,0-2.7-0.5-3.7-1.4
						c-1-0.9-1.5-2.2-1.5-3.7c0-1.4,0.5-2.7,1.5-3.7c1-1,2.2-1.5,3.7-1.5C90.5,702.2,92.1,703,93.1,704.8z M106.8,704.8
						c0.9,1.4,1.4,3.2,1.4,5.3c0,2.7-0.7,5.1-2,7.2c-1.4,2.1-3.4,3.9-6.2,5.1l-0.7-1.4c1.7-0.7,3.1-1.8,4.3-3.3
						c1.2-1.5,1.8-3,1.8-4.6c0-0.6-0.1-1.2-0.2-1.7c-0.9,0.7-1.8,1-3,1c-1.4,0-2.7-0.5-3.7-1.4c-1-0.9-1.5-2.2-1.5-3.7
						c0-1.4,0.5-2.7,1.5-3.7c1-1,2.2-1.5,3.7-1.5C104.1,702.2,105.7,703,106.8,704.8z"/>
				</g>
			</g>
			<path id="XMLID_45_" class="st13" d="M898.9,865.5c0,15.5-15.3,28.2-34.1,28.2H616.3v2.2h248.5c20.3,0,36.9-13.6,36.9-30.4V755.8
				h-2.8V865.5z"/>
		</g>
	</g>
</g>
</svg>
