<?xml version="1.0" encoding="utf-8"?>
<!-- Generator: Adobe Illustrator 19.0.0, SVG Export Plug-In . SVG Version: 6.00 Build 0)  -->
<svg version="1.1" id="Layer_1" xmlns="http://www.w3.org/2000/svg" xmlns:xlink="http://www.w3.org/1999/xlink" x="0px" y="0px"
	 viewBox="0 0 1000 1000" style="enable-background:new 0 0 1000 1000;" xml:space="preserve">
<style type="text/css">
	.st0{fill:#FFFFFF;}
	.st1{fill:#6B9953;}
	.st2{fill:#EBEBE9;}
	.st3{fill:#282C2E;}
	.st4{font-family:'Gilroy-SemiBold';}
	.st5{font-size:20px;}
	.st6{font-family:'Gilroy-Black';}
	.st7{font-size:22px;}
	.st8{fill:#94C384;}
	.st9{font-family:'Gilroy-Regular';}
	.st10{font-size:15px;}
	.st11{fill:#A7D59C;}
	.st12{fill:none;stroke:#FFFFFF;stroke-width:2;stroke-miterlimit:10;}
	.st13{fill:#A7D59C;stroke:#A7D59C;stroke-width:4;stroke-miterlimit:10;}
	.st14{font-family:'PlayfairDisplay-Regular';}
	.st15{font-size:16px;}
	.st16{font-size:15.9013px;}
</style>
<rect id="XMLID_125_" x="-0.5" class="st0" width="1001" height="1000"/>
<g id="XMLID_1_">
	<rect id="XMLID_121_" x="917" class="st1" width="83.5" height="59.5"/>
	<g id="XMLID_3_">
		<g id="XMLID_71_">
			<path id="XMLID_119_" class="st2" d="M887.1,322.3H104.5c-20.7,0-37.5-16.8-37.5-37.5V137.9c0-20.7,16.8-37.5,37.5-37.5h782.6
				c20.7,0,37.5,16.8,37.5,37.5v146.9C924.7,305.5,907.9,322.3,887.1,322.3z"/>
			<g id="XMLID_91_">
				<text id="XMLID_102_" transform="matrix(1 0 0 1 140.2225 143.856)"><tspan x="0" y="0" class="st3 st4 st5">I know Sebastian was a wonderful son and brother. And I want you to know how </tspan><tspan x="0" y="24" class="st3 st4 st5">wonderful he was as a friend, too. Thank you for raising such an amazing man. </tspan></text>
			</g>
			<g id="XMLID_88_">
				<text id="XMLID_100_" transform="matrix(1 0 0 1 140.2225 203.816)"><tspan x="0" y="0" class="st3 st4 st5">You have a unique viewpoint of the deceased as their friend. The family would </tspan><tspan x="0" y="24" class="st3 st4 st5">likely enjoy knowing how great a friend their brother, son, or husband was. </tspan></text>
			</g>
			<g id="XMLID_83_">
				<text id="XMLID_98_" transform="matrix(1 0 0 1 140.2227 271.6148)" class="st1 st6 st7">George G. Fitzpatrick</text>
			</g>
			<g id="XMLID_80_">
				<text id="XMLID_96_" transform="matrix(1 0 0 1 140.2225 290.4146)" class="st8 st9 st10">2451 Ashwood Drive, Sioux City, IA 51101</text>
			</g>
			<g id="XMLID_73_">
				<circle id="XMLID_79_" class="st11" cx="85.2" cy="108.6" r="27.9"/>
				<circle id="XMLID_78_" class="st12" cx="85.2" cy="108.6" r="23.5"/>
				<g id="XMLID_74_">
					<path id="XMLID_75_" class="st0" d="M82.6,101c0.9,1.4,1.4,3.2,1.4,5.3c0,2.7-0.7,5.1-2,7.2c-1.4,2.1-3.4,3.9-6.2,5.1l-0.7-1.4
						c1.7-0.7,3.1-1.8,4.3-3.3c1.2-1.5,1.8-3,1.8-4.6c0-0.6-0.1-1.2-0.2-1.7c-0.9,0.7-1.8,1-3,1c-1.4,0-2.7-0.5-3.7-1.4
						c-1-0.9-1.5-2.2-1.5-3.7c0-1.4,0.5-2.7,1.5-3.7c1-1,2.2-1.5,3.7-1.5C80,98.4,81.5,99.3,82.6,101z M96.3,101
						c0.9,1.4,1.4,3.2,1.4,5.3c0,2.7-0.7,5.1-2,7.2c-1.4,2.1-3.4,3.9-6.2,5.1l-0.7-1.4c1.7-0.7,3.1-1.8,4.3-3.3
						c1.2-1.5,1.8-3,1.8-4.6c0-0.6-0.1-1.2-0.2-1.7c-0.9,0.7-1.8,1-3,1c-1.4,0-2.7-0.5-3.7-1.4c-1-0.9-1.5-2.2-1.5-3.7
						c0-1.4,0.5-2.7,1.5-3.7c1-1,2.2-1.5,3.7-1.5C93.6,98.4,95.2,99.3,96.3,101z"/>
				</g>
			</g>
			<path id="XMLID_72_" class="st13" d="M888.5,261.8c0,15.5-15.3,28.2-34.1,28.2H605.9v2.2h248.5c20.3,0,36.9-13.6,36.9-30.4V152.1
				h-2.8V261.8z"/>
		</g>
		<g id="XMLID_48_">
			<path id="XMLID_70_" class="st2" d="M887.2,919.3H106.8c-20.7,0-37.4-16.8-37.4-37.4V755.5c0-20.7,16.8-37.4,37.4-37.4h780.4
				c20.7,0,37.4,16.8,37.4,37.4v126.4C924.7,902.6,907.9,919.3,887.2,919.3z"/>
			<path id="XMLID_69_" class="st13" d="M888.4,859.4c0,15.6-15.4,28.3-34.3,28.3h-250v2.2h250c20.5,0,37.1-13.7,37.1-30.6v-90.2
				h-2.8V859.4z"/>
			<g id="XMLID_62_">
				<circle id="XMLID_68_" class="st11" cx="85.4" cy="730.6" r="28.1"/>
				<circle id="XMLID_67_" class="st12" cx="85.4" cy="730.6" r="23.7"/>
				<g id="XMLID_63_">
					<path id="XMLID_64_" class="st0" d="M82.8,723c0.9,1.5,1.4,3.2,1.4,5.3c0,2.7-0.7,5.1-2.1,7.3c-1.4,2.2-3.5,3.9-6.3,5.2
						l-0.7-1.5c1.7-0.7,3.1-1.8,4.3-3.3c1.2-1.5,1.8-3,1.8-4.6c0-0.6-0.1-1.2-0.2-1.7c-0.9,0.7-1.9,1.1-3,1.1
						c-1.5,0-2.7-0.5-3.7-1.4c-1-0.9-1.5-2.2-1.5-3.8c0-1.5,0.5-2.7,1.5-3.7c1-1,2.2-1.5,3.7-1.5C80.1,720.4,81.7,721.3,82.8,723z
						 M96.5,723c0.9,1.5,1.4,3.2,1.4,5.3c0,2.7-0.7,5.1-2.1,7.3c-1.4,2.2-3.5,3.9-6.3,5.2l-0.7-1.5c1.7-0.7,3.1-1.8,4.3-3.3
						c1.2-1.5,1.8-3,1.8-4.6c0-0.6-0.1-1.2-0.2-1.7c-0.9,0.7-1.9,1.1-3,1.1c-1.5,0-2.7-0.5-3.7-1.4c-1-0.9-1.5-2.2-1.5-3.8
						c0-1.5,0.5-2.7,1.5-3.7c1-1,2.2-1.5,3.7-1.5C93.8,720.4,95.4,721.3,96.5,723z"/>
				</g>
			</g>
			<g id="XMLID_59_">
				<text id="XMLID_94_" transform="matrix(1 0 0 1 140.2224 755.4631)"><tspan x="0" y="0" class="st3 st4 st5">Becca and I met a college, and she made a lasting impression on me, </tspan><tspan x="0" y="24" class="st3 st4 st5">as I’m sure she did on many people.</tspan></text>
			</g>
			<g id="XMLID_55_">
				<text id="XMLID_92_" transform="matrix(1 0 0 1 140.2224 812.8567)"><tspan x="0" y="0" class="st3 st4 st5">If you don’t know the family well, you might want to begin your condolence book </tspan><tspan x="0" y="24" class="st3 st4 st5">message by briefly explaining how you know the deceased.</tspan></text>
			</g>
			<g id="XMLID_52_">
				<text id="XMLID_89_" transform="matrix(1 0 0 1 140.3328 873.0295)" class="st1 st6 st7">Alice Lowerson</text>
			</g>
			<g id="XMLID_49_">
				<text id="XMLID_86_" transform="matrix(1 0 0 1 140.2224 891.0676)" class="st8 st9 st10">1379 Sumner Street, Santa Monica, CA 90405</text>
			</g>
		</g>
		<g id="XMLID_26_">
			<path id="XMLID_47_" class="st2" d="M887.2,518.5H106.7c-20.7,0-37.4-16.8-37.4-37.4v-96.5c0-20.7,16.8-37.4,37.4-37.4h780.5
				c20.7,0,37.4,16.8,37.4,37.4v96.5C924.7,501.7,907.9,518.5,887.2,518.5z"/>
			<path id="XMLID_46_" class="st13" d="M888.5,466.2c0,15.5-15.3,28.2-34.1,28.2H605.9v2.2h248.5c20.3,0,36.9-13.6,36.9-30.4v-89.7
				h-2.8V466.2z"/>
			<g id="XMLID_39_">
				<circle id="XMLID_45_" class="st11" cx="85.2" cy="360.2" r="27.9"/>
				<circle id="XMLID_44_" class="st12" cx="85.2" cy="360.2" r="23.5"/>
				<g id="XMLID_40_">
					<path id="XMLID_41_" class="st0" d="M82.6,352.7c0.9,1.4,1.4,3.2,1.4,5.3c0,2.7-0.7,5.1-2,7.2c-1.4,2.1-3.4,3.9-6.2,5.1
						l-0.7-1.4c1.7-0.7,3.1-1.8,4.3-3.3c1.2-1.5,1.8-3,1.8-4.6c0-0.6-0.1-1.2-0.2-1.7c-0.9,0.7-1.8,1-3,1c-1.4,0-2.7-0.5-3.7-1.4
						c-1-0.9-1.5-2.2-1.5-3.7c0-1.4,0.5-2.7,1.5-3.7c1-1,2.2-1.5,3.7-1.5C80,350.1,81.5,351,82.6,352.7z M96.3,352.7
						c0.9,1.4,1.4,3.2,1.4,5.3c0,2.7-0.7,5.1-2,7.2c-1.4,2.1-3.4,3.9-6.2,5.1l-0.7-1.4c1.7-0.7,3.1-1.8,4.3-3.3
						c1.2-1.5,1.8-3,1.8-4.6c0-0.6-0.1-1.2-0.2-1.7c-0.9,0.7-1.8,1-3,1c-1.4,0-2.7-0.5-3.7-1.4c-1-0.9-1.5-2.2-1.5-3.7
						c0-1.4,0.5-2.7,1.5-3.7c1-1,2.2-1.5,3.7-1.5C93.6,350.1,95.2,351,96.3,352.7z"/>
				</g>
			</g>
			<g id="XMLID_36_">
				<text id="XMLID_84_" transform="matrix(1 0 0 1 140.2225 383.2287)" class="st3 st4 st5">Thank you for including me in mourning Greg’s loss. I know he was a special person.</text>
			</g>
			<g id="XMLID_33_">
				<text id="XMLID_81_" transform="matrix(1 0 0 1 140.2225 417.7326)"><tspan x="0" y="0" class="st3 st4 st5">It means a lot that the family invited you to the memorial, even though </tspan><tspan x="0" y="24" class="st3 st4 st5">you didn’t know the deceased very well.</tspan></text>
			</g>
			<g id="XMLID_30_">
				<text id="XMLID_60_" transform="matrix(1 0 0 1 140.2224 479.2756)" class="st1 st6 st7">Bailey Pocock</text>
			</g>
			<g id="XMLID_27_">
				<text id="XMLID_99_" transform="matrix(1 0 0 1 140.2224 497.8508)" class="st8 st9 st10">2180 Brooklyn Street, Portland, OR 97205</text>
			</g>
		</g>
		<g id="XMLID_4_">
			<text id="XMLID_25_" transform="matrix(1 0 0 1 110.5188 633.2443)" class="st14 st15"> </text>
			<g id="XMLID_15_">
				<text id="XMLID_24_" transform="matrix(1 0 0 1 112.7433 612.2324)" class="st14 st16">  </text>
				<g id="XMLID_16_">
					<path id="XMLID_23_" class="st2" d="M67.9,595.4v64c0,18.3,14.8,33.1,33.1,33.1h790.6c18.3,0,33.1-14.8,33.1-33.1v-81.8
						c0-18.3-14.8-33.1-33.1-33.1H125.1C90.2,544.7,68,547.5,67.9,595.4z"/>
					<circle id="XMLID_22_" class="st11" cx="85" cy="556.2" r="27.7"/>
					<circle id="XMLID_21_" class="st12" cx="85" cy="556.2" r="23.4"/>
					<g id="XMLID_17_">
						<path id="XMLID_18_" class="st0" d="M82.5,548.7c0.9,1.4,1.4,3.2,1.4,5.3c0,2.7-0.7,5.1-2,7.2c-1.4,2.1-3.4,3.8-6.2,5.1
							l-0.7-1.4c1.6-0.7,3.1-1.8,4.3-3.3c1.2-1.5,1.8-3,1.8-4.6c0-0.6-0.1-1.2-0.2-1.7c-0.9,0.7-1.8,1-3,1c-1.4,0-2.6-0.5-3.6-1.4
							c-1-0.9-1.5-2.2-1.5-3.7c0-1.4,0.5-2.6,1.5-3.6c1-1,2.2-1.5,3.6-1.5C79.8,546.2,81.4,547,82.5,548.7z M96,548.7
							c0.9,1.4,1.4,3.2,1.4,5.3c0,2.7-0.7,5.1-2,7.2c-1.4,2.1-3.4,3.8-6.2,5.1l-0.7-1.4c1.6-0.7,3.1-1.8,4.3-3.3
							c1.2-1.5,1.8-3,1.8-4.6c0-0.6-0.1-1.2-0.2-1.7c-0.9,0.7-1.8,1-3,1c-1.4,0-2.6-0.5-3.6-1.4c-1-0.9-1.5-2.2-1.5-3.7
							c0-1.4,0.5-2.6,1.5-3.6c1-1,2.2-1.5,3.6-1.5C93.4,546.2,95,547,96,548.7z"/>
					</g>
				</g>
			</g>
			<g id="XMLID_12_">
				<text id="XMLID_101_" transform="matrix(1 0 0 1 140.2229 583.712)"><tspan x="0" y="0" class="st3 st4 st5">Your family has been in my thoughts every day, and I want you to know </tspan><tspan x="0" y="24" class="st3 st4 st5">you have my sincere condolences.</tspan></text>
			</g>
			<g id="XMLID_9_">
				<text id="XMLID_103_" transform="matrix(1 0 0 1 140.2228 652.0861)" class="st1 st6 st7">Jasmine Schutt</text>
			</g>
			<g id="XMLID_6_">
				<text id="XMLID_104_" transform="matrix(1 0 0 1 140.2228 669.7911)" class="st8 st9 st10">4653 Hazelwood Avenue, West Des Moines, IA 50266</text>
			</g>
			<path id="XMLID_5_" class="st13" d="M888.5,634.6c0,15.5-15.3,28.2-34.1,28.2H605.9v2.2h248.5c20.3,0,36.9-13.6,36.9-30.4v-59.7
				h-2.8V634.6z"/>
		</g>
	</g>
</g>
</svg>
