<?xml version="1.0" encoding="utf-8"?>
<!-- Generator: Adobe Illustrator 19.0.0, SVG Export Plug-In . SVG Version: 6.00 Build 0)  -->
<svg version="1.1" id="Layer_1" xmlns="http://www.w3.org/2000/svg" xmlns:xlink="http://www.w3.org/1999/xlink" x="0px" y="0px"
	 viewBox="0 0 1000 1000" style="enable-background:new 0 0 1000 1000;" xml:space="preserve">
<style type="text/css">
	.st0{fill:#FFFFFF;}
	.st1{fill:#6B9953;}
	.st2{font-family:'Gilroy-Black';}
	.st3{font-size:34.9094px;}
	.st4{fill:#EBEBE9;}
	.st5{fill:#A7D59C;stroke:#A7D59C;stroke-width:4;stroke-miterlimit:10;}
	.st6{fill:#A7D59C;}
	.st7{fill:none;stroke:#FFFFFF;stroke-width:2;stroke-miterlimit:10;}
	.st8{fill:#282C2E;}
	.st9{font-family:'Gilroy-SemiBold';}
	.st10{font-size:20px;}
	.st11{font-size:22.5464px;}
	.st12{fill:#94C384;}
	.st13{font-family:'Gilroy-Regular';}
	.st14{font-size:15px;}
	.st15{font-size:22px;}
	.st16{font-family:'PlayfairDisplay-Regular';}
	.st17{font-size:16px;}
	.st18{font-size:15.9013px;}
</style>
<rect id="XMLID_148_" x="-0.5" class="st0" width="1001" height="1000"/>
<rect id="XMLID_48_" x="-0.5" class="st0" width="1001" height="1000"/>
<g id="XMLID_43_">
	<g>
		<rect id="XMLID_47_" x="-0.5" class="st1" width="295.3" height="59.5"/>
		<text id="XMLID_46_" transform="matrix(1 0 0 1 14.1825 39.7519)" class="st0 st2 st3">O B I T U A R I E S</text>
	</g>
	<g>
		<g>
			<path id="XMLID_44_" class="st4" d="M894.8,878.8H114.3c-20.7,0-37.4-16.8-37.4-37.4V714.9c0-20.7,16.8-37.4,37.4-37.4h780.4
				c20.7,0,37.4,16.8,37.4,37.4v126.4C932.2,862,915.4,878.8,894.8,878.8z"/>
			<path id="XMLID_42_" class="st5" d="M902,818.8c0,15.6-15.4,28.3-34.3,28.3h-250v2.2h250c20.5,0,37.1-13.7,37.1-30.6v-90.2H902
				V818.8z"/>
			<g>
				<circle id="XMLID_41_" class="st6" cx="92.9" cy="690" r="28.1"/>
				<circle id="XMLID_40_" class="st7" cx="92.9" cy="690" r="23.7"/>
				<g>
					<path class="st0" d="M90.3,682.4c0.9,1.5,1.4,3.2,1.4,5.3c0,2.7-0.7,5.1-2.1,7.3c-1.4,2.2-3.5,3.9-6.3,5.2l-0.7-1.5
						c1.7-0.7,3.1-1.8,4.3-3.3c1.2-1.5,1.8-3,1.8-4.6c0-0.6-0.1-1.2-0.2-1.7c-0.9,0.7-1.9,1.1-3,1.1c-1.5,0-2.7-0.5-3.7-1.4
						c-1-0.9-1.5-2.2-1.5-3.8c0-1.5,0.5-2.7,1.5-3.7c1-1,2.2-1.5,3.7-1.5C87.6,679.8,89.2,680.7,90.3,682.4z M104.1,682.4
						c0.9,1.5,1.4,3.2,1.4,5.3c0,2.7-0.7,5.1-2.1,7.3c-1.4,2.2-3.5,3.9-6.3,5.2l-0.7-1.5c1.7-0.7,3.1-1.8,4.3-3.3
						c1.2-1.5,1.8-3,1.8-4.6c0-0.6-0.1-1.2-0.2-1.7c-0.9,0.7-1.9,1.1-3,1.1c-1.5,0-2.7-0.5-3.7-1.4c-1-0.9-1.5-2.2-1.5-3.8
						c0-1.5,0.5-2.7,1.5-3.7c1-1,2.2-1.5,3.7-1.5C101.4,679.8,103,680.7,104.1,682.4z"/>
				</g>
			</g>
			<g id="XMLID_37_">
				<text id="XMLID_93_" transform="matrix(1 0 0 1 148.5095 714.8853)"><tspan x="0" y="0" class="st8 st9 st10">Becca and I met a college, and she made a lasting impression on me, </tspan><tspan x="0" y="24" class="st8 st9 st10">as I’m sure she did on many people.</tspan></text>
			</g>
			<g id="XMLID_36_">
				<text id="XMLID_91_" transform="matrix(1 0 0 1 148.5095 772.2788)"><tspan x="0" y="0" class="st8 st9 st10">If you don’t know the family well, you might want to begin your condolence book </tspan><tspan x="0" y="24" class="st8 st9 st10">message by briefly explaining how you know the deceased.</tspan></text>
			</g>
			<g id="XMLID_35_">
				<text id="XMLID_90_" transform="matrix(1 0 0 1 148.6217 832.4517)" class="st1 st2 st11">Alice Lowerson</text>
			</g>
			<g id="XMLID_34_">
				<text id="XMLID_88_" transform="matrix(1 0 0 1 148.5095 850.4897)" class="st12 st13 st14">1379 Sumner Street, Santa Monica, CA 90405</text>
			</g>
		</g>
		<g>
			<path id="XMLID_33_" class="st4" d="M894.8,477.9H114.3c-20.7,0-37.4-16.8-37.4-37.4V344c0-20.7,16.8-37.4,37.4-37.4h780.5
				c20.7,0,37.4,16.8,37.4,37.4v96.5C932.2,461.2,915.4,477.9,894.8,477.9z"/>
			<path id="XMLID_32_" class="st5" d="M902.1,425.7c0,15.5-15.3,28.2-34.1,28.2H619.5v2.2H868c20.3,0,36.9-13.6,36.9-30.4V336h-2.8
				V425.7z"/>
			<g>
				<circle id="XMLID_31_" class="st6" cx="92.7" cy="319.7" r="27.9"/>
				<circle id="XMLID_30_" class="st7" cx="92.7" cy="319.7" r="23.5"/>
				<g>
					<path class="st0" d="M90.2,312.1c0.9,1.4,1.4,3.2,1.4,5.3c0,2.7-0.7,5.1-2,7.2c-1.4,2.1-3.4,3.9-6.2,5.1l-0.7-1.4
						c1.7-0.7,3.1-1.8,4.3-3.3c1.2-1.5,1.8-3,1.8-4.6c0-0.6-0.1-1.2-0.2-1.7c-0.9,0.7-1.8,1-3,1c-1.4,0-2.7-0.5-3.7-1.4
						c-1-0.9-1.5-2.2-1.5-3.7c0-1.4,0.5-2.7,1.5-3.7c1-1,2.2-1.5,3.7-1.5C87.5,309.5,89.1,310.4,90.2,312.1z M103.8,312.1
						c0.9,1.4,1.4,3.2,1.4,5.3c0,2.7-0.7,5.1-2,7.2c-1.4,2.1-3.4,3.9-6.2,5.1l-0.7-1.4c1.7-0.7,3.1-1.8,4.3-3.3
						c1.2-1.5,1.8-3,1.8-4.6c0-0.6-0.1-1.2-0.2-1.7c-0.9,0.7-1.8,1-3,1c-1.4,0-2.7-0.5-3.7-1.4c-1-0.9-1.5-2.2-1.5-3.7
						c0-1.4,0.5-2.7,1.5-3.7c1-1,2.2-1.5,3.7-1.5C101.2,309.5,102.7,310.4,103.8,312.1z"/>
				</g>
			</g>
			<g id="XMLID_27_">
				<text id="XMLID_86_" transform="matrix(1 0 0 1 148.5095 342.6508)" class="st8 st9 st10">Thank you for including me in mourning Greg’s loss. I know he was a special person.</text>
			</g>
			<g id="XMLID_26_">
				<text id="XMLID_82_" transform="matrix(1 0 0 1 148.5095 377.1547)"><tspan x="0" y="0" class="st8 st9 st10">It means a lot that the family invited you to the memorial, even though </tspan><tspan x="0" y="24" class="st8 st9 st10">you didn’t know the deceased very well.</tspan></text>
			</g>
			<g id="XMLID_25_">
				<text id="XMLID_80_" transform="matrix(1 0 0 1 148.5095 438.6977)" class="st1 st2 st15">Bailey Pocock</text>
			</g>
			<g id="XMLID_24_">
				<text id="XMLID_78_" transform="matrix(1 0 0 1 148.5095 457.2729)" class="st12 st13 st14">2180 Brooklyn Street, Portland, OR 97205</text>
			</g>
		</g>
		<g>
			<path id="XMLID_23_" class="st4" d="M894.7,281.8H112.1c-20.7,0-37.5-16.8-37.5-37.5V137.6c0-20.7,16.8-37.5,37.5-37.5h782.6
				c20.7,0,37.5,16.8,37.5,37.5v106.6C932.2,265,915.4,281.8,894.7,281.8z"/>
			<g id="XMLID_22_">
				<text id="XMLID_76_" transform="matrix(1 0 0 1 147.9898 136.6858)" class="st8 st9 st10">I was so sorry to hear that lucy died…</text>
			</g>
			<g id="XMLID_21_">
				<text id="XMLID_74_" transform="matrix(1 0 0 1 147.9898 156.3909)" class="st8 st9 st10">I can’t ﬁnd the words to say how sorry I am, and how much Lucy will be missed…</text>
			</g>
			<g id="XMLID_20_">
				<text id="XMLID_72_" transform="matrix(1 0 0 1 147.9903 176.0959)" class="st8 st9 st10">Liz, Tom, lucy – my heart goes out to you. I am so sorry…</text>
			</g>
			<g id="XMLID_19_">
				<text id="XMLID_70_" transform="matrix(1 0 0 1 147.9898 195.801)" class="st8 st9 st10">lucy was such a kind and generous man…</text>
			</g>
			<g id="XMLID_18_">
				<text id="XMLID_83_" transform="matrix(1 0 0 1 147.9899 239.7156)" class="st1 st2 st15">Pearl C. Ross</text>
			</g>
			<g id="XMLID_17_">
				<text id="XMLID_87_" transform="matrix(1 0 0 1 147.9898 258.5647)" class="st12 st13 st14">253 Hidden Meadow Drive, Minot Air Force Base, ND 58701</text>
			</g>
			<g>
				<circle id="XMLID_16_" class="st6" cx="92.8" cy="107.9" r="28"/>
				<circle id="XMLID_15_" class="st7" cx="92.8" cy="107.9" r="23.6"/>
				<g>
					<path class="st0" d="M90.2,100.3c0.9,1.5,1.4,3.2,1.4,5.3c0,2.7-0.7,5.1-2.1,7.3c-1.4,2.1-3.5,3.9-6.2,5.2l-0.7-1.5
						c1.7-0.7,3.1-1.8,4.3-3.3c1.2-1.5,1.8-3,1.8-4.6c0-0.6-0.1-1.2-0.2-1.7c-0.9,0.7-1.9,1-3,1c-1.5,0-2.7-0.5-3.7-1.4
						c-1-0.9-1.5-2.2-1.5-3.7c0-1.5,0.5-2.7,1.5-3.7c1-1,2.2-1.5,3.7-1.5C87.6,97.7,89.1,98.6,90.2,100.3z M103.9,100.3
						c0.9,1.5,1.4,3.2,1.4,5.3c0,2.7-0.7,5.1-2.1,7.3c-1.4,2.1-3.5,3.9-6.2,5.2l-0.7-1.5c1.7-0.7,3.1-1.8,4.3-3.3
						c1.2-1.5,1.8-3,1.8-4.6c0-0.6-0.1-1.2-0.2-1.7c-0.9,0.7-1.9,1-3,1c-1.5,0-2.7-0.5-3.7-1.4c-1-0.9-1.5-2.2-1.5-3.7
						c0-1.5,0.5-2.7,1.5-3.7c1-1,2.2-1.5,3.7-1.5C101.3,97.7,102.8,98.6,103.9,100.3z"/>
				</g>
			</g>
			<path id="XMLID_12_" class="st5" d="M900.3,225.5c0,15.6-15.3,28.2-34.2,28.2H616.9v2.2h249.2c20.4,0,37-13.7,37-30.5v-89.9h-2.8
				V225.5z"/>
		</g>
		<g>
			<text id="XMLID_11_" transform="matrix(1 0 0 1 118.0665 592.6663)" class="st16 st17"> </text>
			<g>
				<text id="XMLID_10_" transform="matrix(1 0 0 1 120.2911 571.6545)" class="st16 st18">  </text>
				<g>
					<path id="XMLID_9_" class="st4" d="M75.5,554.9v64c0,18.3,14.8,33.1,33.1,33.1h790.6c18.3,0,33.1-14.8,33.1-33.1v-81.8
						c0-18.3-14.8-33.1-33.1-33.1H132.7C97.8,504.1,75.6,507,75.5,554.9z"/>
					<circle id="XMLID_8_" class="st6" cx="92.6" cy="515.7" r="27.7"/>
					<circle id="XMLID_7_" class="st7" cx="92.6" cy="515.7" r="23.4"/>
					<g>
						<path class="st0" d="M90,508.1c0.9,1.4,1.4,3.2,1.4,5.3c0,2.7-0.7,5.1-2,7.2c-1.4,2.1-3.4,3.8-6.2,5.1l-0.7-1.4
							c1.6-0.7,3.1-1.8,4.3-3.3c1.2-1.5,1.8-3,1.8-4.6c0-0.6-0.1-1.2-0.2-1.7c-0.9,0.7-1.8,1-3,1c-1.4,0-2.6-0.5-3.6-1.4
							c-1-0.9-1.5-2.2-1.5-3.7c0-1.4,0.5-2.6,1.5-3.6c1-1,2.2-1.5,3.6-1.5C87.4,505.6,88.9,506.4,90,508.1z M103.6,508.1
							c0.9,1.4,1.4,3.2,1.4,5.3c0,2.7-0.7,5.1-2,7.2c-1.4,2.1-3.4,3.8-6.2,5.1l-0.7-1.4c1.6-0.7,3.1-1.8,4.3-3.3
							c1.2-1.5,1.8-3,1.8-4.6c0-0.6-0.1-1.2-0.2-1.7c-0.9,0.7-1.8,1-3,1c-1.4,0-2.6-0.5-3.6-1.4c-1-0.9-1.5-2.2-1.5-3.7
							c0-1.4,0.5-2.6,1.5-3.6c1-1,2.2-1.5,3.6-1.5C100.9,505.6,102.5,506.4,103.6,508.1z"/>
					</g>
				</g>
			</g>
			<g id="XMLID_4_">
				<text id="XMLID_92_" transform="matrix(1 0 0 1 158.1427 543.1341)"><tspan x="0" y="0" class="st8 st9 st10">Your family has been in my thoughts every day, and I want you to know </tspan><tspan x="0" y="24" class="st8 st9 st10">you have my sincere condolences.</tspan></text>
			</g>
			<g id="XMLID_3_">
				<text id="XMLID_94_" transform="matrix(1 0 0 1 158.5089 611.5082)" class="st1 st2 st15">Jasmine Schutt</text>
			</g>
			<g id="XMLID_2_">
				<text id="XMLID_95_" transform="matrix(1 0 0 1 158.0665 629.2133)" class="st12 st13 st14">4653 Hazelwood Avenue, West Des Moines, IA 50266</text>
			</g>
			<path id="XMLID_1_" class="st5" d="M895.9,594c0,15.5-15.3,28.2-34.1,28.2H613.3v2.2h248.5c20.3,0,36.9-13.6,36.9-30.4v-59.7
				h-2.8V594z"/>
		</g>
	</g>
</g>
</svg>
