<?xml version="1.0" encoding="utf-8"?>
<!-- Generator: Adobe Illustrator 19.0.0, SVG Export Plug-In . SVG Version: 6.00 Build 0)  -->
<svg version="1.1" id="Layer_1" xmlns="http://www.w3.org/2000/svg" xmlns:xlink="http://www.w3.org/1999/xlink" x="0px" y="0px"
	 viewBox="0 0 1000 1000" style="enable-background:new 0 0 1000 1000;" xml:space="preserve">
<style type="text/css">
	.st0{fill:#FFFFFF;}
	.st1{fill:#6B9953;}
	.st2{fill:#EBEBE9;}
	.st3{fill:#282C2E;}
	.st4{font-family:'Gilroy-SemiBold';}
	.st5{font-size:20px;}
	.st6{font-family:'Gilroy-Black';}
	.st7{font-size:22px;}
	.st8{fill:#94C384;}
	.st9{font-family:'Gilroy-Regular';}
	.st10{font-size:15px;}
	.st11{fill:#A7D59C;stroke:#A7D59C;stroke-width:4;stroke-miterlimit:10;}
	.st12{fill:#A7D59C;}
	.st13{fill:none;stroke:#FFFFFF;stroke-width:2;stroke-miterlimit:10;}
</style>
<rect id="XMLID_104_" x="-0.5" class="st0" width="1001" height="1000"/>
<g id="XMLID_1_">
	<rect id="XMLID_101_" x="917" class="st1" width="83.5" height="59.5"/>
	<g id="XMLID_3_">
		<g id="XMLID_69_">
			<path id="XMLID_100_" class="st2" d="M886.3,911.6H109.6c-20.6,0-37.3-16.7-37.3-37.3V758.6c0-20.6,16.7-37.3,37.3-37.3h776.8
				c20.6,0,37.3,16.7,37.3,37.3v115.7C923.6,895,906.9,911.6,886.3,911.6z"/>
			<g id="XMLID_95_">
				<text id="XMLID_99_" transform="matrix(1 0 0 1 145.8014 757.6746)"><tspan x="0" y="0" class="st3 st4 st5">I love you all, and you’re always in my thoughts. Please know how sorry </tspan><tspan x="0" y="24" class="st3 st4 st5">I am for your loss. </tspan></text>
			</g>
			<g id="XMLID_88_">
				<text id="XMLID_97_" transform="matrix(1 0 0 1 145.8014 806.3542)"><tspan x="0" y="0" class="st3 st4 st5">If you truly love the family of the deceased, let them know how much they </tspan><tspan x="0" y="24" class="st3 st4 st5">mean to you in your condolence book message.</tspan></text>
			</g>
			<g id="XMLID_84_">
				<text id="XMLID_94_" transform="matrix(1 0 0 1 145.8014 865.6042)" class="st1 st6 st7">Lisa R. Taylor</text>
			</g>
			<g id="XMLID_79_">
				<text id="XMLID_92_" transform="matrix(1 0 0 1 145.8014 886.8962)" class="st8 st9 st10">4567 Union Street, Seattle, WA 98106</text>
			</g>
			<path id="XMLID_78_" class="st11" d="M896.6,856c0,15.6-15.3,28.2-34.1,28.2H613.6v2.2h248.9c20.4,0,36.9-13.7,36.9-30.4v-89.8
				h-2.8V856z"/>
			<g id="XMLID_71_">
				<circle id="XMLID_77_" class="st12" cx="90.5" cy="732.6" r="27.9"/>
				<circle id="XMLID_76_" class="st13" cx="90.5" cy="732.6" r="23.6"/>
				<g id="XMLID_72_">
					<path id="XMLID_73_" class="st0" d="M88,725c0.9,1.4,1.4,3.2,1.4,5.3c0,2.7-0.7,5.1-2.1,7.2c-1.4,2.1-3.4,3.9-6.2,5.2l-0.7-1.4
						c1.7-0.7,3.1-1.8,4.3-3.3c1.2-1.5,1.8-3,1.8-4.6c0-0.6-0.1-1.2-0.2-1.7c-0.9,0.7-1.9,1-3,1c-1.4,0-2.7-0.5-3.7-1.4
						c-1-0.9-1.5-2.2-1.5-3.7c0-1.4,0.5-2.7,1.5-3.7c1-1,2.2-1.5,3.7-1.5C85.3,722.4,86.9,723.3,88,725z M101.6,725
						c0.9,1.4,1.4,3.2,1.4,5.3c0,2.7-0.7,5.1-2.1,7.2c-1.4,2.1-3.4,3.9-6.2,5.2l-0.7-1.4c1.7-0.7,3.1-1.8,4.3-3.3
						c1.2-1.5,1.8-3,1.8-4.6c0-0.6-0.1-1.2-0.2-1.7c-0.9,0.7-1.9,1-3,1c-1.4,0-2.7-0.5-3.7-1.4c-1-0.9-1.5-2.2-1.5-3.7
						c0-1.4,0.5-2.7,1.5-3.7c1-1,2.2-1.5,3.7-1.5C99,722.4,100.6,723.3,101.6,725z"/>
				</g>
			</g>
		</g>
		<g id="XMLID_46_">
			<path id="XMLID_67_" class="st2" d="M887.4,274H111.8c-20.5,0-37.2-16.7-37.2-37.2v-95.9c0-20.5,16.7-37.2,37.2-37.2h775.6
				c20.5,0,37.2,16.7,37.2,37.2v95.9C924.6,257.3,907.9,274,887.4,274z"/>
			<path id="XMLID_66_" class="st11" d="M896.6,218.3c0,15.5-15.3,28.2-34.1,28.2H614v2.2h248.5c20.3,0,36.9-13.6,36.9-30.4v-89.7
				h-2.8V218.3z"/>
			<g id="XMLID_59_">
				<circle id="XMLID_65_" class="st12" cx="90.5" cy="116.3" r="27.9"/>
				<circle id="XMLID_64_" class="st13" cx="90.5" cy="116.3" r="23.5"/>
				<g id="XMLID_60_">
					<path id="XMLID_61_" class="st0" d="M87.9,108.7c0.9,1.4,1.4,3.2,1.4,5.3c0,2.7-0.7,5.1-2,7.2c-1.4,2.1-3.4,3.9-6.2,5.1
						l-0.7-1.4c1.7-0.7,3.1-1.8,4.3-3.3c1.2-1.5,1.8-3,1.8-4.6c0-0.6-0.1-1.2-0.2-1.7c-0.9,0.7-1.8,1-3,1c-1.4,0-2.7-0.5-3.7-1.4
						c-1-0.9-1.5-2.2-1.5-3.7c0-1.4,0.5-2.7,1.5-3.7c1-1,2.2-1.5,3.7-1.5C85.3,106.1,86.8,107,87.9,108.7z M101.6,108.7
						c0.9,1.4,1.4,3.2,1.4,5.3c0,2.7-0.7,5.1-2,7.2c-1.4,2.1-3.4,3.9-6.2,5.1l-0.7-1.4c1.7-0.7,3.1-1.8,4.3-3.3
						c1.2-1.5,1.8-3,1.8-4.6c0-0.6-0.1-1.2-0.2-1.7c-0.9,0.7-1.8,1-3,1c-1.4,0-2.7-0.5-3.7-1.4c-1-0.9-1.5-2.2-1.5-3.7
						c0-1.4,0.5-2.7,1.5-3.7c1-1,2.2-1.5,3.7-1.5C98.9,106.1,100.5,107,101.6,108.7z"/>
				</g>
			</g>
			<g id="XMLID_56_">
				<text id="XMLID_90_" transform="matrix(1 0 0 1 145.8017 139.2521)" class="st3 st4 st5">Thank you for including me in mourning Greg’s loss. I know he was a special person.</text>
			</g>
			<g id="XMLID_53_">
				<text id="XMLID_87_" transform="matrix(1 0 0 1 145.8017 173.756)"><tspan x="0" y="0" class="st3 st4 st5">It means a lot that the family invited you to the memorial, even though </tspan><tspan x="0" y="24" class="st3 st4 st5">you didn’t know the deceased very well.</tspan></text>
			</g>
			<g id="XMLID_50_">
				<text id="XMLID_85_" transform="matrix(1 0 0 1 145.8016 235.299)" class="st1 st6 st7">Bailey Pocock</text>
			</g>
			<g id="XMLID_47_">
				<text id="XMLID_82_" transform="matrix(1 0 0 1 145.8017 253.8741)" class="st8 st9 st10">2180 Brooklyn Street, Portland, OR 97205</text>
			</g>
		</g>
		<g id="XMLID_23_">
			<path id="XMLID_45_" class="st2" d="M887.4,529.6H111.7c-20.5,0-37.2-16.7-37.2-37.2V335.9c0-20.5,16.7-37.2,37.2-37.2h775.7
				c20.5,0,37.2,16.7,37.2,37.2v156.5C924.6,513,907.9,529.6,887.4,529.6z"/>
			<g id="XMLID_42_">
				<text id="XMLID_80_" transform="matrix(1 0 0 1 145.8022 341.8687)"><tspan x="0" y="0" class="st3 st4 st5">It’s in moments like these that words fall short. But I hope you know how much love </tspan><tspan x="0" y="24" class="st3 st4 st5">I have in my heart for James, and that you’re in my thoughts. </tspan></text>
			</g>
			<g id="XMLID_39_">
				<text id="XMLID_68_" transform="matrix(1 0 0 1 145.8022 397.5425)"><tspan x="0" y="0" class="st3 st4 st5">When you’re at a loss for words, sometimes expressing that is the most honest </tspan><tspan x="0" y="24" class="st3 st4 st5">message you can give. But it’s still important to include </tspan><tspan x="0" y="48" class="st3 st4 st5">some brief words of support, too. </tspan></text>
			</g>
			<path id="XMLID_38_" class="st11" d="M896.6,471.7c0,15.4-15.2,28-33.9,28h-247v2.2h247c20.2,0,36.7-13.6,36.7-30.2V352.6h-2.8
				V471.7z"/>
			<g id="XMLID_30_">
				<circle id="XMLID_37_" class="st12" cx="90.3" cy="311.7" r="27.7"/>
				<circle id="XMLID_36_" class="st13" cx="90.3" cy="311.7" r="23.4"/>
				<g id="XMLID_31_">
					<path id="XMLID_32_" class="st0" d="M87.8,304.2c0.9,1.4,1.4,3.2,1.4,5.3c0,2.7-0.7,5.1-2,7.2c-1.4,2.1-3.4,3.8-6.2,5.1
						l-0.7-1.4c1.6-0.7,3.1-1.8,4.3-3.3c1.2-1.5,1.8-3,1.8-4.6c0-0.6-0.1-1.2-0.2-1.7c-0.9,0.7-1.8,1-3,1c-1.4,0-2.6-0.5-3.6-1.4
						c-1-0.9-1.5-2.2-1.5-3.7c0-1.4,0.5-2.6,1.5-3.6c1-1,2.2-1.5,3.6-1.5C85.1,301.7,86.7,302.5,87.8,304.2z M101.3,304.2
						c0.9,1.4,1.4,3.2,1.4,5.3c0,2.7-0.7,5.1-2,7.2c-1.4,2.1-3.4,3.8-6.2,5.1l-0.7-1.4c1.6-0.7,3.1-1.8,4.3-3.3
						c1.2-1.5,1.8-3,1.8-4.6c0-0.6-0.1-1.2-0.2-1.7c-0.9,0.7-1.8,1-3,1c-1.4,0-2.6-0.5-3.6-1.4c-1-0.9-1.5-2.2-1.5-3.7
						c0-1.4,0.5-2.6,1.5-3.6c1-1,2.2-1.5,3.6-1.5C98.7,301.7,100.3,302.5,101.3,304.2z"/>
				</g>
			</g>
			<g id="XMLID_27_">
				<text id="XMLID_57_" transform="matrix(1 0 0 1 145.8022 484.6402)" class="st1 st6 st7">Lisa R. Taylor</text>
			</g>
			<g id="XMLID_24_">
				<text id="XMLID_96_" transform="matrix(1 0 0 1 145.8022 502.3287)" class="st8 st9 st10">4567 Union Street, Seattle, WA 98106</text>
			</g>
		</g>
		<g id="XMLID_4_">
			<path id="XMLID_22_" class="st2" d="M886.3,694.6H109.6c-20.6,0-37.3-16.7-37.3-37.3v-63.7c0-20.6,16.7-37.3,37.3-37.3h776.8
				c20.6,0,37.3,16.7,37.3,37.3v63.7C923.6,677.9,906.9,694.6,886.3,694.6z"/>
			<g id="XMLID_19_">
				<text id="XMLID_98_" transform="matrix(1 0 0 1 145.8013 595.6621)"><tspan x="0" y="0" class="st3 st4 st5">I know he will be dearly missed, and I’m sorry I didn’t have the chance to </tspan><tspan x="0" y="24" class="st3 st4 st5">know him better. </tspan></text>
			</g>
			<g id="XMLID_16_">
				<text id="XMLID_102_" transform="matrix(1 0 0 1 145.8013 654.5918)" class="st1 st6 st7">Lisa R. Taylor</text>
			</g>
			<g id="XMLID_13_">
				<text id="XMLID_103_" transform="matrix(1 0 0 1 145.8013 675.8838)" class="st8 st9 st10">4567 Union Street, Seattle, WA 98106</text>
			</g>
			<path id="XMLID_12_" class="st11" d="M896.6,642c0,15.6-15.3,28.2-34.1,28.2H613.6v2.2h248.9c20.4,0,36.9-13.7,36.9-30.4v-59.8
				h-2.8V642z"/>
			<g id="XMLID_5_">
				<circle id="XMLID_11_" class="st12" cx="90.5" cy="567.6" r="27.9"/>
				<circle id="XMLID_10_" class="st13" cx="90.5" cy="567.6" r="23.6"/>
				<g id="XMLID_6_">
					<path id="XMLID_7_" class="st0" d="M88,560c0.9,1.4,1.4,3.2,1.4,5.3c0,2.7-0.7,5.1-2.1,7.2c-1.4,2.1-3.4,3.9-6.2,5.2l-0.7-1.4
						c1.7-0.7,3.1-1.8,4.3-3.3c1.2-1.5,1.8-3,1.8-4.6c0-0.6-0.1-1.2-0.2-1.7c-0.9,0.7-1.9,1-3,1c-1.4,0-2.7-0.5-3.7-1.4
						c-1-0.9-1.5-2.2-1.5-3.7c0-1.4,0.5-2.7,1.5-3.7c1-1,2.2-1.5,3.7-1.5C85.3,557.4,86.9,558.3,88,560z M101.6,560
						c0.9,1.4,1.4,3.2,1.4,5.3c0,2.7-0.7,5.1-2.1,7.2c-1.4,2.1-3.4,3.9-6.2,5.2l-0.7-1.4c1.7-0.7,3.1-1.8,4.3-3.3
						c1.2-1.5,1.8-3,1.8-4.6c0-0.6-0.1-1.2-0.2-1.7c-0.9,0.7-1.9,1-3,1c-1.4,0-2.7-0.5-3.7-1.4c-1-0.9-1.5-2.2-1.5-3.7
						c0-1.4,0.5-2.7,1.5-3.7c1-1,2.2-1.5,3.7-1.5C99,557.4,100.6,558.3,101.6,560z"/>
				</g>
			</g>
		</g>
	</g>
</g>
</svg>
