<?xml version="1.0" encoding="utf-8"?>
<!-- Generator: Adobe Illustrator 19.0.0, SVG Export Plug-In . SVG Version: 6.00 Build 0)  -->
<svg version="1.1" id="Layer_1" xmlns="http://www.w3.org/2000/svg" xmlns:xlink="http://www.w3.org/1999/xlink" x="0px" y="0px"
	 viewBox="0 0 1000 1000" style="enable-background:new 0 0 1000 1000;" xml:space="preserve">
<style type="text/css">
	.st0{fill:#FFFFFF;}
	.st1{fill:#6B9953;}
	.st2{font-family:'Gilroy-Black';}
	.st3{font-size:34.9094px;}
	.st4{fill:#EBEBE9;}
	.st5{fill:#282C2F;}
	.st6{font-family:'Gilroy-SemiBold';}
	.st7{font-size:20px;}
	.st8{font-size:22px;}
	.st9{fill:#94C384;}
	.st10{font-family:'Gilroy-Regular';}
	.st11{font-size:15px;}
	.st12{fill:#A7D59C;stroke:#A7D59C;stroke-width:4;stroke-miterlimit:10;}
	.st13{fill:#A7D59C;}
	.st14{fill:none;stroke:#FFFFFF;stroke-width:2;stroke-miterlimit:10;}
	.st15{font-family:'PlayfairDisplay-Regular';}
	.st16{font-size:16px;}
</style>
<g>
	<rect id="XMLID_73_" x="-0.5" class="st0" width="1001" height="1000"/>
	<g>
		<rect id="XMLID_72_" x="-0.5" class="st1" width="295.3" height="59.5"/>
		<text id="XMLID_71_" transform="matrix(1 0 0 1 14.1825 39.7519)" class="st0 st2 st3">O B I T U A R I E S</text>
	</g>
	<g>
		<g>
			<path id="XMLID_70_" class="st4" d="M891.4,295.5H111.8c-20.7,0-37.4-16.7-37.4-37.4V165c0-20.7,16.7-37.4,37.4-37.4h779.6
				c20.7,0,37.4,16.7,37.4,37.4v93.1C928.8,278.7,912.1,295.5,891.4,295.5z"/>
			<g id="XMLID_69_">
				<text id="XMLID_42_" transform="matrix(1 0 0 1 150.353 155.4361)"><tspan x="0" y="0" class="st5 st6 st7">I’m honored to attend your beautiful memorial for Joseph. I can tell that </tspan><tspan x="0" y="24" class="st5 st6 st7">he was truly loved.</tspan></text>
			</g>
			<g id="XMLID_68_">
				<text id="XMLID_40_" transform="matrix(1 0 0 1 150.353 207.7066)"><tspan x="0" y="0" class="st5 st6 st7">You may be able to tell, just from the guests at the funeral, how loved and </tspan><tspan x="0" y="24" class="st5 st6 st7">appreciated the departed really was.</tspan></text>
			</g>
			<g id="XMLID_67_">
				<text id="XMLID_38_" transform="matrix(1 0 0 1 150.4629 263.7984)" class="st1 st2 st8">Ava J. James</text>
			</g>
			<g id="XMLID_66_">
				<text id="XMLID_36_" transform="matrix(1 0 0 1 150.353 281.5982)" class="st9 st10 st11">4587 Spirit Drive, Hastings, FL 32145</text>
			</g>
			<path id="XMLID_65_" class="st12" d="M896.4,240.5c0,15.5-15.3,28.2-34.1,28.2H613.9v2.2h248.5c20.3,0,36.9-13.6,36.9-30.4v-69.7
				h-2.8V240.5z"/>
			<g>
				<circle id="XMLID_64_" class="st13" cx="90.3" cy="135.7" r="27.9"/>
				<circle id="XMLID_63_" class="st14" cx="90.3" cy="135.7" r="23.5"/>
				<g>
					<path class="st0" d="M87.8,128.1c0.9,1.4,1.4,3.2,1.4,5.3c0,2.7-0.7,5.1-2,7.2c-1.4,2.1-3.4,3.9-6.2,5.1l-0.7-1.4
						c1.7-0.7,3.1-1.8,4.3-3.3c1.2-1.5,1.8-3,1.8-4.6c0-0.6-0.1-1.2-0.2-1.7c-0.9,0.7-1.8,1-3,1c-1.4,0-2.7-0.5-3.7-1.4
						c-1-0.9-1.5-2.2-1.5-3.7c0-1.4,0.5-2.7,1.5-3.7c1-1,2.2-1.5,3.7-1.5C85.1,125.5,86.7,126.4,87.8,128.1z M101.4,128.1
						c0.9,1.4,1.4,3.2,1.4,5.3c0,2.7-0.7,5.1-2,7.2c-1.4,2.1-3.4,3.9-6.2,5.1l-0.7-1.4c1.7-0.7,3.1-1.8,4.3-3.3
						c1.2-1.5,1.8-3,1.8-4.6c0-0.6-0.1-1.2-0.2-1.7c-0.9,0.7-1.8,1-3,1c-1.4,0-2.7-0.5-3.7-1.4c-1-0.9-1.5-2.2-1.5-3.7
						c0-1.4,0.5-2.7,1.5-3.7c1-1,2.2-1.5,3.7-1.5C98.8,125.5,100.3,126.4,101.4,128.1z"/>
				</g>
			</g>
		</g>
		<g>
			<path id="XMLID_60_" class="st4" d="M891.3,725.6H109.7c-20.7,0-37.5-16.8-37.5-37.5v-66.2c0-20.7,16.8-37.5,37.5-37.5h781.7
				c20.7,0,37.5,16.8,37.5,37.5v66.2C928.8,708.8,912,725.6,891.3,725.6z"/>
			<g id="XMLID_59_">
				<text id="XMLID_34_" transform="matrix(1 0 0 1 150.3531 622.8217)"><tspan x="0" y="0" class="st5 st6 st7">If you truly love the family of the deceased, let them know how much </tspan><tspan x="0" y="24" class="st5 st6 st7">they mean to you in your condolence book message.</tspan></text>
			</g>
			<g id="XMLID_58_">
				<text id="XMLID_74_" transform="matrix(1 0 0 1 150.3531 684.9213)" class="st1 st2 st8">Joe S. Bennett</text>
			</g>
			<g id="XMLID_57_">
				<text id="XMLID_76_" transform="matrix(1 0 0 1 150.3531 703.0834)" class="st9 st10 st11"> 3767 Cardinal Lane, Mattoon, IL 61938</text>
			</g>
			<path id="XMLID_56_" class="st12" d="M896.4,670.5c0,15.6-15.3,28.2-34.1,28.2H613.4v2.2h248.9c20.4,0,36.9-13.7,36.9-30.4v-59.8
				h-2.8V670.5z"/>
			<g>
				<circle id="XMLID_55_" class="st13" cx="90.4" cy="593.6" r="27.9"/>
				<circle id="XMLID_54_" class="st14" cx="90.4" cy="593.6" r="23.6"/>
				<g>
					<path class="st0" d="M87.8,586.1c0.9,1.4,1.4,3.2,1.4,5.3c0,2.7-0.7,5.1-2.1,7.2c-1.4,2.1-3.4,3.9-6.2,5.2l-0.7-1.4
						c1.7-0.7,3.1-1.8,4.3-3.3c1.2-1.5,1.8-3,1.8-4.6c0-0.6-0.1-1.2-0.2-1.7c-0.9,0.7-1.9,1-3,1c-1.4,0-2.7-0.5-3.7-1.4
						c-1-0.9-1.5-2.2-1.5-3.7c0-1.4,0.5-2.7,1.5-3.7c1-1,2.2-1.5,3.7-1.5C85.1,583.5,86.7,584.3,87.8,586.1z M101.5,586.1
						c0.9,1.4,1.4,3.2,1.4,5.3c0,2.7-0.7,5.1-2.1,7.2c-1.4,2.1-3.4,3.9-6.2,5.2l-0.7-1.4c1.7-0.7,3.1-1.8,4.3-3.3
						c1.2-1.5,1.8-3,1.8-4.6c0-0.6-0.1-1.2-0.2-1.7c-0.9,0.7-1.9,1-3,1c-1.4,0-2.7-0.5-3.7-1.4c-1-0.9-1.5-2.2-1.5-3.7
						c0-1.4,0.5-2.7,1.5-3.7c1-1,2.2-1.5,3.7-1.5C98.8,583.5,100.4,584.3,101.5,586.1z"/>
				</g>
			</g>
		</g>
		<g>
			<text id="XMLID_51_" transform="matrix(1 0 0 1 118.2286 388.8048)" class="st15 st16">  </text>
			<g>
				<path id="XMLID_50_" class="st4" d="M73,372.3l0,150.3c0,18.2,14.8,33,33,33h789.7c18.2,0,33-14.8,33-33v-168
					c0-18.2-14.8-33-33-33H130.2C93.8,321.6,73,324.4,73,372.3z"/>
				<circle id="XMLID_49_" class="st13" cx="90.1" cy="333.2" r="27.7"/>
				<circle id="XMLID_48_" class="st14" cx="90.1" cy="333.2" r="23.4"/>
				<g>
					<path class="st0" d="M87.6,325.7c0.9,1.4,1.4,3.2,1.4,5.3c0,2.7-0.7,5.1-2,7.2c-1.4,2.1-3.4,3.8-6.2,5.1l-0.7-1.4
						c1.6-0.7,3.1-1.8,4.3-3.3c1.2-1.5,1.8-3,1.8-4.5c0-0.6-0.1-1.2-0.2-1.7c-0.9,0.7-1.8,1-3,1c-1.4,0-2.6-0.5-3.6-1.4
						c-1-0.9-1.5-2.2-1.5-3.7c0-1.4,0.5-2.6,1.5-3.6c1-1,2.2-1.5,3.6-1.5C84.9,323.1,86.5,324,87.6,325.7z M101.1,325.7
						c0.9,1.4,1.4,3.2,1.4,5.3c0,2.7-0.7,5.1-2,7.2c-1.4,2.1-3.4,3.8-6.2,5.1l-0.7-1.4c1.6-0.7,3.1-1.8,4.3-3.3
						c1.2-1.5,1.8-3,1.8-4.5c0-0.6-0.1-1.2-0.2-1.7c-0.9,0.7-1.8,1-3,1c-1.4,0-2.6-0.5-3.6-1.4c-1-0.9-1.5-2.2-1.5-3.7
						c0-1.4,0.5-2.6,1.5-3.6c1-1,2.2-1.5,3.6-1.5C98.5,323.1,100.1,324,101.1,325.7z"/>
				</g>
			</g>
			<g id="XMLID_45_">
				<text id="XMLID_78_" transform="matrix(1 0 0 1 150.3529 362.4819)"><tspan x="0" y="0" class="st5 st6 st7">I’m so saddened to know the hardship your family is going through, </tspan><tspan x="0" y="24" class="st5 st6 st7">and I want to offer my condolences and support.</tspan></text>
			</g>
			<g id="XMLID_44_">
				<text id="XMLID_80_" transform="matrix(1 0 0 1 150.3529 422.105)"><tspan x="0" y="0" class="st5 st6 st7">You might not have known the deceased very well, but you might still </tspan><tspan x="0" y="24" class="st5 st6 st7">be close to the family. If so, it’s a good idea to sincerely express </tspan><tspan x="0" y="48" class="st5 st6 st7">your sympathy and support to them. </tspan></text>
			</g>
			<g id="XMLID_43_">
				<text id="XMLID_82_" transform="matrix(1 0 0 1 150.3528 514.2467)" class="st1 st2 st8">Bailey Pocock</text>
			</g>
			<g id="XMLID_41_">
				<text id="XMLID_84_" transform="matrix(1 0 0 1 150.3528 531.6198)" class="st9 st10 st11">2180 Brooklyn Street, Portland, OR 97205</text>
			</g>
			<path id="XMLID_39_" class="st12" d="M896.4,499.6c0,15.5-15.3,28.2-34.1,28.2H613.9v2.2h248.5c20.3,0,36.9-13.6,36.9-30.4V359.9
				h-2.8V499.6z"/>
		</g>
		<g>
			<path id="XMLID_10_" class="st4" d="M891.3,947.9H109.7c-20.7,0-37.5-28.9-37.5-49.6V793.9c0-20.7,16.8-37.5,37.5-37.5h781.6
				c20.7,0,37.5,16.8,37.5,37.5v116.5C928.8,931.2,912,947.9,891.3,947.9z"/>
			<g id="XMLID_9_">
				<text id="XMLID_85_" transform="matrix(1 0 0 1 150.3529 795.2513)" class="st5 st6 st7">My heart aches for your loss, and I want to know how much you all mean to me.</text>
			</g>
			<g id="XMLID_8_">
				<text id="XMLID_86_" transform="matrix(1 0 0 1 150.3529 827.4672)"><tspan x="0" y="0" class="st5 st6 st7">If you didn’t know the deceased very well, but they were a member of </tspan><tspan x="0" y="24" class="st5 st6 st7">your extended family, you can focus on expressing condolences </tspan><tspan x="0" y="48" class="st5 st6 st7">for the immediate family.</tspan></text>
			</g>
			<g id="XMLID_7_">
				<text id="XMLID_87_" transform="matrix(1 0 0 1 150.3529 910.8255)" class="st1 st2 st8">Richard T. Evans</text>
			</g>
			<g id="XMLID_6_">
				<text id="XMLID_88_" transform="matrix(1 0 0 1 150.3529 928.763)" class="st9 st10 st11">1386 Goosetown Drive, Charlotte, NC 28209</text>
			</g>
			<g>
				<circle id="XMLID_5_" class="st13" cx="90.5" cy="763.7" r="28.1"/>
				<circle id="XMLID_4_" class="st14" cx="90.5" cy="763.7" r="23.7"/>
				<g>
					<path class="st0" d="M87.9,756.1c0.9,1.5,1.4,3.2,1.4,5.3c0,2.7-0.7,5.1-2.1,7.3c-1.4,2.2-3.5,3.9-6.3,5.2l-0.7-1.5
						c1.7-0.7,3.1-1.8,4.3-3.3c1.2-1.5,1.8-3,1.8-4.6c0-0.6-0.1-1.2-0.2-1.7c-0.9,0.7-1.9,1.1-3,1.1c-1.5,0-2.7-0.5-3.7-1.4
						c-1-0.9-1.5-2.2-1.5-3.8c0-1.5,0.5-2.7,1.5-3.7c1-1,2.2-1.5,3.7-1.5C85.3,753.5,86.9,754.4,87.9,756.1z M101.7,756.1
						c0.9,1.5,1.4,3.2,1.4,5.3c0,2.7-0.7,5.1-2.1,7.3c-1.4,2.2-3.5,3.9-6.3,5.2l-0.7-1.5c1.7-0.7,3.1-1.8,4.3-3.3
						c1.2-1.5,1.8-3,1.8-4.6c0-0.6-0.1-1.2-0.2-1.7c-0.9,0.7-1.9,1.1-3,1.1c-1.5,0-2.7-0.5-3.7-1.4c-1-0.9-1.5-2.2-1.5-3.8
						c0-1.5,0.5-2.7,1.5-3.7c1-1,2.2-1.5,3.7-1.5C99,753.5,100.6,754.4,101.7,756.1z"/>
				</g>
			</g>
			<path id="XMLID_1_" class="st12" d="M896.4,890.9c0,15.7-15.4,28.4-34.4,28.4H611.6v2.2h250.4c20.5,0,37.2-13.7,37.2-30.6v-90.4
				h-2.8V890.9z"/>
		</g>
	</g>
</g>
</svg>
