<?xml version="1.0" encoding="utf-8"?>
<!-- Generator: Adobe Illustrator 19.0.0, SVG Export Plug-In . SVG Version: 6.00 Build 0)  -->
<svg version="1.1" id="Layer_1" xmlns="http://www.w3.org/2000/svg" xmlns:xlink="http://www.w3.org/1999/xlink" x="0px" y="0px"
	 viewBox="0 0 1000 1000" style="enable-background:new 0 0 1000 1000;" xml:space="preserve">
<style type="text/css">
	.st0{fill:#FFFFFF;}
	.st1{fill:#6B9953;}
	.st2{font-family:'PlayfairDisplay-Regular';}
	.st3{font-size:16px;}
	.st4{fill:#EBEBE9;}
	.st5{fill:#A7D59C;}
	.st6{fill:none;stroke:#FFFFFF;stroke-width:2;stroke-miterlimit:10;}
	.st7{fill:#282C2E;}
	.st8{font-family:'Gilroy-SemiBold';}
	.st9{font-size:20px;}
	.st10{font-family:'Gilroy-Black';}
	.st11{font-size:22px;}
	.st12{fill:#94C384;}
	.st13{font-family:'Gilroy-Regular';}
	.st14{font-size:15px;}
	.st15{fill:#A7D59C;stroke:#A7D59C;stroke-width:4;stroke-miterlimit:10;}
</style>
<rect id="XMLID_74_" x="-0.5" class="st0" width="1001" height="1000"/>
<g id="XMLID_11_">
	<rect id="XMLID_73_" x="917" class="st1" width="83.5" height="59.5"/>
	<g>
		<g>
			<g>
				<text id="XMLID_72_" transform="matrix(1 0 0 1 121.2128 604.1497)" class="st2 st3">  </text>
				<g>
					<path id="XMLID_71_" class="st4" d="M76.1,587.3v106.4c0,18.4,14.9,33.3,33.3,33.3h795.5c18.4,0,33.3-14.9,33.3-33.3V569.4
						c0-18.4-14.9-33.3-33.3-33.3H133.7C99.8,536.2,76.1,542.1,76.1,587.3z"/>
					<circle id="XMLID_70_" class="st5" cx="93.3" cy="547.8" r="27.9"/>
					<circle id="XMLID_69_" class="st6" cx="93.3" cy="547.8" r="23.5"/>
					<g>
						<path class="st0" d="M90.7,540.3c0.9,1.4,1.4,3.2,1.4,5.3c0,2.7-0.7,5.1-2,7.2c-1.4,2.1-3.4,3.9-6.2,5.1l-0.7-1.4
							c1.7-0.7,3.1-1.8,4.3-3.3c1.2-1.5,1.8-3,1.8-4.6c0-0.6-0.1-1.2-0.2-1.7c-0.9,0.7-1.8,1-3,1c-1.4,0-2.7-0.5-3.7-1.4
							c-1-0.9-1.5-2.2-1.5-3.7c0-1.4,0.5-2.7,1.5-3.7c1-1,2.2-1.5,3.7-1.5C88.1,537.7,89.7,538.5,90.7,540.3z M104.4,540.3
							c0.9,1.4,1.4,3.2,1.4,5.3c0,2.7-0.7,5.1-2,7.2c-1.4,2.1-3.4,3.9-6.2,5.1l-0.7-1.4c1.7-0.7,3.1-1.8,4.3-3.3
							c1.2-1.5,1.8-3,1.8-4.6c0-0.6-0.1-1.2-0.2-1.7c-0.9,0.7-1.8,1-3,1c-1.4,0-2.7-0.5-3.7-1.4c-1-0.9-1.5-2.2-1.5-3.7
							c0-1.4,0.5-2.7,1.5-3.7c1-1,2.2-1.5,3.7-1.5C101.7,537.7,103.3,538.5,104.4,540.3z"/>
					</g>
				</g>
			</g>
			<g id="XMLID_66_">
				<text id="XMLID_42_" transform="matrix(1 0 0 1 149.6562 579.7917)" class="st7 st8 st9">Ella, wherever you are now, I hope you can still feel how much I love and miss you.</text>
			</g>
			<g id="XMLID_65_">
				<text id="XMLID_40_" transform="matrix(1 0 0 1 149.6562 615.2742)"><tspan x="0" y="0" class="st7 st8 st9">You can address your condolence book message directly to the deceased </tspan><tspan x="0" y="24" class="st7 st8 st9">as a way to communicate your love for them. </tspan></text>
			</g>
			<g id="XMLID_64_">
				<text id="XMLID_38_" transform="matrix(1 0 0 1 149.6561 677.2341)" class="st1 st10 st11">David S. Haynes</text>
			</g>
			<g id="XMLID_63_">
				<text id="XMLID_36_" transform="matrix(1 0 0 1 149.6561 695.2087)" class="st12 st13 st14">4266 Hood Avenue, San Diego, CA 92121</text>
			</g>
			<path id="XMLID_62_" class="st15" d="M913.2,670.8c0,15.5-15.3,28.2-34.1,28.2H630.6v2.2h248.5c20.3,0,36.9-13.6,36.9-30.4v-89.7
				h-2.8V670.8z"/>
		</g>
		<g>
			<g>
				<path id="XMLID_61_" class="st4" d="M76.1,346.2v130.4c0,18.4,14.9,33.3,33.3,33.3h795.5c18.4,0,33.3-14.9,33.3-33.3V328.4
					c0-18.4-14.9-33.3-33.3-33.3l-771.2,0C87.8,294.9,76.1,288.5,76.1,346.2z"/>
				<circle id="XMLID_60_" class="st5" cx="93.3" cy="306.8" r="27.9"/>
				<circle id="XMLID_59_" class="st6" cx="93.3" cy="306.8" r="23.5"/>
				<g>
					<path class="st0" d="M90.7,299.2c0.9,1.4,1.4,3.2,1.4,5.3c0,2.7-0.7,5.1-2,7.2c-1.4,2.1-3.4,3.9-6.2,5.1l-0.7-1.4
						c1.7-0.7,3.1-1.8,4.3-3.3c1.2-1.5,1.8-3,1.8-4.6c0-0.6-0.1-1.2-0.2-1.7c-0.9,0.7-1.8,1-3,1c-1.4,0-2.7-0.5-3.7-1.4
						c-1-0.9-1.5-2.2-1.5-3.7c0-1.4,0.5-2.7,1.5-3.7c1-1,2.2-1.5,3.7-1.5C88.1,296.6,89.7,297.5,90.7,299.2z M104.4,299.2
						c0.9,1.4,1.4,3.2,1.4,5.3c0,2.7-0.7,5.1-2,7.2c-1.4,2.1-3.4,3.9-6.2,5.1l-0.7-1.4c1.7-0.7,3.1-1.8,4.3-3.3
						c1.2-1.5,1.8-3,1.8-4.6c0-0.6-0.1-1.2-0.2-1.7c-0.9,0.7-1.8,1-3,1c-1.4,0-2.7-0.5-3.7-1.4c-1-0.9-1.5-2.2-1.5-3.7
						c0-1.4,0.5-2.7,1.5-3.7c1-1,2.2-1.5,3.7-1.5C101.7,296.6,103.3,297.5,104.4,299.2z"/>
				</g>
			</g>
			<g id="XMLID_56_">
				<text id="XMLID_34_" transform="matrix(1 0 0 1 149.6564 332.8963)"><tspan x="0" y="0" class="st7 st8 st9">Becca and I met a college, and she made a lasting impression on me, as </tspan><tspan x="0" y="24" class="st7 st8 st9">I’m sure she did on many people. </tspan></text>
			</g>
			<g id="XMLID_55_">
				<text id="XMLID_75_" transform="matrix(1 0 0 1 149.6564 395.1375)"><tspan x="0" y="0" class="st7 st8 st9">If you don’t know the family well, you might want to begin your condolence </tspan><tspan x="0" y="24" class="st7 st8 st9">book message by brieﬂy explaining how you know the deceased.</tspan></text>
			</g>
			<g id="XMLID_54_">
				<text id="XMLID_77_" transform="matrix(1 0 0 1 149.7657 459.0203)" class="st1 st10 st11">Alice Lowerson</text>
			</g>
			<g id="XMLID_53_">
				<text id="XMLID_79_" transform="matrix(1 0 0 1 149.6563 477.0759)" class="st12 st13 st14">1379 Sumner Street, Santa Monica, CA 90405</text>
			</g>
			<path id="XMLID_52_" class="st15" d="M912.4,454.8c0,15.5-15.3,28.2-34.1,28.2H629.8v2.2h248.5c20.3,0,36.9-13.6,36.9-30.4v-89.7
				h-2.8V454.8z"/>
		</g>
		<g>
			<path id="XMLID_51_" class="st4" d="M900.5,268.9H115.2c-20.8,0-37.7-16.9-37.7-37.7v-78.6c0-20.8,16.9-37.7,37.7-37.7h785.3
				c20.8,0,37.7,16.9,37.7,37.7v78.6C938.2,252,921.3,268.9,900.5,268.9z"/>
			<g id="XMLID_50_">
				<text id="XMLID_81_" transform="matrix(1 0 0 1 149.6564 150.9221)" class="st7 st8 st9">It was a joy working with Merideth, and everyone will miss her dearly. </text>
			</g>
			<g id="XMLID_49_">
				<text id="XMLID_83_" transform="matrix(1 0 0 1 149.6564 178.8684)"><tspan x="0" y="0" class="st7 st8 st9">You might phrase your condolence book message this way if the person </tspan><tspan x="0" y="24" class="st7 st8 st9">was your co-worker.</tspan></text>
			</g>
			<g id="XMLID_48_">
				<text id="XMLID_85_" transform="matrix(1 0 0 1 149.6564 233.3322)"><tspan x="0" y="0" class="st1 st10 st11">O</tspan><tspan x="17.2" y="0" class="st1 st10 st11">l</tspan><tspan x="22.9" y="0" class="st1 st10 st11">i</tspan><tspan x="28.6" y="0" class="st1 st10 st11">via </tspan><tspan x="65.1" y="0" class="st1 st10 st11">H</tspan><tspan x="79.6" y="0" class="st1 st10 st11">a</tspan><tspan x="93.1" y="0" class="st1 st10 st11">r</tspan><tspan x="101.2" y="0" class="st1 st10 st11">dy</tspan></text>
			</g>
			<g id="XMLID_47_">
				<text id="XMLID_86_" transform="matrix(1 0 0 1 149.6564 251.3547)" class="st12 st13 st14">1620 Wexford Way, Lexington, SC 29072 </text>
			</g>
			<path id="XMLID_46_" class="st15" d="M913.9,217.7c0,15.7-15.5,28.5-34.5,28.5H627.8v2.3h251.6c20.6,0,37.4-13.8,37.4-30.8V140
				h-2.8V217.7z"/>
			<g>
				<circle id="XMLID_45_" class="st5" cx="93.7" cy="126.3" r="28.3"/>
				<circle id="XMLID_44_" class="st6" cx="93.7" cy="126.3" r="23.8"/>
				<g>
					<path class="st0" d="M91.1,118.6c0.9,1.5,1.4,3.3,1.4,5.4c0,2.7-0.7,5.2-2.1,7.3c-1.4,2.2-3.5,3.9-6.3,5.2l-0.7-1.5
						c1.7-0.7,3.1-1.8,4.4-3.3c1.2-1.5,1.8-3.1,1.8-4.6c0-0.7-0.1-1.2-0.2-1.7c-0.9,0.7-1.9,1.1-3,1.1c-1.5,0-2.7-0.5-3.7-1.4
						c-1-0.9-1.5-2.2-1.5-3.8c0-1.5,0.5-2.7,1.5-3.7c1-1,2.2-1.5,3.7-1.5C88.4,116,90,116.9,91.1,118.6z M104.9,118.6
						c0.9,1.5,1.4,3.3,1.4,5.4c0,2.7-0.7,5.2-2.1,7.3c-1.4,2.2-3.5,3.9-6.3,5.2l-0.7-1.5c1.7-0.7,3.1-1.8,4.4-3.3
						c1.2-1.5,1.8-3.1,1.8-4.6c0-0.7-0.1-1.2-0.2-1.7c-0.9,0.7-1.9,1.1-3,1.1c-1.5,0-2.7-0.5-3.7-1.4c-1-0.9-1.5-2.2-1.5-3.8
						c0-1.5,0.5-2.7,1.5-3.7c1-1,2.2-1.5,3.7-1.5C102.2,116,103.8,116.9,104.9,118.6z"/>
				</g>
			</g>
		</g>
		<g>
			<text id="XMLID_39_" transform="matrix(1 0 0 1 118.6437 842.1942)" class="st2 st3"> </text>
			<g>
				<text id="XMLID_10_" transform="matrix(1 0 0 1 121.2128 821.1932)" class="st2 st3">  </text>
				<g>
					<path id="XMLID_9_" class="st4" d="M76.1,804.3v64.4c0,18.4,14.9,33.3,33.3,33.3h795.5c18.4,0,33.3-14.9,33.3-33.3v-82.3
						c0-18.4-14.9-33.3-33.3-33.3H133.7C96.5,753.2,76.1,758.1,76.1,804.3z"/>
					<circle id="XMLID_8_" class="st5" cx="93.3" cy="764.8" r="27.9"/>
					<circle id="XMLID_7_" class="st6" cx="93.3" cy="764.8" r="23.5"/>
					<g>
						<path class="st0" d="M90.7,757.3c0.9,1.4,1.4,3.2,1.4,5.3c0,2.7-0.7,5.1-2,7.2c-1.4,2.1-3.4,3.9-6.2,5.1l-0.7-1.4
							c1.7-0.7,3.1-1.8,4.3-3.3c1.2-1.5,1.8-3,1.8-4.6c0-0.6-0.1-1.2-0.2-1.7c-0.9,0.7-1.8,1-3,1c-1.4,0-2.7-0.5-3.7-1.4
							c-1-0.9-1.5-2.2-1.5-3.7c0-1.4,0.5-2.7,1.5-3.7c1-1,2.2-1.5,3.7-1.5C88.1,754.7,89.7,755.6,90.7,757.3z M104.4,757.3
							c0.9,1.4,1.4,3.2,1.4,5.3c0,2.7-0.7,5.1-2,7.2c-1.4,2.1-3.4,3.9-6.2,5.1l-0.7-1.4c1.7-0.7,3.1-1.8,4.3-3.3
							c1.2-1.5,1.8-3,1.8-4.6c0-0.6-0.1-1.2-0.2-1.7c-0.9,0.7-1.8,1-3,1c-1.4,0-2.7-0.5-3.7-1.4c-1-0.9-1.5-2.2-1.5-3.7
							c0-1.4,0.5-2.7,1.5-3.7c1-1,2.2-1.5,3.7-1.5C101.7,754.7,103.3,755.6,104.4,757.3z"/>
					</g>
				</g>
			</g>
			<g id="XMLID_4_">
				<text id="XMLID_87_" transform="matrix(1 0 0 1 149.6564 792.662)"><tspan x="0" y="0" class="st7 st8 st9">Your family has been in my thoughts every day, and I want you to know </tspan><tspan x="0" y="24" class="st7 st8 st9">you have my sincere condolences.</tspan></text>
			</g>
			<g id="XMLID_3_">
				<text id="XMLID_88_" transform="matrix(1 0 0 1 149.6564 860.036)" class="st1 st10 st11">Jasmine Schutt</text>
			</g>
			<g id="XMLID_2_">
				<text id="XMLID_89_" transform="matrix(1 0 0 1 149.6564 878.7411)" class="st12 st13 st14">4653 Hazelwood Avenue, West Des Moines, IA 50266</text>
			</g>
			<path id="XMLID_1_" class="st15" d="M912.4,843.5c0,15.5-15.3,28.2-34.1,28.2H629.8v2.2h248.5c20.3,0,36.9-13.6,36.9-30.4v-59.7
				h-2.8V843.5z"/>
		</g>
	</g>
</g>
</svg>
