<?xml version="1.0" encoding="utf-8"?>
<!-- Generator: Adobe Illustrator 19.0.0, SVG Export Plug-In . SVG Version: 6.00 Build 0)  -->
<svg version="1.1" id="Layer_1" xmlns="http://www.w3.org/2000/svg" xmlns:xlink="http://www.w3.org/1999/xlink" x="0px" y="0px"
	 viewBox="0 0 1000 1000" style="enable-background:new 0 0 1000 1000;" xml:space="preserve">
<style type="text/css">
	.st0{fill:#FFFFFF;}
	.st1{fill:#6B9953;}
	.st2{fill:#EBEBE9;}
	.st3{fill:#A7D59C;stroke:#A7D59C;stroke-width:4;stroke-miterlimit:10;}
	.st4{fill:#A7D59C;}
	.st5{fill:none;stroke:#FFFFFF;stroke-width:2;stroke-miterlimit:10;}
	.st6{fill:#282C2E;}
	.st7{font-family:'Gilroy-SemiBold';}
	.st8{font-size:20px;}
	.st9{font-family:'Gilroy-Black';}
	.st10{font-size:22px;}
	.st11{fill:#94C384;}
	.st12{font-family:'Gilroy-Regular';}
	.st13{font-size:15px;}
</style>
<rect id="XMLID_122_" x="-0.5" class="st0" width="1001" height="1000"/>
<g id="XMLID_1_">
	<rect id="XMLID_119_" x="917" class="st1" width="83.5" height="59.5"/>
	<g id="XMLID_3_">
		<g id="XMLID_97_">
			<path id="XMLID_118_" class="st2" d="M883.3,709H102.8c-20.7,0-37.4-16.8-37.4-37.4V545.1c0-20.7,16.8-37.4,37.4-37.4h780.4
				c20.7,0,37.4,16.8,37.4,37.4v126.4C920.7,692.2,903.9,709,883.3,709z"/>
			<path id="XMLID_117_" class="st3" d="M890.5,649c0,15.6-15.4,28.3-34.3,28.3h-250v2.2h250c20.5,0,37.1-13.7,37.1-30.6v-90.2h-2.8
				V649z"/>
			<g id="XMLID_110_">
				<circle id="XMLID_116_" class="st4" cx="81.4" cy="520.2" r="28.1"/>
				<circle id="XMLID_115_" class="st5" cx="81.4" cy="520.2" r="23.7"/>
				<g id="XMLID_111_">
					<path id="XMLID_112_" class="st0" d="M78.8,512.6c0.9,1.5,1.4,3.2,1.4,5.3c0,2.7-0.7,5.1-2.1,7.3c-1.4,2.2-3.5,3.9-6.3,5.2
						l-0.7-1.5c1.7-0.7,3.1-1.8,4.3-3.3c1.2-1.5,1.8-3,1.8-4.6c0-0.6-0.1-1.2-0.2-1.7c-0.9,0.7-1.9,1.1-3,1.1
						c-1.5,0-2.7-0.5-3.7-1.4c-1-0.9-1.5-2.2-1.5-3.8c0-1.5,0.5-2.7,1.5-3.7c1-1,2.2-1.5,3.7-1.5C76.1,510,77.7,510.9,78.8,512.6z
						 M92.6,512.6c0.9,1.5,1.4,3.2,1.4,5.3c0,2.7-0.7,5.1-2.1,7.3c-1.4,2.2-3.5,3.9-6.3,5.2l-0.7-1.5c1.7-0.7,3.1-1.8,4.3-3.3
						c1.2-1.5,1.8-3,1.8-4.6c0-0.6-0.1-1.2-0.2-1.7c-0.9,0.7-1.9,1.1-3,1.1c-1.5,0-2.7-0.5-3.7-1.4c-1-0.9-1.5-2.2-1.5-3.8
						c0-1.5,0.5-2.7,1.5-3.7c1-1,2.2-1.5,3.7-1.5C89.9,510,91.5,510.9,92.6,512.6z"/>
				</g>
			</g>
			<g id="XMLID_107_">
				<text id="XMLID_80_" transform="matrix(1 0 0 1 137.002 545.0792)"><tspan x="0" y="0" class="st6 st7 st8">Becca and I met a college, and she made a lasting impression on me, </tspan><tspan x="0" y="24" class="st6 st7 st8">as I’m sure she did on many people.</tspan></text>
			</g>
			<g id="XMLID_104_">
				<text id="XMLID_78_" transform="matrix(1 0 0 1 137.002 602.4727)"><tspan x="0" y="0" class="st6 st7 st8">If you don’t know the family well, you might want to begin your condolence book </tspan><tspan x="0" y="24" class="st6 st7 st8">message by briefly explaining how you know the deceased.</tspan></text>
			</g>
			<g id="XMLID_101_">
				<text id="XMLID_76_" transform="matrix(1 0 0 1 137.1114 662.6456)" class="st1 st9 st10">Alice Lowerson</text>
			</g>
			<g id="XMLID_98_">
				<text id="XMLID_74_" transform="matrix(1 0 0 1 137.002 680.6837)" class="st11 st12 st13">1379 Sumner Street, Santa Monica, CA 90405</text>
			</g>
		</g>
		<g id="XMLID_47_">
			<path id="XMLID_96_" class="st2" d="M883.2,316.6H100.7c-20.7,0-37.5-16.8-37.5-37.5V153.3c0-20.7,16.8-37.5,37.5-37.5h782.5
				c20.7,0,37.5,16.8,37.5,37.5v125.8C920.7,299.8,903.9,316.6,883.2,316.6z"/>
			<g id="XMLID_93_">
				<text id="XMLID_72_" transform="matrix(1 0 0 1 137.0021 154.4002)"><tspan x="0" y="0" class="st6 st7 st8">From my short time spent with him, I could tell Dave was an amazing man. </tspan><tspan x="0" y="24" class="st6 st7 st8">Please accept my sincere condolences.</tspan></text>
			</g>
			<g id="XMLID_90_">
				<text id="XMLID_70_" transform="matrix(1 0 0 1 137.0021 207.308)"><tspan x="0" y="0" class="st6 st7 st8">You might have spent a short time with the person, and you can express </tspan><tspan x="0" y="24" class="st6 st7 st8">how much those few moments meant to you.</tspan></text>
			</g>
			<g id="XMLID_87_">
				<text id="XMLID_68_" transform="matrix(1 0 0 1 137.002 270.2577)" class="st1 st9 st10">Finn Slater</text>
			</g>
			<g id="XMLID_83_">
				<text id="XMLID_66_" transform="matrix(1 0 0 1 137.002 290.3167)" class="st11 st12 st13">3991 Beechwood Drive, Clarksville, MD 21029</text>
			</g>
			<g id="XMLID_50_">
				<circle id="XMLID_81_" class="st4" cx="81.5" cy="123" r="28.2"/>
				<circle id="XMLID_55_" class="st5" cx="81.5" cy="123" r="23.8"/>
				<g id="XMLID_51_">
					<path id="XMLID_52_" class="st0" d="M78.9,115.4c0.9,1.5,1.4,3.2,1.4,5.4c0,2.7-0.7,5.1-2.1,7.3c-1.4,2.2-3.5,3.9-6.3,5.2
						l-0.7-1.5c1.7-0.7,3.1-1.8,4.3-3.3c1.2-1.5,1.8-3.1,1.8-4.6c0-0.6-0.1-1.2-0.2-1.7c-0.9,0.7-1.9,1.1-3,1.1
						c-1.5,0-2.7-0.5-3.7-1.4c-1-0.9-1.5-2.2-1.5-3.8c0-1.5,0.5-2.7,1.5-3.7c1-1,2.2-1.5,3.7-1.5C76.2,112.8,77.8,113.7,78.9,115.4z
						 M92.7,115.4c0.9,1.5,1.4,3.2,1.4,5.4c0,2.7-0.7,5.1-2.1,7.3c-1.4,2.2-3.5,3.9-6.3,5.2l-0.7-1.5c1.7-0.7,3.1-1.8,4.3-3.3
						c1.2-1.5,1.8-3.1,1.8-4.6c0-0.6-0.1-1.2-0.2-1.7c-0.9,0.7-1.9,1.1-3,1.1c-1.5,0-2.7-0.5-3.7-1.4c-1-0.9-1.5-2.2-1.5-3.8
						c0-1.5,0.5-2.7,1.5-3.7c1-1,2.2-1.5,3.7-1.5C90,112.8,91.6,113.7,92.7,115.4z"/>
				</g>
			</g>
			<path id="XMLID_49_" class="st3" d="M890.5,261.5c0,15.7-15.4,28.4-34.4,28.4H605.4v2.2h250.7c20.5,0,37.2-13.8,37.2-30.7v-90.5
				h-2.8V261.5z"/>
		</g>
		<g id="XMLID_24_">
			<path id="XMLID_45_" class="st2" d="M883.3,905.1H102.8c-20.7,0-37.4-16.8-37.4-37.4v-96.5c0-20.7,16.8-37.4,37.4-37.4h780.5
				c20.7,0,37.4,16.8,37.4,37.4v96.5C920.7,888.4,903.9,905.1,883.3,905.1z"/>
			<path id="XMLID_44_" class="st3" d="M890.6,852.9c0,15.5-15.3,28.2-34.1,28.2H608v2.2h248.5c20.3,0,36.9-13.6,36.9-30.4v-89.7
				h-2.8V852.9z"/>
			<g id="XMLID_37_">
				<circle id="XMLID_43_" class="st4" cx="81.2" cy="746.9" r="27.9"/>
				<circle id="XMLID_42_" class="st5" cx="81.2" cy="746.9" r="23.5"/>
				<g id="XMLID_38_">
					<path id="XMLID_39_" class="st0" d="M78.6,739.3c0.9,1.4,1.4,3.2,1.4,5.3c0,2.7-0.7,5.1-2,7.2c-1.4,2.1-3.4,3.9-6.2,5.1
						l-0.7-1.4c1.7-0.7,3.1-1.8,4.3-3.3c1.2-1.5,1.8-3,1.8-4.6c0-0.6-0.1-1.2-0.2-1.7c-0.9,0.7-1.8,1-3,1c-1.4,0-2.7-0.5-3.7-1.4
						c-1-0.9-1.5-2.2-1.5-3.7c0-1.4,0.5-2.7,1.5-3.7c1-1,2.2-1.5,3.7-1.5C76,736.7,77.6,737.6,78.6,739.3z M92.3,739.3
						c0.9,1.4,1.4,3.2,1.4,5.3c0,2.7-0.7,5.1-2,7.2c-1.4,2.1-3.4,3.9-6.2,5.1l-0.7-1.4c1.7-0.7,3.1-1.8,4.3-3.3
						c1.2-1.5,1.8-3,1.8-4.6c0-0.6-0.1-1.2-0.2-1.7c-0.9,0.7-1.8,1-3,1c-1.4,0-2.7-0.5-3.7-1.4c-1-0.9-1.5-2.2-1.5-3.7
						c0-1.4,0.5-2.7,1.5-3.7c1-1,2.2-1.5,3.7-1.5C89.7,736.7,91.2,737.6,92.3,739.3z"/>
				</g>
			</g>
			<g id="XMLID_34_">
				<text id="XMLID_64_" transform="matrix(1 0 0 1 137.0021 769.8463)" class="st6 st7 st8">Thank you for including me in mourning Greg’s loss. I know he was a special person.</text>
			</g>
			<g id="XMLID_31_">
				<text id="XMLID_62_" transform="matrix(1 0 0 1 137.0021 804.3502)"><tspan x="0" y="0" class="st6 st7 st8">It means a lot that the family invited you to the memorial, even though </tspan><tspan x="0" y="24" class="st6 st7 st8">you didn’t know the deceased very well.</tspan></text>
			</g>
			<g id="XMLID_28_">
				<text id="XMLID_60_" transform="matrix(1 0 0 1 137.002 865.8932)" class="st1 st9 st10">Bailey Pocock</text>
			</g>
			<g id="XMLID_25_">
				<text id="XMLID_77_" transform="matrix(1 0 0 1 137.0021 884.4684)" class="st11 st12 st13">2180 Brooklyn Street, Portland, OR 97205</text>
			</g>
		</g>
		<g id="XMLID_4_">
			<path id="XMLID_23_" class="st2" d="M883.2,482.1H100.6c-20.7,0-37.5-16.8-37.5-37.5v-64.2c0-20.7,16.8-37.5,37.5-37.5h782.6
				c20.7,0,37.5,16.8,37.5,37.5v64.2C920.7,465.3,903.9,482.1,883.2,482.1z"/>
			<g id="XMLID_20_">
				<text id="XMLID_79_" transform="matrix(1 0 0 1 137.0018 382.661)"><tspan x="0" y="0" class="st6 st7 st8">I know he will be dearly missed, and I’m sorry I didn’t have the chance to </tspan><tspan x="0" y="24" class="st6 st7 st8">know him better. </tspan></text>
			</g>
			<g id="XMLID_17_">
				<text id="XMLID_82_" transform="matrix(1 0 0 1 137.0018 441.5907)" class="st1 st9 st10">Lisa R. Taylor</text>
			</g>
			<g id="XMLID_14_">
				<text id="XMLID_84_" transform="matrix(1 0 0 1 137.0018 462.8827)" class="st11 st12 st13">4567 Union Street, Seattle, WA 98106</text>
			</g>
			<path id="XMLID_12_" class="st3" d="M890.6,429c0,15.6-15.3,28.2-34.1,28.2H607.5v2.2h248.9c20.4,0,36.9-13.7,36.9-30.4v-59.8
				h-2.8V429z"/>
			<g id="XMLID_5_">
				<circle id="XMLID_11_" class="st4" cx="81.3" cy="354.6" r="27.9"/>
				<circle id="XMLID_10_" class="st5" cx="81.3" cy="354.6" r="23.6"/>
				<g id="XMLID_6_">
					<path id="XMLID_7_" class="st0" d="M78.7,347c0.9,1.4,1.4,3.2,1.4,5.3c0,2.7-0.7,5.1-2.1,7.2c-1.4,2.1-3.4,3.9-6.2,5.2
						l-0.7-1.4c1.7-0.7,3.1-1.8,4.3-3.3c1.2-1.5,1.8-3,1.8-4.6c0-0.6-0.1-1.2-0.2-1.7c-0.9,0.7-1.9,1-3,1c-1.4,0-2.7-0.5-3.7-1.4
						c-1-0.9-1.5-2.2-1.5-3.7c0-1.4,0.5-2.7,1.5-3.7c1-1,2.2-1.5,3.7-1.5C76,344.4,77.6,345.3,78.7,347z M92.4,347
						c0.9,1.4,1.4,3.2,1.4,5.3c0,2.7-0.7,5.1-2.1,7.2c-1.4,2.1-3.4,3.9-6.2,5.2l-0.7-1.4c1.7-0.7,3.1-1.8,4.3-3.3
						c1.2-1.5,1.8-3,1.8-4.6c0-0.6-0.1-1.2-0.2-1.7c-0.9,0.7-1.9,1-3,1c-1.4,0-2.7-0.5-3.7-1.4c-1-0.9-1.5-2.2-1.5-3.7
						c0-1.4,0.5-2.7,1.5-3.7c1-1,2.2-1.5,3.7-1.5C89.7,344.4,91.3,345.3,92.4,347z"/>
				</g>
			</g>
		</g>
	</g>
</g>
</svg>
