<?xml version="1.0" encoding="utf-8"?>
<!-- Generator: Adobe Illustrator 19.0.0, SVG Export Plug-In . SVG Version: 6.00 Build 0)  -->
<svg version="1.1" id="Layer_1" xmlns="http://www.w3.org/2000/svg" xmlns:xlink="http://www.w3.org/1999/xlink" x="0px" y="0px"
	 viewBox="0 0 1000 1000" style="enable-background:new 0 0 1000 1000;" xml:space="preserve">
<style type="text/css">
	.st0{fill:#FFFFFF;}
	.st1{fill:#6B9953;}
	.st2{fill:#EBEBE9;}
	.st3{fill:#A7D59C;stroke:#A7D59C;stroke-width:4;stroke-miterlimit:10;}
	.st4{fill:#A7D59C;}
	.st5{fill:none;stroke:#FFFFFF;stroke-width:2;stroke-miterlimit:10;}
	.st6{fill:#282C2E;}
	.st7{font-family:'Gilroy-SemiBold';}
	.st8{font-size:20px;}
	.st9{font-family:'Gilroy-Black';}
	.st10{font-size:22px;}
	.st11{fill:#94C384;}
	.st12{font-family:'Gilroy-Medium';}
	.st13{font-size:15px;}
	.st14{font-family:'PlayfairDisplay-Regular';}
	.st15{font-size:15.8026px;}
</style>
<rect id="XMLID_72_" x="-0.5" class="st0" width="1001" height="1000"/>
<g id="XMLID_9_">
	<rect id="XMLID_147_" x="-0.5" class="st0" width="1001" height="1000"/>
	<rect id="XMLID_146_" x="917" class="st1" width="83.5" height="59.5"/>
	<g id="XMLID_88_">
		<g id="XMLID_217_">
			<path id="XMLID_145_" class="st2" d="M890,703H114.5c-20.5,0-37.2-16.7-37.2-37.2V540.2c0-20.5,16.7-37.2,37.2-37.2H890
				c20.5,0,37.2,16.7,37.2,37.2v125.6C927.2,686.3,910.6,703,890,703z"/>
			<path id="XMLID_144_" class="st3" d="M897.1,641.7c0,15.6-15.4,28.3-34.3,28.3h-250v2.2h250c20.5,0,37.1-13.7,37.1-30.6v-90.2
				h-2.8V641.7z"/>
			<g id="XMLID_230_">
				<circle id="XMLID_143_" class="st4" cx="93.3" cy="514.9" r="28.1"/>
				<circle id="XMLID_142_" class="st5" cx="93.3" cy="514.9" r="23.7"/>
				<g id="XMLID_231_">
					<path id="XMLID_232_" class="st0" d="M90.7,507.3c0.9,1.5,1.4,3.2,1.4,5.3c0,2.7-0.7,5.1-2.1,7.3c-1.4,2.2-3.5,3.9-6.3,5.2
						l-0.7-1.5c1.7-0.7,3.1-1.8,4.3-3.3c1.2-1.5,1.8-3,1.8-4.6c0-0.6-0.1-1.2-0.2-1.7c-0.9,0.7-1.9,1.1-3,1.1
						c-1.5,0-2.7-0.5-3.7-1.4c-1-0.9-1.5-2.2-1.5-3.8c0-1.5,0.5-2.7,1.5-3.7c1-1,2.2-1.5,3.7-1.5C88.1,504.7,89.6,505.6,90.7,507.3z
						 M104.5,507.3c0.9,1.5,1.4,3.2,1.4,5.3c0,2.7-0.7,5.1-2.1,7.3c-1.4,2.2-3.5,3.9-6.3,5.2l-0.7-1.5c1.7-0.7,3.1-1.8,4.3-3.3
						c1.2-1.5,1.8-3,1.8-4.6c0-0.6-0.1-1.2-0.2-1.7c-0.9,0.7-1.9,1.1-3,1.1c-1.5,0-2.7-0.5-3.7-1.4c-1-0.9-1.5-2.2-1.5-3.8
						c0-1.5,0.5-2.7,1.5-3.7c1-1,2.2-1.5,3.7-1.5C101.8,504.7,103.4,505.6,104.5,507.3z"/>
				</g>
			</g>
			<g id="XMLID_139_">
				<text id="XMLID_172_" transform="matrix(1 0 0 1 157.319 539.7481)"><tspan x="0" y="0" class="st6 st7 st8">Kaitlin was the funniest, kindest, and wisest friend I could have ever had. </tspan><tspan x="0" y="24" class="st6 st7 st8">I’m so sorry she’s gone.</tspan></text>
			</g>
			<g id="XMLID_138_">
				<text id="XMLID_170_" transform="matrix(1 0 0 1 157.319 596.1417)"><tspan x="0" y="0" class="st6 st7 st8">Describe exactly what made your friend so special, and express your sympathy </tspan><tspan x="0" y="24" class="st6 st7 st8">for the family’s loss. </tspan></text>
			</g>
			<g id="XMLID_137_">
				<text id="XMLID_167_" transform="matrix(1 0 0 1 157.3195 657.3145)" class="st1 st9 st10">Pearl C. Ross</text>
			</g>
			<g id="XMLID_136_">
				<text id="XMLID_165_" transform="matrix(1 0 0 1 157.3195 675.3526)" class="st11 st12 st13">253 Hidden Meadow Drive, Minot Air Force Base, ND 58701</text>
			</g>
		</g>
		<g id="XMLID_195_">
			<path id="XMLID_135_" class="st2" d="M890,476.8H114.3c-20.5,0-37.2-16.7-37.2-37.2V289c0-20.5,16.7-37.2,37.2-37.2H890
				c20.5,0,37.2,16.7,37.2,37.2v150.6C927.2,460.2,910.6,476.8,890,476.8z"/>
			<g id="XMLID_134_">
				<text id="XMLID_162_" transform="matrix(1 0 0 1 157.3195 293.108)"><tspan x="0" y="0" class="st6 st7 st8">I’m so saddened to know the hardship your family is going through, and I want </tspan><tspan x="0" y="24" class="st6 st7 st8">to offer my condolences and support.</tspan></text>
			</g>
			<g id="XMLID_133_">
				<text id="XMLID_160_" transform="matrix(1 0 0 1 157.3195 348.0074)"><tspan x="0" y="0" class="st6 st7 st8">You might not have known the deceased very well, but you might still be close </tspan><tspan x="0" y="24" class="st6 st7 st8">to the family. If so, it’s a good idea to sincerely express your </tspan><tspan x="0" y="48" class="st6 st7 st8">sympathy and support to them.</tspan></text>
			</g>
			<path id="XMLID_132_" class="st3" d="M897.2,421.6c0,15.4-15.1,27.8-33.7,27.8H617.8v2.2h245.6c20.1,0,36.5-13.5,36.5-30V293.4
				h-2.8V421.6z"/>
			<g id="XMLID_202_">
				<circle id="XMLID_131_" class="st4" cx="92.8" cy="265.4" r="27.6"/>
				<circle id="XMLID_130_" class="st5" cx="92.8" cy="265.4" r="23.3"/>
				<g id="XMLID_203_">
					<path id="XMLID_204_" class="st0" d="M90.3,257.9c0.9,1.4,1.4,3.2,1.4,5.2c0,2.6-0.7,5-2,7.1c-1.4,2.1-3.4,3.8-6.2,5.1
						l-0.7-1.4c1.6-0.7,3.1-1.8,4.3-3.3c1.2-1.5,1.8-3,1.8-4.5c0-0.6-0.1-1.2-0.2-1.7c-0.8,0.7-1.8,1-2.9,1c-1.4,0-2.6-0.5-3.6-1.4
						c-1-0.9-1.5-2.2-1.5-3.7c0-1.4,0.5-2.6,1.5-3.6c1-1,2.2-1.5,3.6-1.5C87.6,255.4,89.2,256.2,90.3,257.9z M103.8,257.9
						c0.9,1.4,1.4,3.2,1.4,5.2c0,2.6-0.7,5-2,7.1c-1.4,2.1-3.4,3.8-6.2,5.1l-0.7-1.4c1.6-0.7,3.1-1.8,4.3-3.3c1.2-1.5,1.8-3,1.8-4.5
						c0-0.6-0.1-1.2-0.2-1.7c-0.8,0.7-1.8,1-2.9,1c-1.4,0-2.6-0.5-3.6-1.4c-1-0.9-1.5-2.2-1.5-3.7c0-1.4,0.5-2.6,1.5-3.6
						c1-1,2.2-1.5,3.6-1.5C101.2,255.4,102.7,256.2,103.8,257.9z"/>
				</g>
			</g>
			<g id="XMLID_127_">
				<text id="XMLID_158_" transform="matrix(1 0 0 1 157.3195 436.733)" class="st1 st9 st10">George G. Fitzpatrick</text>
			</g>
			<g id="XMLID_126_">
				<text id="XMLID_156_" transform="matrix(1 0 0 1 157.3195 453.3405)" class="st11 st12 st13">2451 Ashwood Drive, Sioux City, IA 51101</text>
			</g>
		</g>
		<g id="XMLID_175_">
			<text id="XMLID_125_" transform="matrix(1 0 0 1 120.3504 135.1634)" class="st14 st15">  </text>
			<g id="XMLID_186_">
				<path id="XMLID_124_" class="st2" d="M75.8,118.5V195c0,18.1,14.7,32.8,32.8,32.8h785.7c18.1,0,32.8-14.7,32.8-32.8v-94.1
					c0-18.1-14.7-32.8-32.8-32.8H132.7C96.2,68,75.8,74.8,75.8,118.5z"/>
				<circle id="XMLID_123_" class="st4" cx="92.8" cy="79.5" r="27.6"/>
				<circle id="XMLID_122_" class="st5" cx="92.8" cy="79.5" r="23.3"/>
				<g id="XMLID_187_">
					<path id="XMLID_188_" class="st0" d="M90.2,72.1c0.9,1.4,1.3,3.2,1.3,5.2c0,2.6-0.7,5-2,7.1c-1.3,2.1-3.4,3.8-6.2,5.1l-0.7-1.4
						c1.6-0.7,3.1-1.8,4.2-3.3c1.2-1.5,1.8-3,1.8-4.5c0-0.6-0.1-1.2-0.2-1.7c-0.8,0.7-1.8,1-2.9,1c-1.4,0-2.6-0.5-3.6-1.4
						c-1-0.9-1.5-2.2-1.5-3.7c0-1.4,0.5-2.6,1.5-3.6c1-1,2.2-1.5,3.6-1.5C87.6,69.5,89.2,70.4,90.2,72.1z M103.7,72.1
						c0.9,1.4,1.3,3.2,1.3,5.2c0,2.6-0.7,5-2,7.1c-1.3,2.1-3.4,3.8-6.2,5.1l-0.7-1.4c1.6-0.7,3.1-1.8,4.2-3.3c1.2-1.5,1.8-3,1.8-4.5
						c0-0.6-0.1-1.2-0.2-1.7c-0.8,0.7-1.8,1-2.9,1c-1.4,0-2.6-0.5-3.6-1.4c-1-0.9-1.5-2.2-1.5-3.7c0-1.4,0.5-2.6,1.5-3.6
						c1-1,2.2-1.5,3.6-1.5C101.1,69.5,102.7,70.4,103.7,72.1z"/>
				</g>
			</g>
			<g id="XMLID_119_">
				<text id="XMLID_154_" transform="matrix(1 0 0 1 157.3187 112.1282)"><tspan x="0" y="0" class="st6 st7 st8">Thank you for including me in mourning Greg’s loss. I know he was </tspan><tspan x="0" y="24" class="st6 st7 st8">a special person. </tspan></text>
			</g>
			<g id="XMLID_118_">
				<text id="XMLID_86_" transform="matrix(1 0 0 1 157.3192 179.0574)" class="st1 st9 st10">Bailey Pocock</text>
			</g>
			<g id="XMLID_116_">
				<text id="XMLID_82_" transform="matrix(1 0 0 1 157.3192 196.2161)" class="st11 st12 st13">2180 Brooklyn Street, Portland, OR 97205</text>
			</g>
			<path id="XMLID_114_" class="st3" d="M897.2,172.5c0,15.3-15.1,27.8-33.7,27.8H618.1v2.2h245.4c20.1,0,36.4-13.5,36.4-30v-68.8
				h-2.8V172.5z"/>
		</g>
		<g id="XMLID_89_">
			<path id="XMLID_23_" class="st2" d="M889.9,948H112.3C91.7,948,75,931.3,75,910.8V771.8c0-20.6,16.7-37.3,37.3-37.3h777.6
				c20.6,0,37.3,16.7,37.3,37.3v138.9C927.2,931.3,910.5,948,889.9,948z"/>
			<g id="XMLID_22_">
				<text id="XMLID_80_" transform="matrix(1 0 0 1 157.319 770.0338)"><tspan x="0" y="0" class="st6 st7 st8">I’ll never forget the time we spent together every summer, gardening, and </tspan><tspan x="0" y="24" class="st6 st7 st8">shopping yard sales. I know how much she loved you </tspan><tspan x="0" y="48" class="st6 st7 st8">and how much she’ll be missed.</tspan></text>
			</g>
			<g id="XMLID_20_">
				<text id="XMLID_78_" transform="matrix(1 0 0 1 157.319 847.9415)"><tspan x="0" y="0" class="st6 st7 st8">You can personalize the condolence book message by including a </tspan><tspan x="0" y="24" class="st6 st7 st8">treasured memory you shared with the deceased.</tspan></text>
			</g>
			<g id="XMLID_107_">
				<circle id="XMLID_11_" class="st4" cx="93.4" cy="741.1" r="28.2"/>
				<circle id="XMLID_17_" class="st5" cx="93.4" cy="741.1" r="23.8"/>
				<g id="XMLID_108_">
					<path id="XMLID_163_" class="st0" d="M90.8,733.5c0.9,1.5,1.4,3.2,1.4,5.4c0,2.7-0.7,5.1-2.1,7.3c-1.4,2.2-3.5,3.9-6.3,5.2
						l-0.7-1.5c1.7-0.7,3.1-1.8,4.3-3.3c1.2-1.5,1.8-3.1,1.8-4.6c0-0.6-0.1-1.2-0.2-1.7c-0.9,0.7-1.9,1.1-3,1.1
						c-1.5,0-2.7-0.5-3.7-1.4c-1-0.9-1.5-2.2-1.5-3.8c0-1.5,0.5-2.7,1.5-3.7c1-1,2.2-1.5,3.7-1.5C88.1,730.9,89.7,731.8,90.8,733.5z
						 M104.6,733.5c0.9,1.5,1.4,3.2,1.4,5.4c0,2.7-0.7,5.1-2.1,7.3c-1.4,2.2-3.5,3.9-6.3,5.2l-0.7-1.5c1.7-0.7,3.1-1.8,4.3-3.3
						c1.2-1.5,1.8-3.1,1.8-4.6c0-0.6-0.1-1.2-0.2-1.7c-0.9,0.7-1.9,1.1-3,1.1c-1.5,0-2.7-0.5-3.7-1.4c-1-0.9-1.5-2.2-1.5-3.8
						c0-1.5,0.5-2.7,1.5-3.7c1-1,2.2-1.5,3.7-1.5C101.9,730.9,103.5,731.8,104.6,733.5z"/>
				</g>
			</g>
			<path id="XMLID_14_" class="st3" d="M897.1,887.7c0,15.7-15.4,28.4-34.4,28.4H612v2.2h250.7c20.5,0,37.2-13.8,37.2-30.7v-90.5
				h-2.8V887.7z"/>
			<g id="XMLID_13_">
				<text id="XMLID_74_" transform="matrix(1 0 0 1 157.319 927.4482)" class="st11 st12 st13">3767 Cardinal Lane, Mattoon, IL 61938</text>
			</g>
			<g id="XMLID_12_">
				<text id="XMLID_71_" transform="matrix(1 0 0 1 157.319 905.8912)" class="st1 st9 st10">Joe S. Bennett</text>
			</g>
		</g>
	</g>
</g>
</svg>
