<?xml version="1.0" encoding="utf-8"?>
<!-- Generator: Adobe Illustrator 19.0.0, SVG Export Plug-In . SVG Version: 6.00 Build 0)  -->
<svg version="1.1" id="Layer_1" xmlns="http://www.w3.org/2000/svg" xmlns:xlink="http://www.w3.org/1999/xlink" x="0px" y="0px"
	 viewBox="0 0 1000 1000" style="enable-background:new 0 0 1000 1000;" xml:space="preserve">
<style type="text/css">
	.st0{fill:#FFFFFF;}
	.st1{fill:#6B9953;}
	.st2{font-family:'Gilroy-Black';}
	.st3{font-size:34.9094px;}
	.st4{fill:#EBEBE9;}
	.st5{fill:#282C2E;}
	.st6{font-family:'Gilroy-SemiBold';}
	.st7{font-size:20px;}
	.st8{fill:#A7D59C;stroke:#A7D59C;stroke-width:4;stroke-miterlimit:10;}
	.st9{fill:#A7D59C;}
	.st10{fill:none;stroke:#FFFFFF;stroke-width:2;stroke-miterlimit:10;}
	.st11{font-size:22px;}
	.st12{fill:#94C384;}
	.st13{font-family:'Gilroy-Medium';}
	.st14{font-size:15px;}
	.st15{font-family:'PlayfairDisplay-Regular';}
	.st16{font-size:15.8026px;}
	.st17{font-family:'Gilroy-Regular';}
</style>
<g id="XMLID_60_">
	<rect id="XMLID_149_" x="-0.5" class="st0" width="1001" height="1000"/>
	<g id="XMLID_250_">
		<rect id="XMLID_147_" x="-0.5" class="st1" width="295.3" height="59.5"/>
		<text id="XMLID_146_" transform="matrix(1 0 0 1 14.1825 39.7519)" class="st0 st2 st3">O B I T U A R I E S</text>
	</g>
	<g id="XMLID_61_">
		<g id="XMLID_224_">
			<path id="XMLID_145_" class="st4" d="M885.5,507.6H109.8c-20.5,0-37.2-16.7-37.2-37.2V313.8c0-20.5,16.7-37.2,37.2-37.2h775.7
				c20.5,0,37.2,16.7,37.2,37.2v156.5C922.7,490.9,906,507.6,885.5,507.6z"/>
			<g id="XMLID_144_">
				<text id="XMLID_50_" transform="matrix(1 0 0 1 150.7365 319.8369)"><tspan x="0" y="0" class="st5 st6 st7">It’s in moments like these that words fall short. But I hope you know how much love </tspan><tspan x="0" y="24" class="st5 st6 st7">I have in my heart for James, and that you’re in my thoughts. </tspan></text>
			</g>
			<g id="XMLID_143_">
				<text id="XMLID_48_" transform="matrix(1 0 0 1 150.7365 375.5108)"><tspan x="0" y="0" class="st5 st6 st7">When you’re at a loss for words, sometimes expressing that is the most honest </tspan><tspan x="0" y="24" class="st5 st6 st7">message you can give. But it’s still important to include </tspan><tspan x="0" y="48" class="st5 st6 st7">some brief words of support, too. </tspan></text>
			</g>
			<path id="XMLID_142_" class="st8" d="M892.7,449.7c0,15.4-15.2,28-33.9,28h-247v2.2h247c20.2,0,36.7-13.6,36.7-30.2V330.5h-2.8
				V449.7z"/>
			<g id="XMLID_235_">
				<circle id="XMLID_141_" class="st9" cx="88.4" cy="289.7" r="27.7"/>
				<circle id="XMLID_140_" class="st10" cx="88.4" cy="289.7" r="23.4"/>
				<g id="XMLID_236_">
					<path id="XMLID_237_" class="st0" d="M85.9,282.2c0.9,1.4,1.4,3.2,1.4,5.3c0,2.7-0.7,5.1-2,7.2c-1.4,2.1-3.4,3.8-6.2,5.1
						l-0.7-1.4c1.6-0.7,3.1-1.8,4.3-3.3c1.2-1.5,1.8-3,1.8-4.6c0-0.6-0.1-1.2-0.2-1.7c-0.9,0.7-1.8,1-3,1c-1.4,0-2.6-0.5-3.6-1.4
						c-1-0.9-1.5-2.2-1.5-3.7c0-1.4,0.5-2.6,1.5-3.6c1-1,2.2-1.5,3.6-1.5C83.2,279.6,84.8,280.5,85.9,282.2z M99.5,282.2
						c0.9,1.4,1.4,3.2,1.4,5.3c0,2.7-0.7,5.1-2,7.2c-1.4,2.1-3.4,3.8-6.2,5.1l-0.7-1.4c1.6-0.7,3.1-1.8,4.3-3.3
						c1.2-1.5,1.8-3,1.8-4.6c0-0.6-0.1-1.2-0.2-1.7c-0.9,0.7-1.8,1-3,1c-1.4,0-2.6-0.5-3.6-1.4c-1-0.9-1.5-2.2-1.5-3.7
						c0-1.4,0.5-2.6,1.5-3.6c1-1,2.2-1.5,3.6-1.5C96.8,279.6,98.4,280.5,99.5,282.2z"/>
				</g>
			</g>
			<g id="XMLID_137_">
				<text id="XMLID_46_" transform="matrix(1 0 0 1 150.7365 462.6084)" class="st1 st2 st11">Lisa R. Taylor</text>
			</g>
			<g id="XMLID_136_">
				<text id="XMLID_44_" transform="matrix(1 0 0 1 150.7365 480.2969)" class="st12 st13 st14">4567 Union Street, Seattle, WA 98106</text>
			</g>
		</g>
		<g id="XMLID_198_">
			<path id="XMLID_135_" class="st4" d="M885.4,913.4H107.8c-20.6,0-37.3-28.7-37.3-49.3V755.3c0-20.6,16.7-37.3,37.3-37.3h777.6
				c20.6,0,37.3,16.7,37.3,37.3v120.8C922.7,896.7,906,913.4,885.4,913.4z"/>
			<g id="XMLID_134_">
				<text id="XMLID_42_" transform="matrix(1 0 0 1 142.7252 758.5931)" class="st5 st6 st7">It was a joy working with Merideth, and everyone will miss her dearly.</text>
			</g>
			<g id="XMLID_133_">
				<text id="XMLID_40_" transform="matrix(1 0 0 1 142.7252 796.6498)"><tspan x="0" y="0" class="st5 st6 st7">You might phrase your condolence book message this way if the person </tspan><tspan x="0" y="24" class="st5 st6 st7">was your co-worker.</tspan></text>
			</g>
			<g id="XMLID_132_">
				<text id="XMLID_38_" transform="matrix(1 0 0 1 142.7262 861.472)" class="st1 st2 st11">Olivia Hardy</text>
			</g>
			<g id="XMLID_131_">
				<text id="XMLID_36_" transform="matrix(1 0 0 1 142.7262 880.3217)" class="st12 st13 st14">1620 Wexford Way, Lexington, SC 29072</text>
			</g>
			<g id="XMLID_200_">
				<circle id="XMLID_130_" class="st9" cx="88.7" cy="725.2" r="28"/>
				<circle id="XMLID_129_" class="st10" cx="88.7" cy="725.2" r="23.6"/>
				<g id="XMLID_201_">
					<path id="XMLID_202_" class="st0" d="M86.1,717.7c0.9,1.5,1.4,3.2,1.4,5.3c0,2.7-0.7,5.1-2.1,7.3c-1.4,2.1-3.5,3.9-6.2,5.2
						l-0.7-1.5c1.7-0.7,3.1-1.8,4.3-3.3c1.2-1.5,1.8-3,1.8-4.6c0-0.6-0.1-1.2-0.2-1.7c-0.9,0.7-1.9,1-3,1c-1.5,0-2.7-0.5-3.7-1.4
						c-1-0.9-1.5-2.2-1.5-3.7c0-1.5,0.5-2.7,1.5-3.7c1-1,2.2-1.5,3.7-1.5C83.4,715.1,85,716,86.1,717.7z M99.8,717.7
						c0.9,1.5,1.4,3.2,1.4,5.3c0,2.7-0.7,5.1-2.1,7.3c-1.4,2.1-3.5,3.9-6.2,5.2l-0.7-1.5c1.7-0.7,3.1-1.8,4.3-3.3
						c1.2-1.5,1.8-3,1.8-4.6c0-0.6-0.1-1.2-0.2-1.7c-0.9,0.7-1.9,1-3,1c-1.5,0-2.7-0.5-3.7-1.4c-1-0.9-1.5-2.2-1.5-3.7
						c0-1.5,0.5-2.7,1.5-3.7c1-1,2.2-1.5,3.7-1.5C97.1,715.1,98.7,716,99.8,717.7z"/>
				</g>
			</g>
			<path id="XMLID_126_" class="st8" d="M892.7,855.7c0,15.6-15.3,28.2-34.2,28.2H609.3v2.2h249.2c20.4,0,37-13.7,37-30.5v-89.9
				h-2.8V855.7z"/>
		</g>
		<g id="XMLID_174_">
			<text id="XMLID_125_" transform="matrix(1 0 0 1 115.2533 164.7587)" class="st15 st16">  </text>
			<g id="XMLID_189_">
				<path id="XMLID_124_" class="st4" d="M71.3,142.6v76.5c0,18.1,14.7,32.8,32.8,32.8h785.7c18.1,0,32.8-14.7,32.8-32.8V125
					c0-18.1-14.7-32.8-32.8-32.8H128.1C91.7,92.2,71.3,98.9,71.3,142.6z"/>
				<circle id="XMLID_123_" class="st9" cx="88.3" cy="103.7" r="27.6"/>
				<circle id="XMLID_122_" class="st10" cx="88.3" cy="103.7" r="23.3"/>
				<g id="XMLID_190_">
					<path id="XMLID_191_" class="st0" d="M85.7,96.2c0.9,1.4,1.3,3.2,1.3,5.2c0,2.6-0.7,5-2,7.1c-1.3,2.1-3.4,3.8-6.2,5.1l-0.7-1.4
						c1.6-0.7,3.1-1.8,4.2-3.3c1.2-1.5,1.8-3,1.8-4.5c0-0.6-0.1-1.2-0.2-1.7c-0.8,0.7-1.8,1-2.9,1c-1.4,0-2.6-0.5-3.6-1.4
						c-1-0.9-1.5-2.2-1.5-3.7c0-1.4,0.5-2.6,1.5-3.6c1-1,2.2-1.5,3.6-1.5C83.1,93.7,84.7,94.5,85.7,96.2z M99.2,96.2
						c0.9,1.4,1.3,3.2,1.3,5.2c0,2.6-0.7,5-2,7.1c-1.3,2.1-3.4,3.8-6.2,5.1l-0.7-1.4c1.6-0.7,3.1-1.8,4.2-3.3c1.2-1.5,1.8-3,1.8-4.5
						c0-0.6-0.1-1.2-0.2-1.7c-0.8,0.7-1.8,1-2.9,1c-1.4,0-2.6-0.5-3.6-1.4c-1-0.9-1.5-2.2-1.5-3.7c0-1.4,0.5-2.6,1.5-3.6
						c1-1,2.2-1.5,3.6-1.5C96.6,93.7,98.2,94.5,99.2,96.2z"/>
				</g>
			</g>
			<g id="XMLID_119_">
				<text id="XMLID_34_" transform="matrix(1 0 0 1 152.7888 136.283)"><tspan x="0" y="0" class="st5 st6 st7">Thank you for including me in mourning Greg’s loss. I know he was </tspan><tspan x="0" y="24" class="st5 st6 st7">a special person. </tspan></text>
			</g>
			<g id="XMLID_116_">
				<text id="XMLID_32_" transform="matrix(1 0 0 1 152.7893 203.2122)" class="st1 st2 st11">Bailey Pocock</text>
			</g>
			<g id="XMLID_109_">
				<text id="XMLID_30_" transform="matrix(1 0 0 1 152.7893 220.3708)" class="st12 st13 st14">2180 Brooklyn Street, Portland, OR 97205</text>
			</g>
			<path id="XMLID_52_" class="st8" d="M892.7,195.7c0,15.3-15.1,27.8-33.7,27.8H613.6v2.2H859c20.1,0,36.4-13.5,36.4-30v-68.8h-2.8
				V195.7z"/>
		</g>
		<g id="XMLID_62_">
			<path id="XMLID_20_" class="st4" d="M883.2,687.3H107.6c-20.5,0-37.2-28.7-37.2-49.2v-62.6c0-20.5,16.7-37.2,37.2-37.2h775.6
				c20.5,0,37.2,16.7,37.2,37.2v74.6C920.4,670.6,903.8,687.3,883.2,687.3z"/>
			<g id="XMLID_17_">
				<text id="XMLID_49_" transform="matrix(1 0 0 1 143.6443 576.2458)"><tspan x="0" y="0" class="st5 st6 st7">Jenny had a beautiful soul, and she’ll be with me every day of my life. </tspan><tspan x="0" y="24" class="st5 st6 st7">Please accept my sincerest condolences for your loss. </tspan></text>
			</g>
			<g id="XMLID_16_">
				<text id="XMLID_51_" transform="matrix(1 0 0 1 143.6444 641.9233)" class="st1 st2 st11">Janet C. Young</text>
			</g>
			<g id="XMLID_15_">
				<text id="XMLID_53_" transform="matrix(1 0 0 1 143.6443 660.7231)" class="st12 st17 st14">1425 Red Bud Lane, Tampa, FL 33610</text>
			</g>
			<g id="XMLID_64_">
				<circle id="XMLID_14_" class="st9" cx="88.6" cy="545.5" r="27.9"/>
				<circle id="XMLID_13_" class="st10" cx="88.6" cy="545.5" r="23.5"/>
				<g id="XMLID_65_">
					<path id="XMLID_66_" class="st0" d="M86,537.9c0.9,1.4,1.4,3.2,1.4,5.3c0,2.7-0.7,5.1-2,7.2c-1.4,2.1-3.4,3.9-6.2,5.1l-0.7-1.4
						c1.7-0.7,3.1-1.8,4.3-3.3c1.2-1.5,1.8-3,1.8-4.6c0-0.6-0.1-1.2-0.2-1.7c-0.9,0.7-1.8,1-3,1c-1.4,0-2.7-0.5-3.7-1.4
						c-1-0.9-1.5-2.2-1.5-3.7c0-1.4,0.5-2.7,1.5-3.7c1-1,2.2-1.5,3.7-1.5C83.4,535.4,85,536.2,86,537.9z M99.7,537.9
						c0.9,1.4,1.4,3.2,1.4,5.3c0,2.7-0.7,5.1-2,7.2c-1.4,2.1-3.4,3.9-6.2,5.1l-0.7-1.4c1.7-0.7,3.1-1.8,4.3-3.3
						c1.2-1.5,1.8-3,1.8-4.6c0-0.6-0.1-1.2-0.2-1.7c-0.9,0.7-1.8,1-3,1c-1.4,0-2.7-0.5-3.7-1.4c-1-0.9-1.5-2.2-1.5-3.7
						c0-1.4,0.5-2.7,1.5-3.7c1-1,2.2-1.5,3.7-1.5C97,535.4,98.6,536.2,99.7,537.9z"/>
				</g>
			</g>
			<path id="XMLID_9_" class="st8" d="M894.4,635.7c0,15.5-15.3,28.2-34.1,28.2H611.9v2.2h248.5c20.3,0,36.9-13.6,36.9-30.4V576
				h-2.8V635.7z"/>
		</g>
	</g>
</g>
</svg>
