<?xml version="1.0" encoding="utf-8"?>
<!-- Generator: Adobe Illustrator 19.0.0, SVG Export Plug-In . SVG Version: 6.00 Build 0)  -->
<svg version="1.1" id="Layer_1" xmlns="http://www.w3.org/2000/svg" xmlns:xlink="http://www.w3.org/1999/xlink" x="0px" y="0px"
	 viewBox="0 0 1000 1000" style="enable-background:new 0 0 1000 1000;" xml:space="preserve">
<style type="text/css">
	.st0{fill:#FFFFFF;}
	.st1{fill:#6B9953;}
	.st2{font-family:'Gilroy-Black';}
	.st3{font-size:34.9094px;}
	.st4{font-family:'PlayfairDisplay-Regular';}
	.st5{font-size:16px;}
	.st6{fill:#EBEBE9;}
	.st7{fill:#A7D59C;}
	.st8{fill:none;stroke:#FFFFFF;stroke-width:2;stroke-miterlimit:10;}
	.st9{fill:#282C2E;}
	.st10{font-family:'Gilroy-SemiBold';}
	.st11{font-size:20px;}
	.st12{font-size:22px;}
	.st13{fill:#94C384;}
	.st14{font-family:'Gilroy-Medium';}
	.st15{font-size:15px;}
	.st16{fill:#A7D59C;stroke:#A7D59C;stroke-width:4;stroke-miterlimit:10;}
</style>
<g id="XMLID_13_">
	<rect id="XMLID_203_" x="-0.5" class="st0" width="1001" height="1000"/>
	<g id="XMLID_198_">
		<rect id="XMLID_200_" x="-0.5" class="st1" width="295.3" height="59.5"/>
		<text id="XMLID_199_" transform="matrix(1 0 0 1 14.1825 39.7518)" class="st0 st2 st3">O B I T U A R I E S</text>
	</g>
	<g id="XMLID_14_">
		<g id="XMLID_174_">
			<g id="XMLID_188_">
				<text id="XMLID_197_" transform="matrix(1 0 0 1 111.7534 779.1932)" class="st4 st5">  </text>
				<g id="XMLID_189_">
					<path id="XMLID_196_" class="st6" d="M66.6,762.3v106.4c0,18.4,14.9,33.3,33.3,33.3h795.5c18.4,0,33.3-14.9,33.3-33.3V744.5
						c0-18.4-14.9-33.3-33.3-33.3H124.2C90.4,711.2,66.6,717.2,66.6,762.3z"/>
					<circle id="XMLID_195_" class="st7" cx="83.8" cy="722.8" r="27.9"/>
					<circle id="XMLID_194_" class="st8" cx="83.8" cy="722.8" r="23.5"/>
					<g id="XMLID_190_">
						<path id="XMLID_191_" class="st0" d="M81.3,715.3c0.9,1.4,1.4,3.2,1.4,5.3c0,2.7-0.7,5.1-2,7.2c-1.4,2.1-3.4,3.9-6.2,5.1
							l-0.7-1.4c1.7-0.7,3.1-1.8,4.3-3.3c1.2-1.5,1.8-3,1.8-4.6c0-0.6-0.1-1.2-0.2-1.7c-0.9,0.7-1.8,1-3,1c-1.4,0-2.7-0.5-3.7-1.4
							c-1-0.9-1.5-2.2-1.5-3.7c0-1.4,0.5-2.7,1.5-3.7c1-1,2.2-1.5,3.7-1.5C78.6,712.7,80.2,713.6,81.3,715.3z M94.9,715.3
							c0.9,1.4,1.4,3.2,1.4,5.3c0,2.7-0.7,5.1-2,7.2c-1.4,2.1-3.4,3.9-6.2,5.1l-0.7-1.4c1.7-0.7,3.1-1.8,4.3-3.3
							c1.2-1.5,1.8-3,1.8-4.6c0-0.6-0.1-1.2-0.2-1.7c-0.9,0.7-1.8,1-3,1c-1.4,0-2.7-0.5-3.7-1.4c-1-0.9-1.5-2.2-1.5-3.7
							c0-1.4,0.5-2.7,1.5-3.7c1-1,2.2-1.5,3.7-1.5C92.3,712.7,93.9,713.6,94.9,715.3z"/>
					</g>
				</g>
			</g>
			<g id="XMLID_185_">
				<text id="XMLID_49_" transform="matrix(1 0 0 1 140.1957 754.8352)" class="st9 st10 st11">Ella, wherever you are now, I hope you can still feel how much I love and miss you.</text>
			</g>
			<g id="XMLID_182_">
				<text id="XMLID_47_" transform="matrix(1 0 0 1 140.1957 790.3176)"><tspan x="0" y="0" class="st9 st10 st11">You can address your condolence book message directly to the deceased </tspan><tspan x="0" y="24" class="st9 st10 st11">as a way to communicate your love for them. </tspan></text>
			</g>
			<g id="XMLID_179_">
				<text id="XMLID_45_" transform="matrix(1 0 0 1 140.1956 852.2776)" class="st1 st2 st12">David S. Haynes</text>
			</g>
			<g id="XMLID_176_">
				<text id="XMLID_43_" transform="matrix(1 0 0 1 140.1956 870.2523)" class="st13 st14 st15">4266 Hood Avenue, San Diego, CA 92121</text>
			</g>
			<path id="XMLID_175_" class="st16" d="M904.5,845.9c0,15.5-15.3,28.2-34.1,28.2H621.9v2.2h248.5c20.3,0,36.9-13.6,36.9-30.4
				v-89.7h-2.8V845.9z"/>
		</g>
		<g id="XMLID_152_">
			<g id="XMLID_166_">
				<path id="XMLID_173_" class="st6" d="M66.6,346.2v130.4c0,18.4,14.9,33.3,33.3,33.3h795.5c18.4,0,33.3-14.9,33.3-33.3V328.4
					c0-18.4-14.9-33.3-33.3-33.3H124.2C78.4,294.9,66.6,288.5,66.6,346.2z"/>
				<circle id="XMLID_172_" class="st7" cx="83.8" cy="306.8" r="27.9"/>
				<circle id="XMLID_171_" class="st8" cx="83.8" cy="306.8" r="23.5"/>
				<g id="XMLID_167_">
					<path id="XMLID_168_" class="st0" d="M81.3,299.2c0.9,1.4,1.4,3.2,1.4,5.3c0,2.7-0.7,5.1-2,7.2c-1.4,2.1-3.4,3.9-6.2,5.1
						l-0.7-1.4c1.7-0.7,3.1-1.8,4.3-3.3c1.2-1.5,1.8-3,1.8-4.6c0-0.6-0.1-1.2-0.2-1.7c-0.9,0.7-1.8,1-3,1c-1.4,0-2.7-0.5-3.7-1.4
						c-1-0.9-1.5-2.2-1.5-3.7c0-1.4,0.5-2.7,1.5-3.7c1-1,2.2-1.5,3.7-1.5C78.6,296.6,80.2,297.5,81.3,299.2z M94.9,299.2
						c0.9,1.4,1.4,3.2,1.4,5.3c0,2.7-0.7,5.1-2,7.2c-1.4,2.1-3.4,3.9-6.2,5.1l-0.7-1.4c1.7-0.7,3.1-1.8,4.3-3.3
						c1.2-1.5,1.8-3,1.8-4.6c0-0.6-0.1-1.2-0.2-1.7c-0.9,0.7-1.8,1-3,1c-1.4,0-2.7-0.5-3.7-1.4c-1-0.9-1.5-2.2-1.5-3.7
						c0-1.4,0.5-2.7,1.5-3.7c1-1,2.2-1.5,3.7-1.5C92.3,296.6,93.9,297.5,94.9,299.2z"/>
				</g>
			</g>
			<g id="XMLID_163_">
				<text id="XMLID_41_" transform="matrix(1 0 0 1 140.1959 332.8962)"><tspan x="0" y="0" class="st9 st10 st11">Becca and I met a college, and she made a lasting impression on me, as </tspan><tspan x="0" y="24" class="st9 st10 st11">I’m sure she did on many people. </tspan></text>
			</g>
			<g id="XMLID_160_">
				<text id="XMLID_39_" transform="matrix(1 0 0 1 140.1959 395.1375)"><tspan x="0" y="0" class="st9 st10 st11">If you don’t know the family well, you might want to begin your condolence </tspan><tspan x="0" y="24" class="st9 st10 st11">book message by brieﬂy explaining how you know the deceased.</tspan></text>
			</g>
			<g id="XMLID_157_">
				<text id="XMLID_37_" transform="matrix(1 0 0 1 140.3053 459.0203)" class="st1 st2 st12">Alice Lowerson</text>
			</g>
			<g id="XMLID_154_">
				<text id="XMLID_35_" transform="matrix(1 0 0 1 140.1959 477.0759)" class="st13 st14 st15">1379 Sumner Street, Santa Monica, CA 90405</text>
			</g>
			<path id="XMLID_153_" class="st16" d="M904.5,454.8c0,15.5-15.3,28.2-34.1,28.2H621.9v2.2h248.5c20.3,0,36.9-13.6,36.9-30.4
				v-89.7h-2.8V454.8z"/>
		</g>
		<g id="XMLID_130_">
			<path id="XMLID_151_" class="st6" d="M891,268.9H105.8c-20.8,0-37.7-16.9-37.7-37.7v-78.6c0-20.8,16.9-37.7,37.7-37.7H891
				c20.8,0,37.7,16.9,37.7,37.7v78.6C928.7,252,911.8,268.9,891,268.9z"/>
			<g id="XMLID_148_">
				<text id="XMLID_33_" transform="matrix(1 0 0 1 140.196 150.9221)" class="st9 st10 st11">It was a joy working with Merideth, and everyone will miss her dearly. </text>
			</g>
			<g id="XMLID_145_">
				<text id="XMLID_31_" transform="matrix(1 0 0 1 140.196 178.8684)"><tspan x="0" y="0" class="st9 st10 st11">You might phrase your condolence book message this way if the person </tspan><tspan x="0" y="24" class="st9 st10 st11">was your co-worker.</tspan></text>
			</g>
			<g id="XMLID_142_">
				<text id="XMLID_29_" transform="matrix(1 0 0 1 140.196 233.3322)"><tspan x="0" y="0" class="st1 st2 st12">O</tspan><tspan x="17.2" y="0" class="st1 st2 st12">l</tspan><tspan x="22.9" y="0" class="st1 st2 st12">i</tspan><tspan x="28.6" y="0" class="st1 st2 st12">via </tspan><tspan x="65.1" y="0" class="st1 st2 st12">H</tspan><tspan x="79.6" y="0" class="st1 st2 st12">a</tspan><tspan x="93.1" y="0" class="st1 st2 st12">r</tspan><tspan x="101.2" y="0" class="st1 st2 st12">dy</tspan></text>
			</g>
			<g id="XMLID_139_">
				<text id="XMLID_27_" transform="matrix(1 0 0 1 140.196 251.3547)" class="st13 st14 st15">1620 Wexford Way, Lexington, SC 29072 </text>
			</g>
			<path id="XMLID_138_" class="st16" d="M904.4,217.7c0,15.7-15.5,28.5-34.5,28.5H618.3v2.3h251.6c20.6,0,37.4-13.8,37.4-30.8V140
				h-2.8V217.7z"/>
			<g id="XMLID_131_">
				<circle id="XMLID_137_" class="st7" cx="84.2" cy="126.3" r="28.3"/>
				<circle id="XMLID_136_" class="st8" cx="84.2" cy="126.3" r="23.8"/>
				<g id="XMLID_132_">
					<path id="XMLID_133_" class="st0" d="M81.6,118.6c0.9,1.5,1.4,3.3,1.4,5.4c0,2.7-0.7,5.2-2.1,7.3c-1.4,2.2-3.5,3.9-6.3,5.2
						l-0.7-1.5c1.7-0.7,3.1-1.8,4.4-3.3c1.2-1.5,1.8-3.1,1.8-4.6c0-0.7-0.1-1.2-0.2-1.7c-0.9,0.7-1.9,1.1-3,1.1
						c-1.5,0-2.7-0.5-3.7-1.4c-1-0.9-1.5-2.2-1.5-3.8c0-1.5,0.5-2.7,1.5-3.7c1-1,2.2-1.5,3.7-1.5C78.9,116,80.5,116.9,81.6,118.6z
						 M95.4,118.6c0.9,1.5,1.4,3.3,1.4,5.4c0,2.7-0.7,5.2-2.1,7.3c-1.4,2.2-3.5,3.9-6.3,5.2l-0.7-1.5c1.7-0.7,3.1-1.8,4.4-3.3
						c1.2-1.5,1.8-3.1,1.8-4.6c0-0.7-0.1-1.2-0.2-1.7c-0.9,0.7-1.9,1.1-3,1.1c-1.5,0-2.7-0.5-3.7-1.4c-1-0.9-1.5-2.2-1.5-3.8
						c0-1.5,0.5-2.7,1.5-3.7c1-1,2.2-1.5,3.7-1.5C92.7,116,94.3,116.9,95.4,118.6z"/>
				</g>
			</g>
		</g>
		<g id="XMLID_15_">
			<text id="XMLID_129_" transform="matrix(1 0 0 1 109.1843 625.1507)" class="st4 st5"> </text>
			<g id="XMLID_119_">
				<text id="XMLID_128_" transform="matrix(1 0 0 1 111.7534 604.1497)" class="st4 st5">  </text>
				<g id="XMLID_120_">
					<path id="XMLID_127_" class="st6" d="M66.6,587.3v64.4c0,18.4,14.9,33.3,33.3,33.3h795.5c18.4,0,33.3-14.9,33.3-33.3v-82.3
						c0-18.4-14.9-33.3-33.3-33.3H124.2C87,536.2,66.6,541.1,66.6,587.3z"/>
					<circle id="XMLID_126_" class="st7" cx="83.8" cy="547.8" r="27.9"/>
					<circle id="XMLID_125_" class="st8" cx="83.8" cy="547.8" r="23.5"/>
					<g id="XMLID_121_">
						<path id="XMLID_122_" class="st0" d="M81.3,540.3c0.9,1.4,1.4,3.2,1.4,5.3c0,2.7-0.7,5.1-2,7.2c-1.4,2.1-3.4,3.9-6.2,5.1
							l-0.7-1.4c1.7-0.7,3.1-1.8,4.3-3.3c1.2-1.5,1.8-3,1.8-4.6c0-0.6-0.1-1.2-0.2-1.7c-0.9,0.7-1.8,1-3,1c-1.4,0-2.7-0.5-3.7-1.4
							c-1-0.9-1.5-2.2-1.5-3.7c0-1.4,0.5-2.7,1.5-3.7c1-1,2.2-1.5,3.7-1.5C78.6,537.7,80.2,538.5,81.3,540.3z M94.9,540.3
							c0.9,1.4,1.4,3.2,1.4,5.3c0,2.7-0.7,5.1-2,7.2c-1.4,2.1-3.4,3.9-6.2,5.1l-0.7-1.4c1.7-0.7,3.1-1.8,4.3-3.3
							c1.2-1.5,1.8-3,1.8-4.6c0-0.6-0.1-1.2-0.2-1.7c-0.9,0.7-1.8,1-3,1c-1.4,0-2.7-0.5-3.7-1.4c-1-0.9-1.5-2.2-1.5-3.7
							c0-1.4,0.5-2.7,1.5-3.7c1-1,2.2-1.5,3.7-1.5C92.3,537.7,93.9,538.5,94.9,540.3z"/>
					</g>
				</g>
			</g>
			<g id="XMLID_115_">
				<text id="XMLID_48_" transform="matrix(1 0 0 1 140.196 575.6185)"><tspan x="0" y="0" class="st9 st10 st11">Your family has been in my thoughts every day, and I want you to know </tspan><tspan x="0" y="24" class="st9 st10 st11">you have my sincere condolences.</tspan></text>
			</g>
			<g id="XMLID_22_">
				<text id="XMLID_50_" transform="matrix(1 0 0 1 140.196 643.9925)" class="st1 st2 st12">Jasmine Schutt</text>
			</g>
			<g id="XMLID_17_">
				<text id="XMLID_51_" transform="matrix(1 0 0 1 140.196 661.6976)" class="st13 st14 st15">4653 Hazelwood Avenue, West Des Moines, IA 50266</text>
			</g>
			<path id="XMLID_16_" class="st16" d="M904.5,626.5c0,15.5-15.3,28.2-34.1,28.2H621.9v2.2h248.5c20.3,0,36.9-13.6,36.9-30.4v-59.7
				h-2.8V626.5z"/>
		</g>
	</g>
</g>
</svg>
