<?xml version="1.0" encoding="utf-8"?>
<!-- Generator: Adobe Illustrator 19.0.0, SVG Export Plug-In . SVG Version: 6.00 Build 0)  -->
<svg version="1.1" id="Layer_1" xmlns="http://www.w3.org/2000/svg" xmlns:xlink="http://www.w3.org/1999/xlink" x="0px" y="0px"
	 viewBox="0 0 1000 1000" style="enable-background:new 0 0 1000 1000;" xml:space="preserve">
<style type="text/css">
	.st0{fill:#FFFFFF;}
	.st1{fill:#6B9953;}
	.st2{font-family:'PlayfairDisplay-Regular';}
	.st3{font-size:16px;}
	.st4{fill:#EBEBE9;}
	.st5{fill:#A7D59C;}
	.st6{fill:none;stroke:#FFFFFF;stroke-width:2;stroke-miterlimit:10;}
	.st7{fill:#282C2E;}
	.st8{font-family:'Gilroy-SemiBold';}
	.st9{font-size:20px;}
	.st10{font-family:'Gilroy-Black';}
	.st11{font-size:22px;}
	.st12{fill:#94C384;}
	.st13{font-family:'Gilroy-Medium';}
	.st14{font-size:15px;}
	.st15{fill:#A7D59C;stroke:#A7D59C;stroke-width:4;stroke-miterlimit:10;}
	.st16{letter-spacing:-1;}
</style>
<g>
	<rect id="XMLID_47_" x="-0.5" class="st0" width="1001" height="1000"/>
	<rect id="XMLID_46_" x="917" class="st1" width="83.5" height="59.5"/>
	<g>
		<g>
			<g>
				<text id="XMLID_45_" transform="matrix(1 0 0 1 127.1037 371.3094)" class="st2 st3">  </text>
				<g>
					<path id="XMLID_43_" class="st4" d="M82,354.4l0,106.4c0,18.4,14.9,33.3,33.3,33.3h795.5c18.4,0,33.3-14.9,33.3-33.3V336.6
						c0-18.4-14.9-33.3-33.3-33.3H139.6C89.2,303.3,82,323.9,82,354.4z"/>
					<circle id="XMLID_41_" class="st5" cx="99.2" cy="315" r="27.9"/>
					<circle id="XMLID_40_" class="st6" cx="99.2" cy="315" r="23.5"/>
					<g>
						<path class="st0" d="M96.6,307.4c0.9,1.4,1.4,3.2,1.4,5.3c0,2.7-0.7,5.1-2,7.2c-1.4,2.1-3.4,3.9-6.2,5.1l-0.7-1.4
							c1.7-0.7,3.1-1.8,4.3-3.3c1.2-1.5,1.8-3,1.8-4.6c0-0.6-0.1-1.2-0.2-1.7c-0.9,0.7-1.8,1-3,1c-1.4,0-2.7-0.5-3.7-1.4
							c-1-0.9-1.5-2.2-1.5-3.7c0-1.4,0.5-2.7,1.5-3.7c1-1,2.2-1.5,3.7-1.5C94,304.8,95.6,305.7,96.6,307.4z M110.3,307.4
							c0.9,1.4,1.4,3.2,1.4,5.3c0,2.7-0.7,5.1-2,7.2c-1.4,2.1-3.4,3.9-6.2,5.1l-0.7-1.4c1.7-0.7,3.1-1.8,4.3-3.3
							c1.2-1.5,1.8-3,1.8-4.6c0-0.6-0.1-1.2-0.2-1.7c-0.9,0.7-1.8,1-3,1c-1.4,0-2.7-0.5-3.7-1.4c-1-0.9-1.5-2.2-1.5-3.7
							c0-1.4,0.5-2.7,1.5-3.7c1-1,2.2-1.5,3.7-1.5C107.6,304.8,109.2,305.7,110.3,307.4z"/>
					</g>
				</g>
			</g>
			<g id="XMLID_37_">
				<text id="XMLID_78_" transform="matrix(1 0 0 1 147.1631 346.9515)" class="st7 st8 st9">Ella, wherever you are now, I hope you can still feel how much I love and miss you.</text>
			</g>
			<g id="XMLID_36_">
				<text id="XMLID_76_" transform="matrix(1 0 0 1 147.1631 382.4339)"><tspan x="0" y="0" class="st7 st8 st9">You can address your condolence book message directly to the deceased </tspan><tspan x="0" y="24" class="st7 st8 st9">as a way to communicate your love for them. </tspan></text>
			</g>
			<g id="XMLID_35_">
				<text id="XMLID_74_" transform="matrix(1 0 0 1 147.1631 444.3939)" class="st1 st10 st11">David S. Haynes</text>
			</g>
			<g id="XMLID_34_">
				<text id="XMLID_72_" transform="matrix(1 0 0 1 147.1631 462.3685)" class="st12 st13 st14">4266 Hood Avenue, San Diego, CA 92121</text>
			</g>
			<path id="XMLID_33_" class="st15" d="M919.1,438c0,15.5-15.3,28.2-34.1,28.2H636.5v2.2H885c20.3,0,36.9-13.6,36.9-30.4v-89.7
				h-2.8V438z"/>
		</g>
		<g>
			<path id="XMLID_32_" class="st4" d="M82,148.4l0,95.4c0,18.4,14.9,33.3,33.3,33.3h795.5c18.4,0,33.3-14.9,33.3-33.3V130.5
				c0-18.4-14.9-33.3-33.3-33.3H139.6C93.6,97.1,82,91,82,148.4z"/>
			<g>
				<circle id="XMLID_31_" class="st5" cx="99.2" cy="108.9" r="27.9"/>
				<circle id="XMLID_30_" class="st6" cx="99.2" cy="108.9" r="23.5"/>
				<g>
					<path class="st0" d="M96.6,101.4c0.9,1.4,1.4,3.2,1.4,5.3c0,2.7-0.7,5.1-2,7.2c-1.4,2.1-3.4,3.9-6.2,5.1l-0.7-1.4
						c1.7-0.7,3.1-1.8,4.3-3.3c1.2-1.5,1.8-3,1.8-4.6c0-0.6-0.1-1.2-0.2-1.7c-0.9,0.7-1.8,1-3,1c-1.4,0-2.7-0.5-3.7-1.4
						c-1-0.9-1.5-2.2-1.5-3.7c0-1.4,0.5-2.7,1.5-3.7c1-1,2.2-1.5,3.7-1.5C94,98.8,95.6,99.7,96.6,101.4z M110.3,101.4
						c0.9,1.4,1.4,3.2,1.4,5.3c0,2.7-0.7,5.1-2,7.2c-1.4,2.1-3.4,3.9-6.2,5.1l-0.7-1.4c1.7-0.7,3.1-1.8,4.3-3.3
						c1.2-1.5,1.8-3,1.8-4.6c0-0.6-0.1-1.2-0.2-1.7c-0.9,0.7-1.8,1-3,1c-1.4,0-2.7-0.5-3.7-1.4c-1-0.9-1.5-2.2-1.5-3.7
						c0-1.4,0.5-2.7,1.5-3.7c1-1,2.2-1.5,3.7-1.5C107.6,98.8,109.2,99.7,110.3,101.4z"/>
				</g>
			</g>
			<text id="XMLID_27_" transform="matrix(1 0 0 1 147.1633 138.0159)"><tspan x="0" y="0" class="st7 st8 st9">J</tspan><tspan x="10.9" y="0" class="st7 st8 st9">en</tspan><tspan x="34" y="0" class="st7 st8 st9">n</tspan><tspan x="45.3" y="0" class="st7 st8 st9">y</tspan><tspan x="55.1" y="0" class="st7 st8 st9"> </tspan><tspan x="59.2" y="0" class="st7 st8 st9">had</tspan><tspan x="95.9" y="0" class="st7 st8 st9"> </tspan><tspan x="100.5" y="0" class="st7 st8 st9">a</tspan><tspan x="112.9" y="0" class="st7 st8 st9"> </tspan><tspan x="117.5" y="0" class="st7 st8 st9">beautiful</tspan><tspan x="200.7" y="0" class="st7 st8 st9"> </tspan><tspan x="205.3" y="0" class="st7 st8 st9">soul,</tspan><tspan x="247.9" y="0" class="st7 st8 st9"> </tspan><tspan x="252.6" y="0" class="st7 st8 st9">and</tspan><tspan x="289.2" y="0" class="st7 st8 st9"> </tspan><tspan x="293.8" y="0" class="st7 st8 st9">sh</tspan><tspan x="314.5" y="0" class="st7 st8 st9">e</tspan><tspan x="325.9" y="0" class="st7 st8 st9">’ll</tspan><tspan x="340.5" y="0" class="st7 st8 st9"> </tspan><tspan x="345.1" y="0" class="st7 st8 st9">be</tspan><tspan x="369.4" y="0" class="st7 st8 st9"> </tspan><tspan x="373.5" y="0" class="st7 st8 st9">with</tspan><tspan x="412.7" y="0" class="st7 st8 st9"> </tspan><tspan x="417.3" y="0" class="st7 st8 st9">me</tspan><tspan x="446" y="0" class="st7 st8 st9"> </tspan><tspan x="450.6" y="0" class="st7 st8 st9">e</tspan><tspan x="462.2" y="0" class="st7 st8 st9">v</tspan><tspan x="472.5" y="0" class="st7 st8 st9">er</tspan><tspan x="491" y="0" class="st7 st8 st9">y</tspan><tspan x="500.9" y="0" class="st7 st8 st9"> </tspan><tspan x="505.6" y="0" class="st7 st8 st9">d</tspan><tspan x="518.2" y="0" class="st7 st8 st9">a</tspan><tspan x="530.7" y="0" class="st7 st8 st9">y</tspan><tspan x="540.6" y="0" class="st7 st8 st9"> </tspan><tspan x="545.2" y="0" class="st7 st8 st9">of</tspan><tspan x="563.7" y="0" class="st7 st8 st9"> </tspan><tspan x="568.3" y="0" class="st7 st8 st9">m</tspan><tspan x="585.2" y="0" class="st7 st8 st9">y</tspan><tspan x="595.1" y="0" class="st7 st8 st9"> </tspan><tspan x="599.2" y="0" class="st7 st8 st9">li</tspan><tspan x="608.5" y="0" class="st7 st8 st9">f</tspan><tspan x="614.7" y="0" class="st7 st8 st9">e.</tspan><tspan x="631.4" y="0" class="st7 st8 st9"> </tspan><tspan x="0" y="24" class="st7 st8 st9">P</tspan><tspan x="11.6" y="24" class="st7 st8 st9">l</tspan><tspan x="16.1" y="24" class="st7 st8 st9">ease</tspan><tspan x="61.2" y="24" class="st7 st8 st9"> </tspan><tspan x="65.9" y="24" class="st7 st8 st9">accep</tspan><tspan x="124.4" y="24" class="st7 st8 st9">t</tspan><tspan x="131.7" y="24" class="st7 st8 st9"> </tspan><tspan x="136.3" y="24" class="st7 st8 st9">m</tspan><tspan x="153.2" y="24" class="st7 st8 st9">y</tspan><tspan x="163.1" y="24" class="st7 st8 st9"> </tspan><tspan x="167.7" y="24" class="st7 st8 st9">since</tspan><tspan x="215.5" y="24" class="st7 st8 st9">r</tspan><tspan x="222" y="24" class="st7 st8 st9">es</tspan><tspan x="242.8" y="24" class="st7 st8 st9">t</tspan><tspan x="250.1" y="24" class="st7 st8 st9"> </tspan><tspan x="254.8" y="24" class="st7 st8 st9">cond</tspan><tspan x="301.6" y="24" class="st7 st8 st9">ol</tspan><tspan x="317.9" y="24" class="st7 st8 st9">ences </tspan><tspan x="377.6" y="24" class="st7 st8 st9">f</tspan><tspan x="383.8" y="24" class="st7 st8 st9">o</tspan><tspan x="395.8" y="24" class="st7 st8 st9">r</tspan><tspan x="402.2" y="24" class="st7 st8 st9"> </tspan><tspan x="406.7" y="24" class="st7 st8 st9">y</tspan><tspan x="416.9" y="24" class="st7 st8 st9">ou</tspan><tspan x="440.3" y="24" class="st7 st8 st9">r</tspan><tspan x="446.7" y="24" class="st7 st8 st9"> </tspan><tspan x="451.1" y="24" class="st7 st8 st9">l</tspan><tspan x="455.6" y="24" class="st7 st8 st9">oss. </tspan></text>
			<text id="XMLID_26_" transform="matrix(1 0 0 1 147.1631 194.5891)"><tspan x="0" y="0" class="st7 st8 st9 st16">Y</tspan><tspan x="10.9" y="0" class="st7 st8 st9">ou</tspan><tspan x="34.3" y="0" class="st7 st8 st9">r</tspan><tspan x="40.8" y="0" class="st7 st8 st9"> friend</tspan><tspan x="99.4" y="0" class="st7 st8 st9">’</tspan><tspan x="104.5" y="0" class="st7 st8 st9">s famil</tspan><tspan x="164.1" y="0" class="st7 st8 st9">y</tspan><tspan x="174" y="0" class="st7 st8 st9"> be com</tspan><tspan x="248.1" y="0" class="st7 st8 st9">f</tspan><tspan x="254.3" y="0" class="st7 st8 st9">orted</tspan><tspan x="305" y="0" class="st7 st8 st9"> </tspan><tspan x="309.7" y="0" class="st7 st8 st9">to</tspan><tspan x="329.3" y="0" class="st7 st8 st9"> </tspan><tspan x="333.7" y="0" class="st7 st8 st9">kn</tspan><tspan x="355.4" y="0" class="st7 st8 st9">o</tspan><tspan x="367.3" y="0" class="st7 st8 st9">w</tspan><tspan x="382.2" y="0" class="st7 st8 st9"> </tspan><tspan x="386.9" y="0" class="st7 st8 st9">tha</tspan><tspan x="418.6" y="0" class="st7 st8 st9">t</tspan><tspan x="425.9" y="0" class="st7 st8 st9"> </tspan><tspan x="430.3" y="0" class="st7 st8 st9">he</tspan><tspan x="453.3" y="0" class="st7 st8 st9">r</tspan><tspan x="459.8" y="0" class="st7 st8 st9"> spiri</tspan><tspan x="502.8" y="0" class="st7 st8 st9">t</tspan><tspan x="510.1" y="0" class="st7 st8 st9"> </tspan><tspan x="514.5" y="0" class="st7 st8 st9">li</tspan><tspan x="523.8" y="0" class="st7 st8 st9">v</tspan><tspan x="534.1" y="0" class="st7 st8 st9">es on in</tspan><tspan x="604.5" y="0" class="st7 st8 st9"> </tspan><tspan x="609" y="0" class="st7 st8 st9">y</tspan><tspan x="619.2" y="0" class="st7 st8 st9">ou</tspan><tspan x="642.6" y="0" class="st7 st8 st9">r</tspan><tspan x="649" y="0" class="st7 st8 st9"> memor</tspan><tspan x="718.5" y="0" class="st7 st8 st9">y</tspan><tspan x="728" y="0" class="st7 st8 st9">.</tspan></text>
			<g id="XMLID_25_">
				<text id="XMLID_70_" transform="matrix(1 0 0 1 147.1633 229.4886)" class="st1 st10 st11">Janet C. Young</text>
			</g>
			<g id="XMLID_24_">
				<text id="XMLID_68_" transform="matrix(1 0 0 1 147.1633 249.2211)" class="st12 st13 st14">1425 Red Bud Lane, Tampa, FL 33610</text>
			</g>
			<path id="XMLID_23_" class="st15" d="M919.1,221.5c0,15.5-15.3,28.2-34.1,28.2H636.5v2.2H885c20.3,0,36.9-13.6,36.9-30.4v-89.7
				h-2.8V221.5z"/>
		</g>
		<g>
			<g>
				<text id="XMLID_22_" transform="matrix(1 0 0 1 127.1037 588.353)" class="st2 st3">  </text>
				<g>
					<path id="XMLID_21_" class="st4" d="M82,571.5l0,133.4c0,18.4,14.9,33.3,33.3,33.3h795.5c18.4,0,33.3-14.9,33.3-33.3V553.6
						c0-18.4-14.9-33.3-33.3-33.3H139.6C99.2,519.8,82,518.3,82,571.5z"/>
					<circle id="XMLID_20_" class="st5" cx="99.2" cy="532" r="27.9"/>
					<circle id="XMLID_19_" class="st6" cx="99.2" cy="532" r="23.5"/>
					<g>
						<path class="st0" d="M96.6,524.5c0.9,1.4,1.4,3.2,1.4,5.3c0,2.7-0.7,5.1-2,7.2c-1.4,2.1-3.4,3.9-6.2,5.1l-0.7-1.4
							c1.7-0.7,3.1-1.8,4.3-3.3c1.2-1.5,1.8-3,1.8-4.6c0-0.6-0.1-1.2-0.2-1.7c-0.9,0.7-1.8,1-3,1c-1.4,0-2.7-0.5-3.7-1.4
							c-1-0.9-1.5-2.2-1.5-3.7c0-1.4,0.5-2.7,1.5-3.7c1-1,2.2-1.5,3.7-1.5C94,521.9,95.6,522.7,96.6,524.5z M110.3,524.5
							c0.9,1.4,1.4,3.2,1.4,5.3c0,2.7-0.7,5.1-2,7.2c-1.4,2.1-3.4,3.9-6.2,5.1l-0.7-1.4c1.7-0.7,3.1-1.8,4.3-3.3
							c1.2-1.5,1.8-3,1.8-4.6c0-0.6-0.1-1.2-0.2-1.7c-0.9,0.7-1.8,1-3,1c-1.4,0-2.7-0.5-3.7-1.4c-1-0.9-1.5-2.2-1.5-3.7
							c0-1.4,0.5-2.7,1.5-3.7c1-1,2.2-1.5,3.7-1.5C107.6,521.9,109.2,522.7,110.3,524.5z"/>
					</g>
				</g>
			</g>
			<g id="XMLID_15_">
				<text id="XMLID_75_" transform="matrix(1 0 0 1 147.1631 563.3215)"><tspan x="0" y="0" class="st7 st8 st9">From my short time spent with him, I could tell Dave was an amazing man. </tspan><tspan x="0" y="24" class="st7 st8 st9">Please accept my sincere condolences.</tspan></text>
			</g>
			<g id="XMLID_14_">
				<text id="XMLID_79_" transform="matrix(1 0 0 1 147.1631 623.9524)"><tspan x="0" y="0" class="st7 st8 st9">You might have spent a short time with the person, and you can express </tspan><tspan x="0" y="24" class="st7 st8 st9">how much those few moments meant  to you. </tspan></text>
			</g>
			<g id="XMLID_13_">
				<text id="XMLID_81_" transform="matrix(1 0 0 1 147.1631 689.7894)" class="st1 st10 st11">Finn Slater</text>
			</g>
			<g id="XMLID_12_">
				<text id="XMLID_83_" transform="matrix(1 0 0 1 147.1631 707.4974)" class="st12 st13 st14">3991 Beechwood Drive, Clarksville, MD 21029</text>
			</g>
			<path id="XMLID_11_" class="st15" d="M919.1,683.8c0,15.5-15.3,28.2-34.1,28.2H636.5v2.2H885c20.3,0,36.9-13.6,36.9-30.4V574.1
				h-2.8V683.8z"/>
		</g>
		<g>
			<path id="XMLID_10_" class="st4" d="M906.4,919H121.1c-20.8,0-37.7-16.9-37.7-37.7v-78.6c0-20.8,16.9-37.7,37.7-37.7h785.3
				c20.8,0,37.7,16.9,37.7,37.7v78.6C944.1,902.1,927.2,919,906.4,919z"/>
			<g id="XMLID_9_">
				<text id="XMLID_84_" transform="matrix(1 0 0 1 147.1634 801.0525)" class="st7 st8 st9">It was a joy working with Merideth, and everyone will miss her dearly. </text>
			</g>
			<g id="XMLID_8_">
				<text id="XMLID_85_" transform="matrix(1 0 0 1 147.1634 828.9988)"><tspan x="0" y="0" class="st7 st8 st9">You might phrase your condolence book message this way if the person </tspan><tspan x="0" y="24" class="st7 st8 st9">was your co-worker.</tspan></text>
			</g>
			<g id="XMLID_7_">
				<text id="XMLID_86_" transform="matrix(1 0 0 1 147.1634 883.4626)"><tspan x="0" y="0" class="st1 st10 st11">O</tspan><tspan x="17.2" y="0" class="st1 st10 st11">l</tspan><tspan x="22.9" y="0" class="st1 st10 st11">i</tspan><tspan x="28.6" y="0" class="st1 st10 st11">via </tspan><tspan x="65.1" y="0" class="st1 st10 st11">H</tspan><tspan x="79.6" y="0" class="st1 st10 st11">a</tspan><tspan x="93.1" y="0" class="st1 st10 st11">r</tspan><tspan x="101.2" y="0" class="st1 st10 st11">dy</tspan></text>
			</g>
			<g id="XMLID_6_">
				<text id="XMLID_87_" transform="matrix(1 0 0 1 147.1634 901.4851)" class="st12 st13 st14">1620 Wexford Way, Lexington, SC 29072 </text>
			</g>
			<path id="XMLID_5_" class="st15" d="M919,867.8c0,15.7-15.5,28.5-34.5,28.5H632.9v2.3h251.6c20.6,0,37.4-13.8,37.4-30.8v-77.6
				H919V867.8z"/>
			<g>
				<circle id="XMLID_4_" class="st5" cx="99.5" cy="776.4" r="28.3"/>
				<circle id="XMLID_3_" class="st6" cx="99.5" cy="776.4" r="23.8"/>
				<g>
					<path class="st0" d="M96.9,768.8c0.9,1.5,1.4,3.3,1.4,5.4c0,2.7-0.7,5.2-2.1,7.3c-1.4,2.2-3.5,3.9-6.3,5.2l-0.7-1.5
						c1.7-0.7,3.1-1.8,4.4-3.3c1.2-1.5,1.8-3.1,1.8-4.6c0-0.7-0.1-1.2-0.2-1.7c-0.9,0.7-1.9,1.1-3,1.1c-1.5,0-2.7-0.5-3.7-1.4
						c-1-0.9-1.5-2.2-1.5-3.8c0-1.5,0.5-2.7,1.5-3.7c1-1,2.2-1.5,3.7-1.5C94.3,766.1,95.9,767,96.9,768.8z M110.8,768.8
						c0.9,1.5,1.4,3.3,1.4,5.4c0,2.7-0.7,5.2-2.1,7.3c-1.4,2.2-3.5,3.9-6.3,5.2l-0.7-1.5c1.7-0.7,3.1-1.8,4.4-3.3
						c1.2-1.5,1.8-3.1,1.8-4.6c0-0.7-0.1-1.2-0.2-1.7c-0.9,0.7-1.9,1.1-3,1.1c-1.5,0-2.7-0.5-3.7-1.4c-1-0.9-1.5-2.2-1.5-3.8
						c0-1.5,0.5-2.7,1.5-3.7c1-1,2.2-1.5,3.7-1.5C108.1,766.1,109.7,767,110.8,768.8z"/>
				</g>
			</g>
		</g>
	</g>
</g>
</svg>
