<?xml version="1.0" encoding="utf-8"?>
<!-- Generator: Adobe Illustrator 19.0.0, SVG Export Plug-In . SVG Version: 6.00 Build 0)  -->
<svg version="1.1" id="Layer_1" xmlns="http://www.w3.org/2000/svg" xmlns:xlink="http://www.w3.org/1999/xlink" x="0px" y="0px"
	 viewBox="0 0 1000 1000" style="enable-background:new 0 0 1000 1000;" xml:space="preserve">
<style type="text/css">
	.st0{fill:#FFFFFF;}
	.st1{fill:#6B9953;}
	.st2{font-family:'Gilroy-Black';}
	.st3{font-size:34.9094px;}
	.st4{fill:#EBEBE9;}
	.st5{fill:#2A2D31;}
	.st6{font-family:'Gilroy-SemiBold';}
	.st7{font-size:20px;}
	.st8{font-size:22px;}
	.st9{fill:#94C384;}
	.st10{font-family:'Gilroy-Regular';}
	.st11{font-size:15px;}
	.st12{fill:#A7D59C;}
	.st13{fill:none;stroke:#FFFFFF;stroke-width:2;stroke-miterlimit:10;}
	.st14{fill:#A7D59C;stroke:#A7D59C;stroke-width:4;stroke-miterlimit:10;}
	.st15{font-family:'PlayfairDisplay-Regular';}
	.st16{font-size:16px;}
	.st17{font-size:15.8026px;}
</style>
<g id="XMLID_14_">
	<rect id="XMLID_228_" x="-0.5" class="st0" width="1001" height="1000"/>
	<g id="XMLID_223_">
		<rect id="XMLID_225_" x="-0.5" class="st1" width="295.3" height="59.5"/>
		<text id="XMLID_224_" transform="matrix(1 0 0 1 14.1825 39.7519)" class="st0 st2 st3">O B I T U A R I E S</text>
	</g>
	<g id="XMLID_15_">
		<g id="XMLID_201_">
			<path id="XMLID_222_" class="st4" d="M904,534.8H126.4c-20.6,0-37.3-16.7-37.3-37.3V389.6c0-20.6,16.7-37.3,37.3-37.3H904
				c20.6,0,37.3,16.7,37.3,37.3v107.9C941.3,518.1,924.6,534.8,904,534.8z"/>
			<g id="XMLID_219_">
				<text id="XMLID_53_" transform="matrix(1 0 0 1 162.2483 385.343)"><tspan x="0" y="0" class="st5 st6 st7">Your family has been in my thoughts every day, and I want you to know </tspan><tspan x="0" y="24" class="st5 st6 st7">you have my sincere condolences.</tspan></text>
			</g>
			<g id="XMLID_216_">
				<text id="XMLID_51_" transform="matrix(1 0 0 1 162.2483 439.4612)"><tspan x="0" y="0" class="st5 st6 st7">You can briefly let the immediate family know that they’re always </tspan><tspan x="0" y="24" class="st5 st6 st7">in your thoughts.</tspan></text>
			</g>
			<g id="XMLID_213_">
				<text id="XMLID_49_" transform="matrix(1 0 0 1 162.2483 496.3596)" class="st1 st2 st8">Jasmine Schutt</text>
			</g>
			<g id="XMLID_210_">
				<text id="XMLID_47_" transform="matrix(1 0 0 1 162.2483 515.2083)" class="st9 st10 st11">4653 Hazelwood Avenue, West Des Moines, IA 50266</text>
			</g>
			<g id="XMLID_203_">
				<circle id="XMLID_209_" class="st12" cx="107.3" cy="359.6" r="28"/>
				<circle id="XMLID_208_" class="st13" cx="107.3" cy="359.6" r="23.6"/>
				<g id="XMLID_204_">
					<path id="XMLID_205_" class="st0" d="M104.7,352c0.9,1.5,1.4,3.2,1.4,5.3c0,2.7-0.7,5.1-2.1,7.3c-1.4,2.1-3.5,3.9-6.2,5.2
						l-0.7-1.5c1.7-0.7,3.1-1.8,4.3-3.3c1.2-1.5,1.8-3,1.8-4.6c0-0.6-0.1-1.2-0.2-1.7c-0.9,0.7-1.9,1-3,1c-1.5,0-2.7-0.5-3.7-1.4
						c-1-0.9-1.5-2.2-1.5-3.7c0-1.5,0.5-2.7,1.5-3.7c1-1,2.2-1.5,3.7-1.5C102,349.4,103.6,350.3,104.7,352z M118.4,352
						c0.9,1.5,1.4,3.2,1.4,5.3c0,2.7-0.7,5.1-2.1,7.3c-1.4,2.1-3.5,3.9-6.2,5.2l-0.7-1.5c1.7-0.7,3.1-1.8,4.3-3.3
						c1.2-1.5,1.8-3,1.8-4.6c0-0.6-0.1-1.2-0.2-1.7c-0.9,0.7-1.9,1-3,1c-1.5,0-2.7-0.5-3.7-1.4c-1-0.9-1.5-2.2-1.5-3.7
						c0-1.5,0.5-2.7,1.5-3.7c1-1,2.2-1.5,3.7-1.5C115.7,349.4,117.3,350.3,118.4,352z"/>
				</g>
			</g>
			<path id="XMLID_202_" class="st14" d="M910.5,475.1c0,15.6-15.3,28.2-34.2,28.2H627.2v2.2h249.2c20.4,0,37-13.7,37-30.5v-89.9
				h-2.8V475.1z"/>
		</g>
		<g id="XMLID_179_">
			<path id="XMLID_200_" class="st4" d="M901.8,321.6H126.2c-20.5,0-37.2-16.7-37.2-37.2V138.8c0-20.5,16.7-37.2,37.2-37.2h775.6
				c20.5,0,37.2,16.7,37.2,37.2v145.6C939,304.9,922.4,321.6,901.8,321.6z"/>
			<g id="XMLID_197_">
				<text id="XMLID_45_" transform="matrix(1 0 0 1 162.248 144.1039)"><tspan x="0" y="0" class="st5 st6 st7">I know Sebastian was a wonderful son and brother. And I want you to know how </tspan><tspan x="0" y="24" class="st5 st6 st7">wonderful he was as a friend, too. Thank you for raising such an amazing man. </tspan></text>
			</g>
			<g id="XMLID_194_">
				<text id="XMLID_43_" transform="matrix(1 0 0 1 162.248 204.0638)"><tspan x="0" y="0" class="st5 st6 st7">You have a unique viewpoint of the deceased as their friend. The family would </tspan><tspan x="0" y="24" class="st5 st6 st7">likely enjoy knowing how great a friend their brother, son, or husband was. </tspan></text>
			</g>
			<g id="XMLID_191_">
				<text id="XMLID_41_" transform="matrix(1 0 0 1 162.248 271.8627)" class="st1 st2 st8">George G. Fitzpatrick</text>
			</g>
			<g id="XMLID_188_">
				<text id="XMLID_39_" transform="matrix(1 0 0 1 162.2484 290.6625)" class="st9 st10 st11">2451 Ashwood Drive, Sioux City, IA 51101</text>
			</g>
			<g id="XMLID_181_">
				<circle id="XMLID_187_" class="st12" cx="107.2" cy="108.8" r="27.9"/>
				<circle id="XMLID_186_" class="st13" cx="107.2" cy="108.8" r="23.5"/>
				<g id="XMLID_182_">
					<path id="XMLID_183_" class="st0" d="M104.6,101.3c0.9,1.4,1.4,3.2,1.4,5.3c0,2.7-0.7,5.1-2,7.2c-1.4,2.1-3.4,3.9-6.2,5.1
						l-0.7-1.4c1.7-0.7,3.1-1.8,4.3-3.3c1.2-1.5,1.8-3,1.8-4.6c0-0.6-0.1-1.2-0.2-1.7c-0.9,0.7-1.8,1-3,1c-1.4,0-2.7-0.5-3.7-1.4
						c-1-0.9-1.5-2.2-1.5-3.7c0-1.4,0.5-2.7,1.5-3.7c1-1,2.2-1.5,3.7-1.5C102,98.7,103.6,99.5,104.6,101.3z M118.3,101.3
						c0.9,1.4,1.4,3.2,1.4,5.3c0,2.7-0.7,5.1-2,7.2c-1.4,2.1-3.4,3.9-6.2,5.1l-0.7-1.4c1.7-0.7,3.1-1.8,4.3-3.3
						c1.2-1.5,1.8-3,1.8-4.6c0-0.6-0.1-1.2-0.2-1.7c-0.9,0.7-1.8,1-3,1c-1.4,0-2.7-0.5-3.7-1.4c-1-0.9-1.5-2.2-1.5-3.7
						c0-1.4,0.5-2.7,1.5-3.7c1-1,2.2-1.5,3.7-1.5C115.6,98.7,117.2,99.5,118.3,101.3z"/>
				</g>
			</g>
			<path id="XMLID_180_" class="st14" d="M910.5,262c0,15.5-15.3,28.2-34.1,28.2H627.9v2.2h248.5c20.3,0,36.9-13.6,36.9-30.4V152.3
				h-2.8V262z"/>
		</g>
		<g id="XMLID_151_">
			<path id="XMLID_178_" class="st4" d="M904,919.1H126.4c-20.6,0-37.3-16.7-37.3-37.3V775.9c0-20.6,16.7-37.3,37.3-37.3H904
				c20.6,0,37.3,16.7,37.3,37.3v105.9C941.3,902.4,924.6,919.1,904,919.1z"/>
			<g id="XMLID_175_">
				<text id="XMLID_37_" transform="matrix(1 0 0 1 162.2483 774.5877)" class="st5 st6 st7">I was so sorry to hear that lucy died…</text>
			</g>
			<g id="XMLID_172_">
				<text id="XMLID_35_" transform="matrix(1 0 0 1 162.2483 794.2928)" class="st5 st6 st7">I can’t ﬁnd the words to say how sorry I am, and how much Lucy will be missed…</text>
			</g>
			<g id="XMLID_169_">
				<text id="XMLID_33_" transform="matrix(1 0 0 1 162.2483 813.9979)" class="st5 st6 st7">Liz, Tom, lucy – my heart goes out to you. I am so sorry…</text>
			</g>
			<g id="XMLID_166_">
				<text id="XMLID_31_" transform="matrix(1 0 0 1 162.2483 833.7029)" class="st5 st6 st7">lucy was such a kind and generous man…</text>
			</g>
			<g id="XMLID_163_">
				<text id="XMLID_29_" transform="matrix(1 0 0 1 162.2484 877.6175)" class="st1 st2 st8">Pearl C. Ross</text>
			</g>
			<g id="XMLID_160_">
				<text id="XMLID_26_" transform="matrix(1 0 0 1 162.2483 896.4666)" class="st9 st10 st11">253 Hidden Meadow Drive, Minot Air Force Base, ND 58701</text>
			</g>
			<g id="XMLID_153_">
				<circle id="XMLID_159_" class="st12" cx="107.3" cy="745.8" r="28"/>
				<circle id="XMLID_158_" class="st13" cx="107.3" cy="745.8" r="23.6"/>
				<g id="XMLID_154_">
					<path id="XMLID_155_" class="st0" d="M104.7,738.2c0.9,1.5,1.4,3.2,1.4,5.3c0,2.7-0.7,5.1-2.1,7.3c-1.4,2.1-3.5,3.9-6.2,5.2
						l-0.7-1.5c1.7-0.7,3.1-1.8,4.3-3.3c1.2-1.5,1.8-3,1.8-4.6c0-0.6-0.1-1.2-0.2-1.7c-0.9,0.7-1.9,1-3,1c-1.5,0-2.7-0.5-3.7-1.4
						c-1-0.9-1.5-2.2-1.5-3.7c0-1.5,0.5-2.7,1.5-3.7c1-1,2.2-1.5,3.7-1.5C102,735.6,103.6,736.5,104.7,738.2z M118.4,738.2
						c0.9,1.5,1.4,3.2,1.4,5.3c0,2.7-0.7,5.1-2.1,7.3c-1.4,2.1-3.5,3.9-6.2,5.2l-0.7-1.5c1.7-0.7,3.1-1.8,4.3-3.3
						c1.2-1.5,1.8-3,1.8-4.6c0-0.6-0.1-1.2-0.2-1.7c-0.9,0.7-1.9,1-3,1c-1.5,0-2.7-0.5-3.7-1.4c-1-0.9-1.5-2.2-1.5-3.7
						c0-1.5,0.5-2.7,1.5-3.7c1-1,2.2-1.5,3.7-1.5C115.7,735.6,117.3,736.5,118.4,738.2z"/>
				</g>
			</g>
			<path id="XMLID_152_" class="st14" d="M910.5,863.4c0,15.6-15.3,28.2-34.2,28.2H627.2v2.2h249.2c20.4,0,37-13.7,37-30.5v-89.9
				h-2.8V863.4z"/>
		</g>
		<g id="XMLID_17_">
			<text id="XMLID_150_" transform="matrix(1 0 0 1 132.5443 649.0498)" class="st15 st16"> </text>
			<g id="XMLID_140_">
				<text id="XMLID_149_" transform="matrix(1 0 0 1 134.4247 628.0272)" class="st15 st17">  </text>
				<g id="XMLID_141_">
					<path id="XMLID_148_" class="st4" d="M89.9,611.3l0,63.6c0,18.1,14.7,32.8,32.8,32.8h785.7c18.1,0,32.8-14.7,32.8-32.8v-81.2
						c0-18.1-14.7-32.8-32.8-32.8H146.8C112,560.9,90,563.7,89.9,611.3z"/>
					<circle id="XMLID_147_" class="st12" cx="106.9" cy="572.4" r="27.6"/>
					<circle id="XMLID_146_" class="st13" cx="106.9" cy="572.4" r="23.3"/>
					<g id="XMLID_142_">
						<path id="XMLID_143_" class="st0" d="M104.3,564.9c0.9,1.4,1.3,3.2,1.3,5.2c0,2.6-0.7,5-2,7.1c-1.3,2.1-3.4,3.8-6.2,5.1
							l-0.7-1.4c1.6-0.7,3.1-1.8,4.2-3.3c1.2-1.5,1.8-3,1.8-4.5c0-0.6-0.1-1.2-0.2-1.7c-0.8,0.7-1.8,1-2.9,1c-1.4,0-2.6-0.5-3.6-1.4
							c-1-0.9-1.5-2.2-1.5-3.7c0-1.4,0.5-2.6,1.5-3.6c1-1,2.2-1.5,3.6-1.5C101.7,562.4,103.3,563.2,104.3,564.9z M117.8,564.9
							c0.9,1.4,1.3,3.2,1.3,5.2c0,2.6-0.7,5-2,7.1c-1.3,2.1-3.4,3.8-6.2,5.1l-0.7-1.4c1.6-0.7,3.1-1.8,4.2-3.3
							c1.2-1.5,1.8-3,1.8-4.5c0-0.6-0.1-1.2-0.2-1.7c-0.8,0.7-1.8,1-2.9,1c-1.4,0-2.6-0.5-3.6-1.4c-1-0.9-1.5-2.2-1.5-3.7
							c0-1.4,0.5-2.6,1.5-3.6c1-1,2.2-1.5,3.6-1.5C115.2,562.4,116.8,563.2,117.8,564.9z"/>
					</g>
				</g>
			</g>
			<g id="XMLID_136_">
				<text id="XMLID_52_" transform="matrix(1 0 0 1 162.2484 599.5176)"><tspan x="0" y="0" class="st5 st6 st7">Your family has been in my thoughts every day, and I want you to know </tspan><tspan x="0" y="24" class="st5 st6 st7">you have my sincere condolences.</tspan></text>
			</g>
			<g id="XMLID_28_">
				<text id="XMLID_54_" transform="matrix(1 0 0 1 162.2484 667.8916)" class="st1 st2 st8">Jasmine Schutt</text>
			</g>
			<g id="XMLID_20_">
				<text id="XMLID_55_" transform="matrix(1 0 0 1 162.2484 685.5967)" class="st9 st10 st11">4653 Hazelwood Avenue, West Des Moines, IA 50266</text>
			</g>
			<path id="XMLID_18_" class="st14" d="M910.5,650.4c0,15.5-15.3,28.2-34.1,28.2H627.9v2.2h248.5c20.3,0,36.9-13.6,36.9-30.4v-59.7
				h-2.8V650.4z"/>
		</g>
	</g>
</g>
</svg>
