<?xml version="1.0" encoding="utf-8"?>
<!-- Generator: Adobe Illustrator 19.0.0, SVG Export Plug-In . SVG Version: 6.00 Build 0)  -->
<svg version="1.1" id="Layer_1" xmlns="http://www.w3.org/2000/svg" xmlns:xlink="http://www.w3.org/1999/xlink" x="0px" y="0px"
	 viewBox="0 0 1000 1000" style="enable-background:new 0 0 1000 1000;" xml:space="preserve">
<style type="text/css">
	.st0{fill:#FFFFFF;}
	.st1{fill:#6B9953;}
	.st2{font-family:'Gilroy-Black';}
	.st3{font-size:34.9094px;}
	.st4{fill:#EBEBE9;}
	.st5{fill:#282C2F;}
	.st6{font-family:'Gilroy-SemiBold';}
	.st7{font-size:20px;}
	.st8{font-size:22px;}
	.st9{fill:#94C384;}
	.st10{font-family:'Gilroy-Regular';}
	.st11{font-size:15px;}
	.st12{fill:#A7D59C;stroke:#A7D59C;stroke-width:4;stroke-miterlimit:10;}
	.st13{fill:#A7D59C;}
	.st14{fill:none;stroke:#FFFFFF;stroke-width:2;stroke-miterlimit:10;}
	.st15{font-family:'PlayfairDisplay-Regular';}
	.st16{font-size:15.8026px;}
	.st17{fill:#282C2E;}
</style>
<g id="XMLID_33_">
	<rect id="XMLID_147_" x="-0.5" class="st0" width="1001" height="1000"/>
	<g id="XMLID_90_">
		<rect id="XMLID_146_" x="-0.5" class="st1" width="295.3" height="59.5"/>
		<text id="XMLID_145_" transform="matrix(1 0 0 1 14.1825 39.7519)" class="st0 st2 st3">O B I T U A R I E S</text>
		<g id="XMLID_91_">
			<g id="XMLID_215_">
				<path id="XMLID_144_" class="st4" d="M886.9,307.5H111.3c-20.5,0-37.2-16.7-37.2-37.2V149.7c0-20.5,16.7-37.2,37.2-37.2h775.6
					c20.5,0,37.2,16.7,37.2,37.2v120.6C924.1,290.8,907.4,307.5,886.9,307.5z"/>
				<g id="XMLID_143_">
					<text id="XMLID_52_" transform="matrix(1 0 0 1 145.303 148.8704)"><tspan x="0" y="0" class="st5 st6 st7">Please accept my condolences for your loss. I didn’t have the honor to know </tspan><tspan x="0" y="24" class="st5 st6 st7">Cynthia, but I can tell she was an incredible person. </tspan></text>
				</g>
				<g id="XMLID_142_">
					<text id="XMLID_50_" transform="matrix(1 0 0 1 145.303 204.1409)"><tspan x="0" y="0" class="st5 st6 st7">Consider letting the family know that you didn’t have the chance to know </tspan><tspan x="0" y="24" class="st5 st6 st7">the deceased, but that you think of them fondly.</tspan></text>
				</g>
				<g id="XMLID_141_">
					<text id="XMLID_48_" transform="matrix(1 0 0 1 145.4129 263.2327)" class="st1 st2 st8">Ava J. James</text>
				</g>
				<g id="XMLID_140_">
					<text id="XMLID_46_" transform="matrix(1 0 0 1 145.303 281.0325)" class="st9 st10 st11">4587 Spirit Drive, Hastings, FL 32145</text>
				</g>
				<path id="XMLID_139_" class="st12" d="M899.1,251.9c0,15.5-15.3,28.2-34.1,28.2H616.5v2.2H865c20.3,0,36.9-13.6,36.9-30.4v-89.7
					h-2.8V251.9z"/>
				<g id="XMLID_216_">
					<circle id="XMLID_138_" class="st13" cx="90" cy="120.1" r="27.9"/>
					<circle id="XMLID_137_" class="st14" cx="90" cy="120.1" r="23.5"/>
					<g id="XMLID_217_">
						<path id="XMLID_218_" class="st0" d="M87.4,112.6c0.9,1.4,1.4,3.2,1.4,5.3c0,2.7-0.7,5.1-2,7.2c-1.4,2.1-3.4,3.9-6.2,5.1
							l-0.7-1.4c1.7-0.7,3.1-1.8,4.3-3.3c1.2-1.5,1.8-3,1.8-4.6c0-0.6-0.1-1.2-0.2-1.7c-0.9,0.7-1.8,1-3,1c-1.4,0-2.7-0.5-3.7-1.4
							c-1-0.9-1.5-2.2-1.5-3.7c0-1.4,0.5-2.7,1.5-3.7c1-1,2.2-1.5,3.7-1.5C84.8,110,86.3,110.8,87.4,112.6z M101.1,112.6
							c0.9,1.4,1.4,3.2,1.4,5.3c0,2.7-0.7,5.1-2,7.2c-1.4,2.1-3.4,3.9-6.2,5.1l-0.7-1.4c1.7-0.7,3.1-1.8,4.3-3.3
							c1.2-1.5,1.8-3,1.8-4.6c0-0.6-0.1-1.2-0.2-1.7c-0.9,0.7-1.8,1-3,1c-1.4,0-2.7-0.5-3.7-1.4c-1-0.9-1.5-2.2-1.5-3.7
							c0-1.4,0.5-2.7,1.5-3.7c1-1,2.2-1.5,3.7-1.5C98.4,110,100,110.8,101.1,112.6z"/>
					</g>
				</g>
			</g>
			<g id="XMLID_196_">
				<path id="XMLID_134_" class="st4" d="M886.3,907.8H109.6c-20.6,0-37.3-16.7-37.3-37.3v-63.7c0-20.6,16.7-37.3,37.3-37.3h776.8
					c20.6,0,37.3,16.7,37.3,37.3v63.7C923.6,891.1,906.9,907.8,886.3,907.8z"/>
				<g id="XMLID_133_">
					<text id="XMLID_44_" transform="matrix(1 0 0 1 145.7928 808.8351)"><tspan x="0" y="0" class="st5 st6 st7">I know he will be dearly missed, and I’m sorry I didn’t have the chance to </tspan><tspan x="0" y="24" class="st5 st6 st7">know him better. </tspan></text>
				</g>
				<g id="XMLID_132_">
					<text id="XMLID_42_" transform="matrix(1 0 0 1 145.7928 867.7648)" class="st1 st2 st8">Lisa R. Taylor</text>
				</g>
				<g id="XMLID_131_">
					<text id="XMLID_40_" transform="matrix(1 0 0 1 145.7928 889.0568)" class="st9 st10 st11">4567 Union Street, Seattle, WA 98106</text>
				</g>
				<path id="XMLID_130_" class="st12" d="M899.1,855.2c0,15.6-15.3,28.2-34.1,28.2H616.1v2.2H865c20.4,0,36.9-13.7,36.9-30.4v-59.8
					h-2.8V855.2z"/>
				<g id="XMLID_197_">
					<circle id="XMLID_129_" class="st13" cx="90.5" cy="780.7" r="27.9"/>
					<circle id="XMLID_128_" class="st14" cx="90.5" cy="780.7" r="23.6"/>
					<g id="XMLID_198_">
						<path id="XMLID_199_" class="st0" d="M87.9,773.2c0.9,1.4,1.4,3.2,1.4,5.3c0,2.7-0.7,5.1-2.1,7.2c-1.4,2.1-3.4,3.9-6.2,5.2
							l-0.7-1.4c1.7-0.7,3.1-1.8,4.3-3.3c1.2-1.5,1.8-3,1.8-4.6c0-0.6-0.1-1.2-0.2-1.7c-0.9,0.7-1.9,1-3,1c-1.4,0-2.7-0.5-3.7-1.4
							c-1-0.9-1.5-2.2-1.5-3.7c0-1.4,0.5-2.7,1.5-3.7c1-1,2.2-1.5,3.7-1.5C85.3,770.6,86.9,771.5,87.9,773.2z M101.6,773.2
							c0.9,1.4,1.4,3.2,1.4,5.3c0,2.7-0.7,5.1-2.1,7.2c-1.4,2.1-3.4,3.9-6.2,5.2l-0.7-1.4c1.7-0.7,3.1-1.8,4.3-3.3
							c1.2-1.5,1.8-3,1.8-4.6c0-0.6-0.1-1.2-0.2-1.7c-0.9,0.7-1.9,1-3,1c-1.4,0-2.7-0.5-3.7-1.4c-1-0.9-1.5-2.2-1.5-3.7
							c0-1.4,0.5-2.7,1.5-3.7c1-1,2.2-1.5,3.7-1.5C99,770.6,100.6,771.5,101.6,773.2z"/>
					</g>
				</g>
			</g>
			<g id="XMLID_176_">
				<text id="XMLID_125_" transform="matrix(1 0 0 1 117.2103 400.6852)" class="st15 st16">  </text>
				<g id="XMLID_187_">
					<path id="XMLID_124_" class="st4" d="M72.7,384v76.5c0,18.1,14.7,32.8,32.8,32.8h785.7c18.1,0,32.8-14.7,32.8-32.8v-94.1
						c0-18.1-14.7-32.8-32.8-32.8H129.5C93.1,333.5,72.7,340.3,72.7,384z"/>
					<circle id="XMLID_123_" class="st13" cx="89.6" cy="345" r="27.6"/>
					<circle id="XMLID_122_" class="st14" cx="89.6" cy="345" r="23.3"/>
					<g id="XMLID_188_">
						<path id="XMLID_189_" class="st0" d="M87.1,337.6c0.9,1.4,1.3,3.2,1.3,5.2c0,2.6-0.7,5-2,7.1c-1.3,2.1-3.4,3.8-6.2,5.1
							l-0.7-1.4c1.6-0.7,3.1-1.8,4.2-3.3c1.2-1.5,1.8-3,1.8-4.5c0-0.6-0.1-1.2-0.2-1.7c-0.8,0.7-1.8,1-2.9,1c-1.4,0-2.6-0.5-3.6-1.4
							c-1-0.9-1.5-2.2-1.5-3.7c0-1.4,0.5-2.6,1.5-3.6c1-1,2.2-1.5,3.6-1.5C84.5,335,86,335.9,87.1,337.6z M100.6,337.6
							c0.9,1.4,1.3,3.2,1.3,5.2c0,2.6-0.7,5-2,7.1c-1.3,2.1-3.4,3.8-6.2,5.1l-0.7-1.4c1.6-0.7,3.1-1.8,4.2-3.3
							c1.2-1.5,1.8-3,1.8-4.5c0-0.6-0.1-1.2-0.2-1.7c-0.8,0.7-1.8,1-2.9,1c-1.4,0-2.6-0.5-3.6-1.4c-1-0.9-1.5-2.2-1.5-3.7
							c0-1.4,0.5-2.6,1.5-3.6c1-1,2.2-1.5,3.6-1.5C98,335,99.5,335.9,100.6,337.6z"/>
					</g>
				</g>
				<g id="XMLID_119_">
					<text id="XMLID_38_" transform="matrix(1 0 0 1 154.1785 377.6501)"><tspan x="0" y="0" class="st17 st6 st7">Thank you for including me in mourning Greg’s loss. I know he was </tspan><tspan x="0" y="24" class="st17 st6 st7">a special person. </tspan></text>
				</g>
				<g id="XMLID_118_">
					<text id="XMLID_36_" transform="matrix(1 0 0 1 154.179 444.5793)" class="st1 st2 st8">Bailey Pocock</text>
				</g>
				<g id="XMLID_116_">
					<text id="XMLID_34_" transform="matrix(1 0 0 1 154.179 461.738)" class="st9 st10 st11">2180 Brooklyn Street, Portland, OR 97205</text>
				</g>
				<path id="XMLID_114_" class="st12" d="M899.1,438c0,15.3-15.1,27.8-33.7,27.8H620v2.2h245.4c20.1,0,36.4-13.5,36.4-30v-68.8
					h-2.8V438z"/>
			</g>
			<g id="XMLID_92_">
				<path id="XMLID_23_" class="st4" d="M886.9,742.8H111.3c-20.5,0-37.2-16.7-37.2-37.2V556c0-20.5,16.7-37.2,37.2-37.2h775.6
					c20.5,0,37.2,16.7,37.2,37.2v149.6C924.1,726.1,907.4,742.8,886.9,742.8z"/>
				<g id="XMLID_22_">
					<text id="XMLID_31_" transform="matrix(1 0 0 1 145.3029 566.353)"><tspan x="0" y="0" class="st5 st6 st7">I’m so saddened to know the hardship your family is going through, and </tspan><tspan x="0" y="24" class="st5 st6 st7">I want to offer my condolences and support.</tspan></text>
				</g>
				<g id="XMLID_20_">
					<text id="XMLID_51_" transform="matrix(1 0 0 1 145.303 621.7734)"><tspan x="0" y="0" class="st5 st6 st7">You might not have known the deceased very well, but you might still be </tspan><tspan x="0" y="24" class="st5 st6 st7">close to the family. If so, it’s a good idea to sincerely express </tspan><tspan x="0" y="48" class="st5 st6 st7">your sympathy and support to them.</tspan></text>
				</g>
				<g id="XMLID_109_">
					<circle id="XMLID_18_" class="st13" cx="90" cy="531.2" r="27.9"/>
					<circle id="XMLID_17_" class="st14" cx="90" cy="531.2" r="23.5"/>
					<g id="XMLID_163_">
						<path id="XMLID_164_" class="st0" d="M87.4,523.7c0.9,1.4,1.4,3.2,1.4,5.3c0,2.7-0.7,5.1-2,7.2c-1.4,2.1-3.4,3.9-6.2,5.1
							l-0.7-1.4c1.7-0.7,3.1-1.8,4.3-3.3c1.2-1.5,1.8-3,1.8-4.6c0-0.6-0.1-1.2-0.2-1.7c-0.9,0.7-1.8,1-3,1c-1.4,0-2.7-0.5-3.7-1.4
							c-1-0.9-1.5-2.2-1.5-3.7c0-1.4,0.5-2.7,1.5-3.7c1-1,2.2-1.5,3.7-1.5C84.8,521.1,86.3,522,87.4,523.7z M101.1,523.7
							c0.9,1.4,1.4,3.2,1.4,5.3c0,2.7-0.7,5.1-2,7.2c-1.4,2.1-3.4,3.9-6.2,5.1l-0.7-1.4c1.7-0.7,3.1-1.8,4.3-3.3
							c1.2-1.5,1.8-3,1.8-4.6c0-0.6-0.1-1.2-0.2-1.7c-0.9,0.7-1.8,1-3,1c-1.4,0-2.7-0.5-3.7-1.4c-1-0.9-1.5-2.2-1.5-3.7
							c0-1.4,0.5-2.7,1.5-3.7c1-1,2.2-1.5,3.7-1.5C98.4,521.1,100,522,101.1,523.7z"/>
					</g>
				</g>
				<g id="XMLID_14_">
					<text id="XMLID_53_" transform="matrix(1 0 0 1 145.303 706.5714)" class="st1 st2 st8">Richard T. Evans</text>
				</g>
				<g id="XMLID_13_">
					<text id="XMLID_54_" transform="matrix(1 0 0 1 145.303 724.3712)" class="st9 st10 st11">1386 Goosetown Drive, Charlotte, NC 28209</text>
				</g>
				<path id="XMLID_12_" class="st12" d="M899.1,689.2c0,15.5-15.3,28.2-34.1,28.2H616.5v2.2H865c20.3,0,36.9-13.6,36.9-30.4V559.5
					h-2.8V689.2z"/>
			</g>
		</g>
	</g>
</g>
</svg>
