<?xml version="1.0" encoding="utf-8"?>
<!-- Generator: Adobe Illustrator 19.0.0, SVG Export Plug-In . SVG Version: 6.00 Build 0)  -->
<svg version="1.1" id="Layer_1" xmlns="http://www.w3.org/2000/svg" xmlns:xlink="http://www.w3.org/1999/xlink" x="0px" y="0px"
	 viewBox="0 0 1000 1000" style="enable-background:new 0 0 1000 1000;" xml:space="preserve">
<style type="text/css">
	.st0{fill:#FFFFFF;}
	.st1{fill:#6B9953;}
	.st2{fill:#EBEBE9;}
	.st3{fill:#282C2E;}
	.st4{font-family:'Gilroy-SemiBold';}
	.st5{font-size:20px;}
	.st6{fill:#A7D59C;stroke:#A7D59C;stroke-width:4;stroke-miterlimit:10;}
	.st7{fill:#A7D59C;}
	.st8{fill:none;stroke:#FFFFFF;stroke-width:2;stroke-miterlimit:10;}
	.st9{font-family:'Gilroy-Black';}
	.st10{font-size:22px;}
	.st11{fill:#94C384;}
	.st12{font-family:'Gilroy-Regular';}
	.st13{font-size:15px;}
</style>
<rect id="XMLID_148_" x="-0.5" class="st0" width="1001" height="1000"/>
<rect id="XMLID_149_" x="-0.5" class="st0" width="1001" height="1000"/>
<g id="XMLID_1_">
	<rect id="XMLID_117_" x="917" class="st1" width="83.5" height="59.5"/>
	<g id="XMLID_59_">
		<g id="XMLID_230_">
			<path id="XMLID_115_" class="st2" d="M892.1,324H116.4c-20.5,0-37.2-16.7-37.2-37.2V130.3c0-20.5,16.7-37.2,37.2-37.2h775.7
				c20.5,0,37.2,16.7,37.2,37.2v156.5C929.3,307.4,912.6,324,892.1,324z"/>
			<g id="XMLID_113_">
				<text id="XMLID_50_" transform="matrix(1 0 0 1 157.3435 136.2633)"><tspan x="0" y="0" class="st3 st4 st5">It’s in moments like these that words fall short. But I hope you know how much love </tspan><tspan x="0" y="24" class="st3 st4 st5">I have in my heart for James, and that you’re in my thoughts. </tspan></text>
			</g>
			<g id="XMLID_112_">
				<text id="XMLID_48_" transform="matrix(1 0 0 1 157.3435 191.9371)"><tspan x="0" y="0" class="st3 st4 st5">When you’re at a loss for words, sometimes expressing that is the most honest </tspan><tspan x="0" y="24" class="st3 st4 st5">message you can give. But it’s still important to include </tspan><tspan x="0" y="48" class="st3 st4 st5">some brief words of support, too. </tspan></text>
			</g>
			<path id="XMLID_111_" class="st6" d="M899.3,266.1c0,15.4-15.2,28-33.9,28h-247v2.2h247c20.2,0,36.7-13.6,36.7-30.2V147h-2.8
				V266.1z"/>
			<g id="XMLID_237_">
				<circle id="XMLID_110_" class="st7" cx="95" cy="106.1" r="27.7"/>
				<circle id="XMLID_109_" class="st8" cx="95" cy="106.1" r="23.4"/>
				<g id="XMLID_238_">
					<path id="XMLID_239_" class="st0" d="M92.5,98.6c0.9,1.4,1.4,3.2,1.4,5.3c0,2.7-0.7,5.1-2,7.2c-1.4,2.1-3.4,3.8-6.2,5.1
						l-0.7-1.4c1.6-0.7,3.1-1.8,4.3-3.3c1.2-1.5,1.8-3,1.8-4.6c0-0.6-0.1-1.2-0.2-1.7c-0.9,0.7-1.8,1-3,1c-1.4,0-2.6-0.5-3.6-1.4
						c-1-0.9-1.5-2.2-1.5-3.7c0-1.4,0.5-2.6,1.5-3.6c1-1,2.2-1.5,3.6-1.5C89.8,96,91.4,96.9,92.5,98.6z M106.1,98.6
						c0.9,1.4,1.4,3.2,1.4,5.3c0,2.7-0.7,5.1-2,7.2c-1.4,2.1-3.4,3.8-6.2,5.1l-0.7-1.4c1.6-0.7,3.1-1.8,4.3-3.3
						c1.2-1.5,1.8-3,1.8-4.6c0-0.6-0.1-1.2-0.2-1.7c-0.9,0.7-1.8,1-3,1c-1.4,0-2.6-0.5-3.6-1.4c-1-0.9-1.5-2.2-1.5-3.7
						c0-1.4,0.5-2.6,1.5-3.6c1-1,2.2-1.5,3.6-1.5C103.4,96,105,96.9,106.1,98.6z"/>
				</g>
			</g>
			<g id="XMLID_106_">
				<text id="XMLID_46_" transform="matrix(1 0 0 1 157.3435 279.0348)" class="st1 st9 st10">Lisa R. Taylor</text>
			</g>
			<g id="XMLID_105_">
				<text id="XMLID_44_" transform="matrix(1 0 0 1 157.3435 296.7232)" class="st11 st12 st13">4567 Union Street, Seattle, WA 98106</text>
			</g>
		</g>
		<g id="XMLID_204_">
			<g id="XMLID_218_">
				<path id="XMLID_104_" class="st2" d="M77.9,400.5l0,76.5c0,18.1,14.7,32.8,32.8,32.8h785.7c18.1,0,32.8-14.7,32.8-32.8v-94.1
					c0-18.1-14.7-32.8-32.8-32.8H134.8C98.3,350.1,77.9,356.8,77.9,400.5z"/>
				<circle id="XMLID_103_" class="st7" cx="94.9" cy="361.6" r="27.6"/>
				<circle id="XMLID_102_" class="st8" cx="94.9" cy="361.6" r="23.3"/>
				<g id="XMLID_219_">
					<path id="XMLID_220_" class="st0" d="M92.3,354.1c0.9,1.4,1.3,3.2,1.3,5.2c0,2.6-0.7,5-2,7.1c-1.3,2.1-3.4,3.8-6.2,5.1
						l-0.7-1.4c1.6-0.7,3.1-1.8,4.2-3.3c1.2-1.5,1.8-3,1.8-4.5c0-0.6-0.1-1.2-0.2-1.7c-0.8,0.7-1.8,1-2.9,1c-1.4,0-2.6-0.5-3.6-1.4
						c-1-0.9-1.5-2.2-1.5-3.7c0-1.4,0.5-2.6,1.5-3.6c1-1,2.2-1.5,3.6-1.5C89.7,351.6,91.3,352.4,92.3,354.1z M105.8,354.1
						c0.9,1.4,1.3,3.2,1.3,5.2c0,2.6-0.7,5-2,7.1c-1.3,2.1-3.4,3.8-6.2,5.1l-0.7-1.4c1.6-0.7,3.1-1.8,4.2-3.3c1.2-1.5,1.8-3,1.8-4.5
						c0-0.6-0.1-1.2-0.2-1.7c-0.8,0.7-1.8,1-2.9,1c-1.4,0-2.6-0.5-3.6-1.4c-1-0.9-1.5-2.2-1.5-3.7c0-1.4,0.5-2.6,1.5-3.6
						c1-1,2.2-1.5,3.6-1.5C103.2,351.6,104.8,352.4,105.8,354.1z"/>
				</g>
			</g>
			<g id="XMLID_99_">
				<text id="XMLID_42_" transform="matrix(1 0 0 1 157.3441 394.1851)"><tspan x="0" y="0" class="st3 st4 st5">Thank you for including me in mourning Greg’s loss. I know he was </tspan><tspan x="0" y="24" class="st3 st4 st5">a special person. </tspan></text>
			</g>
			<g id="XMLID_98_">
				<text id="XMLID_40_" transform="matrix(1 0 0 1 157.3436 461.1143)" class="st1 st9 st10">Bailey Pocock</text>
			</g>
			<g id="XMLID_97_">
				<text id="XMLID_38_" transform="matrix(1 0 0 1 157.3436 478.273)" class="st11 st12 st13">2180 Brooklyn Street, Portland, OR 97205</text>
			</g>
			<path id="XMLID_96_" class="st6" d="M899.3,453.6c0,15.3-15.1,27.8-33.7,27.8H620.2v2.2h245.4c20.1,0,36.4-13.5,36.4-30v-68.8
				h-2.8V453.6z"/>
		</g>
		<g id="XMLID_178_">
			<path id="XMLID_95_" class="st2" d="M892,740.8H114.3c-20.6,0-37.3-16.7-37.3-37.3V577.6c0-20.6,16.7-37.3,37.3-37.3H892
				c20.6,0,37.3,16.7,37.3,37.3v125.9C929.3,724.1,912.6,740.8,892,740.8z"/>
			<g id="XMLID_94_">
				<text id="XMLID_36_" transform="matrix(1 0 0 1 157.344 582.9677)"><tspan x="0" y="0" class="st3 st4 st5">I wish I could have spent more time with Gary in his final years, but I’m honored to </tspan><tspan x="0" y="24" class="st3 st4 st5">have known him.</tspan></text>
			</g>
			<g id="XMLID_93_">
				<text id="XMLID_34_" transform="matrix(1 0 0 1 157.3441 636.9276)"><tspan x="0" y="0" class="st3 st4 st5">You can phrase your message this way if you (sincerely) loved the time you spent </tspan><tspan x="0" y="24" class="st3 st4 st5">with the person who passed away.</tspan></text>
			</g>
			<g id="XMLID_92_">
				<text id="XMLID_32_" transform="matrix(1 0 0 1 157.4535 696.7264)" class="st1 st9 st10">Ava J. James</text>
			</g>
			<g id="XMLID_91_">
				<text id="XMLID_30_" transform="matrix(1 0 0 1 157.3441 715.5262)" class="st11 st12 st13">4587 Spirit Drive, Hastings, FL 32145</text>
			</g>
			<g id="XMLID_180_">
				<circle id="XMLID_90_" class="st7" cx="95.2" cy="547.8" r="27.9"/>
				<circle id="XMLID_89_" class="st8" cx="95.2" cy="547.8" r="23.5"/>
				<g id="XMLID_181_">
					<path id="XMLID_182_" class="st0" d="M92.6,540.2c0.9,1.4,1.4,3.2,1.4,5.3c0,2.7-0.7,5.1-2,7.2c-1.4,2.1-3.4,3.9-6.2,5.1
						l-0.7-1.4c1.7-0.7,3.1-1.8,4.3-3.3c1.2-1.5,1.8-3,1.8-4.6c0-0.6-0.1-1.2-0.2-1.7c-0.9,0.7-1.8,1-3,1c-1.4,0-2.7-0.5-3.7-1.4
						c-1-0.9-1.5-2.2-1.5-3.7c0-1.4,0.5-2.7,1.5-3.7c1-1,2.2-1.5,3.7-1.5C90,537.6,91.6,538.5,92.6,540.2z M106.3,540.2
						c0.9,1.4,1.4,3.2,1.4,5.3c0,2.7-0.7,5.1-2,7.2c-1.4,2.1-3.4,3.9-6.2,5.1l-0.7-1.4c1.7-0.7,3.1-1.8,4.3-3.3
						c1.2-1.5,1.8-3,1.8-4.6c0-0.6-0.1-1.2-0.2-1.7c-0.9,0.7-1.8,1-3,1c-1.4,0-2.7-0.5-3.7-1.4c-1-0.9-1.5-2.2-1.5-3.7
						c0-1.4,0.5-2.7,1.5-3.7c1-1,2.2-1.5,3.7-1.5C103.6,537.6,105.2,538.5,106.3,540.2z"/>
				</g>
			</g>
			<path id="XMLID_52_" class="st6" d="M899.3,682c0,15.5-15.3,28.2-34.1,28.2H616.7v2.2h248.5c20.3,0,36.9-13.6,36.9-30.4v-89.7
				h-2.8V682z"/>
		</g>
		<g id="XMLID_60_">
			<path id="XMLID_11_" class="st2" d="M892,920.7H114.3C93.7,920.7,77,892,77,871.4v-62.8c0-20.6,16.7-37.3,37.3-37.3H892
				c20.6,0,37.3,16.7,37.3,37.3v74.8C929.3,904,912.6,920.7,892,920.7z"/>
			<g id="XMLID_9_">
				<text id="XMLID_49_" transform="matrix(1 0 0 1 157.3441 809.4717)"><tspan x="0" y="0" class="st3 st4 st5">Jenny had a beautiful soul, and she’ll be with me every day of my life. </tspan><tspan x="0" y="24" class="st3 st4 st5">Please accept my sincerest condolences for your loss. </tspan></text>
			</g>
			<g id="XMLID_8_">
				<text id="XMLID_51_" transform="matrix(1 0 0 1 157.3441 875.1492)" class="st1 st9 st10">Janet C. Young</text>
			</g>
			<g id="XMLID_7_">
				<text id="XMLID_53_" transform="matrix(1 0 0 1 157.3441 893.949)" class="st11 st12 st13">1425 Red Bud Lane, Tampa, FL 33610</text>
			</g>
			<g id="XMLID_62_">
				<circle id="XMLID_6_" class="st7" cx="95.2" cy="778.7" r="27.9"/>
				<circle id="XMLID_5_" class="st8" cx="95.2" cy="778.7" r="23.5"/>
				<g id="XMLID_63_">
					<path id="XMLID_64_" class="st0" d="M92.6,771.2c0.9,1.4,1.4,3.2,1.4,5.3c0,2.7-0.7,5.1-2,7.2c-1.4,2.1-3.4,3.9-6.2,5.1
						l-0.7-1.4c1.7-0.7,3.1-1.8,4.3-3.3c1.2-1.5,1.8-3,1.8-4.6c0-0.6-0.1-1.2-0.2-1.7c-0.9,0.7-1.8,1-3,1c-1.4,0-2.7-0.5-3.7-1.4
						c-1-0.9-1.5-2.2-1.5-3.7c0-1.4,0.5-2.7,1.5-3.7c1-1,2.2-1.5,3.7-1.5C90,768.6,91.6,769.4,92.6,771.2z M106.3,771.2
						c0.9,1.4,1.4,3.2,1.4,5.3c0,2.7-0.7,5.1-2,7.2c-1.4,2.1-3.4,3.9-6.2,5.1l-0.7-1.4c1.7-0.7,3.1-1.8,4.3-3.3
						c1.2-1.5,1.8-3,1.8-4.6c0-0.6-0.1-1.2-0.2-1.7c-0.9,0.7-1.8,1-3,1c-1.4,0-2.7-0.5-3.7-1.4c-1-0.9-1.5-2.2-1.5-3.7
						c0-1.4,0.5-2.7,1.5-3.7c1-1,2.2-1.5,3.7-1.5C103.6,768.6,105.2,769.4,106.3,771.2z"/>
				</g>
			</g>
			<path id="XMLID_2_" class="st6" d="M899.3,868.9c0,15.5-15.3,28.2-34.1,28.2H616.7v2.2h248.5c20.3,0,36.9-13.6,36.9-30.4v-59.7
				h-2.8V868.9z"/>
		</g>
	</g>
</g>
</svg>
