<?xml version="1.0" encoding="utf-8"?>
<!-- Generator: Adobe Illustrator 19.0.0, SVG Export Plug-In . SVG Version: 6.00 Build 0)  -->
<svg version="1.1" id="Layer_1" xmlns="http://www.w3.org/2000/svg" xmlns:xlink="http://www.w3.org/1999/xlink" x="0px" y="0px"
	 viewBox="0 0 1000 1000" style="enable-background:new 0 0 1000 1000;" xml:space="preserve">
<style type="text/css">
	.st0{fill:#FFFFFF;}
	.st1{fill:#6B9953;}
	.st2{font-family:'Gilroy-Black';}
	.st3{font-size:34.9094px;}
	.st4{font-family:'PlayfairDisplay-Regular';}
	.st5{font-size:16px;}
	.st6{fill:#EBEBE9;}
	.st7{fill:#A7D59C;}
	.st8{fill:none;stroke:#FFFFFF;stroke-width:2;stroke-miterlimit:10;}
	.st9{fill:#282C2E;}
	.st10{font-family:'Gilroy-SemiBold';}
	.st11{font-size:20px;}
	.st12{font-size:22px;}
	.st13{fill:#94C384;}
	.st14{font-family:'Gilroy-Medium';}
	.st15{font-size:15px;}
	.st16{fill:#A7D59C;stroke:#A7D59C;stroke-width:4;stroke-miterlimit:10;}
	.st17{letter-spacing:-1;}
</style>
<rect id="XMLID_74_" x="-0.5" class="st0" width="1001" height="1000"/>
<g id="XMLID_11_">
	<g>
		<rect id="XMLID_73_" x="-0.5" class="st1" width="295.3" height="59.5"/>
		<text id="XMLID_72_" transform="matrix(1 0 0 1 14.1825 39.7519)" class="st0 st2 st3">O B I T U A R I E S</text>
	</g>
	<g>
		<g>
			<text id="XMLID_71_" transform="matrix(1 0 0 1 117.6442 409.7089)"><tspan x="0" y="0" class="st4 st5">f</tspan><tspan x="5.1" y="0" class="st4 st5">o</tspan><tspan x="13.8" y="0" class="st4 st5">r</tspan><tspan x="20.6" y="0" class="st4 st5"> </tspan><tspan x="24.4" y="0" class="st4 st5">them.</tspan></text>
			<g>
				<text id="XMLID_70_" transform="matrix(1 0 0 1 117.6442 371.3094)" class="st4 st5">  </text>
				<g>
					<path id="XMLID_69_" class="st6" d="M72.5,354.4v106.4c0,18.4,14.9,33.3,33.3,33.3h795.5c18.4,0,33.3-14.9,33.3-33.3V336.6
						c0-18.4-14.9-33.3-33.3-33.3H130.1C79.8,303.3,72.5,323.9,72.5,354.4z"/>
					<circle id="XMLID_68_" class="st7" cx="89.7" cy="315" r="27.9"/>
					<circle id="XMLID_67_" class="st8" cx="89.7" cy="315" r="23.5"/>
					<g>
						<path class="st0" d="M87.2,307.4c0.9,1.4,1.4,3.2,1.4,5.3c0,2.7-0.7,5.1-2,7.2c-1.4,2.1-3.4,3.9-6.2,5.1l-0.7-1.4
							c1.7-0.7,3.1-1.8,4.3-3.3c1.2-1.5,1.8-3,1.8-4.6c0-0.6-0.1-1.2-0.2-1.7c-0.9,0.7-1.8,1-3,1c-1.4,0-2.7-0.5-3.7-1.4
							c-1-0.9-1.5-2.2-1.5-3.7c0-1.4,0.5-2.7,1.5-3.7c1-1,2.2-1.5,3.7-1.5C84.5,304.8,86.1,305.7,87.2,307.4z M100.8,307.4
							c0.9,1.4,1.4,3.2,1.4,5.3c0,2.7-0.7,5.1-2,7.2c-1.4,2.1-3.4,3.9-6.2,5.1l-0.7-1.4c1.7-0.7,3.1-1.8,4.3-3.3
							c1.2-1.5,1.8-3,1.8-4.6c0-0.6-0.1-1.2-0.2-1.7c-0.9,0.7-1.8,1-3,1c-1.4,0-2.7-0.5-3.7-1.4c-1-0.9-1.5-2.2-1.5-3.7
							c0-1.4,0.5-2.7,1.5-3.7c1-1,2.2-1.5,3.7-1.5C98.2,304.8,99.8,305.7,100.8,307.4z"/>
					</g>
				</g>
			</g>
			<g id="XMLID_64_">
				<text id="XMLID_40_" transform="matrix(1 0 0 1 137.7038 346.9515)" class="st9 st10 st11">Ella, wherever you are now, I hope you can still feel how much I love and miss you.</text>
			</g>
			<g id="XMLID_63_">
				<text id="XMLID_38_" transform="matrix(1 0 0 1 137.7038 382.4339)"><tspan x="0" y="0" class="st9 st10 st11">You can address your condolence book message directly to the deceased </tspan><tspan x="0" y="24" class="st9 st10 st11">as a way to communicate your love </tspan></text>
			</g>
			<g id="XMLID_62_">
				<text id="XMLID_36_" transform="matrix(1 0 0 1 137.7036 444.3939)" class="st1 st2 st12">David S. Haynes</text>
			</g>
			<g id="XMLID_61_">
				<text id="XMLID_34_" transform="matrix(1 0 0 1 137.7036 462.3685)" class="st13 st14 st15">4266 Hood Avenue, San Diego, CA 92121</text>
			</g>
			<path id="XMLID_60_" class="st16" d="M909.6,438c0,15.5-15.3,28.2-34.1,28.2H627v2.2h248.5c20.3,0,36.9-13.6,36.9-30.4v-89.7
				h-2.8V438z"/>
		</g>
		<g>
			<path id="XMLID_59_" class="st6" d="M72.5,148.4v95.4c0,18.4,14.9,33.3,33.3,33.3h795.5c18.4,0,33.3-14.9,33.3-33.3V130.5
				c0-18.4-14.9-33.3-33.3-33.3H130.1C84.2,97.1,72.5,91,72.5,148.4z"/>
			<g>
				<circle id="XMLID_58_" class="st7" cx="89.7" cy="108.9" r="27.9"/>
				<circle id="XMLID_57_" class="st8" cx="89.7" cy="108.9" r="23.5"/>
				<g>
					<path class="st0" d="M87.2,101.4c0.9,1.4,1.4,3.2,1.4,5.3c0,2.7-0.7,5.1-2,7.2c-1.4,2.1-3.4,3.9-6.2,5.1l-0.7-1.4
						c1.7-0.7,3.1-1.8,4.3-3.3c1.2-1.5,1.8-3,1.8-4.6c0-0.6-0.1-1.2-0.2-1.7c-0.9,0.7-1.8,1-3,1c-1.4,0-2.7-0.5-3.7-1.4
						c-1-0.9-1.5-2.2-1.5-3.7c0-1.4,0.5-2.7,1.5-3.7c1-1,2.2-1.5,3.7-1.5C84.5,98.8,86.1,99.7,87.2,101.4z M100.8,101.4
						c0.9,1.4,1.4,3.2,1.4,5.3c0,2.7-0.7,5.1-2,7.2c-1.4,2.1-3.4,3.9-6.2,5.1l-0.7-1.4c1.7-0.7,3.1-1.8,4.3-3.3
						c1.2-1.5,1.8-3,1.8-4.6c0-0.6-0.1-1.2-0.2-1.7c-0.9,0.7-1.8,1-3,1c-1.4,0-2.7-0.5-3.7-1.4c-1-0.9-1.5-2.2-1.5-3.7
						c0-1.4,0.5-2.7,1.5-3.7c1-1,2.2-1.5,3.7-1.5C98.2,98.8,99.8,99.7,100.8,101.4z"/>
				</g>
			</g>
			<text id="XMLID_54_" transform="matrix(1 0 0 1 137.7038 138.0159)"><tspan x="0" y="0" class="st9 st10 st11">J</tspan><tspan x="10.9" y="0" class="st9 st10 st11">en</tspan><tspan x="34" y="0" class="st9 st10 st11">n</tspan><tspan x="45.3" y="0" class="st9 st10 st11">y</tspan><tspan x="55.1" y="0" class="st9 st10 st11"> </tspan><tspan x="59.2" y="0" class="st9 st10 st11">had</tspan><tspan x="95.9" y="0" class="st9 st10 st11"> </tspan><tspan x="100.5" y="0" class="st9 st10 st11">a</tspan><tspan x="112.9" y="0" class="st9 st10 st11"> </tspan><tspan x="117.5" y="0" class="st9 st10 st11">beautiful</tspan><tspan x="200.7" y="0" class="st9 st10 st11"> </tspan><tspan x="205.3" y="0" class="st9 st10 st11">soul,</tspan><tspan x="247.9" y="0" class="st9 st10 st11"> </tspan><tspan x="252.6" y="0" class="st9 st10 st11">and</tspan><tspan x="289.2" y="0" class="st9 st10 st11"> </tspan><tspan x="293.8" y="0" class="st9 st10 st11">sh</tspan><tspan x="314.5" y="0" class="st9 st10 st11">e</tspan><tspan x="325.9" y="0" class="st9 st10 st11">’ll</tspan><tspan x="340.5" y="0" class="st9 st10 st11"> </tspan><tspan x="345.1" y="0" class="st9 st10 st11">be</tspan><tspan x="369.4" y="0" class="st9 st10 st11"> </tspan><tspan x="373.5" y="0" class="st9 st10 st11">with</tspan><tspan x="412.7" y="0" class="st9 st10 st11"> </tspan><tspan x="417.3" y="0" class="st9 st10 st11">me</tspan><tspan x="446" y="0" class="st9 st10 st11"> </tspan><tspan x="450.6" y="0" class="st9 st10 st11">e</tspan><tspan x="462.2" y="0" class="st9 st10 st11">v</tspan><tspan x="472.5" y="0" class="st9 st10 st11">er</tspan><tspan x="491" y="0" class="st9 st10 st11">y</tspan><tspan x="500.9" y="0" class="st9 st10 st11"> </tspan><tspan x="505.6" y="0" class="st9 st10 st11">d</tspan><tspan x="518.2" y="0" class="st9 st10 st11">a</tspan><tspan x="530.7" y="0" class="st9 st10 st11">y</tspan><tspan x="540.6" y="0" class="st9 st10 st11"> </tspan><tspan x="545.2" y="0" class="st9 st10 st11">of</tspan><tspan x="563.7" y="0" class="st9 st10 st11"> </tspan><tspan x="568.3" y="0" class="st9 st10 st11">m</tspan><tspan x="585.2" y="0" class="st9 st10 st11">y</tspan><tspan x="595.1" y="0" class="st9 st10 st11"> </tspan><tspan x="599.2" y="0" class="st9 st10 st11">li</tspan><tspan x="608.5" y="0" class="st9 st10 st11">f</tspan><tspan x="614.7" y="0" class="st9 st10 st11">e.</tspan><tspan x="631.4" y="0" class="st9 st10 st11"> </tspan><tspan x="0" y="24" class="st9 st10 st11">P</tspan><tspan x="11.6" y="24" class="st9 st10 st11">l</tspan><tspan x="16.1" y="24" class="st9 st10 st11">ease</tspan><tspan x="61.2" y="24" class="st9 st10 st11"> </tspan><tspan x="65.9" y="24" class="st9 st10 st11">accep</tspan><tspan x="124.4" y="24" class="st9 st10 st11">t</tspan><tspan x="131.7" y="24" class="st9 st10 st11"> </tspan><tspan x="136.3" y="24" class="st9 st10 st11">m</tspan><tspan x="153.2" y="24" class="st9 st10 st11">y</tspan><tspan x="163.1" y="24" class="st9 st10 st11"> </tspan><tspan x="167.7" y="24" class="st9 st10 st11">since</tspan><tspan x="215.5" y="24" class="st9 st10 st11">r</tspan><tspan x="222" y="24" class="st9 st10 st11">es</tspan><tspan x="242.8" y="24" class="st9 st10 st11">t</tspan><tspan x="250.1" y="24" class="st9 st10 st11"> </tspan><tspan x="254.8" y="24" class="st9 st10 st11">cond</tspan><tspan x="301.6" y="24" class="st9 st10 st11">ol</tspan><tspan x="317.9" y="24" class="st9 st10 st11">ences </tspan><tspan x="377.6" y="24" class="st9 st10 st11">f</tspan><tspan x="383.8" y="24" class="st9 st10 st11">o</tspan><tspan x="395.8" y="24" class="st9 st10 st11">r</tspan><tspan x="402.2" y="24" class="st9 st10 st11"> </tspan><tspan x="406.7" y="24" class="st9 st10 st11">y</tspan><tspan x="416.9" y="24" class="st9 st10 st11">ou</tspan><tspan x="440.3" y="24" class="st9 st10 st11">r</tspan><tspan x="446.7" y="24" class="st9 st10 st11"> </tspan><tspan x="451.1" y="24" class="st9 st10 st11">l</tspan><tspan x="455.6" y="24" class="st9 st10 st11">oss. </tspan></text>
			<text id="XMLID_53_" transform="matrix(1 0 0 1 137.7037 194.5891)"><tspan x="0" y="0" class="st9 st10 st11 st17">Y</tspan><tspan x="10.9" y="0" class="st9 st10 st11">ou</tspan><tspan x="34.3" y="0" class="st9 st10 st11">r</tspan><tspan x="40.8" y="0" class="st9 st10 st11"> friend</tspan><tspan x="99.4" y="0" class="st9 st10 st11">’</tspan><tspan x="104.5" y="0" class="st9 st10 st11">s famil</tspan><tspan x="164.1" y="0" class="st9 st10 st11">y</tspan><tspan x="174" y="0" class="st9 st10 st11"> be com</tspan><tspan x="248.1" y="0" class="st9 st10 st11">f</tspan><tspan x="254.3" y="0" class="st9 st10 st11">orted</tspan><tspan x="305" y="0" class="st9 st10 st11"> </tspan><tspan x="309.7" y="0" class="st9 st10 st11">to</tspan><tspan x="329.3" y="0" class="st9 st10 st11"> </tspan><tspan x="333.7" y="0" class="st9 st10 st11">kn</tspan><tspan x="355.4" y="0" class="st9 st10 st11">o</tspan><tspan x="367.3" y="0" class="st9 st10 st11">w</tspan><tspan x="382.2" y="0" class="st9 st10 st11"> </tspan><tspan x="386.9" y="0" class="st9 st10 st11">tha</tspan><tspan x="418.6" y="0" class="st9 st10 st11">t</tspan><tspan x="425.9" y="0" class="st9 st10 st11"> </tspan><tspan x="430.3" y="0" class="st9 st10 st11">he</tspan><tspan x="453.3" y="0" class="st9 st10 st11">r</tspan><tspan x="459.8" y="0" class="st9 st10 st11"> spiri</tspan><tspan x="502.8" y="0" class="st9 st10 st11">t</tspan><tspan x="510.1" y="0" class="st9 st10 st11"> </tspan><tspan x="514.5" y="0" class="st9 st10 st11">li</tspan><tspan x="523.8" y="0" class="st9 st10 st11">v</tspan><tspan x="534.1" y="0" class="st9 st10 st11">es on in</tspan><tspan x="604.5" y="0" class="st9 st10 st11"> </tspan><tspan x="609" y="0" class="st9 st10 st11">y</tspan><tspan x="619.2" y="0" class="st9 st10 st11">ou</tspan><tspan x="642.6" y="0" class="st9 st10 st11">r</tspan><tspan x="649" y="0" class="st9 st10 st11"> memor</tspan><tspan x="718.5" y="0" class="st9 st10 st11">y</tspan><tspan x="728" y="0" class="st9 st10 st11">.</tspan></text>
			<g id="XMLID_52_">
				<text id="XMLID_32_" transform="matrix(1 0 0 1 137.7038 229.4886)" class="st1 st2 st12">Janet C. Young</text>
			</g>
			<g id="XMLID_51_">
				<text id="XMLID_30_" transform="matrix(1 0 0 1 137.7039 249.2211)" class="st13 st14 st15">1425 Red Bud Lane, Tampa, FL 33610</text>
			</g>
			<path id="XMLID_50_" class="st16" d="M909.6,221.5c0,15.5-15.3,28.2-34.1,28.2H627v2.2h248.5c20.3,0,36.9-13.6,36.9-30.4v-89.7
				h-2.8V221.5z"/>
		</g>
		<g>
			<g>
				<text id="XMLID_49_" transform="matrix(1 0 0 1 117.6442 588.353)" class="st4 st5">  </text>
				<g>
					<path id="XMLID_48_" class="st6" d="M72.5,571.5v133.4c0,18.4,14.9,33.3,33.3,33.3h795.5c18.4,0,33.3-14.9,33.3-33.3V553.6
						c0-18.4-14.9-33.3-33.3-33.3H130.1C89.7,519.8,72.5,518.3,72.5,571.5z"/>
					<circle id="XMLID_47_" class="st7" cx="89.7" cy="532" r="27.9"/>
					<circle id="XMLID_46_" class="st8" cx="89.7" cy="532" r="23.5"/>
					<g>
						<path class="st0" d="M87.2,524.5c0.9,1.4,1.4,3.2,1.4,5.3c0,2.7-0.7,5.1-2,7.2c-1.4,2.1-3.4,3.9-6.2,5.1l-0.7-1.4
							c1.7-0.7,3.1-1.8,4.3-3.3c1.2-1.5,1.8-3,1.8-4.6c0-0.6-0.1-1.2-0.2-1.7c-0.9,0.7-1.8,1-3,1c-1.4,0-2.7-0.5-3.7-1.4
							c-1-0.9-1.5-2.2-1.5-3.7c0-1.4,0.5-2.7,1.5-3.7c1-1,2.2-1.5,3.7-1.5C84.5,521.9,86.1,522.7,87.2,524.5z M100.8,524.5
							c0.9,1.4,1.4,3.2,1.4,5.3c0,2.7-0.7,5.1-2,7.2c-1.4,2.1-3.4,3.9-6.2,5.1l-0.7-1.4c1.7-0.7,3.1-1.8,4.3-3.3
							c1.2-1.5,1.8-3,1.8-4.6c0-0.6-0.1-1.2-0.2-1.7c-0.9,0.7-1.8,1-3,1c-1.4,0-2.7-0.5-3.7-1.4c-1-0.9-1.5-2.2-1.5-3.7
							c0-1.4,0.5-2.7,1.5-3.7c1-1,2.2-1.5,3.7-1.5C98.2,521.9,99.8,522.7,100.8,524.5z"/>
					</g>
				</g>
			</g>
			<g id="XMLID_43_">
				<text id="XMLID_75_" transform="matrix(1 0 0 1 137.7037 563.3215)"><tspan x="0" y="0" class="st9 st10 st11">From my short time spent with him, I could tell Dave was an amazing man. </tspan><tspan x="0" y="24" class="st9 st10 st11">Please accept my sincere condolences.</tspan></text>
			</g>
			<g id="XMLID_42_">
				<text id="XMLID_77_" transform="matrix(1 0 0 1 137.7037 623.9524)"><tspan x="0" y="0" class="st9 st10 st11">You might have spent a short time with the person, and you can express </tspan><tspan x="0" y="24" class="st9 st10 st11">how much those few moments meant  to you. </tspan></text>
			</g>
			<g id="XMLID_41_">
				<text id="XMLID_79_" transform="matrix(1 0 0 1 137.7037 689.7894)" class="st1 st2 st12">Finn Slater</text>
			</g>
			<g id="XMLID_39_">
				<text id="XMLID_81_" transform="matrix(1 0 0 1 137.7037 707.4974)" class="st13 st14 st15">3991 Beechwood Drive, Clarksville, MD 21029</text>
			</g>
			<path id="XMLID_37_" class="st16" d="M909.6,683.8c0,15.5-15.3,28.2-34.1,28.2H627v2.2h248.5c20.3,0,36.9-13.6,36.9-30.4V574.1
				h-2.8V683.8z"/>
		</g>
		<g>
			<path id="XMLID_10_" class="st6" d="M896.9,919H111.6C90.8,919,74,902.1,74,881.3v-78.6c0-20.8,16.9-37.7,37.7-37.7h785.3
				c20.8,0,37.7,16.9,37.7,37.7v78.6C934.6,902.1,917.7,919,896.9,919z"/>
			<g id="XMLID_9_">
				<text id="XMLID_83_" transform="matrix(1 0 0 1 146.0877 799.0525)" class="st9 st10 st11">It was a joy working with Merideth, and everyone will miss her dearly. </text>
			</g>
			<g id="XMLID_8_">
				<text id="XMLID_85_" transform="matrix(1 0 0 1 146.0867 826.9988)"><tspan x="0" y="0" class="st9 st10 st11">You might phrase your condolence book message this way if the person </tspan><tspan x="0" y="24" class="st9 st10 st11">was your co-worker.</tspan></text>
			</g>
			<g id="XMLID_7_">
				<text id="XMLID_86_" transform="matrix(1 0 0 1 146.0877 885.4626)"><tspan x="0" y="0" class="st1 st2 st12">O</tspan><tspan x="17.2" y="0" class="st1 st2 st12">l</tspan><tspan x="22.9" y="0" class="st1 st2 st12">i</tspan><tspan x="28.6" y="0" class="st1 st2 st12">via </tspan><tspan x="65.1" y="0" class="st1 st2 st12">H</tspan><tspan x="79.6" y="0" class="st1 st2 st12">a</tspan><tspan x="93.1" y="0" class="st1 st2 st12">r</tspan><tspan x="101.2" y="0" class="st1 st2 st12">dy</tspan></text>
			</g>
			<g id="XMLID_6_">
				<text id="XMLID_87_" transform="matrix(1 0 0 1 146.0877 903.4851)" class="st13 st14 st15">1620 Wexford Way, Lexington, SC 29072 </text>
			</g>
			<path id="XMLID_5_" class="st16" d="M909.6,867.8c0,15.7-15.5,28.5-34.5,28.5H623.4v2.3H875c20.6,0,37.4-13.8,37.4-30.8v-77.6
				h-2.8V867.8z"/>
			<g>
				<circle id="XMLID_4_" class="st7" cx="90.1" cy="776.4" r="28.3"/>
				<circle id="XMLID_3_" class="st8" cx="90.1" cy="776.4" r="23.8"/>
				<g>
					<path class="st0" d="M87.5,768.8c0.9,1.5,1.4,3.3,1.4,5.4c0,2.7-0.7,5.2-2.1,7.3c-1.4,2.2-3.5,3.9-6.3,5.2l-0.7-1.5
						c1.7-0.7,3.1-1.8,4.4-3.3c1.2-1.5,1.8-3.1,1.8-4.6c0-0.7-0.1-1.2-0.2-1.7c-0.9,0.7-1.9,1.1-3,1.1c-1.5,0-2.7-0.5-3.7-1.4
						c-1-0.9-1.5-2.2-1.5-3.8c0-1.5,0.5-2.7,1.5-3.7c1-1,2.2-1.5,3.7-1.5C84.8,766.1,86.4,767,87.5,768.8z M101.3,768.8
						c0.9,1.5,1.4,3.3,1.4,5.4c0,2.7-0.7,5.2-2.1,7.3c-1.4,2.2-3.5,3.9-6.3,5.2l-0.7-1.5c1.7-0.7,3.1-1.8,4.4-3.3
						c1.2-1.5,1.8-3.1,1.8-4.6c0-0.7-0.1-1.2-0.2-1.7c-0.9,0.7-1.9,1.1-3,1.1c-1.5,0-2.7-0.5-3.7-1.4c-1-0.9-1.5-2.2-1.5-3.8
						c0-1.5,0.5-2.7,1.5-3.7c1-1,2.2-1.5,3.7-1.5C98.6,766.1,100.2,767,101.3,768.8z"/>
				</g>
			</g>
		</g>
	</g>
</g>
</svg>
