<?xml version="1.0" encoding="utf-8"?>
<!-- Generator: Adobe Illustrator 19.0.0, SVG Export Plug-In . SVG Version: 6.00 Build 0)  -->
<svg version="1.1" id="Layer_1" xmlns="http://www.w3.org/2000/svg" xmlns:xlink="http://www.w3.org/1999/xlink" x="0px" y="0px"
	 viewBox="0 0 1000 1000" style="enable-background:new 0 0 1000 1000;" xml:space="preserve">
<style type="text/css">
	.st0{fill:#FFFFFF;}
	.st1{fill:#6B9953;}
	.st2{font-family:'PlayfairDisplay-Regular';}
	.st3{font-size:15.8026px;}
	.st4{fill:#EBEBE9;}
	.st5{fill:#A7D59C;}
	.st6{fill:none;stroke:#FFFFFF;stroke-width:2;stroke-miterlimit:10;}
	.st7{fill:#282C2F;}
	.st8{font-family:'Gilroy-SemiBold';}
	.st9{font-size:20px;}
	.st10{font-family:'Gilroy-Black';}
	.st11{font-size:22px;}
	.st12{fill:#94C384;}
	.st13{font-family:'Gilroy-Medium';}
	.st14{font-size:15px;}
	.st15{fill:#A7D59C;stroke:#A7D59C;stroke-width:4;stroke-miterlimit:10;}
</style>
<rect id="XMLID_72_" x="-0.5" class="st0" width="1001" height="1000"/>
<rect id="XMLID_44_" x="-0.5" class="st0" width="1001" height="1000"/>
<g id="XMLID_23_">
	<rect id="XMLID_43_" x="917" y="0" class="st1" width="83.5" height="59.5"/>
	<g>
		<g>
			<text id="XMLID_42_" transform="matrix(1 0 0 1 131.5379 184.1061)" class="st2 st3">  </text>
			<g>
				<path id="XMLID_41_" class="st4" d="M87,167.4v76.5c0,18.1,14.7,32.8,32.8,32.8h785.7c18.1,0,32.8-14.7,32.8-32.8v-94.1
					c0-18.1-14.7-32.8-32.8-32.8H143.9C107.4,117,87,123.7,87,167.4z"/>
				<circle id="XMLID_38_" class="st5" cx="104" cy="128.5" r="27.6"/>
				<circle id="XMLID_37_" class="st6" cx="104" cy="128.5" r="23.3"/>
				<g>
					<path class="st0" d="M101.4,121c0.9,1.4,1.3,3.2,1.3,5.2c0,2.6-0.7,5-2,7.1c-1.3,2.1-3.4,3.8-6.2,5.1l-0.7-1.4
						c1.6-0.7,3.1-1.8,4.2-3.3c1.2-1.5,1.8-3,1.8-4.5c0-0.6-0.1-1.2-0.2-1.7c-0.8,0.7-1.8,1-2.9,1c-1.4,0-2.6-0.5-3.6-1.4
						c-1-0.9-1.5-2.2-1.5-3.7c0-1.4,0.5-2.6,1.5-3.6c1-1,2.2-1.5,3.6-1.5C98.8,118.5,100.4,119.3,101.4,121z M114.9,121
						c0.9,1.4,1.3,3.2,1.3,5.2c0,2.6-0.7,5-2,7.1c-1.3,2.1-3.4,3.8-6.2,5.1l-0.7-1.4c1.6-0.7,3.1-1.8,4.2-3.3c1.2-1.5,1.8-3,1.8-4.5
						c0-0.6-0.1-1.2-0.2-1.7c-0.8,0.7-1.8,1-2.9,1c-1.4,0-2.6-0.5-3.6-1.4c-1-0.9-1.5-2.2-1.5-3.7c0-1.4,0.5-2.6,1.5-3.6
						c1-1,2.2-1.5,3.6-1.5C112.3,118.5,113.9,119.3,114.9,121z"/>
				</g>
			</g>
			<g id="XMLID_34_">
				<text id="XMLID_83_" transform="matrix(1 0 0 1 168.5062 161.0709)"><tspan x="0" y="0" class="st7 st8 st9">Thank you for including me in mourning Greg’s loss. I know he was </tspan><tspan x="0" y="24" class="st7 st8 st9">a special person. </tspan></text>
			</g>
			<g id="XMLID_33_">
				<text id="XMLID_81_" transform="matrix(1 0 0 1 168.5067 228.0001)" class="st1 st10 st11">Bailey Pocock</text>
			</g>
			<g id="XMLID_32_">
				<text id="XMLID_79_" transform="matrix(1 0 0 1 168.5067 245.1588)" class="st12 st13 st14">2180 Brooklyn Street, Portland, OR 97205</text>
			</g>
			<path id="XMLID_31_" class="st15" d="M908.4,221.5c0,15.3-15.1,27.8-33.7,27.8H629.3v2.2h245.4c20.1,0,36.4-13.5,36.4-30v-68.8
				h-2.8V221.5z"/>
		</g>
		<g>
			<path id="XMLID_30_" class="st4" d="M900.2,473.8H123.4c-20.6,0-37.3-16.7-37.3-37.3v-95.7c0-20.6,16.7-37.3,37.3-37.3h776.8
				c20.6,0,37.3,16.7,37.3,37.3v95.7C937.4,457.1,920.8,473.8,900.2,473.8z"/>
			<g id="XMLID_29_">
				<text id="XMLID_77_" transform="matrix(1 0 0 1 159.4851 335.7891)"><tspan x="0" y="0" class="st7 st8 st9">I know he will be dearly missed, and I’m sorry I didn’t have the chance </tspan><tspan x="0" y="24" class="st7 st8 st9">to know him better. </tspan></text>
			</g>
			<g id="XMLID_28_">
				<text id="XMLID_76_" transform="matrix(1 0 0 1 159.4851 385.4688)"><tspan x="0" y="0" class="st7 st8 st9">If you wish you’d had the chance to know the person, you can brieﬂy </tspan><tspan x="0" y="24" class="st7 st8 st9">mention that in your note.</tspan></text>
			</g>
			<g id="XMLID_27_">
				<text id="XMLID_74_" transform="matrix(1 0 0 1 159.4851 439.7188)" class="st1 st10 st11">Lisa R. Taylor</text>
			</g>
			<g id="XMLID_26_">
				<text id="XMLID_71_" transform="matrix(1 0 0 1 159.4851 461.0107)" class="st12 st13 st14">4567 Union Street, Seattle, WA 98106</text>
			</g>
			<g>
				<circle id="XMLID_25_" class="st5" cx="104.4" cy="314.7" r="27.9"/>
				<circle id="XMLID_24_" class="st6" cx="104.4" cy="314.7" r="23.6"/>
				<g>
					<path class="st0" d="M101.8,307.1c0.9,1.4,1.4,3.2,1.4,5.3c0,2.7-0.7,5.1-2.1,7.2c-1.4,2.1-3.4,3.9-6.2,5.2l-0.7-1.4
						c1.7-0.7,3.1-1.8,4.3-3.3c1.2-1.5,1.8-3,1.8-4.6c0-0.6-0.1-1.2-0.2-1.7c-0.9,0.7-1.9,1-3,1c-1.4,0-2.7-0.5-3.7-1.4
						c-1-0.9-1.5-2.2-1.5-3.7c0-1.4,0.5-2.7,1.5-3.7c1-1,2.2-1.5,3.7-1.5C99.1,304.5,100.7,305.4,101.8,307.1z M115.5,307.1
						c0.9,1.4,1.4,3.2,1.4,5.3c0,2.7-0.7,5.1-2.1,7.2c-1.4,2.1-3.4,3.9-6.2,5.2l-0.7-1.4c1.7-0.7,3.1-1.8,4.3-3.3
						c1.2-1.5,1.8-3,1.8-4.6c0-0.6-0.1-1.2-0.2-1.7c-0.9,0.7-1.9,1-3,1c-1.4,0-2.7-0.5-3.7-1.4c-1-0.9-1.5-2.2-1.5-3.7
						c0-1.4,0.5-2.7,1.5-3.7c1-1,2.2-1.5,3.7-1.5C112.8,304.5,114.4,305.4,115.5,307.1z"/>
				</g>
			</g>
			<path id="XMLID_20_" class="st15" d="M908.4,420.1c0,15.6-15.3,28.2-34.1,28.2H625.4v2.2h248.9c20.4,0,36.9-13.7,36.9-30.4v-89.8
				h-2.8V420.1z"/>
		</g>
		<g>
			<path id="XMLID_19_" class="st4" d="M901.1,653.6H123.4c-20.6,0-37.3-28.7-37.3-49.3v-62.8c0-20.6,16.7-37.3,37.3-37.3h777.7
				c20.6,0,37.3,16.7,37.3,37.3v74.8C938.4,636.9,921.7,653.6,901.1,653.6z"/>
			<g id="XMLID_18_">
				<text id="XMLID_69_" transform="matrix(1 0 0 1 159.3617 542.4169)"><tspan x="0" y="0" class="st7 st8 st9">Jenny had a beautiful soul, and she’ll be with me every day of my life. </tspan><tspan x="0" y="24" class="st7 st8 st9">Please accept my sincerest condolences for your loss. </tspan></text>
			</g>
			<g id="XMLID_17_">
				<text id="XMLID_67_" transform="matrix(1 0 0 1 159.3617 608.0944)" class="st1 st10 st11">Janet C. Young</text>
			</g>
			<g id="XMLID_16_">
				<text id="XMLID_65_" transform="matrix(1 0 0 1 159.3615 626.8942)" class="st12 st13 st14">1425 Red Bud Lane, Tampa, FL 33610</text>
			</g>
			<g>
				<circle id="XMLID_15_" class="st5" cx="104.3" cy="511.7" r="27.9"/>
				<circle id="XMLID_14_" class="st6" cx="104.3" cy="511.7" r="23.5"/>
				<g>
					<path class="st0" d="M101.7,504.1c0.9,1.4,1.4,3.2,1.4,5.3c0,2.7-0.7,5.1-2,7.2c-1.4,2.1-3.4,3.9-6.2,5.1l-0.7-1.4
						c1.7-0.7,3.1-1.8,4.3-3.3c1.2-1.5,1.8-3,1.8-4.6c0-0.6-0.1-1.2-0.2-1.7c-0.9,0.7-1.8,1-3,1c-1.4,0-2.7-0.5-3.7-1.4
						c-1-0.9-1.5-2.2-1.5-3.7c0-1.4,0.5-2.7,1.5-3.7c1-1,2.2-1.5,3.7-1.5C99.1,501.5,100.7,502.4,101.7,504.1z M115.4,504.1
						c0.9,1.4,1.4,3.2,1.4,5.3c0,2.7-0.7,5.1-2,7.2c-1.4,2.1-3.4,3.9-6.2,5.1l-0.7-1.4c1.7-0.7,3.1-1.8,4.3-3.3
						c1.2-1.5,1.8-3,1.8-4.6c0-0.6-0.1-1.2-0.2-1.7c-0.9,0.7-1.8,1-3,1c-1.4,0-2.7-0.5-3.7-1.4c-1-0.9-1.5-2.2-1.5-3.7
						c0-1.4,0.5-2.7,1.5-3.7c1-1,2.2-1.5,3.7-1.5C112.8,501.5,114.3,502.4,115.4,504.1z"/>
				</g>
			</g>
			<path id="XMLID_11_" class="st15" d="M908.4,601.9c0,15.5-15.3,28.2-34.1,28.2H625.8v2.2h248.5c20.3,0,36.9-13.6,36.9-30.4v-59.7
				h-2.8V601.9z"/>
		</g>
		<g>
			<path id="XMLID_10_" class="st4" d="M901.2,899.1H125.6c-20.5,0-37.2-16.7-37.2-37.2V716.3c0-20.5,16.7-37.2,37.2-37.2h775.6
				c20.5,0,37.2,16.7,37.2,37.2v145.6C938.4,882.4,921.8,899.1,901.2,899.1z"/>
			<path id="XMLID_9_" class="st15" d="M908.4,840.5c0,15.5-15.3,28.2-34.1,28.2H625.8v2.2h248.5c20.3,0,36.9-13.6,36.9-30.4v-89.7
				h-2.8V840.5z"/>
			<g>
				<circle id="XMLID_8_" class="st5" cx="104.3" cy="691.5" r="27.9"/>
				<circle id="XMLID_7_" class="st6" cx="104.3" cy="691.5" r="23.5"/>
				<g>
					<path class="st0" d="M101.7,684c0.9,1.4,1.4,3.2,1.4,5.3c0,2.7-0.7,5.1-2,7.2c-1.4,2.1-3.4,3.9-6.2,5.1l-0.7-1.4
						c1.7-0.7,3.1-1.8,4.3-3.3c1.2-1.5,1.8-3,1.8-4.6c0-0.6-0.1-1.2-0.2-1.7c-0.9,0.7-1.8,1-3,1c-1.4,0-2.7-0.5-3.7-1.4
						c-1-0.9-1.5-2.2-1.5-3.7c0-1.4,0.5-2.7,1.5-3.7c1-1,2.2-1.5,3.7-1.5C99.1,681.4,100.7,682.3,101.7,684z M115.4,684
						c0.9,1.4,1.4,3.2,1.4,5.3c0,2.7-0.7,5.1-2,7.2c-1.4,2.1-3.4,3.9-6.2,5.1l-0.7-1.4c1.7-0.7,3.1-1.8,4.3-3.3
						c1.2-1.5,1.8-3,1.8-4.6c0-0.6-0.1-1.2-0.2-1.7c-0.9,0.7-1.8,1-3,1c-1.4,0-2.7-0.5-3.7-1.4c-1-0.9-1.5-2.2-1.5-3.7
						c0-1.4,0.5-2.7,1.5-3.7c1-1,2.2-1.5,3.7-1.5C112.8,681.4,114.3,682.3,115.4,684z"/>
				</g>
			</g>
			<g id="XMLID_4_">
				<text id="XMLID_63_" transform="matrix(1 0 0 1 159.5812 721.5311)"><tspan x="0" y="0" class="st7 st8 st9">I’m so sorry you’re going through this, and you have my full support, </tspan><tspan x="0" y="24" class="st7 st8 st9">whatever you need. Your husband was an incredible man.</tspan></text>
			</g>
			<g id="XMLID_3_">
				<text id="XMLID_82_" transform="matrix(1 0 0 1 159.5812 781.035)"><tspan x="0" y="0" class="st7 st8 st9">You can add a few words in your condolence book message to let the family </tspan><tspan x="0" y="24" class="st7 st8 st9">know they can rely on you for support. </tspan></text>
			</g>
			<g id="XMLID_2_">
				<text id="XMLID_84_" transform="matrix(1 0 0 1 159.5817 850.5779)" class="st1 st10 st11">Theodore O. Nelson</text>
			</g>
			<g id="XMLID_1_">
				<text id="XMLID_85_" transform="matrix(1 0 0 1 159.5812 869.1531)" class="st12 st13 st14">2836 Terra Cotta Street, Bemidji, MN 56601</text>
			</g>
		</g>
	</g>
</g>
</svg>
