<?xml version="1.0" encoding="utf-8"?>
<!-- Generator: Adobe Illustrator 19.0.0, SVG Export Plug-In . SVG Version: 6.00 Build 0)  -->
<svg version="1.1" id="Layer_1" xmlns="http://www.w3.org/2000/svg" xmlns:xlink="http://www.w3.org/1999/xlink" x="0px" y="0px"
	 viewBox="0 0 1000 1000" style="enable-background:new 0 0 1000 1000;" xml:space="preserve">
<style type="text/css">
	.st0{fill:#FFFFFF;}
	.st1{fill:#6B9953;}
	.st2{fill:#EBEBE9;}
	.st3{fill:#282C2E;}
	.st4{font-family:'Gilroy-SemiBold';}
	.st5{font-size:20px;}
	.st6{font-family:'Gilroy-Black';}
	.st7{font-size:22px;}
	.st8{fill:#94C384;}
	.st9{font-family:'Gilroy-Regular';}
	.st10{font-size:15px;}
	.st11{fill:#A7D59C;}
	.st12{fill:none;stroke:#FFFFFF;stroke-width:2;stroke-miterlimit:10;}
	.st13{fill:#A7D59C;stroke:#A7D59C;stroke-width:4;stroke-miterlimit:10;}
</style>
<rect id="XMLID_71_" x="-0.5" class="st0" width="1001" height="1000"/>
<g>
	<rect id="XMLID_70_" x="917" class="st1" width="83.5" height="59.5"/>
	<g>
		<g>
			<path id="XMLID_69_" class="st2" d="M901.3,497.8H125.7c-20.5,0-37.2-16.7-37.2-37.2V315c0-20.5,16.7-37.2,37.2-37.2h775.6
				c20.5,0,37.2,16.7,37.2,37.2v145.6C938.5,481.1,921.8,497.8,901.3,497.8z"/>
			<g id="XMLID_68_">
				<text id="XMLID_42_" transform="matrix(1 0 0 1 163.3715 320.2712)"><tspan x="0" y="0" class="st3 st4 st5">I know Sebastian was a wonderful son and brother. And I want you to know how </tspan><tspan x="0" y="24" class="st3 st4 st5">wonderful he was as a friend, too. Thank you for raising such an amazing man. </tspan></text>
			</g>
			<g id="XMLID_67_">
				<text id="XMLID_40_" transform="matrix(1 0 0 1 163.3716 380.2311)"><tspan x="0" y="0" class="st3 st4 st5">You have a unique viewpoint of the deceased as their friend. The family would </tspan><tspan x="0" y="24" class="st3 st4 st5">likely enjoy knowing how great a friend their brother, son, or husband was. </tspan></text>
			</g>
			<g id="XMLID_66_">
				<text id="XMLID_38_" transform="matrix(1 0 0 1 163.3716 443.03)" class="st1 st6 st7">George G. Fitzpatrick</text>
			</g>
			<g id="XMLID_65_">
				<text id="XMLID_36_" transform="matrix(1 0 0 1 163.3716 461.8298)" class="st8 st9 st10">2451 Ashwood Drive, Sioux City, IA 51101</text>
			</g>
			<g>
				<circle id="XMLID_64_" class="st11" cx="106.6" cy="285" r="27.9"/>
				<circle id="XMLID_63_" class="st12" cx="106.6" cy="285" r="23.5"/>
				<g>
					<path class="st0" d="M104.1,277.4c0.9,1.4,1.4,3.2,1.4,5.3c0,2.7-0.7,5.1-2,7.2c-1.4,2.1-3.4,3.9-6.2,5.1l-0.7-1.4
						c1.7-0.7,3.1-1.8,4.3-3.3c1.2-1.5,1.8-3,1.8-4.6c0-0.6-0.1-1.2-0.2-1.7c-0.9,0.7-1.8,1-3,1c-1.4,0-2.7-0.5-3.7-1.4
						c-1-0.9-1.5-2.2-1.5-3.7c0-1.4,0.5-2.7,1.5-3.7c1-1,2.2-1.5,3.7-1.5C101.4,274.9,103,275.7,104.1,277.4z M117.7,277.4
						c0.9,1.4,1.4,3.2,1.4,5.3c0,2.7-0.7,5.1-2,7.2c-1.4,2.1-3.4,3.9-6.2,5.1l-0.7-1.4c1.7-0.7,3.1-1.8,4.3-3.3
						c1.2-1.5,1.8-3,1.8-4.6c0-0.6-0.1-1.2-0.2-1.7c-0.9,0.7-1.8,1-3,1c-1.4,0-2.7-0.5-3.7-1.4c-1-0.9-1.5-2.2-1.5-3.7
						c0-1.4,0.5-2.7,1.5-3.7c1-1,2.2-1.5,3.7-1.5C115.1,274.9,116.6,275.7,117.7,277.4z"/>
				</g>
			</g>
			<path id="XMLID_60_" class="st13" d="M912.5,442.2c0,15.5-15.3,28.2-34.1,28.2H629.9v2.2h248.5c20.3,0,36.9-13.6,36.9-30.4v-89.7
				h-2.8V442.2z"/>
		</g>
		<g>
			<path id="XMLID_59_" class="st2" d="M901.3,922.6H127.8c-20.5,0-37.1-16.6-37.1-37.1V740.3c0-20.5,16.6-37.1,37.1-37.1h773.5
				c20.5,0,37.1,16.6,37.1,37.1v145.2C938.5,906,921.8,922.6,901.3,922.6z"/>
			<path id="XMLID_58_" class="st13" d="M912.5,864.3c0,15.5-15.3,28.2-34.1,28.2H629.9v2.2h248.5c20.3,0,36.9-13.6,36.9-30.4v-89.7
				h-2.8V864.3z"/>
			<g>
				<circle id="XMLID_57_" class="st11" cx="106.6" cy="715.3" r="27.9"/>
				<circle id="XMLID_56_" class="st12" cx="106.6" cy="715.3" r="23.5"/>
				<g>
					<path class="st0" d="M104.1,707.8c0.9,1.4,1.4,3.2,1.4,5.3c0,2.7-0.7,5.1-2,7.2c-1.4,2.1-3.4,3.9-6.2,5.1l-0.7-1.4
						c1.7-0.7,3.1-1.8,4.3-3.3c1.2-1.5,1.8-3,1.8-4.6c0-0.6-0.1-1.2-0.2-1.7c-0.9,0.7-1.8,1-3,1c-1.4,0-2.7-0.5-3.7-1.4
						c-1-0.9-1.5-2.2-1.5-3.7c0-1.4,0.5-2.7,1.5-3.7c1-1,2.2-1.5,3.7-1.5C101.4,705.2,103,706.1,104.1,707.8z M117.7,707.8
						c0.9,1.4,1.4,3.2,1.4,5.3c0,2.7-0.7,5.1-2,7.2c-1.4,2.1-3.4,3.9-6.2,5.1l-0.7-1.4c1.7-0.7,3.1-1.8,4.3-3.3
						c1.2-1.5,1.8-3,1.8-4.6c0-0.6-0.1-1.2-0.2-1.7c-0.9,0.7-1.8,1-3,1c-1.4,0-2.7-0.5-3.7-1.4c-1-0.9-1.5-2.2-1.5-3.7
						c0-1.4,0.5-2.7,1.5-3.7c1-1,2.2-1.5,3.7-1.5C115.1,705.2,116.6,706.1,117.7,707.8z"/>
				</g>
			</g>
			<g id="XMLID_53_">
				<text id="XMLID_34_" transform="matrix(1 0 0 1 161.889 745.3292)"><tspan x="0" y="0" class="st3 st4 st5">I’m so sorry you’re going through this, and you have my full support, </tspan><tspan x="0" y="24" class="st3 st4 st5">whatever you need. Your husband was an incredible man.</tspan></text>
			</g>
			<g id="XMLID_52_">
				<text id="XMLID_72_" transform="matrix(1 0 0 1 161.889 804.8331)"><tspan x="0" y="0" class="st3 st4 st5">You can add a few words in your condolence book message to let the family </tspan><tspan x="0" y="24" class="st3 st4 st5">know they can rely on you for support. </tspan></text>
			</g>
			<g id="XMLID_51_">
				<text id="XMLID_74_" transform="matrix(1 0 0 1 161.8895 874.3761)" class="st1 st6 st7">Theodore O. Nelson</text>
			</g>
			<g id="XMLID_50_">
				<text id="XMLID_76_" transform="matrix(1 0 0 1 161.889 892.9513)" class="st8 st9 st10">2836 Terra Cotta Street, Bemidji, MN 56601</text>
			</g>
		</g>
		<g>
			<path id="XMLID_49_" class="st2" d="M901.3,247.1H125.7c-20.5,0-37.2-28.7-37.2-49.2v-62.6c0-20.5,16.7-37.2,37.2-37.2h775.6
				c20.5,0,37.2,16.7,37.2,37.2v74.6C938.5,230.4,921.8,247.1,901.3,247.1z"/>
			<g id="XMLID_48_">
				<text id="XMLID_78_" transform="matrix(1 0 0 1 161.6695 136.0535)"><tspan x="0" y="0" class="st3 st4 st5">Jenny had a beautiful soul, and she’ll be with me every day of my life. </tspan><tspan x="0" y="24" class="st3 st4 st5">Please accept my sincerest condolences for your loss. </tspan></text>
			</g>
			<g id="XMLID_47_">
				<text id="XMLID_80_" transform="matrix(1 0 0 1 161.6694 201.731)" class="st1 st6 st7">Janet C. Young</text>
			</g>
			<g id="XMLID_46_">
				<text id="XMLID_82_" transform="matrix(1 0 0 1 161.6694 220.5308)" class="st8 st9 st10">1425 Red Bud Lane, Tampa, FL 33610</text>
			</g>
			<g>
				<circle id="XMLID_45_" class="st11" cx="106.6" cy="105.3" r="27.9"/>
				<circle id="XMLID_44_" class="st12" cx="106.6" cy="105.3" r="23.5"/>
				<g>
					<path class="st0" d="M104.1,97.7c0.9,1.4,1.4,3.2,1.4,5.3c0,2.7-0.7,5.1-2,7.2c-1.4,2.1-3.4,3.9-6.2,5.1l-0.7-1.4
						c1.7-0.7,3.1-1.8,4.3-3.3c1.2-1.5,1.8-3,1.8-4.6c0-0.6-0.1-1.2-0.2-1.7c-0.9,0.7-1.8,1-3,1c-1.4,0-2.7-0.5-3.7-1.4
						c-1-0.9-1.5-2.2-1.5-3.7c0-1.4,0.5-2.7,1.5-3.7c1-1,2.2-1.5,3.7-1.5C101.4,95.2,103,96,104.1,97.7z M117.7,97.7
						c0.9,1.4,1.4,3.2,1.4,5.3c0,2.7-0.7,5.1-2,7.2c-1.4,2.1-3.4,3.9-6.2,5.1l-0.7-1.4c1.7-0.7,3.1-1.8,4.3-3.3
						c1.2-1.5,1.8-3,1.8-4.6c0-0.6-0.1-1.2-0.2-1.7c-0.9,0.7-1.8,1-3,1c-1.4,0-2.7-0.5-3.7-1.4c-1-0.9-1.5-2.2-1.5-3.7
						c0-1.4,0.5-2.7,1.5-3.7c1-1,2.2-1.5,3.7-1.5C115.1,95.2,116.6,96,117.7,97.7z"/>
				</g>
			</g>
			<path id="XMLID_39_" class="st13" d="M912.5,195.5c0,15.5-15.3,28.2-34.1,28.2H629.9v2.2h248.5c20.3,0,36.9-13.6,36.9-30.4v-59.7
				h-2.8V195.5z"/>
		</g>
		<g>
			<path id="XMLID_10_" class="st2" d="M901.4,677.4H128c-20.5,0-37.1-16.6-37.1-37.1V563c0-20.5,16.6-37.1,37.1-37.1h773.4
				c20.5,0,37.1,16.6,37.1,37.1v77.4C938.5,660.8,921.8,677.4,901.4,677.4z"/>
			<g id="XMLID_9_">
				<text id="XMLID_83_" transform="matrix(1 0 0 1 162.9784 560.6696)" class="st3 st4 st5">It was a joy working with Merideth, and everyone will miss her dearly. </text>
			</g>
			<g id="XMLID_8_">
				<text id="XMLID_84_" transform="matrix(1 0 0 1 162.9774 588.6159)"><tspan x="0" y="0" class="st3 st4 st5">You might phrase your condolence book message this way if the person </tspan><tspan x="0" y="24" class="st3 st4 st5">was your co-worker.</tspan></text>
			</g>
			<g id="XMLID_7_">
				<text id="XMLID_85_" transform="matrix(1 0 0 1 162.9784 643.0798)"><tspan x="0" y="0" class="st1 st6 st7">O</tspan><tspan x="17.2" y="0" class="st1 st6 st7">l</tspan><tspan x="22.9" y="0" class="st1 st6 st7">i</tspan><tspan x="28.6" y="0" class="st1 st6 st7">via </tspan><tspan x="65.1" y="0" class="st1 st6 st7">H</tspan><tspan x="79.6" y="0" class="st1 st6 st7">a</tspan><tspan x="93.1" y="0" class="st1 st6 st7">r</tspan><tspan x="101.2" y="0" class="st1 st6 st7">dy</tspan></text>
			</g>
			<g id="XMLID_6_">
				<text id="XMLID_86_" transform="matrix(1 0 0 1 162.9784 661.1022)" class="st8 st9 st10">1620 Wexford Way, Lexington, SC 29072 </text>
			</g>
			<path id="XMLID_5_" class="st13" d="M912.4,622.4c0,15.7-15.5,28.5-34.5,28.5H626.3v2.3h251.6c20.6,0,37.4-13.8,37.4-30.8v-57.6
				h-2.8V622.4z"/>
			<g>
				<circle id="XMLID_4_" class="st11" cx="107" cy="536" r="28.3"/>
				<circle id="XMLID_3_" class="st12" cx="107" cy="536" r="23.8"/>
				<g>
					<path class="st0" d="M104.4,528.4c0.9,1.5,1.4,3.3,1.4,5.4c0,2.7-0.7,5.2-2.1,7.3c-1.4,2.2-3.5,3.9-6.3,5.2l-0.7-1.5
						c1.7-0.7,3.1-1.8,4.4-3.3c1.2-1.5,1.8-3.1,1.8-4.6c0-0.7-0.1-1.2-0.2-1.7c-0.9,0.7-1.9,1.1-3,1.1c-1.5,0-2.7-0.5-3.7-1.4
						c-1-0.9-1.5-2.2-1.5-3.8c0-1.5,0.5-2.7,1.5-3.7c1-1,2.2-1.5,3.7-1.5C101.7,525.8,103.3,526.6,104.4,528.4z M118.2,528.4
						c0.9,1.5,1.4,3.3,1.4,5.4c0,2.7-0.7,5.2-2.1,7.3c-1.4,2.2-3.5,3.9-6.3,5.2l-0.7-1.5c1.7-0.7,3.1-1.8,4.4-3.3
						c1.2-1.5,1.8-3.1,1.8-4.6c0-0.7-0.1-1.2-0.2-1.7c-0.9,0.7-1.9,1.1-3,1.1c-1.5,0-2.7-0.5-3.7-1.4c-1-0.9-1.5-2.2-1.5-3.8
						c0-1.5,0.5-2.7,1.5-3.7c1-1,2.2-1.5,3.7-1.5C115.5,525.8,117.1,526.6,118.2,528.4z"/>
				</g>
			</g>
		</g>
	</g>
</g>
</svg>
