<?xml version="1.0" encoding="utf-8"?>
<!-- Generator: Adobe Illustrator 19.0.0, SVG Export Plug-In . SVG Version: 6.00 Build 0)  -->
<svg version="1.1" id="Layer_1" xmlns="http://www.w3.org/2000/svg" xmlns:xlink="http://www.w3.org/1999/xlink" x="0px" y="0px"
	 viewBox="0 0 1000 1000" style="enable-background:new 0 0 1000 1000;" xml:space="preserve">
<style type="text/css">
	.st0{fill:#FFFFFF;}
	.st1{fill:#6B9953;}
	.st2{font-family:'Gilroy-Black';}
	.st3{font-size:34.9094px;}
	.st4{fill:#EBEBE9;}
	.st5{fill:#282C2F;}
	.st6{font-family:'Gilroy-SemiBold';}
	.st7{font-size:20px;}
	.st8{font-size:22px;}
	.st9{fill:#94C384;}
	.st10{font-family:'Gilroy-Regular';}
	.st11{font-size:15px;}
	.st12{fill:#A7D59C;stroke:#A7D59C;stroke-width:4;stroke-miterlimit:10;}
	.st13{fill:#A7D59C;}
	.st14{fill:none;stroke:#FFFFFF;stroke-width:2;stroke-miterlimit:10;}
	.st15{font-family:'PlayfairDisplay-Regular';}
	.st16{font-size:16px;}
</style>
<g id="XMLID_2_">
	<rect id="XMLID_126_" x="-0.5" class="st0" width="1001" height="1000"/>
	<g id="XMLID_121_">
		<rect id="XMLID_123_" x="-0.5" class="st1" width="295.3" height="59.5"/>
		<text id="XMLID_122_" transform="matrix(1 0 0 1 14.1825 39.7518)" class="st0 st2 st3">O B I T U A R I E S</text>
	</g>
	<g id="XMLID_3_">
		<g id="XMLID_99_">
			<path id="XMLID_120_" class="st4" d="M904.4,697.7H124.8c-20.7,0-37.4-16.7-37.4-37.4v-93.1c0-20.7,16.7-37.4,37.4-37.4h779.6
				c20.7,0,37.4,16.7,37.4,37.4v93.1C941.8,681,925.1,697.7,904.4,697.7z"/>
			<g id="XMLID_117_">
				<text id="XMLID_78_" transform="matrix(1 0 0 1 163.353 557.6948)"><tspan x="0" y="0" class="st5 st6 st7">I’m honored to attend your beautiful memorial for Joseph. I can tell that </tspan><tspan x="0" y="24" class="st5 st6 st7">he was truly loved.</tspan></text>
			</g>
			<g id="XMLID_114_">
				<text id="XMLID_77_" transform="matrix(1 0 0 1 163.353 609.9653)"><tspan x="0" y="0" class="st5 st6 st7">You may be able to tell, just from the guests at the funeral, how loved and </tspan><tspan x="0" y="24" class="st5 st6 st7">appreciated the departed really was.</tspan></text>
			</g>
			<g id="XMLID_111_">
				<text id="XMLID_75_" transform="matrix(1 0 0 1 163.458 666.0571)" class="st1 st2 st8">Ava J. James</text>
			</g>
			<g id="XMLID_108_">
				<text id="XMLID_73_" transform="matrix(1 0 0 1 163.353 683.8569)" class="st9 st10 st11">4587 Spirit Drive, Hastings, FL 32145</text>
			</g>
			<path id="XMLID_107_" class="st12" d="M909.4,642.7c0,15.5-15.3,28.2-34.1,28.2H626.9v2.2h248.5c20.3,0,36.9-13.6,36.9-30.4V573
				h-2.8V642.7z"/>
			<g id="XMLID_100_">
				<circle id="XMLID_106_" class="st13" cx="103.3" cy="537.9" r="27.9"/>
				<circle id="XMLID_105_" class="st14" cx="103.3" cy="537.9" r="23.5"/>
				<g id="XMLID_101_">
					<path id="XMLID_102_" class="st0" d="M100.8,530.4c0.9,1.4,1.4,3.2,1.4,5.3c0,2.7-0.7,5.1-2,7.2c-1.4,2.1-3.4,3.9-6.2,5.1
						l-0.7-1.4c1.7-0.7,3.1-1.8,4.3-3.3c1.2-1.5,1.8-3,1.8-4.6c0-0.6-0.1-1.2-0.2-1.7c-0.9,0.7-1.8,1-3,1c-1.4,0-2.7-0.5-3.7-1.4
						c-1-0.9-1.5-2.2-1.5-3.7c0-1.4,0.5-2.7,1.5-3.7c1-1,2.2-1.5,3.7-1.5C98.1,527.8,99.7,528.7,100.8,530.4z M114.4,530.4
						c0.9,1.4,1.4,3.2,1.4,5.3c0,2.7-0.7,5.1-2,7.2c-1.4,2.1-3.4,3.9-6.2,5.1l-0.7-1.4c1.7-0.7,3.1-1.8,4.3-3.3
						c1.2-1.5,1.8-3,1.8-4.6c0-0.6-0.1-1.2-0.2-1.7c-0.9,0.7-1.8,1-3,1c-1.4,0-2.7-0.5-3.7-1.4c-1-0.9-1.5-2.2-1.5-3.7
						c0-1.4,0.5-2.7,1.5-3.7c1-1,2.2-1.5,3.7-1.5C111.8,527.8,113.3,528.7,114.4,530.4z"/>
				</g>
			</g>
		</g>
		<g id="XMLID_54_">
			<path id="XMLID_98_" class="st4" d="M904.3,239.8H122.7c-20.7,0-37.5-16.8-37.5-37.5v-66.2c0-20.7,16.8-37.5,37.5-37.5h781.7
				c20.7,0,37.5,16.8,37.5,37.5v66.2C941.8,223,925,239.8,904.3,239.8z"/>
			<g id="XMLID_95_">
				<text id="XMLID_71_" transform="matrix(1 0 0 1 163.3482 137.053)"><tspan x="0" y="0" class="st5 st6 st7">If you truly love the family of the deceased, let them know how much </tspan><tspan x="0" y="24" class="st5 st6 st7">they mean to you in your condolence book message.</tspan></text>
			</g>
			<g id="XMLID_92_">
				<text id="XMLID_69_" transform="matrix(1 0 0 1 163.3482 199.1526)" class="st1 st2 st8">Joe S. Bennett</text>
			</g>
			<g id="XMLID_89_">
				<text id="XMLID_67_" transform="matrix(1 0 0 1 163.3482 217.3148)" class="st9 st10 st11"> 3767 Cardinal Lane, Mattoon, IL 61938</text>
			</g>
			<path id="XMLID_88_" class="st12" d="M909.4,184.7c0,15.6-15.3,28.2-34.1,28.2H626.4v2.2h248.9c20.4,0,36.9-13.7,36.9-30.4v-59.8
				h-2.8V184.7z"/>
			<g id="XMLID_56_">
				<circle id="XMLID_87_" class="st13" cx="103.4" cy="107.9" r="27.9"/>
				<circle id="XMLID_85_" class="st14" cx="103.4" cy="107.9" r="23.6"/>
				<g id="XMLID_58_">
					<path id="XMLID_59_" class="st0" d="M100.8,100.3c0.9,1.4,1.4,3.2,1.4,5.3c0,2.7-0.7,5.1-2.1,7.2c-1.4,2.1-3.4,3.9-6.2,5.2
						l-0.7-1.4c1.7-0.7,3.1-1.8,4.3-3.3c1.2-1.5,1.8-3,1.8-4.6c0-0.6-0.1-1.2-0.2-1.7c-0.9,0.7-1.9,1-3,1c-1.4,0-2.7-0.5-3.7-1.4
						c-1-0.9-1.5-2.2-1.5-3.7c0-1.4,0.5-2.7,1.5-3.7c1-1,2.2-1.5,3.7-1.5C98.1,97.7,99.7,98.6,100.8,100.3z M114.5,100.3
						c0.9,1.4,1.4,3.2,1.4,5.3c0,2.7-0.7,5.1-2.1,7.2c-1.4,2.1-3.4,3.9-6.2,5.2l-0.7-1.4c1.7-0.7,3.1-1.8,4.3-3.3
						c1.2-1.5,1.8-3,1.8-4.6c0-0.6-0.1-1.2-0.2-1.7c-0.9,0.7-1.9,1-3,1c-1.4,0-2.7-0.5-3.7-1.4c-1-0.9-1.5-2.2-1.5-3.7
						c0-1.4,0.5-2.7,1.5-3.7c1-1,2.2-1.5,3.7-1.5C111.8,97.7,113.4,98.6,114.5,100.3z"/>
				</g>
			</g>
		</g>
		<g id="XMLID_27_">
			<text id="XMLID_53_" transform="matrix(1 0 0 1 131.2286 333.1517)" class="st15 st16">  </text>
			<g id="XMLID_43_">
				<path id="XMLID_52_" class="st4" d="M86,316.7V467c0,18.2,14.8,33,33,33h789.7c18.2,0,33-14.8,33-33V299c0-18.2-14.8-33-33-33
					l-765.6,0C106.8,266,86,268.8,86,316.7z"/>
				<circle id="XMLID_51_" class="st13" cx="103.1" cy="277.5" r="27.7"/>
				<circle id="XMLID_50_" class="st14" cx="103.1" cy="277.5" r="23.4"/>
				<g id="XMLID_44_">
					<path id="XMLID_45_" class="st0" d="M100.6,270c0.9,1.4,1.4,3.2,1.4,5.3c0,2.7-0.7,5.1-2,7.2c-1.4,2.1-3.4,3.8-6.2,5.1
						l-0.7-1.4c1.6-0.7,3.1-1.8,4.3-3.3c1.2-1.5,1.8-3,1.8-4.5c0-0.6-0.1-1.2-0.2-1.7c-0.9,0.7-1.8,1-3,1c-1.4,0-2.6-0.5-3.6-1.4
						c-1-0.9-1.5-2.2-1.5-3.7c0-1.4,0.5-2.6,1.5-3.6c1-1,2.2-1.5,3.6-1.5C97.9,267.5,99.5,268.3,100.6,270z M114.1,270
						c0.9,1.4,1.4,3.2,1.4,5.3c0,2.7-0.7,5.1-2,7.2c-1.4,2.1-3.4,3.8-6.2,5.1l-0.7-1.4c1.6-0.7,3.1-1.8,4.3-3.3
						c1.2-1.5,1.8-3,1.8-4.5c0-0.6-0.1-1.2-0.2-1.7c-0.9,0.7-1.8,1-3,1c-1.4,0-2.6-0.5-3.6-1.4c-1-0.9-1.5-2.2-1.5-3.7
						c0-1.4,0.5-2.6,1.5-3.6c1-1,2.2-1.5,3.6-1.5C111.5,267.5,113.1,268.3,114.1,270z"/>
				</g>
			</g>
			<g id="XMLID_40_">
				<text id="XMLID_65_" transform="matrix(1 0 0 1 168.7328 306.8288)"><tspan x="0" y="0" class="st5 st6 st7">I’m so saddened to know the hardship your family is going through, </tspan><tspan x="0" y="24" class="st5 st6 st7">and I want to offer my condolences and support.</tspan></text>
			</g>
			<g id="XMLID_35_">
				<text id="XMLID_63_" transform="matrix(1 0 0 1 168.7328 366.4518)"><tspan x="0" y="0" class="st5 st6 st7">You might not have known the deceased very well, but you might still </tspan><tspan x="0" y="24" class="st5 st6 st7">be close to the family. If so, it’s a good idea to sincerely express </tspan><tspan x="0" y="48" class="st5 st6 st7">your sympathy and support to them. </tspan></text>
			</g>
			<g id="XMLID_32_">
				<text id="XMLID_61_" transform="matrix(1 0 0 1 168.7327 458.5936)" class="st1 st2 st8">Bailey Pocock</text>
			</g>
			<g id="XMLID_29_">
				<text id="XMLID_57_" transform="matrix(1 0 0 1 168.7327 475.9666)" class="st9 st10 st11">2180 Brooklyn Street, Portland, OR 97205</text>
			</g>
			<path id="XMLID_28_" class="st12" d="M909.4,444c0,15.5-15.3,28.2-34.1,28.2H626.9v2.2h248.5c20.3,0,36.9-13.6,36.9-30.4V304.3
				h-2.8V444z"/>
		</g>
		<g id="XMLID_4_">
			<path id="XMLID_26_" class="st4" d="M904.3,920.1H122.7c-20.7,0-37.5-28.9-37.5-49.6V766.1c0-20.7,16.8-37.5,37.5-37.5h781.6
				c20.7,0,37.5,16.8,37.5,37.5v116.5C941.8,903.3,925,920.1,904.3,920.1z"/>
			<g id="XMLID_23_">
				<text id="XMLID_72_" transform="matrix(1 0 0 1 168.7328 767.3945)" class="st5 st6 st7">My heart aches for your loss, and I want to know how much you all mean to me.</text>
			</g>
			<g id="XMLID_20_">
				<text id="XMLID_76_" transform="matrix(1 0 0 1 168.7328 799.6104)"><tspan x="0" y="0" class="st5 st6 st7">If you didn’t know the deceased very well, but they were a member of </tspan><tspan x="0" y="24" class="st5 st6 st7">your extended family, you can focus on expressing condolences </tspan><tspan x="0" y="48" class="st5 st6 st7">for the immediate family.</tspan></text>
			</g>
			<g id="XMLID_17_">
				<text id="XMLID_79_" transform="matrix(1 0 0 1 168.7328 882.9687)" class="st1 st2 st8">Richard T. Evans</text>
			</g>
			<g id="XMLID_14_">
				<text id="XMLID_80_" transform="matrix(1 0 0 1 168.7328 900.9062)" class="st9 st10 st11">1386 Goosetown Drive, Charlotte, NC 28209</text>
			</g>
			<g id="XMLID_6_">
				<circle id="XMLID_12_" class="st13" cx="103.5" cy="735.9" r="28.1"/>
				<circle id="XMLID_11_" class="st14" cx="103.5" cy="735.9" r="23.7"/>
				<g id="XMLID_7_">
					<path id="XMLID_8_" class="st0" d="M100.9,728.2c0.9,1.5,1.4,3.2,1.4,5.3c0,2.7-0.7,5.1-2.1,7.3c-1.4,2.2-3.5,3.9-6.3,5.2
						l-0.7-1.5c1.7-0.7,3.1-1.8,4.3-3.3c1.2-1.5,1.8-3,1.8-4.6c0-0.6-0.1-1.2-0.2-1.7c-0.9,0.7-1.9,1.1-3,1.1
						c-1.5,0-2.7-0.5-3.7-1.4c-1-0.9-1.5-2.2-1.5-3.8c0-1.5,0.5-2.7,1.5-3.7c1-1,2.2-1.5,3.7-1.5C98.3,725.6,99.9,726.5,100.9,728.2
						z M114.7,728.2c0.9,1.5,1.4,3.2,1.4,5.3c0,2.7-0.7,5.1-2.1,7.3c-1.4,2.2-3.5,3.9-6.3,5.2l-0.7-1.5c1.7-0.7,3.1-1.8,4.3-3.3
						c1.2-1.5,1.8-3,1.8-4.6c0-0.6-0.1-1.2-0.2-1.7c-0.9,0.7-1.9,1.1-3,1.1c-1.5,0-2.7-0.5-3.7-1.4c-1-0.9-1.5-2.2-1.5-3.8
						c0-1.5,0.5-2.7,1.5-3.7c1-1,2.2-1.5,3.7-1.5C112,725.6,113.6,726.5,114.7,728.2z"/>
				</g>
			</g>
			<path id="XMLID_5_" class="st12" d="M909.4,863.1c0,15.7-15.4,28.4-34.4,28.4H624.6v2.2h250.4c20.5,0,37.2-13.7,37.2-30.6v-90.4
				h-2.8V863.1z"/>
		</g>
	</g>
</g>
</svg>
