<?xml version="1.0" encoding="utf-8"?>
<!-- Generator: Adobe Illustrator 19.0.0, SVG Export Plug-In . SVG Version: 6.00 Build 0)  -->
<svg version="1.1" id="Layer_1" xmlns="http://www.w3.org/2000/svg" xmlns:xlink="http://www.w3.org/1999/xlink" x="0px" y="0px"
	 viewBox="0 0 1000 1000" style="enable-background:new 0 0 1000 1000;" xml:space="preserve">
<style type="text/css">
	.st0{fill:#FFFFFF;}
	.st1{fill:#6B9953;}
	.st2{font-family:'Gilroy-Black';}
	.st3{font-size:34.9094px;}
	.st4{fill:#EBEBE9;}
	.st5{fill:#A7D59C;stroke:#A7D59C;stroke-width:4;stroke-miterlimit:10;}
	.st6{fill:#A7D59C;}
	.st7{fill:none;stroke:#FFFFFF;stroke-width:2;stroke-miterlimit:10;}
	.st8{fill:#282C30;}
	.st9{font-family:'Gilroy-SemiBold';}
	.st10{font-size:20px;}
	.st11{font-size:22px;}
	.st12{fill:#94C384;}
	.st13{font-family:'Gilroy-Regular';}
	.st14{font-size:15px;}
	.st15{font-family:'PlayfairDisplay-Regular';}
	.st16{font-size:15.8026px;}
	.st17{fill:#282C2E;}
</style>
<rect id="XMLID_149_" x="-0.5" y="0" class="st0" width="1001" height="1000"/>
<g id="XMLID_1_">
	<g id="XMLID_259_">
		<rect id="XMLID_147_" x="-0.5" y="0" class="st1" width="295.3" height="59.5"/>
		<text id="XMLID_146_" transform="matrix(1 0 0 1 14.1825 39.7519)" class="st0 st2 st3">O B I T U A R I E S</text>
	</g>
	<g id="XMLID_52_">
		<g id="XMLID_234_">
			<path id="XMLID_145_" class="st4" d="M886.3,735.5H110.8c-20.5,0-37.2-16.7-37.2-37.2V572.7c0-20.5,16.7-37.2,37.2-37.2h775.5
				c20.5,0,37.2,16.7,37.2,37.2v125.6C923.5,718.9,906.9,735.5,886.3,735.5z"/>
			<path id="XMLID_144_" class="st5" d="M893.4,674.2c0,15.6-15.4,28.3-34.3,28.3h-250v2.2h250c20.5,0,37.1-13.7,37.1-30.6V584h-2.8
				V674.2z"/>
			<g id="XMLID_247_">
				<circle id="XMLID_143_" class="st6" cx="89.6" cy="547.4" r="28.1"/>
				<circle id="XMLID_142_" class="st7" cx="89.6" cy="547.4" r="23.7"/>
				<g id="XMLID_248_">
					<path id="XMLID_250_" class="st0" d="M87,539.8c0.9,1.5,1.4,3.2,1.4,5.3c0,2.7-0.7,5.1-2.1,7.3c-1.4,2.2-3.5,3.9-6.3,5.2
						l-0.7-1.5c1.7-0.7,3.1-1.8,4.3-3.3c1.2-1.5,1.8-3,1.8-4.6c0-0.6-0.1-1.2-0.2-1.7c-0.9,0.7-1.9,1.1-3,1.1
						c-1.5,0-2.7-0.5-3.7-1.4c-1-0.9-1.5-2.2-1.5-3.8c0-1.5,0.5-2.7,1.5-3.7c1-1,2.2-1.5,3.7-1.5C84.4,537.2,86,538.1,87,539.8z
						 M100.8,539.8c0.9,1.5,1.4,3.2,1.4,5.3c0,2.7-0.7,5.1-2.1,7.3c-1.4,2.2-3.5,3.9-6.3,5.2l-0.7-1.5c1.7-0.7,3.1-1.8,4.3-3.3
						c1.2-1.5,1.8-3,1.8-4.6c0-0.6-0.1-1.2-0.2-1.7c-0.9,0.7-1.9,1.1-3,1.1c-1.5,0-2.7-0.5-3.7-1.4c-1-0.9-1.5-2.2-1.5-3.8
						c0-1.5,0.5-2.7,1.5-3.7c1-1,2.2-1.5,3.7-1.5C98.1,537.2,99.7,538.1,100.8,539.8z"/>
				</g>
			</g>
			<g id="XMLID_139_">
				<text id="XMLID_55_" transform="matrix(1 0 0 1 144.7143 572.2894)"><tspan x="0" y="0" class="st8 st9 st10">Kaitlin was the funniest, kindest, and wisest friend I could have ever had. </tspan><tspan x="0" y="24" class="st8 st9 st10">I’m so sorry she’s gone.</tspan></text>
			</g>
			<g id="XMLID_138_">
				<text id="XMLID_53_" transform="matrix(1 0 0 1 144.7143 628.6829)"><tspan x="0" y="0" class="st8 st9 st10">Describe exactly what made your friend so special, and express your sympathy </tspan><tspan x="0" y="24" class="st8 st9 st10">for the family’s loss. </tspan></text>
			</g>
			<g id="XMLID_137_">
				<text id="XMLID_49_" transform="matrix(1 0 0 1 144.7148 689.8558)" class="st1 st2 st11">Pearl C. Ross</text>
			</g>
			<g id="XMLID_136_">
				<text id="XMLID_47_" transform="matrix(1 0 0 1 144.7148 707.8939)" class="st12 st13 st14">253 Hidden Meadow Drive, Minot Air Force Base, ND 58701</text>
			</g>
		</g>
		<g id="XMLID_207_">
			<path id="XMLID_135_" class="st4" d="M884.2,323.5H110.5c-20.5,0-37.1-16.6-37.1-37.1V136.2c0-20.5,16.6-37.1,37.1-37.1h773.7
				c20.5,0,37.1,16.6,37.1,37.1v150.2C921.3,306.9,904.7,323.5,884.2,323.5z"/>
			<g id="XMLID_134_">
				<text id="XMLID_45_" transform="matrix(1 0 0 1 152.3095 140.103)"><tspan x="0" y="0" class="st8 st9 st10">I’m so saddened to know the hardship your family is going through, and I want </tspan><tspan x="0" y="24" class="st8 st9 st10">to offer my condolences and support.</tspan></text>
			</g>
			<g id="XMLID_133_">
				<text id="XMLID_43_" transform="matrix(1 0 0 1 152.3094 195.0024)"><tspan x="0" y="0" class="st8 st9 st10">You might not have known the deceased very well, but you might still be close </tspan><tspan x="0" y="24" class="st8 st9 st10">to the family. If so, it’s a good idea to sincerely express your </tspan><tspan x="0" y="48" class="st8 st9 st10">sympathy and support to them.</tspan></text>
			</g>
			<path id="XMLID_132_" class="st5" d="M893.5,268.6c0,15.4-15.1,27.8-33.7,27.8H614.2v2.2h245.6c20.1,0,36.5-13.5,36.5-30V140.4
				h-2.8V268.6z"/>
			<g id="XMLID_215_">
				<circle id="XMLID_131_" class="st6" cx="89.1" cy="112.4" r="27.6"/>
				<circle id="XMLID_130_" class="st7" cx="89.1" cy="112.4" r="23.3"/>
				<g id="XMLID_216_">
					<path id="XMLID_220_" class="st0" d="M86.6,104.9c0.9,1.4,1.4,3.2,1.4,5.2c0,2.6-0.7,5-2,7.1c-1.4,2.1-3.4,3.8-6.2,5.1L79,121
						c1.6-0.7,3.1-1.8,4.3-3.3c1.2-1.5,1.8-3,1.8-4.5c0-0.6-0.1-1.2-0.2-1.7c-0.8,0.7-1.8,1-2.9,1c-1.4,0-2.6-0.5-3.6-1.4
						c-1-0.9-1.5-2.2-1.5-3.7c0-1.4,0.5-2.6,1.5-3.6c1-1,2.2-1.5,3.6-1.5C84,102.4,85.5,103.2,86.6,104.9z M100.1,104.9
						c0.9,1.4,1.4,3.2,1.4,5.2c0,2.6-0.7,5-2,7.1c-1.4,2.1-3.4,3.8-6.2,5.1l-0.7-1.4c1.6-0.7,3.1-1.8,4.3-3.3c1.2-1.5,1.8-3,1.8-4.5
						c0-0.6-0.1-1.2-0.2-1.7c-0.8,0.7-1.8,1-2.9,1c-1.4,0-2.6-0.5-3.6-1.4c-1-0.9-1.5-2.2-1.5-3.7c0-1.4,0.5-2.6,1.5-3.6
						c1-1,2.2-1.5,3.6-1.5C97.5,102.4,99,103.2,100.1,104.9z"/>
				</g>
			</g>
			<g id="XMLID_127_">
				<text id="XMLID_41_" transform="matrix(1 0 0 1 152.3094 283.728)" class="st1 st2 st11">George G. Fitzpatrick</text>
			</g>
			<g id="XMLID_126_">
				<text id="XMLID_39_" transform="matrix(1 0 0 1 152.3095 300.3354)" class="st12 st13 st14">2451 Ashwood Drive, Sioux City, IA 51101</text>
			</g>
		</g>
		<g id="XMLID_187_">
			<text id="XMLID_125_" transform="matrix(1 0 0 1 116.6714 416.7175)" class="st15 st16">  </text>
			<g id="XMLID_198_">
				<path id="XMLID_124_" class="st4" d="M72.1,400v76.5c0,18.1,14.7,32.8,32.8,32.8h785.7c18.1,0,32.8-14.7,32.8-32.8v-94.1
					c0-18.1-14.7-32.8-32.8-32.8H129C92.5,349.6,72.1,356.3,72.1,400z"/>
				<circle id="XMLID_123_" class="st6" cx="89.1" cy="361.1" r="27.6"/>
				<circle id="XMLID_122_" class="st7" cx="89.1" cy="361.1" r="23.3"/>
				<g id="XMLID_199_">
					<path id="XMLID_200_" class="st0" d="M86.6,353.6c0.9,1.4,1.3,3.2,1.3,5.2c0,2.6-0.7,5-2,7.1c-1.3,2.1-3.4,3.8-6.2,5.1
						l-0.7-1.4c1.6-0.7,3.1-1.8,4.2-3.3c1.2-1.5,1.8-3,1.8-4.5c0-0.6-0.1-1.2-0.2-1.7c-0.8,0.7-1.8,1-2.9,1c-1.4,0-2.6-0.5-3.6-1.4
						c-1-0.9-1.5-2.2-1.5-3.7c0-1.4,0.5-2.6,1.5-3.6c1-1,2.2-1.5,3.6-1.5C84,351.1,85.5,351.9,86.6,353.6z M100.1,353.6
						c0.9,1.4,1.3,3.2,1.3,5.2c0,2.6-0.7,5-2,7.1c-1.3,2.1-3.4,3.8-6.2,5.1l-0.7-1.4c1.6-0.7,3.1-1.8,4.2-3.3c1.2-1.5,1.8-3,1.8-4.5
						c0-0.6-0.1-1.2-0.2-1.7c-0.8,0.7-1.8,1-2.9,1c-1.4,0-2.6-0.5-3.6-1.4c-1-0.9-1.5-2.2-1.5-3.7c0-1.4,0.5-2.6,1.5-3.6
						c1-1,2.2-1.5,3.6-1.5C97.4,351.1,99,351.9,100.1,353.6z"/>
				</g>
			</g>
			<g id="XMLID_119_">
				<text id="XMLID_37_" transform="matrix(1 0 0 1 153.6397 393.6824)"><tspan x="0" y="0" class="st8 st9 st10">Thank you for including me in mourning Greg’s loss. I know he was </tspan><tspan x="0" y="24" class="st8 st9 st10">a special person. </tspan></text>
			</g>
			<g id="XMLID_116_">
				<text id="XMLID_35_" transform="matrix(1 0 0 1 153.6402 460.6116)" class="st1 st2 st11">Bailey Pocock</text>
			</g>
			<g id="XMLID_90_">
				<text id="XMLID_33_" transform="matrix(1 0 0 1 153.6402 477.7703)" class="st12 st13 st14">2180 Brooklyn Street, Portland, OR 97205</text>
			</g>
			<path id="XMLID_86_" class="st5" d="M893.5,454.1c0,15.3-15.1,27.8-33.7,27.8H614.4v2.2h245.4c20.1,0,36.4-13.5,36.4-30v-68.8
				h-2.8V454.1z"/>
		</g>
		<g id="XMLID_61_">
			<path id="XMLID_23_" class="st4" d="M884.2,915.2H110.8c-20.5,0-37.1-16.6-37.1-37.1v-77.4c0-20.5,16.6-37.1,37.1-37.1h773.4
				c20.5,0,37.1,16.6,37.1,37.1v77.4C921.3,898.6,904.7,915.2,884.2,915.2z"/>
			<g id="XMLID_22_">
				<text id="XMLID_31_" transform="matrix(1 0 0 1 145.8041 798.4393)" class="st17 st9 st10">It was a joy working with Merideth, and everyone will miss her dearly. </text>
			</g>
			<g id="XMLID_19_">
				<text id="XMLID_29_" transform="matrix(1 0 0 1 145.8031 826.3856)"><tspan x="0" y="0" class="st17 st9 st10">You might phrase your condolence book message this way if the person </tspan><tspan x="0" y="24" class="st17 st9 st10">was your co-worker.</tspan></text>
			</g>
			<g id="XMLID_16_">
				<text id="XMLID_27_" transform="matrix(1 0 0 1 145.8041 880.8495)"><tspan x="0" y="0" class="st1 st2 st11">O</tspan><tspan x="17.2" y="0" class="st1 st2 st11">l</tspan><tspan x="22.9" y="0" class="st1 st2 st11">i</tspan><tspan x="28.6" y="0" class="st1 st2 st11">via </tspan><tspan x="65.1" y="0" class="st1 st2 st11">H</tspan><tspan x="79.6" y="0" class="st1 st2 st11">a</tspan><tspan x="93.1" y="0" class="st1 st2 st11">r</tspan><tspan x="101.2" y="0" class="st1 st2 st11">dy</tspan></text>
			</g>
			<g id="XMLID_15_">
				<text id="XMLID_25_" transform="matrix(1 0 0 1 145.8041 898.8719)" class="st12 st13 st14">1620 Wexford Way, Lexington, SC 29072 </text>
			</g>
			<path id="XMLID_14_" class="st5" d="M895.3,860.2c0,15.7-15.5,28.5-34.5,28.5H609.2v2.3h251.6c20.6,0,37.4-13.8,37.4-30.8v-57.6
				h-2.8V860.2z"/>
			<g id="XMLID_62_">
				<circle id="XMLID_13_" class="st6" cx="89.8" cy="773.8" r="28.3"/>
				<circle id="XMLID_12_" class="st7" cx="89.8" cy="773.8" r="23.8"/>
				<g id="XMLID_63_">
					<path id="XMLID_64_" class="st0" d="M87.2,766.1c0.9,1.5,1.4,3.3,1.4,5.4c0,2.7-0.7,5.2-2.1,7.3c-1.4,2.2-3.5,3.9-6.3,5.2
						l-0.7-1.5c1.7-0.7,3.1-1.8,4.4-3.3c1.2-1.5,1.8-3.1,1.8-4.6c0-0.7-0.1-1.2-0.2-1.7c-0.9,0.7-1.9,1.1-3,1.1
						c-1.5,0-2.7-0.5-3.7-1.4c-1-0.9-1.5-2.2-1.5-3.8c0-1.5,0.5-2.7,1.5-3.7c1-1,2.2-1.5,3.7-1.5C84.5,763.5,86.1,764.4,87.2,766.1z
						 M101,766.1c0.9,1.5,1.4,3.3,1.4,5.4c0,2.7-0.7,5.2-2.1,7.3c-1.4,2.2-3.5,3.9-6.3,5.2l-0.7-1.5c1.7-0.7,3.1-1.8,4.4-3.3
						c1.2-1.5,1.8-3.1,1.8-4.6c0-0.7-0.1-1.2-0.2-1.7c-0.9,0.7-1.9,1.1-3,1.1c-1.5,0-2.7-0.5-3.7-1.4c-1-0.9-1.5-2.2-1.5-3.8
						c0-1.5,0.5-2.7,1.5-3.7c1-1,2.2-1.5,3.7-1.5C98.3,763.5,99.9,764.4,101,766.1z"/>
				</g>
			</g>
		</g>
	</g>
</g>
</svg>
